<svg width="128" height="142" viewBox="0 0 128 142" xmlns="http://www.w3.org/2000/svg"><title>Casa da Arquitectura</title><g fill="#fff" fill-rule="evenodd"><path d="M.06 113.354h6.276V142H.06v-28.646zM64.904 127.066h-.615V142h6.876l-6.262-14.934M31.2 106.738h6.975V71.476l2.6-7.263h13.994l2.712 7.263H44.687v6.616h6.336v28.646h6.554V142H41.283c.338-.14.668-.3.99-.476.383-.212.752-.45 1.105-.71.19-.14.377-.287.558-.44.276-.236.542-.484.795-.745.217-.224.424-.456.624-.694.194-.234.38-.473.56-.72.237-.328.458-.67.66-1.023.272-.478.503-.978.69-1.496.175-.488.306-.992.39-1.504.135-.84.227-1.685.273-2.534.05-.817.08-1.635.092-2.453.007-.47.01-.943.01-1.415v-21.054h-6.614l-.003 22.497c.01 1.21-.09 2.42-.293 3.614-.127.833-.55 1.595-1.188 2.146-.63.6-1.41 1.024-2.257 1.226-.966.223-1.97.225-2.936.005-.864-.202-1.65-.654-2.257-1.3-.716-.812-1.128-1.847-1.165-2.93-.09-.87-.13-1.744-.12-2.62.005-.337.005-.675 0-1.013-.005-.434-.005-.868 0-1.302v-20.324M94.935 116.004l-4.602 12.105h9.177l-4.575-12.106M102.028 134.737H88.033L85.29 142h19.42l-2.682-7.263M114.114 10.3l-4.73 12.107h9.433L114.114 10.3"/><path d="M70.397 36.214H63.24l-2.79-7.263-6.618-.005-6.617.006-2.79 7.264h6.622l13.22 35.262v6.616h-6.69v28.646h12.82V36.214M77.724 56.542h-.615v14.934h7.236l-6.622-14.934M53.846 10.29l-4.602 12.104h9.177L53.847 10.29"/><path d="M47.762 45.563L43.16 57.67h9.177l-4.575-12.107M70.397 106.738c3.396.145 6.36 2.348 7.476 5.558.452 1.584.665 3.227.63 4.874.035 2-.546 3.96-1.664 5.617-1.27 1.668-3.025 2.902-5.023 3.536L78.503 142l13.18-35.262H70.398M6.736 71.476H17.14v21.968c.017 1.232-.055 2.464-.216 3.686-.104 1.033-.594 1.988-1.373 2.675-.71.627-1.578 1.048-2.51 1.217-1.074.203-2.18.13-3.218-.21-.892-.31-1.66-.894-2.197-1.67-.59-1.113-.888-2.358-.863-3.617-.017-.414-.026-.83-.026-1.244V71.477"/><path d="M14.21 64.6c-1.322.23-2.66.345-4.002.342l-3.543-.004v-22.24l2.665.004c1.068.008 2.134.098 3.188.27.95.15 1.882.407 2.777.76.88.348 1.695.84 2.413 1.454.742.662 1.374 1.437 1.873 2.297.502.87.88 1.806 1.128 2.78.26 1.033.41 2.09.444 3.153.064 1.354-.035 2.71-.294 4.04-.214 1.09-.62 2.2-1.134 3.11-.514.914-1.443 2.01-2.218 2.66-.775.65-2.1 1.202-3.297 1.375zm16.99 6.876l13.225-35.262h-7.158L50.494.94h-25.6c3.696 1.12 6.995 3.275 9.507 6.21l-4.693 4.475c-1.577-1.724-3.495-3.1-5.633-4.04-2.72-1.13-5.738-1.333-8.584-.57-3.188.926-5.845 3.14-7.33 6.11-1.402 3.034-1.6 6.487-.557 9.663.993 3.063 3.265 5.546 6.23 6.806 2.63 1.112 5.546 1.363 8.33.716 2.92-.807 5.54-2.447 7.544-4.72l4.55 4.748c-1.915 1.94-4.107 3.586-6.505 4.882-2.162 1.048-4.508 1.663-6.906 1.81-1.744.136-3.498.083-5.23-.16-1.428-.29-2.875-.475-4.33-.555-.93-.058-1.864-.09-2.797-.098L0 36.214v35.262h23.876l-.002 21.635c.095 2.73-.218 5.456-.928 8.09-.61 2.113-1.77 4.025-3.366 5.538v6.616h-6.69V142h18.588l-.096-.04c-1.716-.723-3.23-1.856-4.406-3.3-.905-1.13-1.525-2.46-1.808-3.88-.37-1.895-.56-3.818-.572-5.747l-.013-22.295H31.2V71.476zM88.26.94h22.413L97.07 36.214h6.976l2.87-7.263h14.387l2.43 6.398h-7.694c-3.433-.096-6.824.765-9.795 2.485-2.798 1.606-5.12 3.926-6.728 6.724-1.632 2.822-2.476 6.03-2.447 9.288-.068 4.88 1.825 9.583 5.257 13.053 2.04 2.172 4.61 3.777 7.457 4.658-1.198.397-2.354.908-3.454 1.526-2.833 1.537-5.195 3.816-6.83 6.592-1.62 2.855-2.445 6.092-2.386 9.373-.174 4.987 1.722 9.823 5.237 13.364 3.715 3.523 8.688 5.407 13.803 5.23h10.857V142h-15.513l-13.192-35.262h-6.62v-6.592H77.06V90.87h14.624v-6.45H77.06v-6.376h14.624v-6.568L84.637 55.8c1.254-.427 2.425-1.065 3.463-1.886.91-.73 1.654-1.646 2.186-2.685.51-1.023.833-2.128.955-3.264.173-1.49.087-2.997-.254-4.457-.34-1.398-.988-2.7-1.9-3.813-.59-.722-1.293-1.343-2.083-1.838-.547-.337-1.13-.61-1.738-.812 2.433-.14 4.742-1.122 6.532-2.775 1.984-1.847 3.076-4.46 3-7.168.014-1.415-.276-2.818-.852-4.11-.73-1.472-1.71-2.806-2.894-3.944-1.512-1.394-3.066-2.745-4.657-4.05-1.733-1.408-3.377-2.92-4.923-4.53-.382-.478-.593-1.068-.6-1.68.022-.63.332-1.218.84-1.593.612-.488 1.38-.74 2.16-.707.754.01 1.493.208 2.148.578.72.406 1.37.923 1.927 1.53.454.483.874.996 1.258 1.535l4.97-4.386-1.11-1.227-.585-.594-.737-.69c-.488-.44-1.004-.85-1.544-1.228-.606-.423-1.255-.78-1.937-1.068"/><path d="M73.378 30.83c.783 1.354 1.78 2.574 2.954 3.61.88.756 1.876 1.365 2.95 1.8-.565-.017-1.13-.025-1.696-.026h-7.19L57.17.94h22.5c-.477.216-.936.473-1.37.767-1.175.798-2.166 1.84-2.904 3.053-.643 1.094-1.02 2.325-1.097 3.592-.084 1.118.066 2.242.44 3.3.662 1.764 1.713 3.357 3.073 4.662 1.06 1.086 2.166 2.123 3.32 3.11 1.042.894 2.097 1.776 3.163 2.645.74.614 1.455 1.26 2.14 1.936.65.59 1.168 1.313 1.52 2.118.295.69.33 1.465.096 2.18-.297.745-.833 1.37-1.523 1.78-.725.44-1.56.662-2.406.64-.863-.002-1.707-.243-2.44-.694-.804-.504-1.508-1.15-2.078-1.908-.503-.652-.952-1.345-1.34-2.072l-5.642 3.404c.234.468.486.926.754 1.375M113.7 56.818h8.007l3.17 4.097c1.407-2.06 2.152-4.503 2.133-7 .065-3.175-1.155-6.243-3.383-8.508-2.11-2.27-5.083-3.542-8.183-3.5-3.114-.073-6.117 1.16-8.28 3.405-2.238 2.313-3.442 5.436-3.334 8.653-.146 3.577 1.413 7.01 4.202 9.253 2.098 1.74 4.743 2.683 7.468 2.66 1.32.01 2.63-.22 3.87-.675.217-.08.43-.166.642-.26l-6.312-8.125M84.74 46.376l-.003.108c.002.532-.1 1.06-.3 1.552-.166.393-.427.74-.76 1.008-.45.334-.968.563-1.518.67-.934.196-1.885.29-2.838.28h-2.296l-.003-3.618.003-3.62h2.296c.953-.01 1.904.085 2.837.282.55.107 1.068.336 1.518.67.332.268.593.615.76 1.008.2.493.3 1.02.3 1.552 0 .036 0 .072.002.108M71.92 116.9c0 .036 0 .072-.003.107.002.532-.1 1.06-.3 1.552-.166.393-.426.74-.758 1.008-.452.334-.97.562-1.52.67-.934.196-1.885.29-2.838.28h-2.295l-.003-3.618.003-3.62h2.295c.953-.01 1.904.085 2.837.28.55.11 1.068.337 1.52.67.33.27.59.616.758 1.01.2.493.3 1.02.3 1.552l.002.108"/></g></svg>