<svg width="440" height="91" viewBox="0 0 440 91" xmlns="http://www.w3.org/2000/svg"><title>egeac-black</title><path d="M80.946 88.346V1.753h46.272v15.224h-29.65v19.73h29.65v14.98h-29.65V73.12h29.65v15.224H80.946zM222.04 45.234c0 7.422-1.33 13.757-4.098 19.36-8.078 16.324-22.532 25.464-40.126 25.464-12.894 0-23.978-5.002-32.772-14.867-7.227-8.157-11.205-18.746-11.205-30.692 0-12.056 4.687-23.014 13.61-31.903C155.883 4.19 166.13.047 178.9.047c18.323 0 32.055 9.257 39.404 26.79H197.94c-4.943-6.207-11.69-9.375-20-9.375-14.703 0-26.272 12.302-26.272 27.526 0 15.593 11.69 27.643 26.753 27.643 10.24 0 19.52-5.965 23.62-15.824h-33.62V42.312h53.494c0 .976.127 1.946.127 2.922zm6.743 43.112V1.753h46.266v15.224h-29.645v19.73h29.643v14.98h-29.644V73.12h29.643v15.224H228.78zm69.642 0h-17.35L314.33 1.753h14.462l32.77 86.593h-17.957L336.863 70.2H305.05l-6.625 18.146zm22.78-62.112l-10.372 27.89h20.49l-10.117-27.89zm98.073 1.222c-4.7-6.464-11.327-9.988-20.12-9.988-6.87 0-13.26 2.67-18.075 7.668-5.18 5.36-7.95 12.547-7.95 19.613 0 16.2 11.806 28.003 26.024 28.003 8.436 0 15.3-3.285 19.52-9.25h20.49c-7.967 17.654-21.335 26.554-39.89 26.554-12.777 0-23.74-5.002-32.412-14.867-7.227-8.158-11.084-18.747-11.084-30.687 0-12.056 4.576-23.02 13.37-31.91C377.34 4.437 387.593.048 399.4.048c18.79 0 31.927 9.017 40.363 27.41h-20.485zM21.37 23.453c.393 1.145.613 2.46.613 3.857 0 .11-.006.222-.006.34 0 1.536-.914 2.897-2.22 3.488-1.683.742-3.857 1.367-6.268 1.747-1.79.292-3.506.41-5.02.38l-2.654 6.317c-.105.217-.307.37-.556.37-.155 0-.3-.06-.403-.16L.364 36.048c-.127-.11-.202-.275-.202-.456 0-.204.075-.385.25-.496L18.356 18.27c.752-.708 1.764-1.14 2.874-1.14 1.157 0 2.215.467 3.002 1.22l3.995 4.11c.104.11.162.256.162.42 0 .34-.274.62-.615.62l-6.406-.047zM51.488 57.73c.26-.3.433-.697.433-1.124 0-.93-.755-1.683-1.663-1.683-.44 0-.82.17-1.104.445-1.19 1.133-2.527 1.788-4.325 1.817-1.694.03-3.232-.637-4.33-1.765-.32-.304-.718-.497-1.18-.497-.51 0-.902.2-1.21.567-1.034 1.08-2.468 1.76-4.063 1.76-1.608 0-3.024-.62-4.048-1.713-.3-.374-.763-.614-1.277-.614-.48 0-.92.205-1.216.532-1.11 1.128-2.625 1.79-4.324 1.79-1.677 0-3.244-.703-4.343-1.825-.318-.304-.717-.497-1.173-.497-.925 0-1.666.754-1.666 1.683 0 .41.185.877.428 1.163 1.515 1.763 3.782 2.874 6.29 2.874 1.782 0 3.493-.514 4.852-1.485.272-.23.642-.363 1.035-.363.422 0 .804.158 1.104.42 1.186.883 2.666 1.427 4.25 1.427 1.654 0 3.157-.56 4.383-1.502.29-.234.63-.374 1.023-.374.393 0 .717.127 1.018.355 1.355.96 3 1.52 4.783 1.52 2.486 0 4.782-1.175 6.326-2.916zm-4.354-47.02c0-.537-.428-.97-.96-.97H21.74c-.538 0-.972.415-.972.953v2.11c0 .53.446 1.005.983 1.005h10.7L30.484 41.52c-3.567-1.004-6.522-3.47-8.124-6.78h-9.71c-.53 0-.924.463-.924.995l-.035 2.554c0 .54.47.99 1.008.99l2.56.01c2.343 8.175 9.807 14.16 18.654 14.16 8.858 0 16.358-6.02 18.693-14.207l2.446-.012c.526 0 .966-.432.966-.963l-.012-2.55c0-.536-.4-.974-.93-.974l-9.518-.006c-1.613 3.43-4.52 5.803-8.198 6.843l-1.885-27.77H46.14c.525 0 .982-.392.982-.924l.012-2.174zm-7.245-2.8c.362 0 .663-.297.663-.67 0-.206-.093-.387-.23-.504l-3.557-2.723 3.58-2.81c.11-.124.195-.305.195-.486 0-.375-.3-.656-.67-.656L30.998.048c-.527 0-.943.467-.943 1l-.035 5.93c0 .533.432.96.964.96l8.904-.024zm6.005 15.476c-.393 1.14-.612 2.46-.612 3.857 0 .117.005.228.005.34 0 1.536.913 2.898 2.22 3.488 1.676.744 3.856 1.37 6.26 1.75 1.8.292 3.51.41 5.014.374l2.66 6.323c.11.222.312.368.56.368.163 0 .307-.058.41-.157l4.488-3.742c.127-.11.208-.28.208-.46 0-.212-.08-.38-.254-.498L48.91 18.205c-.76-.708-1.77-1.14-2.875-1.14-1.162 0-2.208.467-3 1.227l-4.002 4.11c-.098.11-.162.25-.162.42 0 .338.28.613.62.613l6.407-.047zm19.59 66.367l-.024-.053-.022-.03-.036-.01H64.33v-2.625l-.013-.03-.028-.023-.066-.01-.093-.007-.09.006-.065.01-.034.026-.005.03v2.81c0 .058.01.105.04.13l.104.034h1.323l.037-.01.022-.035.023-.053v-.157zm-4.383-.86h-1.047l.52-1.513.527 1.513zm-.237-1.84l-.023-.047-.047-.024-.086-.017h-.238l-.08.017-.036.024-.023.04-1.012 2.818-.016.08.017.054.065.018.11.005.098-.004.075-.018.028-.023.017-.03.243-.736h1.25l.253.742.023.035.035.024.057.007.12.005.11-.005.06-.018.022-.048-.024-.087-1-2.81zm-3.527 1.098c-.03.077-.076.14-.123.2-.057.058-.127.093-.202.13-.08.035-.185.052-.3.052h-.353v-1.215h.364c.07 0 .14 0 .208.01.07.013.14.036.208.077.064.04.122.105.168.187.046.083.07.188.07.31 0 .094-.018.176-.04.25zm.415-.595c-.035-.1-.087-.18-.14-.25-.057-.07-.126-.13-.218-.182-.076-.053-.162-.082-.25-.1-.074-.023-.144-.03-.2-.035-.065-.006-.13-.01-.192-.01h-.636l-.11.04c-.036.03-.053.07-.053.134v2.8l.01.028.03.018.064.018.1.005.098-.004.057-.018.03-.018.017-.03v-1.09h.335c.185 0 .347-.023.48-.07.133-.046.243-.117.34-.198.088-.088.157-.193.21-.31.045-.13.07-.263.07-.41 0-.122-.013-.227-.042-.315zm-4.157-.52l-.012-.03-.034-.023-.058-.01-.093-.007-.098.006-.07.01-.028.026-.012.03v2.915l.012.03.03.018.062.018.104.005.094-.004.058-.018.034-.018.012-.03v-2.915zM51.1 89.492l-.006-.053-.023-.03-.027-.007-.092.047c-.04.024-.092.06-.155.094-.07.035-.14.07-.226.105-.093.03-.197.04-.32.04-.143 0-.26-.024-.38-.077-.11-.046-.203-.122-.28-.222-.08-.1-.142-.22-.177-.367s-.064-.316-.064-.508c0-.2.03-.37.063-.52.046-.152.104-.275.185-.38.075-.11.168-.187.277-.24.116-.058.232-.076.365-.076.126 0 .224.01.317.04.086.03.162.064.225.1.058.04.104.07.145.104l.092.047.033-.016.023-.03.017-.058v-.152l-.01-.053-.02-.034-.045-.046-.105-.087c-.058-.03-.12-.058-.19-.082-.07-.027-.145-.045-.226-.062-.082-.018-.163-.023-.25-.023-.202 0-.38.035-.538.105-.168.07-.3.174-.417.314-.115.135-.208.304-.272.503-.062.193-.097.415-.097.666 0 .246.03.468.093.655.056.187.143.344.253.473.11.125.242.224.4.294.154.065.33.1.524.1.11 0 .22-.012.312-.035.1-.025.18-.048.26-.077.07-.03.128-.065.18-.094l.098-.07.03-.048.016-.034.006-.047v-.157zm-4.36-2.455l-.005-.03-.04-.023-.053-.01-.098-.007-.092.006-.07.01-.035.025-.005.03v2.915l.005.03.035.017.064.018.098.005.098-.005.052-.018.04-.018.007-.03v-2.915zm-2.763.012l-.006-.03-.033-.025-.063-.023h-.185l-.065.023-.035.023-.006.03v2.027c0 .134 0 .263.005.385h-.007c-.035-.07-.07-.146-.104-.216-.04-.076-.077-.152-.117-.222-.035-.076-.07-.146-.11-.234-.04-.07-.08-.152-.127-.234l-.705-1.332-.075-.117-.063-.076-.087-.035-.12-.017h-.192l-.116.04c-.04.03-.052.07-.052.134v2.8l.012.028.03.018.056.018.1.005.09-.004.065-.018.034-.018.005-.03v-1.828c0-.117 0-.234-.006-.356v-.34c.047.094.093.188.14.287.046.093.1.193.144.28l.92 1.72c.028.063.057.11.086.15l.08.094.088.04.11.018h.133l.065-.012.058-.03.04-.052.012-.08v-2.79zm-4.62-.014l-.006-.03-.032-.023-.064-.01-.092-.007-.092.006-.058.01-.04.025-.006.03v1.857c0 .135-.017.258-.052.357-.035.1-.08.188-.145.258-.064.063-.134.116-.226.15-.093.036-.19.054-.312.054-.11 0-.214-.018-.3-.053-.093-.04-.17-.088-.232-.164-.07-.064-.116-.152-.15-.25-.03-.112-.053-.23-.053-.37v-1.84l-.005-.03-.035-.023-.064-.01-.09-.007-.1.006-.057.01-.035.025-.005.03v1.88c0 .188.023.35.08.498.047.14.123.257.22.35.1.094.22.17.354.216.132.054.29.077.45.077.185 0 .34-.03.485-.08.14-.054.26-.13.36-.223.097-.106.172-.223.23-.37.046-.14.075-.308.075-.495v-1.854zm-4.614.13l-.01-.083-.036-.06-.058-.034-.07-.01h-.256l-.104.015-.08.04-.07.077-.05.117-.89 2.19h-.013l-.862-2.197-.046-.11-.077-.077-.098-.04-.127-.018h-.25l-.116.045c-.03.024-.052.07-.052.14v2.788l.012.03.03.018.062.018.093.005.097-.004.064-.018.035-.018.006-.03v-2.64h.006l1.006 2.647.017.028.04.018.06.012.08.005.074-.005.058-.006.04-.025.023-.03 1.053-2.646h.004v2.64l.012.03.035.017.057.018.093.005.1-.005.063-.018.03-.018.01-.03v-2.787zm-8.83 1.728h-1.05l.514-1.513h.005l.532 1.514zm-.247-1.84l-.023-.047-.047-.024-.075-.017h-.235l-.075.017-.047.024-.03.04-1 2.818-.017.08.012.054.063.017.11.005.11-.005.06-.018.035-.024.017-.03.244-.736h1.243l.26.743.016.035.035.024.07.006.115.005.11-.005.064-.018.01-.047-.017-.087-1.006-2.81zm-4.013.97c-.03.064-.064.117-.116.163-.052.047-.115.082-.19.106-.08.03-.168.04-.272.04h-.387v-1.016h.525l.128.03c.13.034.21.092.268.174.052.077.08.18.08.305 0 .07-.01.14-.034.2zm.625 1.87l-.04-.117-.273-.666c-.034-.075-.058-.145-.086-.204-.037-.064-.07-.117-.106-.163l-.11-.123-.133-.08c.087-.03.163-.065.238-.118.068-.04.132-.093.184-.158.046-.058.086-.134.11-.216.03-.076.04-.17.04-.27 0-.104-.01-.197-.04-.29-.03-.083-.076-.16-.14-.23-.057-.063-.132-.116-.22-.163-.086-.04-.19-.076-.305-.093-.036-.006-.088-.012-.14-.018-.052 0-.116-.005-.185-.005h-.642l-.092.04c-.034.016-.05.063-.05.12v2.81l.01.03.03.02.057.017.104.005.092-.005.064-.018.03-.02.01-.03v-1.29h.266c.093 0 .168.01.232.036.063.03.12.07.167.117.053.052.094.105.13.18.033.06.07.14.103.217l.277.714.02.053.033.023.064.018.098.005.104-.005.07-.012.027-.024.005-.03-.005-.057zm-4.823-1h-1.04l.514-1.513h.004l.52 1.514zm-.237-1.84l-.03-.047-.045-.024-.075-.017h-.243l-.07.017-.04.024-.03.04-1.005 2.818-.017.08.012.054.063.017.11.005.098-.005.07-.018.03-.024.022-.03.254-.736h1.238l.26.743.017.035.03.024.068.006.116.005.11-.005.06-.018.03-.047-.03-.087-1-2.81zm-3.602.11l-.017-.08-.03-.06-.06-.035-.062-.01h-.262l-.11.015-.075.04-.07.077-.056.117-.89 2.19h-.006l-.86-2.197-.054-.11-.07-.077-.097-.04-.128-.018h-.244l-.123.045c-.034.024-.052.07-.052.14v2.788l.007.03.036.018.063.018.092.005.098-.004.058-.018.04-.018.006-.03v-2.64l1.012 2.647.017.028.034.018.064.012.08.005.076-.005.058-.006.046-.025.01-.03 1.065-2.646v2.64l.012.03.034.017.056.018.1.005.098-.005.058-.018.03-.018.01-.03v-2.787zm-6.643-1.11l-.064.012-.048.03-.04.028-.515.532-.023.04.006.024.04.02.094.005.104-.006.07-.014.045-.017.035-.03.37-.39.36.4.022.025.04.01.07.013.11.005.086-.006.04-.02.012-.022-.023-.04-.497-.533-.035-.03-.04-.028-.058-.012h-.162zm.55 2.84H6.48l.516-1.513h.006l.52 1.514zm-.238-1.84l-.023-.047-.046-.024-.08-.017h-.238l-.075.017-.04.024-.03.04-1.006 2.818-.01.08.01.054.064.017.11.005.1-.005.07-.018.03-.024.016-.03.248-.736h1.243l.255.743.03.035.023.024.07.006.115.005.115-.005L8.29 90l.024-.047-.023-.087-1.004-2.81zM3.95 89.492l-.013-.053-.017-.03-.03-.007-.09.047c-.048.024-.094.06-.157.094-.07.035-.133.07-.232.105-.08.03-.194.04-.31.04-.144 0-.266-.024-.376-.077-.11-.046-.208-.122-.283-.222-.074-.1-.132-.22-.173-.367-.046-.146-.063-.316-.063-.508 0-.2.023-.37.063-.52.04-.152.1-.275.18-.38.075-.11.167-.187.277-.24.11-.058.232-.076.37-.076.116 0 .22.01.313.04.086.03.16.064.225.1.053.04.11.07.15.104l.088.047.035-.016.017-.03.017-.058.005-.076-.006-.075-.01-.053-.014-.035-.04-.046c-.023-.022-.058-.045-.116-.086-.052-.03-.11-.058-.185-.082-.063-.028-.14-.046-.225-.063-.08-.02-.168-.024-.255-.024-.19 0-.37.035-.532.105-.16.07-.294.175-.415.315-.116.135-.208.304-.272.503-.063.193-.092.415-.092.666 0 .246.024.468.088.655.057.186.144.343.26.472.104.124.237.223.393.293.163.065.33.1.527.1.12 0 .22-.012.318-.035.087-.024.18-.047.25-.076.068-.03.132-.065.184-.094l.09-.07.036-.047.017-.034.006-.048.005-.07-.006-.088zm57.563-13.237h-3.446l1.752-5.09 1.692 5.09zm4.36 4.78l-5.06-14.003h-2.12l-5.05 14.003h2.828l.84-2.478h4.92l.816 2.478h2.828zm-15.98-7c0 2.693-.157 3.342-.684 3.932-.39.45-.99.748-1.73.748s-1.365-.298-1.758-.748c-.52-.59-.653-1.24-.653-3.933 0-2.694.132-3.35.652-3.933.393-.454 1.018-.746 1.758-.746s1.342.292 1.73.748c.526.585.682 1.24.682 3.934zm2.71 0c0-2.42.012-4.174-1.387-5.588-.977-.982-2.157-1.53-3.735-1.53-1.577 0-2.78.548-3.75 1.53-1.406 1.414-1.37 3.167-1.37 5.587s-.036 4.172 1.37 5.587c.97.984 2.173 1.533 3.752 1.533 1.58 0 2.76-.55 3.736-1.53 1.4-1.416 1.387-3.17 1.387-5.588zM37.166 71.08c0 .965-.642 1.613-1.793 1.613H32.73V69.47h2.643c1.15 0 1.793.648 1.793 1.612zm.19 5.786c0 .947-.578 1.73-1.81 1.73H32.73v-3.442h2.818c1.23 0 1.81.765 1.81 1.712zm2.712.135c0-1.87-1.07-2.752-1.913-3.15.705-.327 1.717-1.332 1.717-2.892 0-2.396-1.58-3.928-4.28-3.928H30.02v14.003h5.804c2.47 0 4.244-1.414 4.244-4.032zm-12.598-.09c0-1.246-.33-2.268-1.07-2.976-.584-.55-1.376-.905-2.648-1.08l-1.625-.235c-.578-.083-1.017-.3-1.295-.557-.283-.274-.405-.648-.405-1.005 0-.96.7-1.766 2.145-1.766.914 0 1.96.117 2.834.964l1.717-1.712c-1.19-1.163-2.573-1.63-4.475-1.63-2.995 0-4.828 1.747-4.828 4.248 0 1.175.33 2.08.994 2.753.62.608 1.498.982 2.683 1.163l1.67.234c.65.1.96.233 1.238.49.284.27.417.684.417 1.175 0 1.127-.85 1.735-2.452 1.735-1.278 0-2.47-.298-3.342-1.18l-1.752 1.77c1.36 1.397 2.96 1.847 5.06 1.847 2.902 0 5.134-1.53 5.134-4.244zm-14.883 4.13h2.7V67.033h-2.7v14.01zm-2.197-.005v-2.437H4.1V67.032H1.4v14.003h8.99z" fill="#231F1F"/></svg>