<svg width="180" height="180" viewBox="0 0 180 180" xmlns="http://www.w3.org/2000/svg"><title>ohl-black</title><path d="M41.815 66.557c0 2.314 2.192 3.958 4.383 3.958 2.314 0 4.69-1.46 4.69-3.958V45.37c0-2.13-2.68-3.715-4.567-3.715-1.948 0-4.505 1.462-4.505 3.654v21.247zm4.506-32.634c6.27 0 13.09 4.75 13.09 11.446v21.187c0 7.61-5.966 11.69-13.09 11.69-7.245 0-13.09-3.897-13.09-11.69V45.31c0-6.7 6.82-11.387 13.09-11.387zm27.213 10.594v8.645c0 .365.183.55.487.55 3.957 0 6.697-1.585 6.697-5.176 0-3.35-3.166-4.932-6.27-4.932-.61 0-.914.304-.914.913zm0 18.083v13.7c0 .67-.305.973-.914.973h-6.637c-.67 0-.974-.304-.974-.974V35.93c0-.608.304-.913.973-.913h8.95c8.463 0 14.673 5.296 14.673 13.516 0 8.95-6.33 13.576-15.586 13.576-.304 0-.487.183-.487.488zm41.946-26.668v6.027c0 .67-.306.974-.975.974H103.85c-.61 0-.913.305-.913.913v7.733c0 .304.183.487.487.487h7.67c.61 0 .915.304.915.973v5.724c0 .61-.306.913-.915.913h-7.245c-.61 0-.913.304-.913.913v7.854c0 .61.304.914.913.914h10.655c.67 0 .974.304.974.913v6.03c0 .67-.306.973-.975.973H95.387c-.67 0-.974-.304-.974-.974V35.93c0-.608.304-.913.974-.913h19.118c.67 0 .974.304.974.912zm14.486 20.03c-.122-.303-.426-.486-.79-.486-.61 0-.915.305-.915.913V76.3c0 .67-.304.973-.912.973h-6.027c-.67 0-.974-.304-.974-.974V35.93c0-.608.305-.913.914-.913h4.93c.366 0 .67.182.853.608L137.15 57.24c.122.246.366.367.792.367.608 0 .913-.305.913-.914v-20.76c0-.61.304-.914.914-.914h6.025c.67 0 .974.304.974.912V76.36c0 .61-.365.913-.975.913h-4.443c-.366 0-.67-.183-.853-.61l-10.534-20.7zM40.34 113.35h-4.425c-.446 0-.65-.245-.65-.65V85.79c0-.405.204-.608.65-.608h4.424c.405 0 .608.203.608.61v10.592c0 .406.203.61.61.61h5.113c.406 0 .61-.204.61-.61V85.79c0-.405.202-.608.608-.608h4.424c.446 0 .65.203.65.61v26.907c0 .405-.204.65-.65.65h-4.424c-.406 0-.608-.245-.608-.65v-10.472c0-.406-.204-.61-.61-.61h-5.113c-.406 0-.61.204-.61.61v10.47c0 .407-.202.65-.608.65zm25.974-7.144c0 1.542 1.46 2.638 2.922 2.638 1.542 0 3.125-.974 3.125-2.638V92.082c0-1.42-1.785-2.476-3.043-2.476-1.3 0-3.003.974-3.003 2.436v14.164zm3.003-21.754c4.18 0 8.726 3.166 8.726 7.63v14.124c0 5.073-3.977 7.792-8.726 7.792-4.83 0-8.726-2.597-8.726-7.792V92.042c0-4.465 4.547-7.59 8.727-7.59zm16.68.69h4.425c.446 0 .65.203.65.61v20.13c0 1.338 1.38 2.394 2.76 2.394 1.5 0 2.76-1.015 2.76-2.395V85.75c0-.405.202-.608.608-.608h4.423c.447 0 .65.203.65.61v20.454c0 5.235-4.018 7.792-8.523 7.792s-8.36-2.84-8.36-7.792V85.75c0-.405.203-.608.608-.608zm22.444 22.444c0-.366.245-.528.57-.528h4.26c.448 0 .407.203.61.528.73 1.095 1.664 1.38 2.963 1.38 1.46 0 2.882-.65 2.882-2.314 0-.974-.53-1.542-1.177-2.15l-6.535-6.17c-1.827-1.745-2.922-3.855-2.922-6.412 0-4.546 3.45-7.468 8.24-7.468 3.774 0 7.67 2.84 7.67 6.778 0 .365-.284.528-.608.528h-4.06c-1.176 0-.405-2.192-3.246-2.192-1.38 0-2.476.77-2.476 2.15 0 1.178.69 2.193 1.543 2.964l5.966 5.56c2.19 2.03 3.245 3.814 3.245 6.86 0 4.95-4.18 6.898-8.562 6.898-3.816 0-8.362-2.03-8.362-6.412zm37.95-21.795v4.02c0 .446-.203.648-.65.648h-7.103c-.406 0-.61.204-.61.61v5.153c0 .205.123.326.327.326h5.113c.407 0 .61.203.61.65v3.815c0 .407-.203.61-.61.61h-4.83c-.406 0-.61.202-.61.608v5.236c0 .406.204.608.61.608h7.102c.447 0 .65.204.65.61v4.017c0 .446-.203.65-.65.65h-12.744c-.446 0-.65-.204-.65-.65V85.79c0-.405.204-.608.65-.608h12.743c.447 0 .65.203.65.61zm-96.026 59.58v3.41c0 .446-.203.65-.65.65h-13.84c-.446 0-.65-.204-.65-.65v-26.908c0-.406.204-.61.65-.61h4.424c.406 0 .61.204.61.61v22.28c0 .407.202.61.608.61h8.198c.447 0 .65.203.65.61zm9.578 4.06h-4.384c-.446 0-.65-.204-.65-.65v-26.908c0-.406.204-.61.61-.61h4.424c.447 0 .65.204.65.61v26.908c0 .446-.203.65-.65.65zm4.952-5.764c0-.366.243-.527.568-.527h4.262c.446 0 .405.202.608.526.73 1.096 1.664 1.38 2.963 1.38 1.46 0 2.882-.65 2.882-2.313 0-.974-.528-1.543-1.178-2.15l-6.535-6.17c-1.826-1.745-2.922-3.855-2.922-6.413 0-4.545 3.45-7.467 8.24-7.467 3.773 0 7.67 2.84 7.67 6.777 0 .366-.284.528-.61.528h-4.058c-1.177 0-.406-2.19-3.247-2.19-1.38 0-2.475.77-2.475 2.15 0 1.176.69 2.19 1.542 2.962l5.966 5.56c2.193 2.03 3.248 3.815 3.248 6.86 0 4.95-4.18 6.9-8.564 6.9-3.815 0-8.36-2.03-8.36-6.414zm27.558-6.087c-.407 0-.528.2-.528.648v5.6c0 .366.162.65.568.65h.203c2.394 0 4.26-1.178 4.26-3.41 0-2.19-1.906-3.49-4.26-3.49h-.243zm-.528-10.757v5.358c0 .407-.08.61.324.61h.853c2.355 0 3.776-1.3 3.776-3.33 0-2.272-1.624-3.287-4.222-3.287h-.365c-.447 0-.366.204-.366.65zm11.04 14.57c0 4.343-2.8 8.037-7.428 8.037H86.81c-.446 0-.65-.204-.65-.65v-26.908c0-.406.204-.61.65-.61h8.28c4.423 0 7.387 3.532 7.387 7.794 0 2.475-.854 4.262-2.192 5.722-.122.122-.163.243-.163.406 0 .163.04.324.203.446 1.786 1.623 2.638 3.572 2.638 5.763zm10.064.893c0 1.543 1.46 2.64 2.923 2.64 1.543 0 3.126-.976 3.126-2.64v-14.123c0-1.42-1.786-2.477-3.045-2.477-1.297 0-3.002.975-3.002 2.436v14.164zm3.003-21.753c4.182 0 8.728 3.165 8.728 7.63v14.123c0 5.073-3.978 7.793-8.727 7.793-4.828 0-8.724-2.6-8.724-7.794v-14.164c0-4.465 4.545-7.59 8.725-7.59zm21.838 12.216c-.367 0-.61.16-.69.486l-1.584 6.17c-.08.283-.08.486 0 .648.123.243.162.365.447.365h3.248c.243 0 .447-.123.608-.325.122-.203.122-.447.04-.73l-1.38-6.13c-.08-.324-.323-.486-.688-.486zm4.748 16.68c-.285 0-.365-.082-.448-.244l-1.014-3.856c-.08-.284-.324-.405-.69-.405h-5.153c-.325 0-.568.12-.65.446l-.973 3.816c-.04.162-.162.244-.447.244h-4.87c-.406 0-.608-.204-.446-.772l7.224-27.11c.04-.204.163-.285.446-.285h4.384c.283 0 .406.08.445.284l7.347 27.274v.244c0 .244-.12.366-.487.366h-4.667zm30.46 30.57c1.486 0 2.43-.157 3.462-.692 2.08-1.022 3.462-3.096 3.462-6.23V6.922c0-1.486-.157-2.43-.692-3.46-1.02-2.08-3.096-3.463-6.23-3.463H6.922c-1.485 0-2.428.157-3.46.692C1.382 1.712 0 3.787 0 6.922v166.155c0 1.485.157 2.428.692 3.46 1.02 2.08 3.095 3.463 6.23 3.463h50.54v-11.077H11.077V11.077h157.846v157.846h-46.385V180h50.54z" fill="#000" fill-rule="evenodd"/></svg>