<svg width="180" height="170" viewBox="0 0 180 170" xmlns="http://www.w3.org/2000/svg"><title>ohp-greenbg</title><g fill="#FFF" fill-rule="evenodd"><path d="M179.347 94.625H158.47c-1.502 0-2.723-1.22-2.723-2.722 0-1.504 1.22-2.724 2.724-2.724h15.43V73.756c0-1.504 1.22-2.723 2.723-2.723 1.504 0 2.724 1.22 2.724 2.723v20.868" fill-opacity=".5"/><path d="M132.33 19.397L117.77 4.844c-1.064-1.064-1.064-2.786 0-3.852 1.063-1.062 2.788-1.062 3.85 0l10.71 10.705L143.033.992c1.064-1.062 2.79-1.062 3.853 0 1.063 1.066 1.063 2.788 0 3.852L132.33 19.397M21.186 135.882H.31v-20.868c0-1.504 1.22-2.722 2.725-2.722 1.503 0 2.723 1.218 2.723 2.722v15.422h15.428c1.504 0 2.722 1.22 2.722 2.724 0 1.502-1.218 2.722-2.722 2.722"/><path d="M60.268 169.083H39.392c-1.504 0-2.724-1.22-2.724-2.723s1.22-2.723 2.724-2.723h15.43v-15.423c0-1.503 1.218-2.723 2.723-2.723s2.723 1.22 2.723 2.724v20.87M21.186 53.37c-1.505 0-2.723-1.22-2.723-2.722V35.224H3.033c-1.505 0-2.725-1.22-2.725-2.723 0-1.5 1.22-2.72 2.725-2.72h20.875v20.868c0 1.502-1.218 2.722-2.722 2.722" fill-opacity=".5"/><path d="M119.34 164.69c-.697 0-1.394-.265-1.927-.796-1.063-1.063-1.063-2.787 0-3.85l14.557-14.553 14.56 14.554c1.062 1.063 1.062 2.787 0 3.85-1.065 1.065-2.79 1.065-3.854 0L131.97 153.19l-10.705 10.704c-.532.53-1.23.797-1.926.797M151.478 115.497c0-1.84.88-3.838 3.558-3.838 2.76 0 3.6 1.96 3.6 3.758v12.394c0 1.84-.88 3.84-3.558 3.84-2.76 0-3.6-1.96-3.6-3.76v-12.395zm12.8 12.155v-12.315c0-4.398-2.72-8.235-9.242-8.235-6.517 0-9.198 4.157-9.198 8.557v12.31c0 4.4 2.72 8.238 9.24 8.238s9.2-4.158 9.2-8.556zm-29.246 7.277v-21.99c0-.4.2-.6.6-.6h5.4c.4 0 .64-.2.64-.64v-3.32c0-.4-.24-.6-.64-.6h-17.598c-.44 0-.64.2-.64.6v3.32c0 .44.2.64.64.64h5.4c.4 0 .6.2.6.6v21.99c0 .44.2.64.64.64h4.32c.397 0 .638-.2.638-.64zm-25.905-22.55c1.88 0 3.92 1.118 3.92 4.317 0 3.28-1.6 4.16-3.64 4.318h-2.08c-.6 0-.68-.4-.68-.64v-7.356c0-.4.16-.64.64-.64h1.84zm10.36 22.59c0-.12-.08-.242-.12-.36l-3.68-9.756c-.082-.16-.082-.32-.082-.48.042-.2.122-.4.242-.52 1.56-1.28 2.92-3.48 2.92-7.396 0-6.078-4-8.677-9.52-8.677h-7.56c-.4 0-.64.2-.64.6v26.55c0 .4.24.64.64.64h4.36c.4 0 .6-.24.6-.64v-8.598c0-.238.08-.68.72-.72h2.16c.48 0 .76.28.88.64l3.16 8.836c.12.28.4.48.6.48h4.72c.4 0 .6-.2.6-.6zm-36.532-19.473c0-1.84.88-3.838 3.56-3.838 2.758 0 3.598 1.96 3.598 3.758v12.394c0 1.84-.88 3.84-3.56 3.84-2.76 0-3.598-1.96-3.598-3.76v-12.395zm12.798 12.155v-12.315c0-4.398-2.72-8.235-9.24-8.235s-9.198 4.157-9.198 8.557v12.31c0 4.4 2.72 8.238 9.238 8.238 6.52 0 9.2-4.158 9.2-8.556zm-34.718-2.04h2.04c5.68 0 9.44-2.518 9.44-8.915 0-6.196-3.96-8.916-9.518-8.916h-7.6c-.44 0-.64.2-.64.6v26.55c0 .44.2.64.64.64h4.36c.4 0 .6-.2.6-.64v-8.598c0-.52.28-.72.678-.72zm1.84-13.273c1.88 0 3.92 1.158 3.92 4.357 0 3.28-1.6 4.2-3.638 4.358h-2.2c-.48 0-.6-.4-.6-.64v-7.437c0-.4.16-.64.64-.64h1.88zM132.98 57.52c.12.28.32.398.56.398h3.72c.4 0 .64-.2.64-.6V30.732c0-.398-.2-.6-.64-.6h-3.96c-.398 0-.6.202-.6.6v11.635c0 .4-.2.6-.6.6-.28 0-.48-.16-.56-.36l-6.278-12.073c-.12-.28-.32-.4-.56-.4h-4.04c-.4 0-.6.2-.6.6v26.547c0 .438.2.638.64.638h3.96c.4 0 .6-.2.6-.64V45.366c0-.4.24-.6.6-.6.24 0 .4.08.52.32l6.598 12.435zm-18.545-27.39h-12.56c-.44 0-.64.202-.64.6v26.55c0 .438.2.638.64.638h12.56c.44 0 .64-.2.64-.64V53.92c0-.4-.2-.6-.64-.6h-7c-.4 0-.6-.2-.6-.6v-5.756c0-.4.2-.6.6-.6h5.96c.4 0 .6-.2.6-.6v-3.318c0-.44-.2-.64-.6-.64h-6c-.2 0-.56-.16-.56-.56V35.29c0-.4.2-.6.6-.6h7c.44 0 .64-.2.64-.64v-3.32c0-.398-.2-.6-.64-.6zM84.77 47.964h2.04c5.68 0 9.438-2.518 9.438-8.916 0-6.197-3.96-8.916-9.52-8.916H79.13c-.44 0-.64.202-.64.6v26.55c0 .438.2.638.64.638h4.36c.4 0 .6-.2.6-.64v-8.594c0-.52.28-.72.68-.72zm1.84-13.274c1.88 0 3.92 1.16 3.92 4.357 0 3.28-1.6 4.198-3.64 4.358h-2.2c-.48 0-.6-.398-.6-.64V35.33c0-.4.16-.64.64-.64h1.88zm-26.214 3.158c0-1.84.88-3.838 3.56-3.838 2.76 0 3.6 1.96 3.6 3.758v12.394c0 1.84-.88 3.84-3.56 3.84-2.76 0-3.6-1.96-3.6-3.76V37.848zm12.8 12.154V37.688c0-4.398-2.72-8.236-9.24-8.236-6.518 0-9.2 4.157-9.2 8.555v12.315c0 4.398 2.72 8.236 9.24 8.236s9.2-4.158 9.2-8.556zM113.04 68.957h-12.56c-.438 0-.64.2-.64.6v26.547c0 .44.202.64.64.64h12.56c.44 0 .64-.2.64-.64v-3.358c0-.4-.2-.6-.64-.6h-7c-.4 0-.6-.2-.6-.6V85.79c0-.4.2-.6.6-.6H112c.4 0 .6-.2.6-.6v-3.32c0-.438-.2-.64-.6-.64h-6c-.2 0-.56-.158-.56-.56v-5.956c0-.4.2-.6.6-.6h7c.44 0 .64-.2.64-.64v-3.318c0-.4-.2-.6-.64-.6zM86.163 97.384c5.52 0 8.878-2.32 8.878-7.598 0-3.358-1.32-5.076-3.718-6.716l-7.04-4.838c-.96-.64-1.56-1.08-1.56-2.638 0-1.36.8-2.76 3.202-2.76 2.358 0 3.198 1.8 3.198 2.68 0 .48.32.76.72.76h4.28c.32 0 .6-.16.6-.52 0-4.358-3.12-7.477-8.84-7.477-4.798 0-8.6 2.76-8.6 7.637 0 3.718 1.882 5.597 3.84 6.957l7.2 4.878c.722.48 1.16 1.238 1.16 2.2 0 2.318-1.52 2.917-3.32 2.917-1.68 0-3.278-.88-3.598-2.838-.04-.36-.162-.6-.6-.6h-4.48c-.32 0-.56.16-.56.52 0 4.718 3.88 7.437 9.24 7.437zM72.125 69.556c0-.4-.2-.6-.6-.6h-4.36c-.44 0-.64.2-.64.6v19.79c0 1.72-.72 3.48-3.28 3.48-2.48 0-3.358-1.76-3.358-3.48v-19.79c0-.4-.2-.6-.642-.6h-4.36c-.4 0-.6.2-.6.6v20.15c0 4.88 3.32 7.678 8.96 7.678 5.64 0 8.88-2.8 8.88-7.677v-20.15zM36.23 76.673c0-1.84.878-3.838 3.558-3.838 2.76 0 3.6 1.96 3.6 3.758v12.393c0 1.84-.88 3.84-3.56 3.84-2.76 0-3.598-1.96-3.598-3.758V76.673zm12.798 12.154V76.513c0-4.398-2.72-8.236-9.24-8.236s-9.2 4.158-9.2 8.556v12.314c0 4.398 2.72 8.237 9.24 8.237s9.2-4.16 9.2-8.557zm-35.973 7.277V85.79c0-.4.2-.6.6-.6h5.44c.4 0 .6.2.6.6v10.314c0 .4.2.64.6.64h4.358c.442 0 .64-.24.64-.64V69.556c0-.4-.198-.6-.64-.6h-4.358c-.4 0-.6.2-.6.6V80.03c0 .4-.2.6-.6.6h-5.44c-.4 0-.6-.2-.6-.6V69.557c0-.4-.2-.6-.6-.6h-4.36c-.44 0-.64.2-.64.6v26.548c0 .4.2.64.64.64h4.36c.4 0 .6-.24.6-.64z"/></g></svg>