<svg width="1024" height="200" viewBox="0 0 1024 200" xmlns="http://www.w3.org/2000/svg"><title>Open House Worldwide</title><path d="M34.985 57.193c-15.71 0-24.29 12.21-24.29 34.498 0 22.29 8.358 33.825 24.513 33.825 15.822 0 24.29-12.208 24.29-35.056 0-21.73-8.468-33.267-24.513-33.267zm.557 75.042C12.924 132.235 0 118.01 0 93.26c0-26.77 13.036-42.786 34.763-42.786 22.395 0 35.43 14.224 35.43 38.977 0 26.77-13.035 42.785-34.65 42.785zm64.476-51.968c-3.788 0-7.91.448-11.142 1.343v42.113c2.563.672 6.35 1.12 9.583 1.12 12.7 0 20.054-8.4 20.054-23.072 0-13.663-6.685-21.503-18.496-21.503zm1.45 51.296c-4.235 0-8.803-1.008-12.592-2.8v27.442h-9.47v-82.21h9.248v3.47c.446-.223.89-.335 1.114-.446 9.248-3.362 12.257-4.146 15.6-4.146 14.15 0 23.508 11.09 23.508 28 0 17.585-11.7 30.69-27.41 30.69zm56.964-52.64c-9.135 0-14.15 6.27-14.26 17.808h27.074c0-12.767-3.677-17.807-12.814-17.807zm-14.26 23.52c.11.336.11.672.11.784v2.016c.223 13.44 6.463 19.376 20.39 19.376 3.79 0 7.91-.337 14.485-1.233v5.376c-9.694 2.24-15.265 3.136-19.276 3.136-16.823 0-25.96-9.745-25.96-27.777 0-19.488 9.583-31.137 25.404-31.137 11.03 0 18.272 5.264 20.947 15.457 1.004 3.472 1.338 6.832 1.45 14h-37.55zm81.054 28.448V96.508c0-12.544-3.12-16.353-13.26-16.353-4.01 0-8.355.56-13.146 1.792v48.945h-9.47V73.995h9.247v3.584c10.473-3.92 13.927-4.816 18.607-4.816 5.46 0 10.808 2.24 13.593 5.6 2.786 3.473 3.9 7.84 3.9 16.13v36.4h-9.47m81.864 0V93.37h-38.996v37.52h-9.916V51.817h9.916v34.72h38.997V51.82h9.917v79.073h-9.916m46.014-52.304c-9.805 0-15.822 8.85-15.822 23.52 0 16.13 5.348 24.193 16.156 24.193 10.028 0 15.822-8.85 15.822-24.305 0-15.232-5.572-23.41-16.156-23.41zm-.223 53.538c-15.932 0-25.96-10.977-25.96-28.45 0-19.487 9.917-30.912 26.74-30.912 16.045 0 25.962 10.976 25.962 28.897 0 19.04-10.03 30.464-26.74 30.464zm70.728-1.233v-3.583c-10.028 3.808-13.816 4.817-18.607 4.817-5.458 0-10.806-2.24-13.592-5.6-2.897-3.473-3.9-7.84-3.9-16.13v-36.4h9.47v34.385c0 12.543 3.12 16.352 13.26 16.352 4.01 0 8.467-.56 13.147-1.793V73.993h9.47v56.897h-9.247m32.867 1.01c-3.676 0-8.69-.897-15.71-2.913v-6.16c6.35 1.68 10.473 2.24 15.6 2.24 7.352 0 11.25-3.136 11.25-8.848 0-3.36-1.558-5.6-5.012-7.505l-10.473-5.376c-7.242-3.697-10.474-8.29-10.474-14.785 0-9.408 7.13-15.57 17.938-15.57 3.79 0 7.466.673 14.485 2.8v6.05c-4.903-1.457-9.137-2.13-13.26-2.13-6.796 0-10.25 2.577-10.25 7.394 0 3.583 1.67 5.6 6.907 8.287l10.586 5.712c5.905 3.135 8.58 7.39 8.58 13.775 0 10.416-7.912 17.024-20.168 17.024m49.413-52.977c-9.136 0-14.15 6.27-14.262 17.808H518.7c0-12.767-3.676-17.807-12.812-17.807zm-14.262 23.52c.112.336.112.672.112.784v2.016c.223 13.44 6.462 19.376 20.39 19.376 3.788 0 7.91-.337 14.485-1.233v5.376c-9.695 2.24-15.265 3.136-19.276 3.136-16.825 0-25.96-9.745-25.96-27.777 0-19.488 9.58-31.137 25.403-31.137 11.03 0 18.272 5.264 20.947 15.457 1.005 3.472 1.333 6.832 1.45 14h-37.55zM622.52 130.89h-10.477L593.88 63.243l-17.71 67.65h-10.813l-21.722-79.074h10.58l17.164 68.32 18.16-68.32h10.138l18.16 68.32 17.493-68.32h8.914L622.52 130.89m47.124-52.304c-9.802 0-15.817 8.85-15.817 23.52 0 16.13 5.346 24.193 16.152 24.193 10.027 0 15.823-8.85 15.823-24.305 0-15.232-5.57-23.41-16.16-23.41zm-.218 53.538c-15.934 0-25.96-10.977-25.96-28.45 0-19.487 9.91-30.912 26.74-30.912 16.04 0 25.96 10.976 25.96 28.897 0 19.04-10.028 30.464-26.74 30.464zm53.35-50.737c-2.556 0-6.015.448-8.913 1.12v48.384h-9.467V73.995h9.248v4.256c8.134-3.584 12.256-5.04 14.484-5.04 2.338 0 4.232.448 6.016 1.456v9.072c-3.008-1.567-6.795-2.35-11.367-2.35M739.154 44.2h9.474v86.69h-9.474V44.2zm58.94 36.963c-2.67-.673-6.458-1.12-9.582-1.12-12.81 0-20.164 8.4-20.164 23.072 0 13.664 6.794 21.504 18.496 21.504 4.012 0 7.8-.45 11.25-1.345V81.163zm0 49.728v-3.358c-.443.112-.778.223-1.003.335-8.913 3.248-12.255 4.144-15.598 4.144-14.15 0-23.507-11.2-23.507-28 0-17.47 11.812-30.687 27.41-30.687 4.347 0 8.58.895 12.7 2.8V44.2h9.474v86.69h-9.475zm78.218 0h-8.804l-13.26-47.152-13.48 47.153h-9.138l-18.27-56.896h10.36l12.927 46.817 13.59-46.816h9.356l13.26 47.713 12.926-47.713h8.803l-18.27 56.897m23.39-56.896h9.474v56.897h-9.474V73.995zm4.682-10.416c-3.903 0-6.24-2.352-6.24-6.496 0-3.81 2.337-6.16 6.24-6.16 4.122 0 6.35 2.128 6.35 6.048 0 4.256-2.228 6.608-6.35 6.608zm54.26 17.585c-2.673-.673-6.46-1.12-9.584-1.12-12.808 0-20.163 8.4-20.163 23.072 0 13.664 6.794 21.504 18.496 21.504 4.012 0 7.8-.45 11.25-1.345V81.163zm0 49.728v-3.358c-.445.112-.78.223-1.005.335-8.914 3.248-12.256 4.144-15.6 4.144-14.148 0-23.506-11.2-23.506-28 0-17.47 11.812-30.687 27.41-30.687 4.347 0 8.58.895 12.7 2.8V44.2h9.474v86.69h-9.474zm42.215-51.967c-9.14 0-14.15 6.27-14.265 17.808h27.075c0-12.767-3.678-17.807-12.81-17.807zm-14.265 23.52c.116.336.116.672.116.784v2.016c.22 13.44 6.46 19.376 20.39 19.376 3.788 0 7.91-.337 14.485-1.233v5.376c-9.7 2.24-15.263 3.136-19.276 3.136-16.83 0-25.96-9.745-25.96-27.777 0-19.488 9.582-31.137 25.4-31.137 11.03 0 18.27 5.264 20.95 15.457.997 3.472 1.332 6.832 1.448 14h-37.553z" fill="#fff" fill-rule="evenodd"/></svg>