<svg width="24" height="24" viewBox="0 0 24 24" xmlns="http://www.w3.org/2000/svg"><title>picto-photography-no</title><g fill="none" fill-rule="evenodd"><path d="M17.197 10H22V5H2v5h4.803C7.84 8.207 9.78 7 12 7c2.22 0 4.16 1.207 5.197 3zM24 20V3H6V2H4v1H0v17h24zm-12-3c2.21 0 4-1.79 4-4s-1.79-4-4-4-4 1.79-4 4 1.79 4 4 4zm0-1.5c1.38 0 2.5-1.12 2.5-2.5s-1.12-2.5-2.5-2.5-2.5 1.12-2.5 2.5 1.12 2.5 2.5 2.5z" fill="#000"/><path d="M0 22.17L1.83 24 12 13.83 22.17 24 24 22.17 13.83 12 24 1.83 22.17 0 12 10.17 1.83 0 0 1.83 10.17 12 0 22.17z" fill="#aaa"/></g></svg>