<svg width="24" height="24" viewBox="0 0 24 24" xmlns="http://www.w3.org/2000/svg"><title>picto-reservations-no</title><g fill="none" fill-rule="evenodd"><path d="M0 22.17L1.83 24 12 13.83 22.17 24 24 22.17 13.83 12 24 1.83 22.17 0 12 10.17 1.83 0 0 1.83 10.17 12 0 22.17z" fill="#aaa"/><path d="M15.598 16.655l-1.426-3.51c-.03-.06-.03-.117-.03-.175.016-.07.044-.142.092-.187.604-.458 1.13-1.25 1.13-2.66 0-2.19-1.55-3.123-3.687-3.123H8.75c-.156 0-.25.07-.25.216v9.555c0 .143.094.23.25.23h1.686c.156 0 .232-.087.232-.23v-3.095c0-.086.032-.244.28-.258h.837c.187 0 .295.1.34.23l1.225 3.18c.048.102.156.173.232.173h1.828c.156 0 .233-.07.233-.216 0-.042-.03-.087-.045-.13zm-3.97-8.002c.73 0 1.52.403 1.52 1.556 0 1.18-.617 1.497-1.408 1.554h-.808c-.232 0-.264-.144-.264-.23v-2.65c0-.144.063-.23.25-.23h.71z" fill="#000"/><path d="M4 6.995v10.01C4 18.66 5.34 20 6.995 20h10.01C18.66 20 20 18.66 20 17.005V6.995C20 5.34 18.66 4 17.005 4H6.995C5.34 4 4 5.34 4 6.995zm-2 0C2 4.235 4.236 2 6.995 2h10.01C19.765 2 22 4.236 22 6.995v10.01C22 19.765 19.764 22 17.005 22H6.995C4.235 22 2 19.764 2 17.005V6.995z" fill="#000"/></g></svg>