<svg width="24" height="24" viewBox="0 0 24 24" xmlns="http://www.w3.org/2000/svg"><title>picto-universalaccess-yes</title><path d="M22.926 18.097l-2.04.912-3.045-6.754h-7.195l-.084-1.51h5.264V8.757h-5.37l-.248-4.48c.785-.355 1.33-1.132 1.33-2.035C11.536 1.006 10.51 0 9.246 0 7.98 0 6.953 1.006 6.953 2.243c0 .876.512 1.635 1.262 2.002l.554 9.995h7.788l3.333 7.39 3.846-1.72-.81-1.813zm-12.068 3.92c-3.24 0-5.874-2.635-5.874-5.875 0-1.857.867-3.516 2.22-4.594l-.13-2.29C4.646 10.593 3 13.18 3 16.14 3 20.475 6.525 24 10.858 24c2.947 0 5.518-1.632 6.864-4.037l-1.138-2.523c-.593 2.616-2.932 4.576-5.726 4.576z" fill="#000" fill-rule="evenodd"/></svg>