<svg width="32" height="32" viewBox="0 0 32 32" xmlns="http://www.w3.org/2000/svg"><title>instagram</title><path d="M15.998 0C7.178 0 0 7.18 0 15.998 0 24.822 7.178 32 15.998 32 24.82 32 32 24.822 32 15.998 32 7.178 24.82 0 15.998 0zM25 14.152v7.37C25 23.443 23.44 25 21.52 25H10.477C8.56 25 7 23.44 7 21.523V10.48C7 8.56 8.56 7 10.477 7H21.52C23.44 7 25 8.56 25 10.48v3.672zm-4.243 1.675c0 2.686-2.132 4.874-4.757 4.874-2.622 0-4.754-2.187-4.754-4.873 0-.644.126-1.264.35-1.827H9v7.296C9 22.24 9.745 23 10.666 23h10.668c.92 0 1.666-.76 1.666-1.704V14h-2.595c.223.563.352 1.183.352 1.827zM23 11.987v-2.99h-.39l-2.61.01.013 2.99 2.987-.01zm-7.002 7.215c1.766 0 3.204-1.435 3.204-3.204 0-.695-.227-1.34-.604-1.866-.583-.805-1.53-1.334-2.6-1.334-1.067 0-2.014.525-2.596 1.334-.38.526-.604 1.17-.607 1.866 0 1.77 1.438 3.204 3.203 3.204z" fill="#FFF" fill-rule="evenodd"/></svg>