<svg width="32" height="32" viewBox="0 0 32 32" xmlns="http://www.w3.org/2000/svg"><title>pinterest</title><path d="M16 0C7.163 0 0 7.163 0 16c0 8.836 7.163 16 16 16 8.836 0 16-7.164 16-16 0-8.837-7.164-16-16-16zm1.324 20.59c-1.24-.097-1.762-.71-2.734-1.302-.535 2.806-1.19 5.495-3.125 6.9-.597-4.24.878-7.424 1.563-10.805-1.167-1.966.14-5.922 2.603-4.947 3.03 1.2-2.623 7.308 1.173 8.072 3.963.796 5.58-6.878 3.124-9.373-3.55-3.604-10.337-.082-9.502 5.077.203 1.26 1.505 1.643.52 3.384-2.273-.504-2.95-2.296-2.863-4.686.14-3.912 3.514-6.65 6.9-7.03 4.278-.478 8.295 1.572 8.85 5.598.624 4.544-1.932 9.466-6.508 9.112z" fill="#FFF" fill-rule="evenodd"/></svg>