<svg width="32" height="32" viewBox="0 0 32 32" xmlns="http://www.w3.org/2000/svg"><title>email</title><path d="M16 32c8.837 0 16-7.163 16-16S24.837 0 16 0 0 7.163 0 16s7.163 16 16 16zm9-10.27c0 .702-.502 1.27-1.123 1.27H8.123C7.503 23 7 22.432 7 21.73V10.27C7 9.57 7.502 9 8.123 9h15.754c.62 0 1.123.57 1.123 1.27v11.46zm-14.49-.23l3.797-3.725.914.91c.45.45 1.182.45 1.633 0l.883-.882 3.756 3.697H10.51zm-1.552-11l7.044 7.232 7.013-7.232H8.958zm-.06 11l4.554-4.58L8.5 11.725V21.5h.397zM23.5 11.732l-4.88 5.188 4.49 4.58h.39v-9.768z" fill="#FFF" fill-rule="evenodd"/></svg>