<svg width="32" height="32" viewBox="0 0 32 32" xmlns="http://www.w3.org/2000/svg"><title>twitter</title><path d="M15.998 0C7.178 0 0 7.18 0 15.998 0 24.822 7.178 32 15.998 32 24.82 32 32 24.822 32 15.998 32 7.178 24.82 0 15.998 0zm7.667 12.35c.005.158.008.32.008.48 0 4.88-3.714 10.507-10.51 10.507-2.087 0-4.028-.608-5.663-1.66.29.035.583.054.88.054 1.733 0 3.324-.59 4.59-1.58-1.616-.032-2.98-1.1-3.45-2.567.224.045.454.067.694.067.335 0 .663-.044.972-.13-1.688-.338-2.964-1.83-2.964-3.62 0-.016 0-.03.004-.048.495.278 1.067.442 1.673.46-.992-.658-1.646-1.79-1.646-3.073 0-.676.183-1.31.5-1.857 1.82 2.235 4.545 3.706 7.612 3.86-.063-.27-.094-.552-.094-.843 0-2.038 1.654-3.693 3.693-3.693 1.064 0 2.023.45 2.695 1.165.843-.164 1.636-.47 2.35-.896-.28.864-.863 1.588-1.627 2.045.75-.087 1.462-.286 2.12-.58-.49.74-1.12 1.39-1.838 1.91z" fill="#FFF" fill-rule="evenodd"/></svg>