<svg width="476" height="285" viewBox="0 0 476 285" xmlns="http://www.w3.org/2000/svg"><title>Artboard 1</title><path d="M89.663 115.336c-3.462-1.087-6.82-1.402-9.157-.82-4.255 1.06-6.97 6.524-5.743 11.448 1.02 4.09 5.916 11.642 11.065 17.006-.98.688-1.46.896-2.212 1.083-2.837.708-6.236.226-9.093-1.278 1.29 4.82 2.624 7.323 5.02 9.473 1.46 1.23 2.983 1.295 6.988.296 6.844-1.706 9.35-5.876 7.643-12.718-.728-2.92-3.436-8.095-5.854-11.038-1.126-1.315-2.273-2.713-3.42-4.11-.124-.147-.562-.836-1.23-1.733 2.713-.5 5.8.504 8.468 2.675.106-2.065.044-3.024-.33-4.526-.354-1.42-.958-3.13-2.145-5.758zm38.18 16.272c-1.335 1.042-1.565 1.188-4.07 2.52-.176-15.997-.362-18.52-1.652-23.694-.644-2.587-.832-2.984-1.416-3.193-1.71-.813-4.88-1.44-5.714-1.233-1.502.375-4.3 5.15-7.475 12.677-.272.688-.564 1.293-.898 2.085.15-6.154.048-9.762-.345-15.248-.394-4.777-1.077-11.786-1.244-12.453-.416-1.67-3.877-3.466-8.236-4.24-1.217 11.47-1.035 20.732.622 38.754.58 6.592 1.742 16.583 1.97 17.5.292 1.17 4.86 2.778 8.467 3.03-.472-11.492 2.207-24.568 5.985-28.967-.486 8.718-.136 16.165.884 20.254.977 3.923 3.75 5.802 7.17 4.95 2.67-.667 4.55-2.376 4.968-4.608.523-2.523.838-5.527.985-8.134zm28.382-23.385c-.125.21-.313.522-.522.75-.605.772-.668.876-1.336 1.398-.1-5.026-.39-9.386-.848-11.222-.313-1.25-.896-1.815-2.69-2.254-3.212-.795-5.965-1.172-6.966-.922-1.085.27-2.318 4.566-2.613 9.426-2.334-2.61-3.96-3.444-7.38-4.01-5.304 8.945-7.02 18.414-4.877 27.01 1.685 6.758 7.5 11.6 12.508 10.352 4.173-1.04 8.494-5.75 10.73-11.715 1.065-2.836 1.588-5.005 2.028-8.926 1.148-.73 1.857-1.44 2.067-2.378.418-1.522.524-5.36.15-6.862-.062-.25-.104-.417-.25-.647zm-9.683 7.733c-.775 5.068-3.657 11.28-6.224 13.783-1.02-1.608-1.376-2.317-1.77-3.903-.75-3.004-.79-7.426-.14-11.576.42-3.294 1.067-4.963 2.82-7.882.417 2.733.417 2.733.604 3.484.52 2.086 2.083 4.09 4.71 6.094zm37.587-.33c-1.955-10.682-1.955-10.682-2.143-11.433-.832-3.338-1.686-4.986-3.145-5.863-.96-.647-1.147-.69-5.297-1.693-.446 11.368-1.742 17.186-4.52 20.98-.038-4.776-1.18-14.684-2.156-18.606-.25-1-.585-1.272-2.253-1.92-1.877-.773-3.21-1.15-5.526-1.547-1.172 7.738-.554 19.815 1.547 28.243 1.02 4.09 1.5 4.945 3.146 5.863 2.356 1.273 5.317 2.13 6.486 1.84.583-.147.583-.147 1.565-2.962 3.468-9.196 3.468-9.196 4.243-13.91l.582 2.69c.208 1.19.416 2.025.5 2.36.915 3.67 1.977 5.8 3.124 6.488 1.543.856 5.234 1.442 6.736 1.068 1.085-.27 2.526-1.96 4.154-4.67 4.05-6.86 4.825-10.155 4.455-18.394 1.544-2.335 1.817-5.86.903-11.304-.606 1.126-.815 1.355-1.608 2.084-.083-.688-.145-1.293-.207-1.543-.25-1.71-.54-3.234-.77-4.152-.707-2.837-2.917-4.945-4.67-4.508-1 .25-5.007 3.02-5.675 3.897-1.106 1.605-1.32 8.926-.3 13.015.5 2.002 1.77 3.192 4.482 4.11.268 4.986-.694 8.594-3.116 12.034l-.54-2.17zm28.543-16.336c2.148-.624 3.13-.957 4.047-1.54 1.482-.813 3.255-2.23 3.506-2.648.355-.71.232-4.755-.267-6.758-.542-2.17-1.542-3.693-2.877-4.424-1.25-.75-5.15-1.108-7.07-.63-2.253.562-5.635 4.773-7.6 9.694-3.027 7.05-3.762 14.056-2.264 20.064 1.58 6.342 6.417 9.745 11.925 8.372 3.087-.77 8.2-3.374 8.97-4.54.503-.835.797-3.922.884-9.616-3.403 2.354-7.18 4.27-10.955 5.478-1.063-2.128-1.73-3.734-2.166-5.487-1.374-5.507-.035-12.577 3.264-17.122.25.647.374 1.147.458 1.48.603 2.42.685 4.528.287 6.843l-.147.834zm44.845-.013c-1.064.354-1.482.458-2.316.666-.75.187-1.335.333-2.608.56 1.07-7.444.95-18.583-.214-23.256-.5-2.002-2.69-2.963-8.425-3.572.125 1.21.166 2.086.186 2.524-.04.54-.062 1.167-.02 1.69.02.082-.043.896.04 1.584-3.398-2.255-5.442-2.986-8.612-3.26-4.09 3.502-6.638 7.15-8.894 13.03-2.59 6.674-3.284 13.85-1.91 19.356 1.31 5.257 4.854 8.096 8.86 7.098 3.838-.957 6.927-4.21 10.29-10.63.082 1.396.186 2.168.332 2.752.81 3.254 3.084 4.195 7.423 3.113 1.585-.396 1.75-.437 2.023-.77.188-.314.48-.918 1.023-2.295 1.19-3.044 1.922-5.088 2.822-8.59zm-21.01 6.744c-.916-1.543-1.27-2.252-1.54-3.337-.895-3.588.047-9.407 2.366-14.328 1.9-4.108 3.633-6.4 6.7-8.673-.51 15.727-2.12 21.358-7.525 26.34zm36.234-36.33c-3.462-1.088-6.82-1.403-9.156-.82-4.256 1.06-6.97 6.524-5.744 11.447 1.02 4.09 5.917 11.642 11.065 17.006-.98.688-1.46.896-2.21 1.083-2.84.708-6.238.226-9.095-1.278 1.29 4.82 2.624 7.323 5.02 9.473 1.46 1.233 2.983 1.296 6.988.298 6.843-1.706 9.35-5.877 7.642-12.72-.728-2.92-3.436-8.094-5.854-11.037-1.125-1.313-2.27-2.712-3.418-4.11-.125-.146-.562-.835-1.23-1.732 2.713-.5 5.8.504 8.467 2.675.106-2.065.044-3.024-.33-4.526-.354-1.42-.958-3.13-2.145-5.758zm21.89 19.18c-1.608 1.022-2.338 1.293-4.195 2.022.34-8.948-.05-19.753-.82-22.84-.27-1.085-.5-1.294-1.98-1.9-2.294-1.023-3.358-1.378-5.506-1.818-2.09 9.03-2.434 25.425-.77 32.1 1.124 4.506 3.917 6.47 7.84 5.49 1.5-.374 2.962-1.27 4.006-2.416.563-.584.814-1.355 1.003-3.087.376-3.106.42-4.358.42-7.55zM283.35 47.9c-2.92.727-4.446 3.5-3.655 6.67.666 2.67 3.064 4.112 5.817 3.425 2.67-.665 4.112-3.418 3.383-6.338-.728-2.92-2.96-4.403-5.546-3.758zm46.534 32.358c-2.817 1.5-3.443 1.834-5.09 2.333 1.026-7.61.97-19.563-.11-23.902-.354-1.42-.834-1.92-2.294-2.442-2.23-.773-3.628-1.045-4.463-.837-1.252.31-3.026 2.083-5.323 5.314-1.962 2.794-3.257 5.42-5.137 10.322-.31-3.734-.58-6.592-.85-7.677-.375-1.503-3.21-2.568-8.467-3.03-1.173 7.737-1.49 13.577-1.014 20.106.825 12.557.825 12.557 1.054 13.475.25 1.002.73 1.503 2.314 2.172 2.106.98 4.337 1.755 6.402 2.215-.535-11.035 3.27-23.86 8.946-29.53-.962 4.317-1.13 6.487-1.05 11.43.02 3.275.392 7.26.724 8.594.687 2.755 2.25 3.694 6.88 4.135 2.92.336 2.92.336 3.004.315 1.17-.29 3.593-7.277 4.472-12.992zm18.876-32.005c.187.75.374 1.857.645 3.296-1.71-1.17-2.71-1.63-4.066-2.09-1.522-.418-3.524-.627-4.192-.46-1.502.374-4.738 5.523-7.412 11.863-2.57 6.047-3.367 14.577-1.994 20.085.583 2.336 1.77 4.256 3.417 5.53 1.73 1.252 5.734 2.38 7.32 1.985.166-.04.563-.23 1.21-.48.145-.124.71-.353 1.272-.582-1.295 2.274-3.57 4.17-5.572 4.67.228 2.336.457 3.61.81 5.027.645 2.587 1.416 4.256 2.458 5.237 1.585 1.378 6.048 2.215 8.634 1.57 1.42-.354 2.567-1.438 3.84-3.794 1.776-3.19 3.677-8.716 4.64-13.388 1.653-8.3 1.455-25.09-.397-32.518-.77-3.087-1.457-4.423-2.437-5.153-1.94-1.377-4.316-2.025-8.57-2.382l.394 1.585zm-5.734 30.68c-.71-1.42-.98-2.15-1.208-3.068-1.02-4.09-.223-10.847 1.908-15.81 1.462-3.732 3.258-6.13 5.762-8.172 1.43 14.622-.515 22.818-6.462 27.05zm6.518 15.48c-1.73-.9-2.793-2.672-3.625-6.01-.082-.334-.186-.75-.27-1.44 1.983-2 4.155-5.378 5.91-9.36-.086 3.21-.128 3.4-1.26 12.367-.272 2.107-.335 2.21-.754 4.442zM34.648 228.31c-1.064.354-1.48.458-2.315.666-.75.188-1.335.333-2.608.562 1.07-7.446.95-18.584-.215-23.257-.5-2.002-2.688-2.962-8.424-3.57.124 1.21.166 2.085.186 2.523-.042.542-.063 1.168-.022 1.69.02.083-.042.896.04 1.585-3.397-2.255-5.44-2.986-8.61-3.26-4.092 3.502-6.64 7.15-8.895 13.03-2.59 6.674-3.284 13.85-1.91 19.356 1.31 5.257 4.854 8.096 8.86 7.098 3.838-.958 6.927-4.21 10.29-10.632.082 1.398.186 2.17.33 2.754.813 3.254 3.086 4.194 7.425 3.112 1.585-.395 1.752-.436 2.024-.77.188-.313.48-.917 1.023-2.294 1.19-3.044 1.922-5.088 2.82-8.59zm-21.008 6.745c-.917-1.544-1.27-2.253-1.54-3.338-.896-3.588.046-9.407 2.365-14.328 1.9-4.11 3.633-6.402 6.7-8.674-.51 15.727-2.12 21.358-7.525 26.34zm39.252-28.488c-1.336 1.397-1.565 1.543-2.713 1.917.293-2.023.607-3.962.712-4.61.44-2.147.523-3.232.357-3.9-.46-1.835-3.545-3.902-7.57-5.114-.585 1.918-.627 2.46-.92 5.548-1.69-1.086-4.484-1.985-6.236-1.902-.65 5.568-.61 9.636-.073 15.35 1.514 15.312 1.514 15.312 2.16 17.9.228.916.5 1.292 1.48 1.668 2.293 1.024 3.836 1.525 6.985 2.424-.87-8.114-1.053-16.312-.425-20.9 1.627.48 2.357.565 3.358.315 1.92-.478 2.588-1.354 2.86-4.17.21-1.647.21-2.71.024-4.526zm15.1 2.262c2.15-.625 3.13-.958 4.047-1.542 1.48-.812 3.255-2.23 3.505-2.646.355-.71.233-4.756-.267-6.76-.54-2.168-1.54-3.69-2.875-4.422-1.25-.752-5.15-1.11-7.07-.63-2.254.56-5.635 4.772-7.6 9.694-3.028 7.048-3.763 14.056-2.265 20.064 1.582 6.342 6.42 9.744 11.926 8.37 3.087-.768 8.2-3.372 8.972-4.54.5-.834.795-3.92.882-9.615-3.4 2.355-7.178 4.27-10.954 5.48-1.062-2.13-1.73-3.736-2.166-5.488-1.373-5.508-.034-12.578 3.265-17.123.25.647.375 1.148.458 1.48.604 2.42.686 4.528.29 6.843l-.148.834zm42.592.548c-1.336 1.042-1.565 1.188-4.07 2.52-.177-15.997-.363-18.52-1.653-23.695-.644-2.587-.83-2.983-1.415-3.192-1.71-.814-4.88-1.44-5.714-1.233-1.5.374-4.3 5.15-7.475 12.677-.27.688-.564 1.293-.898 2.085.15-6.154.048-9.763-.345-15.25-.393-4.775-1.077-11.784-1.243-12.452-.417-1.668-3.88-3.464-8.238-4.24-1.217 11.472-1.035 20.733.622 38.756.58 6.59 1.742 16.583 1.97 17.5.292 1.17 4.86 2.778 8.467 3.03-.47-11.492 2.207-24.57 5.985-28.967-.485 8.718-.135 16.164.884 20.253.977 3.922 3.75 5.8 7.17 4.948 2.67-.666 4.55-2.375 4.968-4.606.523-2.524.838-5.527.986-8.134zm16.335-5.225c-1.608 1.02-2.338 1.29-4.195 2.02.34-8.948-.05-19.752-.82-22.84-.27-1.085-.5-1.293-1.98-1.9-2.294-1.023-3.357-1.378-5.505-1.817-2.092 9.03-2.436 25.424-.772 32.1 1.124 4.506 3.918 6.468 7.84 5.49 1.502-.374 2.962-1.27 4.006-2.417.563-.584.814-1.356 1.003-3.087.377-3.108.42-4.36.422-7.55zm-11.28-40.973c-2.92.728-4.445 3.502-3.655 6.673.666 2.67 3.064 4.11 5.818 3.424 2.67-.666 4.11-3.418 3.383-6.34-.728-2.92-2.96-4.402-5.546-3.757zm13.334-9.085c-.71 2.836.175 19.19 1.4 26.595-2.5-.085-3.69-.232-5.734-.61.207 1.545.353 2.13.603 3.13.478 1.92 1.082 3.63 1.54 4.757.52 1.022.917 1.19 2.606 1.566.187.042.75.167 1.418.355.476 4.756 1.828 11.953 3.45 18.462.52 2.086.583 2.336 1.167 2.545 1.126.606 2.982.94 7.132 1.235.086-3.92.067-5.423-.325-12.327-.268-4.985-.35-6.737-.432-9.908 2.754-.686 2.92-.728 3.213-1.333.27-.688.523-2.878.82-8.8-1.94.394-2.442.52-5.154.663-1.97-17.856-2.095-18.71-3.01-22.383-.438-1.752-.604-2.065-1.5-2.462-1.774-.71-4.193-1.17-7.196-1.485zm43.05 36.153c-3.174 4.336-5.866 6.337-9.955 7.357-1.086.27-1.94.395-3.714.394-.396-.878-.52-1.378-.666-1.963-.187-.75-.333-1.335-.478-2.628 3.38-1.02 5.59-2.104 7.678-4.043 4.195-3.793 6.14-9.862 4.89-14.868-1.186-4.758-6.21-7.848-10.967-6.662-7.427 1.852-13.34 19.37-10.47 30.884 1.665 6.676 6.67 10.037 12.76 8.518 3.84-.957 8.158-3.895 9.662-6.397 1.086-2.043 1.505-5.34 1.258-10.595zm-10.232-15.796c1.705 7.906-.427 15.706-4.684 17.476-.996-7.197.844-14.037 4.684-17.476zm24.86 4.792c2.148-.624 3.13-.957 4.047-1.54 1.48-.813 3.254-2.23 3.505-2.648.355-.708.232-4.755-.267-6.758-.54-2.17-1.54-3.693-2.876-4.423-1.25-.752-5.15-1.11-7.07-.63-2.253.56-5.635 4.772-7.6 9.694-3.028 7.047-3.762 14.055-2.264 20.063 1.58 6.34 6.418 9.744 11.925 8.37 3.088-.77 8.2-3.373 8.972-4.54.5-.834.795-3.92.882-9.615-3.4 2.355-7.178 4.27-10.954 5.48-1.062-2.13-1.728-3.736-2.165-5.488-1.374-5.508-.034-12.578 3.264-17.123.25.647.375 1.148.458 1.48.604 2.42.686 4.528.288 6.843l-.147.834zm11.665-42.44c-.71 2.838.176 19.19 1.402 26.596-2.504-.085-3.693-.23-5.737-.608.208 1.543.353 2.128.603 3.13.478 1.918 1.082 3.63 1.54 4.756.52 1.022.917 1.19 2.607 1.566.187.04.75.167 1.418.355.477 4.755 1.83 11.952 3.452 18.46.52 2.087.582 2.337 1.166 2.546 1.126.606 2.982.94 7.133 1.235.087-3.92.067-5.422-.325-12.326-.268-4.985-.35-6.738-.432-9.908 2.754-.687 2.92-.728 3.213-1.333.272-.688.523-2.878.82-8.802-1.94.397-2.442.52-5.153.666-1.97-17.856-2.095-18.71-3.01-22.383-.438-1.752-.604-2.065-1.5-2.462-1.773-.71-4.193-1.17-7.196-1.485zm29.967 42.34c.36-7.09.096-19.167-.424-21.253-.458-1.835-4.42-3.506-8.884-3.634-1.444 8.78-.912 25.133 1.168 33.478.333 1.335.52 1.73 1.062 2.128.876.668 5.256 1.88 6.09 1.672.584-.145 2.776-2.73 4.717-5.607 1.63-2.356 2.443-4.066 3.864-7.61.062.604.083 1.042.145 1.292 0 2.48.06 2.732.394 4.067.895 3.588 2.917 4.59 6.923 3.592 2.752-.688 3.67-1.27 4.255-2.48 1.19-2.69 2.32-6.695 2.885-10.115-1.002.604-3.547 1.77-4.215 1.937-.166.042-.417.104-.688.083.4-7.634-.155-19.46-1.132-23.383-.354-1.418-3.482-2.943-7.674-3.76-1.867 18.105-3.81 24.882-8.486 29.593zm40.148-26.317c-1.336 1.397-1.566 1.543-2.713 1.917.292-2.023.606-3.962.71-4.61.44-2.147.525-3.232.358-3.9-.458-1.835-3.543-3.902-7.568-5.114-.585 1.918-.627 2.46-.92 5.547-1.69-1.085-4.485-1.984-6.237-1.902-.65 5.57-.61 9.637-.072 15.352 1.514 15.31 1.514 15.31 2.16 17.898.228.917.5 1.293 1.48 1.67 2.292 1.023 3.836 1.524 6.985 2.423-.87-8.114-1.054-16.312-.425-20.9 1.626.48 2.356.565 3.358.315 1.92-.478 2.587-1.354 2.86-4.17.21-1.647.21-2.71.024-4.526zm26.09 6.88c-3.174 4.335-5.866 6.336-9.955 7.355-1.085.27-1.94.396-3.713.394-.396-.876-.52-1.377-.666-1.96-.188-.752-.333-1.336-.478-2.63 3.38-1.02 5.59-2.102 7.678-4.04 4.195-3.794 6.138-9.863 4.89-14.87-1.186-4.756-6.21-7.846-10.967-6.66-7.426 1.852-13.34 19.37-10.468 30.884 1.664 6.676 6.668 10.037 12.76 8.518 3.838-.957 8.157-3.895 9.66-6.397 1.087-2.042 1.506-5.338 1.26-10.594zM284.29 143.91c1.705 7.906-.428 15.706-4.684 17.476-.996-7.197.843-14.037 4.684-17.476zm29.058-5.384c-1.564.48-3.568 2.75-3.8 4.315-.104 1.002.187 3.59.707 5.675.333 1.335.77 1.67 2.71 2.338l1.96.752c.433 8.844 1.802 20.025 2.988 24.78.333 1.336.708 1.775 2.48 2.84 2.398 1.44 4.65 2.297 8.03 3.05.274-6.716-.888-16.708-2.885-24.72-.125-.5-.416-1.668-.832-2.982 1.606.397 2.315.398 3.233.17 2.67-.667 3.984-2.856 4.3-7.278.295-4.505.254-6.445-.16-9.532-1.985 3.42-3.968 5.775-5.052 6.046-.584.144-1.377-.19-2.753-1.088.043-1.25.21-2.357.21-2.71.126-.564.503-2.963 1.047-6.467 1.53-9.155 1.784-16.31.827-20.148-1-4.005-2.146-5.404-5.504-6.782-1.856-.69-3.274-1.045-3.858-.9-.667.167-.94.855-1.17 2.42-1.3 11.137-1.427 14.89-1.207 29.992-.333.084-.667.167-.77.104l-.502.126zm48.083-8c-.124.21-.312.52-.52.75-.606.772-.67.876-1.337 1.397-.1-5.027-.39-9.386-.848-11.222-.312-1.25-.895-1.814-2.69-2.253-3.21-.795-5.964-1.172-6.965-.922-1.085.27-2.318 4.566-2.613 9.426-2.335-2.608-3.96-3.443-7.38-4.01-5.305 8.946-7.02 18.415-4.878 27.01 1.684 6.758 7.5 11.6 12.507 10.353 4.172-1.04 8.493-5.752 10.728-11.716 1.066-2.836 1.59-5.004 2.03-8.926 1.147-.728 1.856-1.437 2.066-2.375.42-1.522.525-5.36.15-6.862-.06-.25-.103-.417-.25-.647zm-9.682 7.732c-.775 5.068-3.657 11.282-6.224 13.783-1.02-1.605-1.376-2.315-1.77-3.9-.75-3.004-.79-7.426-.14-11.576.42-3.296 1.067-4.964 2.82-7.883.417 2.734.417 2.734.604 3.485.52 2.086 2.083 4.09 4.71 6.093zm29.335-13.518c-1.336 1.397-1.565 1.542-2.713 1.917.294-2.023.608-3.963.712-4.61.44-2.147.524-3.232.357-3.9-.458-1.835-3.544-3.902-7.57-5.114-.584 1.918-.626 2.46-.92 5.547-1.69-1.085-4.483-1.984-6.235-1.902-.65 5.57-.61 9.636-.073 15.352 1.513 15.31 1.513 15.31 2.158 17.897.23.918.5 1.294 1.48 1.67 2.294 1.023 3.837 1.525 6.986 2.424-.87-8.113-1.053-16.31-.425-20.9 1.628.482 2.358.566 3.36.316 1.918-.48 2.586-1.354 2.86-4.17.21-1.648.21-2.71.023-4.526zm52.518 4.1c-1.063.354-1.48.458-2.315.666-.75.188-1.335.333-2.607.562 1.068-7.446.95-18.584-.215-23.257-.5-2.002-2.69-2.962-8.424-3.57.123 1.21.164 2.085.185 2.523-.042.542-.064 1.168-.022 1.69.02.083-.042.896.04 1.585-3.398-2.255-5.44-2.986-8.612-3.26-4.09 3.502-6.636 7.15-8.893 13.03-2.59 6.674-3.283 13.85-1.91 19.356 1.31 5.257 4.855 8.096 8.86 7.097 3.84-.956 6.928-4.207 10.29-10.63.083 1.398.186 2.17.332 2.754.81 3.254 3.083 4.194 7.423 3.112 1.585-.395 1.752-.437 2.023-.77.188-.313.48-.918 1.024-2.294 1.19-3.044 1.922-5.088 2.82-8.592zm-21.007 6.745c-.917-1.544-1.27-2.253-1.542-3.338-.893-3.588.05-9.407 2.367-14.328 1.9-4.11 3.634-6.402 6.7-8.674-.51 15.727-2.12 21.358-7.524 26.34zm34.547-9.677c-2.226-9.283-2.288-10.243-1.805-15.06 1.154-10.658 1.154-10.658 1.28-12.285.546-6.34.403-10.47-.367-13.558-.915-3.672-2.458-5.237-7.045-7.284-.69-.27-1.585-.668-2.398-1.085-2.028 6.798-2.656 11.032-2.786 18.687-.217 10.867.942 24.76 2.648 31.6.957 3.84 1.978 5.8 3.604 6.99 2.48 1.776 5.4 2.466 7.988 1.82 2.336-.582 4.82-2.353 5.217-3.604.46-1.71.754-4.797.82-8.802-2.276 1.188-3.715 1.812-5.217 2.187l-1.94.395zm19.36-4.827c-2.227-9.282-2.29-10.242-1.806-15.06 1.154-10.657 1.154-10.657 1.28-12.284.546-6.34.403-10.47-.367-13.558-.915-3.672-2.458-5.237-7.045-7.284-.688-.272-1.585-.668-2.398-1.086-2.028 6.798-2.656 11.032-2.786 18.687-.216 10.867.944 24.76 2.65 31.602.957 3.838 1.978 5.8 3.604 6.99 2.48 1.774 5.4 2.464 7.987 1.82 2.336-.583 4.82-2.355 5.216-3.606.46-1.71.754-4.796.82-8.8-2.275 1.187-3.715 1.812-5.217 2.186l-1.94.395z" fill="#fff" fill-rule="evenodd"/></svg>