<svg width="478" height="286" viewBox="0 0 478 286" xmlns="http://www.w3.org/2000/svg"><title>tagline-pt</title><g fill="#FFF" fill-rule="evenodd"><path d="M453.152 119.79c-2.11.506-3.987 1.883-5.63 4.132-2.16 2.99-3.04 6.257-2.636 9.798.308 2.706 1.427 5.94 3.356 9.7 2.396 4.642 4.693 8.416 6.89 11.32-1.064.6-1.954.984-2.668 1.156-3.603.865-7.05.32-10.34-1.637.395 3.166 1 5.698 1.816 7.596.542 1.243 1.21 2.37 2.01 3.38.8 1.01 1.51 1.61 2.132 1.804 1.074.36 3.283.14 6.627-.664 7.983-1.917 11.502-7.035 10.553-15.355-.137-1.202-.423-2.54-.857-4.016-1.12-3.678-2.536-6.89-4.25-9.638-2.31-3.6-3.82-6.017-4.527-7.255 3.397-.61 6.562.536 9.493 3.437.323-2.137.396-3.99.217-5.562-.194-1.704-.73-4.064-1.607-7.08-4.068-1.46-7.595-1.833-10.58-1.116m-39.42 41.233c-.208-1.837-.014-4.08.585-6.73.873-3.746 2.292-7.382 4.26-10.91 2.518-4.518 5.54-7.99 9.066-10.416-.93 5.613-1.705 9.92-2.33 12.918-.756 3.614-1.845 6.93-3.268 9.95-2.06 4.168-4.395 7.234-7.005 9.2-.74-1.538-1.176-2.876-1.306-4.012m23.66-3.054c-.714.17-1.674.384-2.878.638.992-3.876 1.75-8.04 2.278-12.493.927-7.67 1.22-12.994.882-15.968-.152-1.336-.93-2.3-2.33-2.89-1.615-.71-3.897-1.28-6.847-1.704-.146 1.65-.392 4.025-.74 7.13-1.61-1.262-3.017-2.194-4.22-2.798-1.476-.675-3.213-1.134-5.208-1.376-4.892 3.886-8.962 9.137-12.21 15.752-4.218 8.633-5.912 16.593-5.082 23.877.282 2.472 1.016 4.527 2.203 6.164 1.74 2.397 4.022 3.256 6.846 2.578 4.446-1.067 9.01-5.355 13.69-12.864-.126 1.54-.142 2.712-.05 3.514.185 1.637.77 2.82 1.753 3.543 1.273.93 3.468 1.02 6.584.274 1.232-.297 1.965-.594 2.2-.89.236-.263.763-1.195 1.58-2.8 1.66-3.282 3.162-6.783 4.506-10.504-1.194.355-2.18.626-2.96.813m-54.198-36.627c-.76 10.31-1.025 17.495-.795 21.56-2.45-.133-4.65-.43-6.603-.887.012 1.577.078 2.883.196 3.918.392 3.442.912 5.67 1.56 6.68.253.454 1.01.805 2.272 1.05.307.065.843.228 1.606.49-.073 6.37.403 14.064 1.43 23.086.18 1.57.485 2.493.917 2.767 1.072.636 3.735 1.18 7.99 1.635.515-3.66.993-8.683 1.433-15.07.335-4.956.673-9.02 1.012-12.19l1.704-.41c1.23-.328 1.967-.73 2.214-1.2.422-.685 1.18-4.282 2.27-10.793-1.72.413-3.756.68-6.11.797.19-11.786.285-17.695.28-17.73-.006-4.15-.144-7.413-.414-9.786-.08-.7-.154-1.198-.22-1.49-.18-.712-.57-1.203-1.168-1.47-1.94-.942-4.65-1.596-8.126-1.964-.602 2.617-1.085 6.285-1.447 11.007m-11.66 33.437c.137-.548.784-2.918 1.94-7.11.45-1.617.638-2.743.566-3.378-.098-.87-.706-1.82-1.825-2.857-1.602-1.47-3.67-2.654-6.207-3.556-.698 1.78-1.322 4.058-1.873 6.833-1.088-.77-2.214-1.364-3.38-1.79-1.165-.422-2.35-.66-3.557-.715-1.38 6.03-2.182 12.315-2.404 18.856-.4 12.01-.448 19.332-.147 21.972.11.97.59 1.66 1.436 2.074 2.127 1.104 4.713 2.148 7.76 3.133.157-10.92 1.014-19.484 2.575-25.695 1.6.577 2.902.745 3.908.503 1.136-.272 1.953-.707 2.452-1.308.588-.69 1.08-1.94 1.473-3.752.403-1.745.608-3.596.62-5.556-1.262 1.23-2.373 2.012-3.335 2.346m-31.71 6.222c-.49 4.478-1.564 8.083-3.22 10.814-1.16 1.824-2.758 3.306-4.795 4.447.095-4.725.823-8.874 2.183-12.445 1.36-3.57 3.326-6.522 5.894-8.855.154 2.23.133 4.242-.062 6.04m5.025 18.205c-2.44 1.994-5.138 3.345-8.09 4.054-1.17.28-2.635.444-4.397.49-.215-1.013-.357-1.82-.425-2.422-.088-.768-.143-1.836-.166-3.204 5.974-1.71 10.497-4.89 13.57-9.54 2.992-4.46 4.23-8.962 3.712-13.507-.39-3.41-1.983-5.84-4.783-7.297-2.304-1.198-4.607-1.52-6.912-.967-1.493.36-2.812 1.07-3.958 2.135-2.895 2.687-5.38 6.185-7.458 10.493-4.36 9.15-6.107 17.515-5.243 25.1.376 3.308 1.44 5.92 3.193 7.833 2.587 2.81 6.007 3.706 10.26 2.686 2.498-.6 4.942-1.685 7.33-3.254 2.293-1.545 3.907-3.03 4.845-4.458 1.536-2.326 2.532-6.598 2.99-12.82-1.728 2.098-3.217 3.657-4.468 4.678m-40.51-2.94c.886 1.057 2.155 1.954 3.806 2.69-1.105 3.183-2.77 6.277-4.994 9.283-.904 1.145-2.113 2.242-3.627 3.292.655-5.375 1.537-11.972 2.647-19.79.626 1.978 1.348 3.486 2.167 4.525m-8.772-37.028c-1.675 5.79-3.165 13.786-4.47 23.986-1.63 13.196-2.086 22.952-1.367 29.267.435 3.81 1.782 6.558 4.042 8.247 1.13.86 2.523 1.514 4.175 1.958 1.65.445 2.995.543 4.035.293 1.492-.357 3.022-1.41 4.59-3.16 2.16-2.407 3.965-5.157 5.413-8.252 2.132-4.7 3.29-9.61 3.473-14.736 1.052-1.007 1.76-2.105 2.126-3.29.362-1.496.493-4.015.39-7.56-.975 1.4-1.714 2.385-2.216 2.95-.18-5.688-.28-8.616-.3-8.784-.16-1.403-1.065-3.485-2.713-6.248-2.15 1.615-3.984 3.377-5.5 5.285-1.222 1.564-2.6 3.525-4.13 5.884 2.555-16.2 3.623-26.136 3.204-29.813-.134-1.17-2.573-2.97-7.318-5.4-1.5 3.52-2.645 6.642-3.434 9.372m-36.884 59.007c-.21-1.837-.015-4.08.584-6.73.874-3.746 2.293-7.382 4.26-10.91 2.518-4.518 5.54-7.99 9.066-10.415-.93 5.612-1.705 9.918-2.33 12.917-.755 3.614-1.845 6.93-3.268 9.95-2.06 4.167-4.395 7.233-7.004 9.2-.743-1.54-1.178-2.876-1.308-4.013m23.66-3.054c-.714.17-1.673.385-2.877.64.99-3.877 1.75-8.042 2.277-12.493.927-7.672 1.22-12.994.882-15.97-.152-1.335-.93-2.298-2.33-2.89-1.615-.71-3.897-1.278-6.846-1.703-.146 1.65-.392 4.026-.74 7.13-1.61-1.262-3.017-2.194-4.22-2.798-1.476-.676-3.213-1.135-5.207-1.377-4.893 3.887-8.963 9.138-12.21 15.753-4.218 8.633-5.913 16.593-5.083 23.877.282 2.473 1.016 4.528 2.203 6.165 1.74 2.397 4.022 3.257 6.846 2.578 4.446-1.067 9.01-5.355 13.69-12.864-.126 1.54-.142 2.712-.05 3.514.186 1.637.77 2.82 1.753 3.544 1.273.93 3.468 1.02 6.584.273 1.233-.296 1.966-.593 2.2-.89.236-.262.764-1.194 1.58-2.8 1.66-3.28 3.163-6.782 4.506-10.503-1.193.355-2.18.626-2.958.813m-74.99-16.393c-2.11.506-3.987 1.884-5.63 4.132-2.16 2.99-3.04 6.257-2.636 9.798.307 2.707 1.426 5.94 3.355 9.7 2.396 4.642 4.693 8.416 6.89 11.32-1.064.6-1.954.985-2.668 1.157-3.602.864-7.05.32-10.34-1.638.395 3.166 1 5.7 1.816 7.596.542 1.244 1.212 2.37 2.01 3.38.8 1.01 1.51 1.61 2.132 1.805 1.074.36 3.283.14 6.627-.663 7.984-1.917 11.503-7.036 10.555-15.356-.137-1.202-.424-2.54-.858-4.015-1.12-3.678-2.537-6.89-4.25-9.64-2.31-3.597-3.82-6.015-4.528-7.253 3.398-.61 6.563.535 9.494 3.436.324-2.138.396-3.99.217-5.562-.194-1.704-.73-4.064-1.607-7.08-4.068-1.46-7.595-1.833-10.58-1.116m-39.42 41.234c-.208-1.838-.014-4.082.585-6.73.874-3.746 2.294-7.383 4.26-10.91 2.52-4.518 5.542-7.99 9.067-10.416-.93 5.613-1.705 9.92-2.33 12.918-.756 3.614-1.845 6.93-3.268 9.95-2.06 4.168-4.396 7.234-7.005 9.2-.743-1.54-1.178-2.876-1.308-4.012m23.66-3.054c-.714.17-1.673.384-2.877.64.99-3.877 1.75-8.042 2.277-12.494.927-7.67 1.22-12.994.882-15.968-.153-1.336-.93-2.3-2.33-2.89-1.616-.71-3.898-1.28-6.848-1.704-.145 1.65-.39 4.025-.738 7.128-1.61-1.26-3.018-2.192-4.22-2.797-1.477-.675-3.214-1.133-5.208-1.376-4.893 3.887-8.963 9.137-12.21 15.753-4.22 8.633-5.913 16.592-5.083 23.876.282 2.472 1.016 4.527 2.203 6.164 1.74 2.398 4.022 3.257 6.846 2.58 4.446-1.07 9.01-5.357 13.69-12.865-.125 1.54-.142 2.71-.05 3.512.187 1.638.77 2.82 1.754 3.544 1.273.93 3.468 1.02 6.584.273 1.233-.297 1.966-.594 2.2-.89.236-.262.763-1.195 1.58-2.8 1.66-3.28 3.162-6.783 4.506-10.504-1.194.356-2.18.626-2.958.814m-54.2-36.627c-.76 10.31-1.025 17.496-.795 21.56-2.45-.132-4.65-.428-6.603-.886.012 1.577.078 2.883.196 3.918.392 3.442.913 5.67 1.56 6.68.254.454 1.01.805 2.272 1.05.307.064.843.228 1.606.49-.074 6.37.402 14.064 1.43 23.086.18 1.572.484 2.494.916 2.767 1.073.636 3.736 1.18 7.99 1.636.515-3.66.993-8.684 1.433-15.07.335-4.956.673-9.02 1.012-12.19l1.704-.41c1.228-.33 1.966-.73 2.213-1.2.422-.685 1.18-4.282 2.27-10.793-1.72.413-3.756.68-6.11.798.19-11.786.285-17.696.28-17.73-.006-4.15-.143-7.413-.414-9.786-.08-.702-.155-1.2-.22-1.492-.182-.71-.572-1.202-1.17-1.47-1.94-.942-4.65-1.595-8.125-1.963-.602 2.616-1.085 6.285-1.447 11.006m-11.66 33.437c.137-.548.784-2.917 1.94-7.108.45-1.618.64-2.745.566-3.38-.1-.868-.708-1.82-1.826-2.857-1.6-1.47-3.67-2.654-6.207-3.556-.696 1.78-1.32 4.06-1.87 6.833-1.09-.768-2.216-1.364-3.38-1.788-1.167-.424-2.353-.663-3.56-.717-1.38 6.03-2.18 12.316-2.402 18.857-.4 12.008-.45 19.332-.148 21.97.11.97.59 1.662 1.437 2.076 2.126 1.105 4.712 2.148 7.76 3.133.156-10.92 1.013-19.484 2.574-25.695 1.6.578 2.903.745 3.91.504 1.135-.273 1.952-.71 2.45-1.31.59-.69 1.08-1.94 1.474-3.752.402-1.744.607-3.596.618-5.555-1.26 1.23-2.372 2.01-3.334 2.345m-37.12 23.253c-1.633 2.95-3.422 5.396-5.368 7.34-.782-1.598-1.253-3.1-1.413-4.502-.475-4.176.01-8.995 1.454-14.457.884-3.37 2.37-6.576 4.457-9.618.034 2.052.098 3.496.193 4.33.294 2.574 1.812 5.076 4.557 7.506-.956 3.32-2.25 6.455-3.88 9.403m13.765-16.152c.74-6.665.968-11.25.683-13.757-.152-1.336-1.092-2.26-2.817-2.774-3.965-1.142-6.597-1.558-7.895-1.246-.325.078-.617.286-.88.623-.293.346-.742 1.38-1.346 3.104-1.046 2.826-1.783 5.424-2.213 7.793-1.19-1.67-2.345-2.87-3.46-3.598-1.07-.6-2.543-1.09-4.42-1.462-2.922 4.203-5.13 8.234-6.624 12.095-2.8 7.332-3.824 14.29-3.074 20.87.403 3.543 1.558 6.51 3.465 8.9 2.802 3.517 6.004 4.842 9.607 3.977 2.37-.57 4.708-1.99 7.017-4.26 2.88-2.82 5.223-6.11 7.028-9.874 1.423-3.018 2.645-6.64 3.664-10.868 1.727-.93 2.768-2.33 3.122-4.2.7-3.222.92-5.833.66-7.83-1.03 1.21-1.87 2.045-2.516 2.51m-56.01 32.806c.82-5.105 1.586-9.202 2.302-12.292 1.303-4.947 3.292-9.15 5.967-12.606 1.237 2.07 1.97 4.127 2.203 6.165.648 5.68-.102 10.958-2.247 15.832-1.258-1.963-2.19-3.266-2.797-3.91-1.928 2.11-3.736 4.38-5.427 6.81m-12.35-.844c-.08 4.276-.048 9.392.098 15.347.146 5.955.338 9.986.578 12.09.14 1.237.9 2.205 2.282 2.903 2.3 1.164 4.776 1.977 7.43 2.438.09-8.568.175-13.67.257-15.302.065-1.766.404-6.397 1.018-13.89.877 1.85 1.59 3.12 2.135 3.813 1.72 2.232 3.83 3.046 6.33 2.446 3.733-.896 6.772-4.664 9.117-11.303 2.83-7.922 3.88-15.11 3.145-21.558-.354-3.107-1.202-5.872-2.545-8.296-1.015-1.886-2.265-3.2-3.75-3.94-3.177-1.538-5.138-2.218-5.885-2.04-.714.173-1.9 1.608-3.56 4.306-1.997 3.26-3.548 6.62-4.654 10.077-.492-4.31-.872-6.62-1.14-6.935-.47-.608-2.65-1.44-6.538-2.498l-1.855-.482c-1.4 8.198-2.22 19.14-2.462 32.825M467.45 34.567c-.492 4.478-1.565 8.082-3.22 10.814-1.16 1.824-2.76 3.307-4.796 4.448.095-4.726.822-8.874 2.183-12.445 1.36-3.57 3.325-6.522 5.894-8.855.154 2.228.134 4.24-.06 6.04m5.024 18.205c-2.44 1.994-5.138 3.345-8.09 4.054-1.17.28-2.635.444-4.397.49-.215-1.013-.357-1.82-.426-2.422-.086-.77-.142-1.837-.164-3.205 5.974-1.708 10.497-4.888 13.568-9.54 2.993-4.46 4.23-8.96 3.713-13.506-.388-3.408-1.983-5.84-4.783-7.297-2.304-1.197-4.608-1.52-6.912-.966-1.493.36-2.813 1.07-3.958 2.136-2.895 2.686-5.382 6.183-7.458 10.492-4.36 9.15-6.107 17.515-5.243 25.1.377 3.308 1.44 5.92 3.193 7.832 2.588 2.812 6.007 3.707 10.26 2.686 2.5-.6 4.942-1.684 7.332-3.253 2.29-1.545 3.906-3.032 4.844-4.46 1.535-2.324 2.532-6.596 2.99-12.817-1.728 2.097-3.217 3.656-4.468 4.677m-51.77 14.076c-1.04-1.81-1.642-3.45-1.81-4.92-.266-2.34.012-5.23.838-8.673.825-3.442 2.07-6.924 3.736-10.45.86-1.818 2.293-4.016 4.3-6.592-.35 4.547-.59 7.85-.72 9.905-.066 2.66.067 5.58.397 8.762-2.86 5.938-5.105 9.927-6.74 11.967m8.96-48.237c-1.026 6.803-1.632 12.458-1.82 16.965-2.29-1.955-5.217-3.363-8.783-4.224-3.324 4.78-5.83 9.123-7.52 13.03-3.412 7.79-4.712 15.258-3.898 22.408.46 4.044 1.625 7.094 3.494 9.15 2.326 2.567 5.258 3.424 8.796 2.575 2.27-.545 4.124-1.847 5.557-3.908 1.003-1.443 2.294-3.727 3.872-6.852.56 2.577 1.422 4.44 2.587 5.583 1.162 1.147 2.556 1.524 4.18 1.135 2.01-.484 4.388-1.57 7.13-3.257.362-1.22 1-3.38 1.913-6.484.493-1.526 1.24-4.485 2.24-8.88-2.215 1.63-4.957 3.027-8.226 4.19-.81-2.14-1.58-5.08-2.305-8.82.732-3.23 1.195-5.314 1.388-6.253 1.37-6.405 2.473-13.415 3.306-21.03 1.008-8.995 1.334-15.064.976-18.205-.148-1.303-1.095-2.294-2.84-2.974-2.37-.905-4.588-1.49-6.65-1.75-1.022 3.92-2.154 9.787-3.397 17.603M355.3 79.256c-.21-1.837-.016-4.08.583-6.73.874-3.746 2.293-7.382 4.26-10.91 2.518-4.518 5.54-7.99 9.066-10.415-.93 5.613-1.706 9.92-2.33 12.918-.757 3.615-1.845 6.93-3.27 9.95-2.058 4.168-4.393 7.234-7.003 9.2-.743-1.538-1.178-2.875-1.308-4.012m23.66-3.054c-.715.172-1.674.385-2.878.64.99-3.877 1.75-8.042 2.278-12.493.926-7.673 1.22-12.996.88-15.97-.15-1.336-.928-2.3-2.33-2.89-1.614-.71-3.896-1.28-6.845-1.704-.146 1.65-.392 4.025-.738 7.13-1.612-1.262-3.02-2.194-4.22-2.798-1.478-.675-3.215-1.134-5.21-1.376-4.892 3.887-8.962 9.138-12.21 15.753-4.218 8.634-5.912 16.593-5.082 23.877.282 2.473 1.016 4.528 2.203 6.165 1.74 2.397 4.023 3.257 6.846 2.58 4.447-1.07 9.01-5.357 13.69-12.865-.125 1.54-.14 2.71-.05 3.513.187 1.638.772 2.82 1.755 3.544 1.27.93 3.466 1.02 6.582.272 1.233-.296 1.966-.593 2.2-.89.236-.26.764-1.194 1.58-2.8 1.66-3.28 3.162-6.782 4.506-10.503-1.193.355-2.18.625-2.958.812m-41.02-9.152c.137-.548.783-2.918 1.94-7.11.45-1.617.638-2.743.565-3.378-.098-.87-.707-1.82-1.826-2.858-1.602-1.47-3.67-2.654-6.208-3.556-.697 1.782-1.322 4.06-1.872 6.835-1.088-.77-2.215-1.365-3.38-1.79-1.166-.422-2.35-.66-3.558-.715-1.38 6.03-2.18 12.315-2.403 18.856-.4 12.01-.45 19.332-.15 21.97.112.97.59 1.662 1.438 2.077 2.127 1.104 4.713 2.148 7.76 3.132.156-10.92 1.014-19.483 2.574-25.694 1.6.577 2.902.745 3.91.503 1.134-.272 1.952-.707 2.45-1.308.588-.69 1.08-1.94 1.474-3.752.4-1.745.607-3.596.617-5.555-1.26 1.23-2.372 2.01-3.334 2.345M292.37 81.285c.6-6.426.85-10.108.742-11.043-.09-.802-.73-1.576-1.915-2.32-2.19-1.363-4.777-2.115-7.76-2.257-1.317 4.538-2.434 11.277-3.35 20.216-.853 8.308-.957 15.3-.31 20.98.073.636.162 1.13.27 1.482.22.77 1.236 1.488 3.046 2.152 2.257.796 3.695 1.12 4.312.973.974-.234 3.1-2.495 6.38-6.784 1.855-2.436 3.72-5.528 5.595-9.273l-.182 6.738c.22 1.938.773 3.264 1.655 3.98 1.208.945 3.11 1.107 5.707.483 1.135-.272 2.134-.58 2.995-.924 1.084-.433 1.903-1.144 2.458-2.135 1.965-3.526 3.568-7.6 4.81-12.224-.725.38-1.708.82-2.95 1.325-1.34.53-2.336.87-2.985 1.027.987-5.97 1.63-11.736 1.93-17.3.283-6.008.333-9.813.15-11.417-.08-.702-.714-1.442-1.904-2.22-1.697-1.138-3.828-2-6.396-2.584-2.868 13.458-5.502 22.535-7.902 27.23-1.673 3.458-3.77 6.416-6.29 8.875.787-4.788 1.418-9.78 1.894-14.975M259.677 55.2c-.76 10.31-1.025 17.497-.795 21.56-2.45-.132-4.65-.427-6.603-.885.01 1.576.078 2.882.195 3.917.393 3.442.913 5.67 1.562 6.68.252.455 1.008.805 2.27 1.05.308.065.843.23 1.607.49-.075 6.37.402 14.065 1.43 23.087.178 1.57.484 2.492.915 2.765 1.072.636 3.735 1.18 7.988 1.635.516-3.66.994-8.683 1.434-15.07.336-4.955.673-9.02 1.012-12.19l1.704-.41c1.23-.328 1.968-.73 2.214-1.2.422-.685 1.18-4.282 2.272-10.792-1.72.413-3.758.68-6.112.798.19-11.786.285-17.696.28-17.73-.005-4.15-.143-7.413-.413-9.787-.08-.702-.155-1.2-.222-1.493-.18-.71-.57-1.2-1.167-1.47-1.94-.94-4.65-1.595-8.126-1.962-.602 2.616-1.084 6.285-1.447 11.006m-23.483 57.388c-.906-2.39-1.48-4.64-1.72-6.745-.47-4.142.234-8.637 2.116-13.483 1.135-2.915 2.54-5.38 4.21-7.396.163.854.27 1.498.32 1.932.24 2.105.196 4.072-.128 5.9-.052.425-.354 1.58-.906 3.462 2.45-.726 4.315-1.482 5.593-2.27 1.403-.852 2.392-1.527 2.97-2.026.575-.5.918-1 1.028-1.508.61-2.55.764-5.144.464-7.784-.358-3.14-1.527-5.057-3.507-5.75-.905-.33-2.112-.54-3.622-.623-1.51-.083-2.703-.02-3.58.19-.81.195-1.64.67-2.488 1.422-3.033 2.65-5.642 6.09-7.827 10.322-4.568 8.787-6.423 16.938-5.567 24.457.58 5.078 2.647 8.443 6.203 10.095 1.87.89 4.004 1.047 6.406.47 1.784-.428 3.908-1.247 6.372-2.456 2.557-1.267 4.11-2.258 4.663-2.975.695-.92 1.53-4.847 2.51-11.776-4.4 2.944-8.904 5.123-13.51 6.538M210.8 96.183c-.49 4.477-1.563 8.082-3.22 10.814-1.16 1.823-2.757 3.306-4.794 4.446.095-4.725.822-8.874 2.183-12.444 1.36-3.572 3.324-6.523 5.893-8.857.154 2.23.133 4.242-.062 6.04m5.026 18.206c-2.44 1.993-5.138 3.343-8.09 4.052-1.17.28-2.635.444-4.397.49-.216-1.012-.358-1.82-.427-2.422-.087-.768-.143-1.836-.165-3.204 5.974-1.708 10.497-4.89 13.568-9.54 2.993-4.46 4.23-8.962 3.713-13.506-.39-3.41-1.984-5.84-4.783-7.297-2.305-1.197-4.61-1.52-6.913-.966-1.493.358-2.813 1.07-3.958 2.134-2.895 2.688-5.38 6.185-7.458 10.494-4.36 9.15-6.107 17.515-5.243 25.1.377 3.307 1.44 5.92 3.193 7.832 2.588 2.812 6.007 3.707 10.26 2.686 2.5-.6 4.942-1.685 7.332-3.253 2.29-1.547 3.906-3.033 4.844-4.46 1.535-2.325 2.532-6.598 2.99-12.82-1.728 2.1-3.217 3.658-4.468 4.68m-42.25-38.518c-.76 10.31-1.025 17.496-.795 21.56-2.45-.133-4.65-.428-6.602-.886.012 1.576.078 2.882.196 3.918.392 3.442.912 5.668 1.56 6.68.253.454 1.01.805 2.272 1.05.307.064.842.228 1.606.49-.074 6.37.402 14.064 1.43 23.086.18 1.57.484 2.493.915 2.767 1.073.635 3.736 1.18 7.99 1.634.516-3.658.993-8.682 1.433-15.07.336-4.954.673-9.018 1.012-12.19l1.704-.408c1.23-.33 1.968-.73 2.214-1.2.423-.686 1.18-4.283 2.272-10.793-1.72.412-3.758.678-6.11.797.19-11.786.283-17.696.28-17.73-.007-4.15-.145-7.413-.415-9.786-.08-.7-.154-1.198-.22-1.49-.18-.712-.57-1.203-1.168-1.472-1.943-.94-4.652-1.595-8.128-1.962-.602 2.616-1.084 6.285-1.447 11.006m-19.426 2.193c-1.245 1.67-1.743 3.593-1.495 5.765.167 1.47.657 2.554 1.47 3.25 1.333 1.158 2.907 1.518 4.725 1.08 1.558-.373 2.793-1.236 3.707-2.588 1.027-1.516 1.432-3.227 1.216-5.132-.168-1.47-.69-2.683-1.566-3.64-1.065-1.152-2.49-1.514-4.275-1.085-1.623.39-2.884 1.173-3.783 2.35m5.5 50.48c.92-5.68 1.453-9.635 1.6-11.867.752-9.483 1.05-14.91.895-16.28-.06-.535-.208-.946-.44-1.234-.23-.254-.734-.578-1.512-.975-2.12-1.038-4.19-1.793-6.21-2.27-1.875 5.497-3.506 13.286-4.89 23.368-.958 6.82-1.21 12.22-.757 16.195.225 1.972.75 3.51 1.577 4.616 1.524 1.968 3.747 2.6 6.668 1.9 1.916-.46 3.575-1.408 4.98-2.843.69-.68 1.245-1.946 1.667-3.8.694-2.98 1.215-6.023 1.56-9.127-1.597.9-3.31 1.67-5.137 2.315m-39.318-5.957c.6-6.426.85-10.107.742-11.043-.09-.802-.73-1.575-1.915-2.32-2.19-1.363-4.777-2.115-7.76-2.257-1.317 4.538-2.434 11.278-3.35 20.216-.853 8.307-.957 15.3-.31 20.98.073.636.162 1.13.27 1.48.22.772 1.236 1.49 3.045 2.153 2.258.797 3.696 1.12 4.313.973.973-.234 3.1-2.495 6.38-6.784 1.855-2.436 3.72-5.528 5.595-9.273l-.183 6.738c.22 1.94.773 3.265 1.654 3.98 1.208.946 3.11 1.108 5.707.484 1.137-.273 2.136-.58 2.997-.925 1.084-.433 1.903-1.145 2.458-2.136 1.965-3.527 3.568-7.602 4.81-12.225-.725.378-1.708.82-2.95 1.325-1.34.528-2.336.87-2.985 1.025.987-5.97 1.63-11.736 1.93-17.3.282-6.007.332-9.813.15-11.417-.08-.7-.715-1.44-1.904-2.22-1.697-1.138-3.83-1.998-6.397-2.584-2.868 13.458-5.503 22.535-7.902 27.23-1.673 3.458-3.77 6.415-6.29 8.874.787-4.79 1.418-9.78 1.894-14.976m-42.286 26.01c-.68-5.98.4-12.006 3.242-18.078 1.337-2.896 2.835-5.332 4.494-7.31 1.66-1.976 3.95-4.037 6.874-6.18-.864 8.514-2.026 14.852-3.486 19.012-2.146 6.043-5.505 11.243-10.077 15.602-.584-1.027-.933-2.042-1.047-3.045m14.682-32.258c-1.99-1.375-3.532-2.31-4.62-2.804-1.374-.63-3.023-1.06-4.95-1.283-3.565 3.533-6.403 7.013-8.514 10.437-6.267 10.258-8.915 19.648-7.944 28.168.407 3.576 1.426 6.37 3.055 8.38 1.79 2.25 4.324 2.98 7.603 2.192 2.4-.577 4.71-2.402 6.93-5.474 1.353-1.87 2.842-4.304 4.468-7.303-.973 5.794-1.69 10.78-2.147 14.958-.46 4.178-.6 7.02-.43 8.522.088.77.637 1.495 1.65 2.18 1.736 1.196 4.11 2.136 7.122 2.82 2-7.62 3.796-19.808 5.388-36.565.475-5.194.838-10.276 1.09-15.246.25-4.97.295-8.155.135-9.56-.148-1.302-.745-2.29-1.79-2.968-1.547-1-3.927-1.837-7.137-2.508.178 2.738.208 4.756.09 6.054m-30.63 16.93c.137-.546.784-2.916 1.94-7.107.45-1.618.638-2.745.566-3.38-.1-.868-.708-1.82-1.826-2.857-1.602-1.47-3.67-2.654-6.207-3.556-.697 1.78-1.32 4.06-1.872 6.835-1.087-.77-2.214-1.365-3.38-1.79-1.165-.423-2.35-.662-3.557-.716-1.38 6.032-2.18 12.317-2.403 18.858-.4 12.01-.448 19.332-.147 21.97.11.97.59 1.662 1.437 2.076 2.126 1.104 4.712 2.148 7.76 3.132.156-10.92 1.013-19.484 2.573-25.695 1.6.58 2.903.746 3.91.505 1.135-.273 1.952-.71 2.45-1.31.59-.69 1.08-1.94 1.474-3.752.402-1.744.607-3.596.618-5.555-1.26 1.23-2.372 2.012-3.334 2.345M13.978 161.2c-.208-1.837-.014-4.08.584-6.73.874-3.746 2.293-7.382 4.26-10.91 2.518-4.518 5.542-7.99 9.066-10.415-.928 5.612-1.704 9.918-2.33 12.917-.755 3.614-1.844 6.93-3.267 9.95-2.06 4.168-4.394 7.234-7.004 9.2-.742-1.538-1.178-2.875-1.307-4.012m23.66-3.054c-.715.17-1.675.385-2.88.64.993-3.877 1.752-8.042 2.28-12.494.926-7.67 1.22-12.994.88-15.968-.152-1.336-.93-2.3-2.33-2.89-1.614-.71-3.896-1.28-6.846-1.704-.146 1.65-.392 4.025-.738 7.13-1.61-1.262-3.018-2.194-4.22-2.798-1.478-.676-3.214-1.134-5.21-1.376-4.89 3.887-8.96 9.138-12.21 15.753-4.217 8.633-5.91 16.592-5.08 23.876.28 2.473 1.015 4.528 2.202 6.165 1.74 2.398 4.022 3.258 6.846 2.58 4.446-1.068 9.01-5.356 13.69-12.865-.125 1.54-.142 2.712-.05 3.514.186 1.636.77 2.818 1.754 3.543 1.273.93 3.468 1.02 6.583.273 1.234-.296 1.968-.593 2.2-.89.238-.26.765-1.195 1.583-2.8 1.66-3.28 3.16-6.782 4.505-10.503-1.194.355-2.18.626-2.96.813"/></g></svg>