<svg width="562" height="225" viewBox="0 0 562 225" xmlns="http://www.w3.org/2000/svg"><title>Trienal de Arquitectura de Lisboa</title><g fill="#000" fill-rule="evenodd"><path d="M19.903 224.156h7.224V188.73H19.76v10.627c-1.15-1.1-3.402-2.01-6.372-2.01-7.853 0-12.398 5.885-12.398 13.785 0 3.93 1.34 13.36 11.727 13.36 4.168 0 6.372-1.723 7.186-2.584v2.248zM8.55 210.99c0-3.593 1.34-7.662 5.94-7.662 1.533 0 3.21.335 4.215 1.82.767 1.1 1.102 2.776 1.102 5.745 0 2.298-.144 4.118-.958 5.458-.815 1.3-2.348 2.162-4.648 2.162-4.743 0-5.653-4.31-5.653-7.52v-.003zm35.526 13.5c9.098 0 12.162-5.98 12.545-9.282l-7.277-.144c-.096.862-1.197 3.445-5.027 3.445-4.022 0-5.41-3.063-5.41-5.99H57.1v-.908c0-8.428-4.597-14.264-12.832-14.264-7.612 0-13.066 5.405-13.066 13.595 0 7.9 4.402 13.548 12.874 13.548zm-4.932-16.847c.288-2.637 2.442-4.507 5.172-4.507 2.298 0 4.5 1.247 4.788 4.507h-9.96zm57.265 16.513v-6.602H80.224v-26.91h-7.56v33.512H96.41zm4.554-29.016h7.368v-6.41h-7.368v6.41zm0 29.016h7.368v-26.472h-7.368v26.472zm27.484-18.626h7.224c0-2.057-1.052-8.182-11.393-8.182-6.322 0-11.346 2.823-11.346 8.278 0 6.18 4.976 7.473 10.674 8.24l1.437.19c2.06.288 3.977.72 3.977 2.348 0 1.916-2.06 2.682-4.408 2.682-2.54-.002-4.79-.767-4.79-3.303h-7.417c0 1.387.623 8.708 11.776 8.708 9.91 0 12.303-4.832 12.303-8.9 0-10.68-16.184-6.418-16.184-10.49 0-1.82 2.012-2.395 3.88-2.395 2.54.002 4.266 1.007 4.266 2.825zm38.25 4.692c0-6.607-3.397-12.874-11.68-12.874-3.017 0-5.7 1.148-7.09 2.488V188.73h-7.367v35.426h7.082v-2.107c1.245 1.437 3.64 2.44 6.802 2.44 9 0 12.254-6.553 12.254-14.265v-.003zm-7.56.626c0 3.592-1.34 7.664-5.94 7.664-1.532 0-3.21-.335-4.215-1.82-.767-1.102-1.102-2.78-1.102-5.748 0-2.3.145-4.12.96-5.46.814-1.294 2.347-2.156 4.646-2.156 4.743 0 5.653 4.31 5.653 7.52zm23.507 13.643c7.662 0 13.116-4.59 13.116-13.546 0-9.004-5.453-13.596-13.115-13.596-7.614 0-13.07 4.592-13.07 13.596 0 8.955 5.456 13.547 13.07 13.547zm0-21.162c3.21 0 5.605 2.155 5.605 7.616 0 5.412-2.395 7.568-5.605 7.568-3.114 0-5.557-2.156-5.557-7.568 0-5.46 2.443-7.616 5.557-7.616zm33.088 10.68c0 2.252-1.533 5.126-5.893 5.126-2.827 0-3.593-1.772-3.593-2.97 0-1.676 1.293-2.73 3.066-3.066 1.82-.383 6.42-.958 6.42-.958v1.87zm-16.184-7.664h7.128c0-1.052.287-3.256 4.647-3.256 3.546 0 4.408 1.246 4.408 3.066v.91l-8.72 1.245c-2.44.335-8.326 1.82-8.326 7.855 0 5.313 3.732 8.326 9.19 8.326 4.55 0 6.898-1.53 8.047-2.725v2.39h7.8s-.575-2.01-.575-3.925v-14.27c0-3.827-1.628-8.612-11.346-8.612-10.054 0-12.16 5.12-12.255 8.996zM26.84 138.754v-6.65H.272v6.65h9.48v26.86h7.56v-26.86h9.528zm14.94 7.757v-7.367h-2.3c-2.633 0-5.17 1.148-6.463 3.35v-3.35h-7.13v26.472h7.37v-14.077c0-3.687 2.153-5.075 5.792-5.075 1.005 0 2.73.048 2.73.048zm3.595-9.91h7.368v-6.41h-7.368v6.41zm0 29.015h7.368v-26.472h-7.368v26.472zm24.318.336c9.097 0 12.16-5.982 12.544-9.282l-7.277-.144c-.096.86-1.197 3.444-5.028 3.444-4.022 0-5.41-3.06-5.41-5.988h18.194v-.908c0-8.43-4.596-14.264-12.832-14.264-7.61 0-13.065 5.405-13.065 13.594 0 7.9 4.4 13.55 12.873 13.55zm-4.932-16.848c.288-2.637 2.443-4.506 5.172-4.506 2.298 0 4.5 1.246 4.788 4.506h-9.96zm46.158 16.513v-17.907c0-5.456-3.445-8.9-9.572-8.9-3.306 0-5.7 1.196-7.282 2.918v-2.583h-7.272v26.472h7.367v-14.792c0-3.977 2.3-5.892 5.27-5.892 2.54 0 4.072 1.533 4.072 4.406v16.28h7.416zm21.025-10.147c0 2.252-1.533 5.126-5.893 5.126-2.826 0-3.593-1.773-3.593-2.97 0-1.677 1.294-2.73 3.066-3.066 1.82-.383 6.42-.958 6.42-.958v1.868zm-16.183-7.664h7.128c0-1.053.288-3.256 4.647-3.256 3.546 0 4.408 1.245 4.408 3.065v.91l-8.72 1.246c-2.44.334-8.325 1.82-8.325 7.854 0 5.313 3.73 8.327 9.188 8.327 4.55 0 6.9-1.53 8.05-2.726v2.39h7.798s-.575-2.01-.575-3.925v-14.27c0-3.827-1.628-8.612-11.345-8.612-10.055 0-12.16 5.12-12.255 8.996zm28.87 17.81H152V130.19h-7.37v35.425zm41.61 0h7.224V130.19h-7.368v10.627c-1.15-1.1-3.402-2.01-6.372-2.01-7.852 0-12.398 5.884-12.398 13.785 0 3.93 1.34 13.36 11.728 13.36 4.167 0 6.37-1.723 7.185-2.584v2.247zm-11.354-13.166c0-3.59 1.34-7.66 5.94-7.66 1.533 0 3.21.334 4.216 1.82.766 1.1 1.102 2.776 1.102 5.744 0 2.3-.144 4.118-.958 5.46-.815 1.297-2.348 2.16-4.647 2.16-4.744 0-5.654-4.312-5.654-7.52v-.004zm35.527 13.503c9.097 0 12.162-5.982 12.545-9.282l-7.278-.144c-.096.86-1.197 3.444-5.028 3.444-4.022 0-5.41-3.06-5.41-5.988h18.194v-.908c0-8.43-4.596-14.264-12.832-14.264-7.61 0-13.065 5.405-13.065 13.594 0 7.9 4.4 13.55 12.873 13.55zm-4.932-16.848c.288-2.637 2.443-4.506 5.172-4.506 2.3 0 4.5 1.246 4.788 4.506h-9.96zm51.81 10.193l1.724 6.32h8.236l-10.055-33.51h-10.582l-10.007 33.51h7.852l1.628-6.32h11.204zm-1.723-6.458h-7.71l3.88-14.843 3.83 14.843zm30.688-6.326v-7.367h-2.298c-2.634 0-5.17 1.148-6.464 3.35v-3.35h-7.128v26.472h7.367v-14.077c0-3.687 2.155-5.075 5.794-5.075 1.005 0 2.73.048 2.73.048zm20.69 28.3h7.368v-35.667h-7.368v1.724c-1.15-1.198-3.4-2.06-6.37-2.06-7.854 0-12.4 5.932-12.4 13.836 0 3.88 1.293 13.308 11.728 13.308 3.64 0 5.893-1.243 7.042-2.44v11.3zm-11.21-22.36c0-3.59 1.342-7.663 5.94-7.663 1.534 0 3.21.335 4.217 1.82.766 1.102 1.1 2.778 1.1 5.748 0 2.3-.142 4.12-.957 5.46-.814 1.294-2.347 2.156-4.647 2.156-4.742 0-5.653-4.31-5.653-7.52zm47.498 13.165v-26.472h-7.368v15.223c0 3.5-1.87 5.605-5.03 5.605-2.54 0-4.025-1.483-4.025-4.5v-16.327h-7.368v17.716c0 5.168 3.014 9.09 9.188 9.09 3.69 0 6.037-1.34 7.33-2.678v2.343h7.273zm5.272-29.016h7.368v-6.41h-7.368v6.41zm0 29.015h7.368v-26.472h-7.368v26.472zm27.24-.095v-6.123s-1.677.143-3.21.143c-1.58 0-2.058-.43-2.058-2.06v-12.406h5.602v-5.93h-5.603v-7.04h-7.416v7.04h-3.83v5.93h3.83v12.79c0 4.93.72 7.943 6.89 7.943 3.352 0 5.794-.287 5.794-.287zm14.65.43c9.098 0 12.162-5.982 12.545-9.282l-7.277-.144c-.096.86-1.197 3.444-5.028 3.444-4.022 0-5.41-3.06-5.41-5.988h18.194v-.908c0-8.43-4.597-14.264-12.833-14.264-7.61 0-13.065 5.405-13.065 13.594 0 7.9 4.4 13.55 12.874 13.55zm-4.93-16.848c.286-2.637 2.44-4.506 5.17-4.506 2.298 0 4.5 1.246 4.788 4.506h-9.96zm38.83 6.512c-.48 3.16-2.634 4.357-4.98 4.357-3.016 0-5.41-2.154-5.41-7.567 0-5.46 2.346-7.616 5.506-7.616 2.49.003 4.406 1.247 4.79 4.5h7.42c-.622-6.986-5.506-10.48-12.16-10.48-7.613 0-13.162 4.738-13.162 13.692 0 9 5.167 13.45 12.778 13.45 6.8 0 11.826-3.493 12.593-10.336h-7.375zm25.33 9.906v-6.123s-1.677.143-3.21.143c-1.58 0-2.058-.43-2.058-2.06v-12.406h5.602v-5.93h-5.603v-7.04h-7.415v7.04h-3.83v5.93h3.83v12.79c0 4.93.717 7.943 6.89 7.943 3.35 0 5.792-.287 5.792-.287zm27.578.095v-26.472h-7.367v15.223c0 3.5-1.87 5.605-5.03 5.605-2.54 0-4.026-1.483-4.026-4.5v-16.327h-7.367v17.716c0 5.168 3.014 9.09 9.188 9.09 3.69 0 6.038-1.34 7.33-2.678v2.343h7.273zm21.164-19.104v-7.367h-2.3c-2.632 0-5.17 1.148-6.462 3.35v-3.35h-7.13v26.472h7.37v-14.077c0-3.687 2.153-5.075 5.792-5.075 1.006 0 2.73.048 2.73.048zm19.493 8.958c0 2.252-1.534 5.126-5.893 5.126-2.827 0-3.594-1.773-3.594-2.97 0-1.677 1.294-2.73 3.067-3.066 1.82-.383 6.42-.958 6.42-.958v1.868zm-16.184-7.664h7.128c0-1.053.288-3.256 4.648-3.256 3.545 0 4.408 1.245 4.408 3.065v.91l-8.72 1.246c-2.44.334-8.326 1.82-8.326 7.854 0 5.313 3.732 8.327 9.188 8.327 4.552 0 6.9-1.53 8.05-2.726v2.39h7.798s-.575-2.01-.575-3.925v-14.27c0-3.827-1.626-8.612-11.344-8.612-10.054 0-12.158 5.12-12.254 8.996zM.664 93.1l342.222.012V22.705h38.742V.245L.664.232V93.1M523.236 70.454V.234h-57.323V92.91h95.705V70.454h-38.382"/></g></svg>