<?xml version="1.0" encoding="UTF-8" standalone="no"?>
<svg width="128px" height="142px" viewBox="0 0 128 142" version="1.1" xmlns="http://www.w3.org/2000/svg" xmlns:xlink="http://www.w3.org/1999/xlink" xmlns:sketch="http://www.bohemiancoding.com/sketch/ns">
    <title>Casa da Arquitectura</title>
    <defs></defs>
    <g id="Page-1" stroke="none" stroke-width="1" fill="none" fill-rule="evenodd" sketch:type="MSPage">
        <g id="casadaarquitectura" sketch:type="MSLayerGroup" fill="#ffffff">
            <path d="M0.06,113.354 L6.336,113.354 L6.336,142 L0.06,142 L0.06,113.354 Z" id="Fill-1" sketch:type="MSShapeGroup"></path>
            <path d="M64.904,127.066 L64.289,127.066 L64.289,142 L71.166,142 L64.904,127.066" id="Fill-3" sketch:type="MSShapeGroup"></path>
            <path d="M31.199,106.738 L38.175,106.738 L38.175,71.476 L40.774,64.213 L54.769,64.213 L57.482,71.476 L44.687,71.476 L44.687,78.092 L51.023,78.092 L51.023,106.738 L57.577,106.738 L57.577,142 L41.283,142 C41.621,141.86 41.951,141.701 42.272,141.524 C42.656,141.312 43.025,141.075 43.378,140.815 C43.569,140.674 43.755,140.527 43.936,140.373 C44.212,140.138 44.478,139.89 44.731,139.629 C44.947,139.406 45.154,139.174 45.354,138.936 C45.548,138.702 45.735,138.463 45.913,138.217 C46.151,137.888 46.372,137.546 46.573,137.193 C46.846,136.715 47.077,136.215 47.264,135.697 C47.439,135.209 47.57,134.705 47.653,134.193 C47.789,133.354 47.881,132.508 47.927,131.659 C47.976,130.843 48.006,130.025 48.019,129.207 C48.027,128.736 48.031,128.264 48.031,127.792 L48.031,106.738 L41.416,106.738 L41.413,129.235 C41.422,130.446 41.324,131.655 41.12,132.849 C40.993,133.683 40.571,134.445 39.932,134.996 C39.301,135.597 38.522,136.02 37.675,136.222 C36.709,136.445 35.706,136.447 34.739,136.227 C33.876,136.025 33.091,135.573 32.483,134.927 C31.767,134.115 31.355,133.08 31.318,131.998 C31.227,131.128 31.187,130.253 31.199,129.378 C31.203,129.04 31.203,128.702 31.199,128.364 C31.193,127.93 31.193,127.496 31.199,127.062 L31.199,106.738" id="Fill-4" sketch:type="MSShapeGroup"></path>
            <path d="M94.935,116.004 L90.333,128.109 L99.51,128.109 L94.935,116.004" id="Fill-5" sketch:type="MSShapeGroup"></path>
            <path d="M102.028,134.737 L88.033,134.737 L85.289,142 L104.711,142 L102.028,134.737" id="Fill-6" sketch:type="MSShapeGroup"></path>
            <path d="M114.114,10.301 L109.383,22.407 L118.817,22.407 L114.114,10.301" id="Fill-7" sketch:type="MSShapeGroup"></path>
            <path d="M70.397,36.214 L63.239,36.214 L60.449,28.951 L53.832,28.945 L47.215,28.951 L44.425,36.214 L51.047,36.214 L64.267,71.476 L64.267,78.092 L57.577,78.092 L57.577,106.738 L70.397,106.738 L70.397,36.214" id="Fill-8" sketch:type="MSShapeGroup"></path>
            <path d="M77.724,56.542 L77.109,56.542 L77.109,71.476 L84.346,71.476 L77.724,56.542" id="Fill-9" sketch:type="MSShapeGroup"></path>
            <path d="M53.846,10.289 L49.244,22.394 L58.421,22.394 L53.846,10.289" id="Fill-10" sketch:type="MSShapeGroup"></path>
            <path d="M47.762,45.563 L43.16,57.669 L52.337,57.669 L47.762,45.563" id="Fill-11" sketch:type="MSShapeGroup"></path>
            <path d="M70.397,106.738 C73.793,106.883 76.756,109.086 77.873,112.296 C78.325,113.88 78.538,115.523 78.503,117.17 C78.538,119.169 77.957,121.13 76.839,122.787 C75.569,124.455 73.815,125.689 71.817,126.323 L78.503,142 L91.684,106.738 L70.397,106.738" id="Fill-12" sketch:type="MSShapeGroup"></path>
            <path d="M6.736,71.476 L17.141,71.476 L17.141,93.444 C17.157,94.676 17.085,95.908 16.924,97.13 C16.82,98.163 16.33,99.118 15.551,99.805 C14.841,100.432 13.972,100.853 13.039,101.022 C11.966,101.225 10.859,101.153 9.822,100.812 C8.93,100.503 8.161,99.918 7.625,99.141 C7.034,98.029 6.737,96.784 6.762,95.525 C6.745,95.111 6.736,94.696 6.736,94.281 L6.736,71.476" id="Fill-13" sketch:type="MSShapeGroup"></path>
            <path d="M14.209,64.601 C12.888,64.831 11.549,64.945 10.208,64.942 L6.665,64.938 L6.665,42.699 L9.33,42.702 C10.398,42.71 11.464,42.8 12.518,42.971 C13.469,43.123 14.4,43.379 15.295,43.733 C16.174,44.08 16.99,44.572 17.708,45.186 C18.45,45.848 19.082,46.623 19.581,47.483 C20.082,48.354 20.461,49.289 20.708,50.264 C20.968,51.296 21.117,52.353 21.152,53.416 C21.216,54.77 21.117,56.127 20.858,57.457 C20.644,58.546 20.239,59.655 19.724,60.567 C19.21,61.48 18.281,62.576 17.506,63.226 C16.731,63.876 15.406,64.428 14.209,64.601 L14.209,64.601 Z M31.199,71.476 L44.425,36.214 L37.267,36.214 L50.494,0.94 L24.893,0.94 C28.59,2.061 31.889,4.215 34.401,7.149 L29.707,11.625 C28.13,9.901 26.212,8.526 24.074,7.586 C21.354,6.454 18.336,6.252 15.49,7.014 C12.302,7.941 9.645,10.155 8.159,13.124 C6.758,16.159 6.559,19.612 7.603,22.788 C8.596,25.851 10.868,28.334 13.832,29.594 C16.463,30.706 19.379,30.957 22.162,30.31 C25.082,29.503 27.704,27.863 29.707,25.59 L34.257,30.338 C32.342,32.279 30.15,33.924 27.752,35.22 C25.59,36.268 23.244,36.883 20.846,37.03 C19.102,37.166 17.348,37.113 15.616,36.871 C14.188,36.581 12.741,36.395 11.287,36.315 C10.355,36.257 9.422,36.224 8.489,36.217 L0.001,36.214 L0.001,71.476 L23.876,71.476 L23.874,93.111 C23.969,95.839 23.656,98.566 22.946,101.201 C22.337,103.313 21.175,105.225 19.58,106.738 L19.58,113.354 L12.89,113.354 L12.89,142 L31.478,142 C31.446,141.987 31.414,141.974 31.382,141.96 C29.666,141.237 28.153,140.104 26.976,138.661 C26.071,137.53 25.451,136.199 25.168,134.779 C24.799,132.885 24.607,130.962 24.596,129.033 L24.583,106.738 L31.199,106.738 L31.199,71.476 L31.199,71.476 Z" id="Fill-15" sketch:type="MSShapeGroup"></path>
            <path d="M88.259,0.94 L110.673,0.94 L97.07,36.214 L104.046,36.214 L106.915,28.951 L121.303,28.951 L123.733,35.348 L116.039,35.348 C112.607,35.252 109.216,36.113 106.245,37.833 C103.447,39.439 101.125,41.759 99.517,44.557 C97.885,47.379 97.041,50.586 97.07,53.845 C97.002,58.725 98.895,63.428 102.327,66.898 C104.367,69.07 106.937,70.675 109.784,71.556 C108.586,71.953 107.43,72.464 106.33,73.082 C103.497,74.619 101.135,76.898 99.499,79.674 C97.879,82.529 97.055,85.766 97.114,89.047 C96.94,94.034 98.836,98.87 102.351,102.411 C106.065,105.933 111.038,107.817 116.153,107.639 L127.01,107.639 L127.01,142 L111.497,142 L98.305,106.738 L91.684,106.738 L91.684,100.146 L77.061,100.146 L77.061,90.869 L91.684,90.869 L91.684,84.421 L77.061,84.421 L77.061,78.044 L91.684,78.044 L91.684,71.476 L84.637,55.8 C85.891,55.373 87.062,54.735 88.1,53.914 C89.01,53.183 89.754,52.268 90.286,51.229 C90.796,50.207 91.119,49.102 91.241,47.966 C91.413,46.477 91.327,44.969 90.986,43.509 C90.647,42.112 89.998,40.809 89.087,39.697 C88.497,38.975 87.793,38.354 87.003,37.859 C86.456,37.523 85.874,37.251 85.265,37.048 C87.698,36.907 90.007,35.926 91.797,34.273 C93.781,32.426 94.873,29.814 94.797,27.105 C94.811,25.69 94.521,24.287 93.945,22.994 C93.214,21.523 92.236,20.189 91.051,19.051 C89.538,17.656 87.984,16.305 86.393,15 C84.66,13.592 83.016,12.079 81.47,10.469 C81.088,9.992 80.877,9.402 80.87,8.791 C80.892,8.159 81.202,7.572 81.71,7.197 C82.322,6.709 83.089,6.458 83.871,6.49 C84.624,6.499 85.363,6.698 86.018,7.068 C86.737,7.474 87.387,7.991 87.945,8.599 C88.399,9.081 88.819,9.594 89.203,10.133 L94.174,5.747 L93.064,4.52 L92.478,3.926 L91.741,3.235 C91.252,2.795 90.736,2.385 90.196,2.008 C89.59,1.585 88.941,1.227 88.259,0.94" id="Fill-17" sketch:type="MSShapeGroup"></path>
            <path d="M73.378,30.829 C74.161,32.184 75.159,33.404 76.332,34.439 C77.211,35.196 78.208,35.805 79.283,36.241 C78.717,36.223 78.152,36.215 77.586,36.214 L70.397,36.214 L57.17,0.94 L79.671,0.94 C79.193,1.156 78.734,1.413 78.3,1.707 C77.125,2.505 76.134,3.546 75.396,4.76 C74.753,5.854 74.377,7.085 74.299,8.352 C74.216,9.47 74.366,10.594 74.74,11.652 C75.402,13.416 76.453,15.009 77.813,16.314 C78.872,17.4 79.979,18.437 81.132,19.423 C82.175,20.318 83.23,21.2 84.296,22.069 C85.036,22.684 85.751,23.331 86.437,24.006 C87.087,24.597 87.604,25.319 87.956,26.124 C88.251,26.814 88.285,27.589 88.052,28.303 C87.755,29.049 87.219,29.675 86.529,30.085 C85.805,30.523 84.97,30.746 84.124,30.725 C83.261,30.722 82.417,30.481 81.683,30.03 C80.88,29.526 80.176,28.879 79.606,28.122 C79.103,27.47 78.654,26.777 78.265,26.05 L72.624,29.454 C72.858,29.922 73.11,30.38 73.378,30.829" id="Fill-18" sketch:type="MSShapeGroup"></path>
            <path d="M113.7,56.818 L121.707,56.818 L124.877,60.915 C126.284,58.854 127.029,56.412 127.01,53.916 C127.075,50.74 125.855,47.672 123.627,45.407 C121.516,43.136 118.544,41.865 115.444,41.908 C112.33,41.834 109.327,43.068 107.165,45.312 C104.926,47.625 103.722,50.748 103.83,53.965 C103.684,57.542 105.243,60.975 108.032,63.218 C110.13,64.958 112.775,65.901 115.5,65.879 C116.82,65.887 118.131,65.658 119.37,65.203 C119.587,65.124 119.801,65.037 120.012,64.943 L113.7,56.818" id="Fill-20" sketch:type="MSShapeGroup"></path>
            <path d="M84.74,46.376 C84.739,46.412 84.738,46.448 84.737,46.484 C84.739,47.016 84.637,47.543 84.437,48.036 C84.271,48.429 84.01,48.775 83.678,49.044 C83.228,49.378 82.709,49.607 82.159,49.714 C81.226,49.91 80.275,50.004 79.322,49.995 L77.026,49.995 L77.023,46.376 L77.026,42.756 L79.322,42.757 C80.275,42.747 81.226,42.841 82.159,43.038 C82.709,43.145 83.228,43.374 83.678,43.707 C84.01,43.976 84.271,44.323 84.437,44.716 C84.637,45.209 84.739,45.736 84.737,46.268 C84.738,46.304 84.739,46.34 84.74,46.376" id="Fill-22" sketch:type="MSShapeGroup"></path>
            <path d="M71.92,116.9 C71.92,116.936 71.919,116.972 71.917,117.007 C71.919,117.539 71.817,118.066 71.618,118.559 C71.451,118.953 71.191,119.299 70.859,119.568 C70.408,119.902 69.889,120.13 69.339,120.238 C68.406,120.434 67.455,120.528 66.502,120.518 L64.207,120.519 L64.204,116.9 L64.207,113.28 L66.502,113.281 C67.455,113.271 68.406,113.365 69.339,113.561 C69.889,113.669 70.408,113.897 70.859,114.231 C71.191,114.5 71.451,114.846 71.618,115.24 C71.817,115.733 71.919,116.26 71.917,116.792 C71.919,116.828 71.92,116.864 71.92,116.9" id="Fill-23" sketch:type="MSShapeGroup"></path>
        </g>
    </g>
</svg>