<?xml version="1.0" encoding="UTF-8" standalone="no"?>
<svg width="20px" height="16px" viewBox="0 0 20 16" version="1.1" xmlns="http://www.w3.org/2000/svg" xmlns:xlink="http://www.w3.org/1999/xlink" xmlns:sketch="http://www.bohemiancoding.com/sketch/ns">
    <!-- Generator: Sketch 3.3.2 (12043) - http://www.bohemiancoding.com/sketch -->
    <title>menu-hamburger-white</title>
    <desc>Created with Sketch.</desc>
    <defs></defs>
    <g id="Page-1" stroke="none" stroke-width="1" fill="none" fill-rule="evenodd" sketch:type="MSPage">
        <g id="menu-hamburger-white" sketch:type="MSArtboardGroup" fill="#FFFFFF">
            <path d="M1.00069463,9 L18.9993054,9 C19.5519738,9 20,8.55613518 20,8 C20,7.44771525 19.5525308,7 18.9993054,7 L1.00069463,7 C0.448026248,7 0,7.44386482 0,8 C0,8.55228475 0.44746922,9 1.00069463,9 Z M1.00069463,3 L18.9993054,3 C19.5519738,3 20,2.55613518 20,2 C20,1.44771525 19.5525308,1 18.9993054,1 L1.00069463,1 C0.448026248,1 0,1.44386482 0,2 C0,2.55228475 0.44746922,3 1.00069463,3 Z M1.00069463,15 L18.9993054,15 C19.5519738,15 20,14.5561352 20,14 C20,13.4477153 19.5525308,13 18.9993054,13 L1.00069463,13 C0.448026248,13 0,13.4438648 0,14 C0,14.5522847 0.44746922,15 1.00069463,15 Z" id="Path" sketch:type="MSShapeGroup"></path>
        </g>
    </g>
</svg>