<?xml version="1.0" encoding="UTF-8" standalone="no"?>
<svg width="20px" height="16px" viewBox="0 0 20 16" version="1.1" xmlns="http://www.w3.org/2000/svg" xmlns:xlink="http://www.w3.org/1999/xlink" xmlns:sketch="http://www.bohemiancoding.com/sketch/ns">
    <!-- Generator: Sketch 3.3.2 (12043) - http://www.bohemiancoding.com/sketch -->
    <title>menu-close-white</title>
    <desc>Created with Sketch.</desc>
    <defs></defs>
    <g id="Page-1" stroke="none" stroke-width="1" fill="none" fill-rule="evenodd" sketch:type="MSPage">
        <g id="menu-close-white" sketch:type="MSArtboardGroup" fill="#000000">
            <path d="M17.072804,13.6585904 C17.4623694,14.0481559 17.4643148,14.6778209 17.0710678,15.0710678 L17.0710678,15.0710678 C16.6805435,15.4615921 16.0483712,15.4625848 15.6585904,15.072804 L10,9.41421356 L4.34140958,15.072804 C3.95184417,15.4623694 3.32217917,15.4643148 2.9289322,15.0710678 L2.9289322,15.0710678 C2.5384079,14.6805435 2.53741522,14.0483712 2.92719598,13.6585904 L8.5857864,8 L2.92719598,2.34140958 C2.53763057,1.95184417 2.53568524,1.32217917 2.9289322,0.928932201 L2.9289322,0.928932201 C3.3194565,0.538407899 3.95162882,0.537415218 4.34140958,0.927195986 L10,6.58578644 L15.6585904,0.927195986 C16.0481559,0.537630569 16.6778209,0.535685235 17.0710678,0.928932201 L17.0710678,0.928932201 C17.4615921,1.3194565 17.4625848,1.95162882 17.072804,2.34140958 L11.4142136,8 L17.072804,13.6585904 L17.072804,13.6585904 Z" id="Shape" sketch:type="MSShapeGroup"></path>
        </g>
    </g>
</svg>