<?xml version="1.0" encoding="UTF-8" standalone="no"?>
<svg width="180px" height="180px" viewBox="0 0 180 180" version="1.1" xmlns="http://www.w3.org/2000/svg" xmlns:xlink="http://www.w3.org/1999/xlink" xmlns:sketch="http://www.bohemiancoding.com/sketch/ns">
    <!-- Generator: Sketch 3.3.2 (12043) - http://www.bohemiancoding.com/sketch -->
    <title>ohl-black</title>
    <desc>Created with Sketch.</desc>
    <defs></defs>
    <g id="Page-1" stroke="none" stroke-width="1" fill="none" fill-rule="evenodd" sketch:type="MSPage">
        <g id="ohl-black" sketch:type="MSArtboardGroup" fill="#000000">
            <path d="M41.8149653,66.5568699 C41.8149653,68.8712293 44.0070511,70.5145571 46.1984003,70.5145571 C48.5120231,70.5145571 50.8867827,69.0539031 50.8867827,66.5568699 L50.8867827,45.3689172 C50.8867827,43.2387049 48.2078122,41.6550407 46.3206739,41.6550407 C44.3723987,41.6550407 41.8149653,43.1171679 41.8149653,45.308517 L41.8149653,66.5568699 L41.8149653,66.5568699 Z M46.3206739,33.9230769 C52.5912472,33.9230769 59.4105785,38.6725961 59.4105785,45.3689172 L59.4105785,66.5568699 C59.4105785,74.1672968 53.4442161,78.2465209 46.3206739,78.2465209 C39.0748581,78.2465209 33.2307692,74.3499706 33.2307692,66.5568699 L33.2307692,45.308517 C33.2307692,38.6114593 40.049364,33.9230769 46.3206739,33.9230769 Z M73.5331795,44.516685 L73.5331795,53.1620179 C73.5331795,53.5273655 73.7158533,53.7107759 74.0200642,53.7107759 C77.9770147,53.7107759 80.7171219,52.1271118 80.7171219,48.5355089 C80.7171219,45.1862434 77.5512668,43.6040525 74.445812,43.6040525 C73.8373903,43.6040525 73.5331795,43.9082633 73.5331795,44.516685 Z M73.5331795,62.5999194 L73.5331795,76.2989823 C73.5331795,76.9685408 73.2282321,77.2727516 72.6190739,77.2727516 L65.9831529,77.2727516 C65.3135945,77.2727516 65.008647,76.9685408 65.008647,76.2989823 L65.008647,35.9324889 C65.008647,35.3240672 65.3135945,35.0191198 65.9831529,35.0191198 L74.9334332,35.0191198 C83.3960923,35.0191198 89.6062654,40.3159238 89.6062654,48.5355089 C89.6062654,57.4857892 83.2745553,62.1122982 74.0200642,62.1122982 C73.7158533,62.1122982 73.5331795,62.294972 73.5331795,62.5999194 Z M115.478918,35.9324889 L115.478918,41.9592516 C115.478918,42.6295466 115.17397,42.934494 114.505148,42.934494 L103.850403,42.934494 C103.241245,42.934494 102.937034,43.2387049 102.937034,43.8471265 L102.937034,51.5798269 C102.937034,51.8840378 103.119708,52.0667116 103.423919,52.0667116 L111.095483,52.0667116 C111.703904,52.0667116 112.008852,52.3709224 112.008852,53.0404809 L112.008852,58.7637693 C112.008852,59.3729276 111.703904,59.6771384 111.095483,59.6771384 L103.850403,59.6771384 C103.241245,59.6771384 102.937034,59.9813492 102.937034,60.5897709 L102.937034,68.4440083 C102.937034,69.0539031 103.241245,69.358114 103.850403,69.358114 L114.505148,69.358114 C115.17397,69.358114 115.478918,69.6623248 115.478918,70.2707464 L115.478918,76.2989823 C115.478918,76.9685408 115.17397,77.2727516 114.505148,77.2727516 L95.3870077,77.2727516 C94.7174493,77.2727516 94.4125018,76.9685408 94.4125018,76.2989823 L94.4125018,35.9324889 C94.4125018,35.3240672 94.7174493,35.0191198 95.3870077,35.0191198 L114.505148,35.0191198 C115.17397,35.0191198 115.478918,35.3240672 115.478918,35.9324889 Z M129.96613,55.9632619 C129.843856,55.6590511 129.540382,55.4763772 129.175034,55.4763772 C128.565876,55.4763772 128.260928,55.7805881 128.260928,56.3890097 L128.260928,76.2989823 C128.260928,76.9685408 127.955981,77.2727516 127.347559,77.2727516 L121.320797,77.2727516 C120.650502,77.2727516 120.345554,76.9685408 120.345554,76.2989823 L120.345554,35.9324889 C120.345554,35.3240672 120.650502,35.0191198 121.25966,35.0191198 L126.191116,35.0191198 C126.556464,35.0191198 126.860675,35.2017936 127.043349,35.6282781 L137.150809,57.241242 C137.272346,57.4857892 137.516156,57.6073262 137.941904,57.6073262 C138.550326,57.6073262 138.855273,57.3023788 138.855273,56.6932206 L138.855273,35.9324889 C138.855273,35.3240672 139.158747,35.0191198 139.768642,35.0191198 L145.795405,35.0191198 C146.4657,35.0191198 146.769174,35.3240672 146.769174,35.9324889 L146.769174,76.3593825 C146.769174,76.9685408 146.404563,77.2727516 145.795405,77.2727516 L141.35157,77.2727516 C140.986222,77.2727516 140.681275,77.0900778 140.498601,76.6643299 L129.96613,55.9632619 Z M40.3388431,113.34862 L35.9148958,113.34862 C35.4685235,113.34862 35.2659618,113.10481 35.2659618,112.69895 L35.2659618,85.7913914 C35.2659618,85.3847948 35.4685235,85.1822331 35.9148958,85.1822331 L40.3388431,85.1822331 C40.7454396,85.1822331 40.9480013,85.3847948 40.9480013,85.7913914 L40.9480013,96.3842628 C40.9480013,96.7901228 41.150563,96.9926845 41.5571595,96.9926845 L46.6705532,96.9926845 C47.0764131,96.9926845 47.2797114,96.7901228 47.2797114,96.3842628 L47.2797114,85.7913914 C47.2797114,85.3847948 47.4822731,85.1822331 47.8881331,85.1822331 L52.3120804,85.1822331 C52.7584527,85.1822331 52.9617509,85.3847948 52.9617509,85.7913914 L52.9617509,112.69895 C52.9617509,113.10481 52.7584527,113.34862 52.3120804,113.34862 L47.8881331,113.34862 C47.4822731,113.34862 47.2797114,113.10481 47.2797114,112.69895 L47.2797114,102.228352 C47.2797114,101.822492 47.0764131,101.619193 46.6705532,101.619193 L41.5571595,101.619193 C41.150563,101.619193 40.9480013,101.822492 40.9480013,102.228352 L40.9480013,112.69895 C40.9480013,113.10481 40.7454396,113.34862 40.3388431,113.34862 Z M66.3138809,106.205927 C66.3138809,107.748342 67.7752714,108.843648 69.2359253,108.843648 C70.7783405,108.843648 72.3612681,107.869879 72.3612681,106.205927 L72.3612681,92.0818526 C72.3612681,90.661711 70.5750423,89.6061804 69.31695,89.6061804 C68.0183454,89.6061804 66.3138809,90.5799497 66.3138809,92.0420768 L66.3138809,106.205927 Z M69.31695,84.4522745 C73.4978233,84.4522745 78.0433076,87.6181295 78.0433076,92.0818526 L78.0433076,106.205927 C78.0433076,111.278808 74.0657326,113.998291 69.31695,113.998291 C64.4871428,113.998291 60.591329,111.401082 60.591329,106.205927 L60.591329,92.0420768 C60.591329,87.5768806 65.1368133,84.4522745 69.31695,84.4522745 Z M85.9984576,85.1417208 L90.4216683,85.1417208 C90.8680406,85.1417208 91.0713389,85.3450191 91.0713389,85.750879 L91.0713389,105.881091 C91.0713389,107.220208 92.4509681,108.275739 93.8313339,108.275739 C95.3325002,108.275739 96.5905924,107.261457 96.5905924,105.881091 L96.5905924,85.750879 C96.5905924,85.3450191 96.7938907,85.1417208 97.1997507,85.1417208 L101.622961,85.1417208 C102.07007,85.1417208 102.272632,85.3450191 102.272632,85.750879 L102.272632,106.205927 C102.272632,111.440857 98.2552812,113.998291 93.7495727,113.998291 C89.2453373,113.998291 85.3892993,111.157271 85.3892993,106.205927 L85.3892993,85.750879 C85.3892993,85.3450191 85.5925976,85.1417208 85.9984576,85.1417208 Z M108.44082,107.585556 C108.44082,107.220208 108.68463,107.058159 109.009465,107.058159 L113.271363,107.058159 C113.717736,107.058159 113.677223,107.261457 113.879785,107.585556 C114.609744,108.680862 115.543737,108.965185 116.843078,108.965185 C118.303732,108.965185 119.724611,108.316251 119.724611,106.652299 C119.724611,105.677793 119.196477,105.109884 118.547543,104.501462 L112.013271,98.332538 C110.185796,96.5868245 109.091227,94.4765 109.091227,91.9198032 C109.091227,87.3743189 112.540668,84.4522745 117.329963,84.4522745 C121.10424,84.4522745 125.000054,87.2925576 125.000054,91.2296203 C125.000054,91.5949679 124.716467,91.7577538 124.391632,91.7577538 L120.333032,91.7577538 C119.155965,91.7577538 119.927172,89.5656681 117.086152,89.5656681 C115.706523,89.5656681 114.609744,90.3368757 114.609744,91.7165049 C114.609744,92.8935725 115.300663,93.9085907 116.152896,94.6797983 L122.119258,100.239564 C124.310607,102.268864 125.365401,104.054353 125.365401,107.098671 C125.365401,112.050016 121.185264,113.998291 116.802566,113.998291 C112.98704,113.998291 108.44082,111.968991 108.44082,107.585556 Z M146.389831,85.7913914 L146.389831,89.8087421 C146.389831,90.255851 146.186533,90.4584127 145.739424,90.4584127 L138.637243,90.4584127 C138.231383,90.4584127 138.028085,90.661711 138.028085,91.0668343 L138.028085,96.2214769 C138.028085,96.4247752 138.150358,96.5463122 138.353657,96.5463122 L143.46705,96.5463122 C143.873647,96.5463122 144.076209,96.7488739 144.076209,97.1959828 L144.076209,101.010772 C144.076209,101.416632 143.873647,101.619193 143.46705,101.619193 L138.637243,101.619193 C138.231383,101.619193 138.028085,101.822492 138.028085,102.228352 L138.028085,107.464019 C138.028085,107.869879 138.231383,108.072441 138.637243,108.072441 L145.739424,108.072441 C146.186533,108.072441 146.389831,108.275739 146.389831,108.680862 L146.389831,112.69895 C146.389831,113.146058 146.186533,113.34862 145.739424,113.34862 L132.995716,113.34862 C132.55008,113.34862 132.346782,113.146058 132.346782,112.69895 L132.346782,85.7913914 C132.346782,85.3847948 132.55008,85.1822331 132.995716,85.1822331 L145.739424,85.1822331 C146.186533,85.1822331 146.389831,85.3847948 146.389831,85.7913914 Z M50.3638052,145.371045 L50.3638052,148.779974 C50.3638052,149.226347 50.1605069,149.429645 49.7141346,149.429645 L35.8743834,149.429645 C35.4280111,149.429645 35.2254494,149.226347 35.2254494,148.779974 L35.2254494,121.872416 C35.2254494,121.465819 35.4280111,121.262521 35.8743834,121.262521 L40.2983307,121.262521 C40.7041907,121.262521 40.907489,121.465819 40.907489,121.872416 L40.907489,144.153465 C40.907489,144.558589 41.1100506,144.761887 41.5159106,144.761887 L49.7141346,144.761887 C50.1605069,144.761887 50.3638052,144.965185 50.3638052,145.371045 Z M59.942395,149.429645 L55.5582235,149.429645 C55.1118512,149.429645 54.9092895,149.226347 54.9092895,148.779974 L54.9092895,121.872416 C54.9092895,121.465819 55.1118512,121.262521 55.5184478,121.262521 L59.942395,121.262521 C60.3887673,121.262521 60.591329,121.465819 60.591329,121.872416 L60.591329,148.779974 C60.591329,149.226347 60.3887673,149.429645 59.942395,149.429645 Z M64.8937393,143.665844 C64.8937393,143.300496 65.1368133,143.139184 65.4616486,143.139184 L69.7235466,143.139184 C70.1699189,143.139184 70.1294065,143.341745 70.3319682,143.665844 C71.0626635,144.761887 71.9959204,145.04621 73.294525,145.04621 C74.7559155,145.04621 76.1767937,144.397276 76.1767937,142.732587 C76.1767937,141.758818 75.6486601,141.190172 74.9989896,140.58175 L68.4647178,134.412826 C66.6387162,132.667849 65.5426733,130.557525 65.5426733,128.000091 C65.5426733,123.454607 68.9928513,120.532563 73.7821462,120.532563 C77.556423,120.532563 81.4522367,123.373582 81.4522367,127.309908 C81.4522367,127.675993 81.1686503,127.838042 80.843815,127.838042 L76.7852154,127.838042 C75.6081478,127.838042 76.3793554,125.646693 73.5383356,125.646693 C72.1579698,125.646693 71.0626635,126.4179 71.0626635,127.79753 C71.0626635,128.973861 71.7528464,129.988879 72.6050787,130.760086 L78.5714412,136.320589 C80.7627903,138.349889 81.8175843,140.135378 81.8175843,143.178959 C81.8175843,148.13104 77.6374476,150.079315 73.2540127,150.079315 C69.4392236,150.079315 64.8937393,148.050016 64.8937393,143.665844 Z M92.4517047,137.578681 C92.0451081,137.578681 91.9235711,137.781243 91.9235711,138.228352 L91.9235711,143.82863 C91.9235711,144.193978 92.0863571,144.478301 92.492217,144.478301 L92.6947787,144.478301 C95.0894262,144.478301 96.9559401,143.300496 96.9559401,141.068635 C96.9559401,138.877286 95.0489138,137.578681 92.6947787,137.578681 L92.4517047,137.578681 Z M91.9235711,126.823024 L91.9235711,132.180965 C91.9235711,132.586825 91.8425465,132.789386 92.2484064,132.789386 L93.1006387,132.789386 C95.4547738,132.789386 96.875652,131.490782 96.875652,129.460745 C96.875652,127.188371 95.2522121,126.173353 92.6542664,126.173353 L92.2889188,126.173353 C91.8425465,126.173353 91.9235711,126.376651 91.9235711,126.823024 L91.9235711,126.823024 Z M102.962815,141.39347 C102.962815,145.736393 100.163044,149.429645 95.5357985,149.429645 L86.8101775,149.429645 C86.3638052,149.429645 86.1605069,149.226347 86.1605069,148.779974 L86.1605069,121.872416 C86.1605069,121.465819 86.3638052,121.262521 86.8101775,121.262521 L95.0894262,121.262521 C99.5133735,121.262521 102.476667,124.793724 102.476667,129.055622 C102.476667,131.531294 101.622961,133.31752 100.284581,134.778174 C100.163044,134.899711 100.121795,135.021248 100.121795,135.184034 C100.121795,135.34682 100.163044,135.508132 100.325093,135.630406 C102.111319,137.253109 102.962815,139.202121 102.962815,141.39347 Z M113.028289,142.286215 C113.028289,143.82863 114.488943,144.924673 115.95107,144.924673 C117.492749,144.924673 119.075677,143.950167 119.075677,142.286215 L119.075677,128.162877 C119.075677,126.741999 117.290187,125.686469 116.031359,125.686469 C114.732754,125.686469 113.028289,126.660974 113.028289,128.122365 L113.028289,142.286215 Z M116.031359,120.532563 C120.212232,120.532563 124.757716,123.698418 124.757716,128.162877 L124.757716,142.286215 C124.757716,147.359096 120.780141,150.079315 116.031359,150.079315 C111.201551,150.079315 107.305738,147.48137 107.305738,142.286215 L107.305738,128.122365 C107.305738,123.657169 111.851222,120.532563 116.031359,120.532563 Z M137.867509,132.748874 C137.501424,132.748874 137.25835,132.910923 137.177326,133.235759 L135.594398,139.404683 C135.513373,139.689006 135.513373,139.891567 135.594398,140.054353 C135.716672,140.297427 135.756448,140.418964 136.04077,140.418964 L139.28765,140.418964 C139.531461,140.418964 139.734759,140.297427 139.896072,140.094866 C140.017609,139.891567 140.017609,139.647757 139.937321,139.36417 L138.556955,133.235759 C138.47593,132.910923 138.232856,132.748874 137.867509,132.748874 Z M142.616291,149.429645 C142.331232,149.429645 142.250944,149.347884 142.168446,149.185834 L141.154164,145.329796 C141.073876,145.04621 140.830065,144.924673 140.464718,144.924673 L135.310812,144.924673 C134.98524,144.924673 134.742166,145.04621 134.660405,145.371045 L133.686635,149.185834 C133.646123,149.347884 133.524586,149.429645 133.240263,149.429645 L128.37068,149.429645 C127.964083,149.429645 127.761522,149.226347 127.923571,148.658437 L135.148026,121.546844 C135.188538,121.344282 135.310812,121.262521 135.594398,121.262521 L139.977833,121.262521 C140.261419,121.262521 140.383693,121.344282 140.423469,121.546844 L147.770197,148.821223 L147.770197,149.064297 C147.770197,149.308108 147.64866,149.429645 147.283313,149.429645 L142.616291,149.429645 Z M173.076923,180 C174.561964,180 175.506076,179.842575 176.538462,179.307692 C178.617701,178.286038 180,176.211624 180,173.076923 L180,6.92307692 C180,5.43714214 179.842732,4.49376771 179.307692,3.46153846 C178.286898,1.38287706 176.212065,0 173.076923,0 L6.92307692,0 C5.43849937,0 4.49488945,0.157229073 3.46153846,0.692307692 C1.38322225,1.7126744 0,3.78698998 0,6.92307692 L0,173.076923 C0,174.561751 0.157095278,175.504761 0.692307692,176.538462 C1.71202176,178.616062 3.7869627,180 6.92307692,180 L57.4615385,180 L57.4615385,168.923077 L11.0769231,168.923077 L11.0769231,11.0769231 L168.923077,11.0769231 L168.923077,168.923077 L122.538462,168.923077 L122.538462,180 L173.076923,180 Z" id="logo-ohl" sketch:type="MSShapeGroup"></path>
        </g>
    </g>
</svg>