<svg id="Layer_1" xmlns="http://www.w3.org/2000/svg" viewBox="0 0 642.7 172.4"><path d="M86.2 34.5c28.5 0 51.7 23.2 51.7 51.7s-23.2 51.7-51.7 51.7-51.7-23.2-51.7-51.7 23.2-51.7 51.7-51.7m0-34.5C38.6 0 0 38.6 0 86.2s38.6 86.2 86.2 86.2 86.2-38.6 86.2-86.2S133.8 0 86.2 0zM366.9 1v34h-34.1v34.1h-34.1v34.1h-34.2V1h-34.1v170.4h34.1v-34h68.3v-34.1h34.1v68.1h34.2V1zM459.7 16.9c0-9 6.1-15.9 15.7-15.9 9.7 0 15.7 6.9 15.7 15.9s-6.1 16-15.7 16c-9.7-.1-15.7-7-15.7-16zm21-.1c0-11.2-.4-15.5-5.3-15.5-5 0-5.4 4.3-5.4 15.5 0 11.5.4 15.6 5.4 15.6s5.3-4.3 5.3-15.6zM531.1 15.9c0 10.3-6 16.8-15 16.8-2.1 0-3.7-.3-5-.8v5.2c0 2.1.5 3 2.6 5.2v.1H499v-.1c2.1-2.1 2.6-3 2.6-5.2v-30c0-2.3-.5-3.2-2.8-5.5h11.9l.2 3.4c1.8-2.1 4.5-4.1 8.5-4.1 7 .1 11.7 6 11.7 15zm-10.3 1.6c0-9.5-1.2-13.6-5.5-13.6-1.7 0-3.1.7-4.2 1.6v25.9c1 .3 2.1.6 3.4.6 4.5.1 6.3-2.7 6.3-14.5zM549.8 15.3v.3c0 7.5 2.3 12 9.2 12 4.3 0 7.5-1.8 9.1-4.7l.1.1c-1.1 5.8-5.6 9.9-13 9.9-9.8 0-14.9-6.8-14.9-15.9 0-9.2 5.5-16 15-16 8.6 0 13.2 5.4 13.2 12.8 0 .6 0 1.1-.1 1.6h-18.6zm0-4v3.6h9.5V9.4c0-5.2-.8-8-4.4-8-4.1 0-5.1 3.8-5.1 9.9zM609.8 32.1l-14.5.1v-.1c2-2.1 2.4-3 2.4-5.2V9.4c0-2.8-1.1-4.9-4.3-4.9-2.2 0-3.7 1-4.6 1.9v20.4c0 2.1.4 3 2.4 5.2v.1h-14.5V32c2.1-2.1 2.6-3 2.6-5.2V7.2c0-2.3-.5-3.2-2.8-5.5v-.1h11.9l.2 4.4c1.7-2.9 4.6-5.1 9-5.1 6.1 0 9.3 3.4 9.3 9.3v16.6c.2 2.2.7 3.1 2.9 5.3zM492.5 101.6l-14.5.1v-.1c2-2.1 2.4-3 2.4-5.2V79c0-2.8-1.1-4.9-4.2-4.9-2.3 0-3.7 1-4.7 2v20.4c0 2.1.4 3 2.4 5.2v.1h-14.5v-.1c2.1-2.1 2.6-3 2.6-5.2V66.2c0-2.5-.5-3.4-3-5.9v-.1h12.4v15.3c1.7-2.9 4.5-5.1 9-5.1 6 0 9.3 3.4 9.3 9.3v16.6c.2 2.3.6 3.2 2.8 5.3zM500.3 86.4c0-9 6.1-15.9 15.7-15.9 9.7 0 15.7 6.9 15.7 15.9s-6.1 16-15.7 16c-9.7-.1-15.7-7-15.7-16zm21.1-.1c0-11.2-.4-15.5-5.3-15.5-5 0-5.4 4.3-5.4 15.5 0 11.5.4 15.6 5.4 15.6 4.9 0 5.3-4.3 5.3-15.6zM569.5 71.2v30.5h-9.4l-.1-4.1c-1.7 2.6-4.5 4.8-8.9 4.8-5.7 0-9-3.4-9-9.3V76.7c0-2.3-.5-3.2-2.8-5.5v-.1h12.2v22.8c0 3.2.9 5.2 3.9 5.2 2.1 0 3.4-1 4.5-2V76.7c0-2.3-.5-3.2-2.8-5.5v-.1h12.4zM601.7 76.4c-6.6-4.6-8.3-5.5-10.2-5.5-2.6 0-4.1 1.5-4.1 3.9 0 3 2.2 4.6 7.2 7.6 4.6 2.8 7.7 5.2 7.7 10.3 0 5.8-4.2 9.6-12.1 9.6-3 0-6.5-.5-9.3-1.3l-1.2-6.1h.1c6.9 5.9 8.8 7 11 7 2.5 0 4.2-1.5 4.2-4.3 0-3.2-2.3-4.7-7.5-7.9-3.9-2.3-7.3-5.2-7.3-10.1 0-5.5 3.9-9.1 11.8-9.1 2.7 0 6.6.4 9.2.9l.5 5zM620.6 84.8v.3c0 7.5 2.3 12 9.2 12 4.3 0 7.5-1.8 9.1-4.7l.1.1c-1.1 5.8-5.6 9.9-13 9.9-9.8 0-14.9-6.8-14.9-15.9 0-9.2 5.5-16 15-16 8.6 0 13.2 5.4 13.2 12.8 0 .6 0 1.1-.1 1.6h-18.6zm0-4v3.6h9.5v-5.5c0-5.2-.8-8-4.4-8-4.1 0-5.1 3.8-5.1 9.9zM474.1 171.1l-14.7.1v-.1c2.1-2.1 2.6-3 2.6-5.2v-30.2c0-2.5-.5-3.4-3-5.9v-.1h12.4v36.2c.1 2.2.6 3.1 2.7 5.2zM497.2 171.1l-14.7.1v-.1c2.1-2.1 2.6-3 2.6-5.2v-19.7c0-2.3-.5-3.2-2.8-5.5v-.1h12.2v25.3c0 2.2.5 3.1 2.7 5.2zm-12.7-39c0-2.7 2.1-4.8 5.2-4.8s5.2 2.1 5.2 4.8c0 2.7-2.1 4.8-5.2 4.8s-5.2-2.1-5.2-4.8zM527.2 145.9c-6.6-4.6-8.3-5.5-10.2-5.5-2.6 0-4.1 1.5-4.1 3.9 0 3 2.2 4.6 7.2 7.6 4.6 2.8 7.7 5.2 7.7 10.3 0 5.8-4.2 9.6-12.1 9.6-3 0-6.5-.5-9.3-1.3l-1.2-6.1h.1c6.9 5.9 8.8 7 11 7 2.5 0 4.2-1.5 4.2-4.3 0-3.2-2.3-4.7-7.5-7.9-3.9-2.3-7.3-5.2-7.3-10.1 0-5.5 3.9-9.1 11.8-9.1 2.7 0 6.6.4 9.2.9l.5 5zM567.7 154.9c0 10.9-6.5 16.8-17.2 16.8-3.8 0-8.3-1-12.4-2.1v-33.9c0-2.5-.5-3.4-3-5.9v-.1h12.4v14c1.7-1.9 4.5-3.8 8.6-3.8 6.9.1 11.6 6 11.6 15zm-10.2 1.9c0-9.7-1.2-14-5.7-14-1.7 0-3 .6-4.1 1.4V171c.8.1 1.7.2 2.7.2 5 0 7.1-2.6 7.1-14.4zM577 155.9c0-9 6.1-15.9 15.7-15.9 9.7 0 15.7 6.9 15.7 15.9s-6.1 16-15.7 16-15.7-6.9-15.7-16zm21 0c0-11.2-.4-15.5-5.3-15.5-5 0-5.4 4.3-5.4 15.5 0 11.5.4 15.6 5.4 15.6s5.3-4.4 5.3-15.6zM642.7 147.5v23.7h-9.4l-.1-3.4c-1.4 2.1-4.1 4.1-7.9 4.1-4.8 0-8.4-2.8-8.4-8.1 0-6.7 6.2-8.1 16.4-10.3v-8.6c0-2.7-1-4.2-3.4-4.2-2.1 0-4.1 1.3-11.6 8.1h-.1l.3-5.9c4.2-1.5 9.2-2.8 13.9-2.8 6.8-.1 10.3 2.4 10.3 7.4zm-9.5 19.7V154c-5.8 1.1-7.1 3.1-7.1 8.3 0 4.8.8 6.6 3.4 6.6 1.5 0 2.8-.7 3.7-1.7z" fill="#231F1F"/></svg>