<?xml version="1.0" encoding="UTF-8" standalone="no"?>
<svg width="180px" height="170px" viewBox="0 0 180 170" version="1.1" xmlns="http://www.w3.org/2000/svg" xmlns:xlink="http://www.w3.org/1999/xlink" xmlns:sketch="http://www.bohemiancoding.com/sketch/ns">
    <!-- Generator: Sketch 3.3.2 (12043) - http://www.bohemiancoding.com/sketch -->
    <title>ohp-greenbg</title>
    <desc>Created with Sketch.</desc>
    <defs></defs>
    <g id="Page-1" stroke="none" stroke-width="1" fill="none" fill-rule="evenodd" sketch:type="MSPage">
        <g id="ohp-greenbg" sketch:type="MSArtboardGroup">
            <path d="M179.347362,94.6248701 L158.470675,94.6248701 C156.96773,94.6248701 155.747485,93.4050649 155.747485,91.9026623 C155.747485,90.3991558 156.96773,89.1793506 158.470675,89.1793506 L173.899877,89.1793506 L173.899877,73.7568182 C173.899877,72.2533117 175.120123,71.0335065 176.623067,71.0335065 C178.127117,71.0335065 179.347362,72.2533117 179.347362,73.7568182 L179.347362,94.6248701" id="Fill-1" fill="#FFFFFF" fill-opacity="0.5" sketch:type="MSShapeGroup"></path>
            <path d="M132.328712,19.3965584 L117.770798,4.8438961 C116.706258,3.77974026 116.706258,2.05766234 117.770798,0.992402597 C118.833129,-0.0695454545 120.558037,-0.0695454545 121.621472,0.992402597 L132.328712,11.6968831 L143.033742,0.992402597 C144.098282,-0.0695454545 145.82319,-0.0695454545 146.886626,0.992402597 C147.950061,2.05766234 147.950061,3.77974026 146.886626,4.8438961 L132.328712,19.3965584" id="Fill-2" fill="#FFFFFF" sketch:type="MSShapeGroup"></path>
            <path d="M21.1858896,135.881883 L0.309202454,135.881883 L0.309202454,115.013831 C0.309202454,113.510325 1.52944785,112.291623 3.03460123,112.291623 C4.53754601,112.291623 5.75779141,113.510325 5.75779141,115.013831 L5.75779141,130.436364 L21.1858896,130.436364 C22.6899387,130.436364 23.9079755,131.657273 23.9079755,133.159675 C23.9079755,134.662078 22.6899387,135.881883 21.1858896,135.881883" id="Fill-3" fill="#FFFFFF" sketch:type="MSShapeGroup"></path>
            <path d="M60.2679755,169.082662 L39.3923926,169.082662 C37.8883436,169.082662 36.6680982,167.863961 36.6680982,166.360455 C36.6680982,164.856948 37.8883436,163.637143 39.3923926,163.637143 L54.8215951,163.637143 L54.8215951,148.213506 C54.8215951,146.711104 56.0396319,145.491299 57.5447853,145.491299 C59.0499387,145.491299 60.2679755,146.711104 60.2679755,148.213506 L60.2679755,169.082662" id="Fill-4" fill="#FFFFFF" fill-opacity="0.5" sketch:type="MSShapeGroup"></path>
            <path d="M21.1858896,53.3700649 C19.6807362,53.3700649 18.4626994,52.1502597 18.4626994,50.6478571 L18.4626994,35.2242208 L3.03349693,35.2242208 C1.52834356,35.2242208 0.30809816,34.0044156 0.30809816,32.5009091 C0.30809816,30.9985065 1.52834356,29.7787013 3.03349693,29.7787013 L23.9079755,29.7787013 L23.9079755,50.6478571 C23.9079755,52.1502597 22.6899387,53.3700649 21.1858896,53.3700649" id="Fill-5" fill="#FFFFFF" fill-opacity="0.5" sketch:type="MSShapeGroup"></path>
            <path d="M119.338896,164.691364 C118.64319,164.691364 117.94638,164.425325 117.413006,163.894351 C116.349571,162.831299 116.349571,161.107013 117.413006,160.043961 L131.969816,145.491299 L146.528834,160.043961 C147.59227,161.107013 147.59227,162.831299 146.528834,163.894351 C145.465399,164.958506 143.740491,164.958506 142.675951,163.894351 L131.969816,153.190974 L121.264785,163.894351 C120.732515,164.425325 120.035706,164.691364 119.338896,164.691364" id="Fill-6" fill="#FFFFFF" sketch:type="MSShapeGroup"></path>
            <path d="M151.478282,115.497338 C151.478282,113.658247 152.358405,111.659091 155.036319,111.659091 C157.797055,111.659091 158.637423,113.618506 158.637423,115.417857 L158.637423,127.812403 C158.637423,129.651494 157.757301,131.650649 155.078282,131.650649 C152.31865,131.650649 151.478282,129.691234 151.478282,127.892987 L151.478282,115.497338 L151.478282,115.497338 Z M164.277055,127.652338 L164.277055,115.337273 C164.277055,110.939351 161.557178,107.102208 155.036319,107.102208 C148.518773,107.102208 145.837546,111.259481 145.837546,115.658506 L145.837546,127.971364 C145.837546,132.369286 148.558528,136.207532 155.078282,136.207532 C161.596933,136.207532 164.277055,132.05026 164.277055,127.652338 L164.277055,127.652338 L164.277055,127.652338 Z M135.032025,134.929221 L135.032025,112.93961 C135.032025,112.538896 135.231902,112.339091 135.632761,112.339091 L141.031656,112.339091 C141.431411,112.339091 141.672147,112.139286 141.672147,111.701039 L141.672147,108.380519 C141.672147,107.980909 141.431411,107.781104 141.031656,107.781104 L123.43362,107.781104 C122.99411,107.781104 122.793129,107.980909 122.793129,108.380519 L122.793129,111.701039 C122.793129,112.139286 122.99411,112.339091 123.43362,112.339091 L128.832515,112.339091 C129.233374,112.339091 129.433252,112.538896 129.433252,112.93961 L129.433252,134.929221 C129.433252,135.368571 129.633129,135.569481 130.072638,135.569481 L134.392638,135.569481 C134.791288,135.569481 135.032025,135.368571 135.032025,134.929221 L135.032025,134.929221 L135.032025,134.929221 Z M109.127485,112.378831 C111.006994,112.378831 113.046626,113.498182 113.046626,116.697273 C113.046626,119.976948 111.447607,120.855649 109.407975,121.01461 L107.327485,121.01461 C106.727853,121.01461 106.647239,120.615 106.647239,120.375455 L106.647239,113.019091 C106.647239,112.620584 106.807362,112.378831 107.28773,112.378831 L109.127485,112.378831 L109.127485,112.378831 Z M119.486871,134.968961 C119.486871,134.848636 119.406258,134.728312 119.366503,134.609091 L115.686994,124.853961 C115.605276,124.693896 115.605276,124.534935 115.605276,124.373766 C115.647239,124.173961 115.726748,123.974156 115.847117,123.853831 C117.40638,122.574416 118.766871,120.375455 118.766871,116.457727 C118.766871,110.379675 114.767117,107.781104 109.247853,107.781104 L101.687853,107.781104 C101.288098,107.781104 101.048466,107.980909 101.048466,108.380519 L101.048466,134.929221 C101.048466,135.328831 101.288098,135.569481 101.687853,135.569481 L106.047607,135.569481 C106.447362,135.569481 106.647239,135.328831 106.647239,134.929221 L106.647239,126.332078 C106.647239,126.093636 106.727853,125.653182 107.367239,125.613442 L109.527239,125.613442 C110.007607,125.613442 110.286994,125.892727 110.408466,126.252597 L113.566748,135.088182 C113.687117,135.368571 113.966503,135.569481 114.167485,135.569481 L118.886135,135.569481 C119.286994,135.569481 119.486871,135.368571 119.486871,134.968961 L119.486871,134.968961 L119.486871,134.968961 Z M82.9546012,115.497338 C82.9546012,113.658247 83.8347239,111.659091 86.5137423,111.659091 C89.2733742,111.659091 90.112638,113.618506 90.112638,115.417857 L90.112638,127.812403 C90.112638,129.651494 89.2336196,131.650649 86.5534969,131.650649 C83.793865,131.650649 82.9546012,129.691234 82.9546012,127.892987 L82.9546012,115.497338 L82.9546012,115.497338 Z M95.7533742,127.652338 L95.7533742,115.337273 C95.7533742,110.939351 93.0334969,107.102208 86.5137423,107.102208 C79.9939877,107.102208 77.3149693,111.259481 77.3149693,115.658506 L77.3149693,127.971364 C77.3149693,132.369286 80.0348466,136.207532 86.5534969,136.207532 C93.0732515,136.207532 95.7533742,132.05026 95.7533742,127.652338 L95.7533742,127.652338 L95.7533742,127.652338 Z M61.0354601,125.613442 L63.0761963,125.613442 C68.7555828,125.613442 72.5157055,123.094351 72.5157055,116.697273 C72.5157055,110.501104 68.5557055,107.781104 62.9966871,107.781104 L55.3969325,107.781104 C54.9574233,107.781104 54.757546,107.980909 54.757546,108.380519 L54.757546,134.929221 C54.757546,135.368571 54.9574233,135.569481 55.3969325,135.569481 L59.7566871,135.569481 C60.1564417,135.569481 60.356319,135.368571 60.356319,134.929221 L60.356319,126.332078 C60.356319,125.813247 60.6368098,125.613442 61.0354601,125.613442 L61.0354601,125.613442 L61.0354601,125.613442 Z M62.876319,112.339091 C64.7558282,112.339091 66.7954601,113.498182 66.7954601,116.697273 C66.7954601,119.976948 65.1964417,120.896494 63.1568098,121.055455 L60.9570552,121.055455 C60.4766871,121.055455 60.356319,120.65474 60.356319,120.415195 L60.356319,112.978247 C60.356319,112.578636 60.5164417,112.339091 60.9968098,112.339091 L62.876319,112.339091 L62.876319,112.339091 Z" id="Fill-7" fill="#FFFFFF" sketch:type="MSShapeGroup"></path>
            <path d="M132.980245,57.5196104 C133.100613,57.7988961 133.300491,57.9181169 133.541227,57.9181169 L137.259387,57.9181169 C137.660245,57.9181169 137.899877,57.7183117 137.899877,57.3187013 L137.899877,30.7313636 C137.899877,30.3317532 137.7,30.1308442 137.259387,30.1308442 L133.300491,30.1308442 C132.90184,30.1308442 132.700859,30.3317532 132.700859,30.7313636 L132.700859,42.3653247 C132.700859,42.7649351 132.499877,42.9658442 132.100123,42.9658442 C131.820736,42.9658442 131.620859,42.8057792 131.540245,42.605974 L125.262331,30.5315584 C125.140859,30.2511688 124.942086,30.1308442 124.70135,30.1308442 L120.662945,30.1308442 C120.262086,30.1308442 120.063313,30.3317532 120.063313,30.7313636 L120.063313,57.278961 C120.063313,57.7183117 120.262086,57.9181169 120.702699,57.9181169 L124.662699,57.9181169 C125.06135,57.9181169 125.262331,57.7183117 125.262331,57.278961 L125.262331,45.3646104 C125.262331,44.9638961 125.500859,44.7640909 125.861963,44.7640909 C126.101595,44.7640909 126.260613,44.8457792 126.380982,45.0842208 L132.980245,57.5196104 L132.980245,57.5196104 Z M114.434724,30.1308442 L101.875583,30.1308442 C101.436074,30.1308442 101.236196,30.3317532 101.236196,30.7313636 L101.236196,57.278961 C101.236196,57.7183117 101.436074,57.9181169 101.875583,57.9181169 L114.434724,57.9181169 C114.874233,57.9181169 115.07411,57.7183117 115.07411,57.278961 L115.07411,53.9198052 C115.07411,53.5201948 114.874233,53.3203896 114.434724,53.3203896 L107.435706,53.3203896 C107.034847,53.3203896 106.834969,53.1205844 106.834969,52.720974 L106.834969,46.9641558 C106.834969,46.5634416 107.034847,46.3636364 107.435706,46.3636364 L113.394479,46.3636364 C113.794233,46.3636364 113.995215,46.1638312 113.995215,45.7653247 L113.995215,42.4459091 C113.995215,42.0054545 113.794233,41.8056494 113.394479,41.8056494 L107.394847,41.8056494 C107.194969,41.8056494 106.834969,41.6466883 106.834969,41.245974 L106.834969,35.2893506 C106.834969,34.8897403 107.034847,34.6888312 107.435706,34.6888312 L114.434724,34.6888312 C114.874233,34.6888312 115.07411,34.489026 115.07411,34.0496753 L115.07411,30.7313636 C115.07411,30.3317532 114.874233,30.1308442 114.434724,30.1308442 L114.434724,30.1308442 L114.434724,30.1308442 Z M84.7711656,47.9631818 L86.8096933,47.9631818 C92.4890798,47.9631818 96.2480982,45.4451948 96.2480982,39.047013 C96.2480982,32.8497403 92.2892025,30.1308442 86.7290798,30.1308442 L79.1304294,30.1308442 C78.689816,30.1308442 78.4899387,30.3317532 78.4899387,30.7313636 L78.4899387,57.278961 C78.4899387,57.7183117 78.689816,57.9181169 79.1304294,57.9181169 L83.4912883,57.9181169 C83.8899387,57.9181169 84.089816,57.7183117 84.089816,57.278961 L84.089816,48.684026 C84.089816,48.162987 84.3692025,47.9631818 84.7711656,47.9631818 L84.7711656,47.9631818 L84.7711656,47.9631818 Z M86.6109202,34.6888312 C88.4893252,34.6888312 90.5289571,35.849026 90.5289571,39.047013 C90.5289571,42.3255844 88.9288344,43.2451299 86.8903067,43.4051948 L84.6894479,43.4051948 C84.210184,43.4051948 84.089816,43.0066883 84.089816,42.7649351 L84.089816,35.3290909 C84.089816,34.9294805 84.2499387,34.6888312 84.7292025,34.6888312 L86.6109202,34.6888312 L86.6109202,34.6888312 Z M60.3960736,37.8481818 C60.3960736,36.0090909 61.2761963,34.0099351 63.956319,34.0099351 C66.7159509,34.0099351 67.5552147,35.9693506 67.5552147,37.7675974 L67.5552147,50.1621429 C67.5552147,52.0012338 66.675092,54.0014935 63.9960736,54.0014935 C61.2364417,54.0014935 60.3960736,52.0420779 60.3960736,50.2416234 L60.3960736,37.8481818 L60.3960736,37.8481818 Z M73.1948466,50.0020779 L73.1948466,37.6881169 C73.1948466,33.2901948 70.4749693,29.4519481 63.956319,29.4519481 C57.4376687,29.4519481 54.7564417,33.6092208 54.7564417,38.0071429 L54.7564417,50.3222078 C54.7564417,54.7201299 57.476319,58.5583766 63.9960736,58.5583766 C70.5147239,58.5583766 73.1948466,54.4 73.1948466,50.0020779 L73.1948466,50.0020779 L73.1948466,50.0020779 Z" id="Fill-8" fill="#FFFFFF" sketch:type="MSShapeGroup"></path>
            <path d="M113.04,68.9570779 L100.480859,68.9570779 C100.042454,68.9570779 99.8403681,69.1568831 99.8403681,69.5564935 L99.8403681,96.1040909 C99.8403681,96.5434416 100.042454,96.7432468 100.480859,96.7432468 L113.04,96.7432468 C113.480613,96.7432468 113.679387,96.5434416 113.679387,96.1040909 L113.679387,92.746039 C113.679387,92.3453247 113.480613,92.1455195 113.04,92.1455195 L106.039877,92.1455195 C105.640123,92.1455195 105.440245,91.9457143 105.440245,91.5461039 L105.440245,85.7892857 C105.440245,85.3885714 105.640123,85.1887662 106.039877,85.1887662 L111.999755,85.1887662 C112.399509,85.1887662 112.599387,84.988961 112.599387,84.5893506 L112.599387,81.271039 C112.599387,80.8316883 112.399509,80.6307792 111.999755,80.6307792 L106.000123,80.6307792 C105.80135,80.6307792 105.440245,80.4718182 105.440245,80.0711039 L105.440245,74.1144805 C105.440245,73.7148701 105.640123,73.5150649 106.039877,73.5150649 L113.04,73.5150649 C113.480613,73.5150649 113.679387,73.3141558 113.679387,72.8748052 L113.679387,69.5564935 C113.679387,69.1568831 113.480613,68.9570779 113.04,68.9570779 L113.04,68.9570779 L113.04,68.9570779 Z M86.1625767,97.3835065 C91.6818405,97.3835065 95.0411043,95.0642208 95.0411043,89.7864935 C95.0411043,86.4284416 93.7214724,84.7096753 91.3218405,83.0703896 L84.2830675,78.232013 C83.3223313,77.5928571 82.7226994,77.1524026 82.7226994,75.5937013 C82.7226994,74.2337013 83.5233129,72.8350649 85.9240491,72.8350649 C88.2817178,72.8350649 89.1220859,74.6344156 89.1220859,75.5131169 C89.1220859,75.9933117 89.4423313,76.2737013 89.8420859,76.2737013 L94.121227,76.2737013 C94.4425767,76.2737013 94.7219632,76.1136364 94.7219632,75.7537662 C94.7219632,71.3955844 91.6023313,68.2770779 85.8820859,68.2770779 C81.0839264,68.2770779 77.2829448,71.0357143 77.2829448,75.9138312 C77.2829448,79.6317532 79.1635583,81.5105844 81.1225767,82.8705844 L88.3225767,87.7475974 C89.043681,88.2277922 89.4820859,88.9861688 89.4820859,89.9465584 C89.4820859,92.2658442 87.9625767,92.8652597 86.1625767,92.8652597 C84.4829448,92.8652597 82.8839264,91.9854545 82.563681,90.0271429 C82.5228221,89.6672727 82.402454,89.4277273 81.9640491,89.4277273 L77.4828221,89.4277273 C77.163681,89.4277273 76.9229448,89.5866883 76.9229448,89.9465584 C76.9229448,94.6646104 80.8034356,97.3835065 86.1625767,97.3835065 L86.1625767,97.3835065 L86.1625767,97.3835065 Z M72.1247853,69.5564935 C72.1247853,69.1568831 71.9260123,68.9570779 71.5240491,68.9570779 L67.1653988,68.9570779 C66.7258896,68.9570779 66.524908,69.1568831 66.524908,69.5564935 L66.524908,89.3471429 C66.524908,91.0659091 65.804908,92.8255195 63.2451534,92.8255195 C60.7660123,92.8255195 59.8869939,91.0659091 59.8869939,89.3471429 L59.8869939,69.5564935 C59.8869939,69.1568831 59.6871166,68.9570779 59.2453988,68.9570779 L54.8856442,68.9570779 C54.4858896,68.9570779 54.2860123,69.1568831 54.2860123,69.5564935 L54.2860123,89.707013 C54.2860123,94.5851299 57.6055215,97.3835065 63.2451534,97.3835065 C68.8847853,97.3835065 72.1247853,94.5851299 72.1247853,89.707013 L72.1247853,69.5564935 L72.1247853,69.5564935 Z M36.2296933,76.6733117 C36.2296933,74.8342208 37.1076074,72.8350649 39.7877301,72.8350649 C42.547362,72.8350649 43.3877301,74.7944805 43.3877301,76.5927273 L43.3877301,88.9861688 C43.3877301,90.8252597 42.5076074,92.8255195 39.8274847,92.8255195 C37.0678528,92.8255195 36.2296933,90.8661039 36.2296933,89.0678571 L36.2296933,76.6733117 L36.2296933,76.6733117 Z M49.0284663,88.8272078 L49.0284663,76.5132468 C49.0284663,72.1153247 46.308589,68.2770779 39.7877301,68.2770779 C33.2679755,68.2770779 30.5889571,72.4354545 30.5889571,76.8333766 L30.5889571,89.1473377 C30.5889571,93.5452597 33.3088344,97.3835065 39.8274847,97.3835065 C46.3483436,97.3835065 49.0284663,93.2251299 49.0284663,88.8272078 L49.0284663,88.8272078 L49.0284663,88.8272078 Z M13.0549693,96.1040909 L13.0549693,85.7892857 C13.0549693,85.3885714 13.2548466,85.1887662 13.6546012,85.1887662 L19.0943558,85.1887662 C19.4941104,85.1887662 19.6939877,85.3885714 19.6939877,85.7892857 L19.6939877,96.1040909 C19.6939877,96.5037013 19.8949693,96.7432468 20.2947239,96.7432468 L24.6533742,96.7432468 C25.095092,96.7432468 25.293865,96.5037013 25.293865,96.1040909 L25.293865,69.5564935 C25.293865,69.1568831 25.095092,68.9570779 24.6533742,68.9570779 L20.2947239,68.9570779 C19.8949693,68.9570779 19.6939877,69.1568831 19.6939877,69.5564935 L19.6939877,80.0313636 C19.6939877,80.430974 19.4941104,80.6307792 19.0943558,80.6307792 L13.6546012,80.6307792 C13.2548466,80.6307792 13.0549693,80.430974 13.0549693,80.0313636 L13.0549693,69.5564935 C13.0549693,69.1568831 12.8561963,68.9570779 12.4553374,68.9570779 L8.09558282,68.9570779 C7.65607362,68.9570779 7.45509202,69.1568831 7.45509202,69.5564935 L7.45509202,96.1040909 C7.45509202,96.5037013 7.65607362,96.7432468 8.09558282,96.7432468 L12.4553374,96.7432468 C12.8561963,96.7432468 13.0549693,96.5037013 13.0549693,96.1040909 L13.0549693,96.1040909 L13.0549693,96.1040909 Z" id="Fill-9" fill="#FFFFFF" sketch:type="MSShapeGroup"></path>
        </g>
    </g>
</svg>