<?xml version="1.0" encoding="UTF-8" standalone="no"?>
<svg width="1024px" height="200px" viewBox="0 0 1024 200" version="1.1" xmlns="http://www.w3.org/2000/svg" xmlns:xlink="http://www.w3.org/1999/xlink" xmlns:sketch="http://www.bohemiancoding.com/sketch/ns">
    <title>Open House Worldwide</title>
    <defs></defs>
    <g id="Page-1" stroke="none" stroke-width="1" fill="none" fill-rule="evenodd" sketch:type="MSPage">
        <g id="logo-openhouseworldwide" sketch:type="MSArtboardGroup" fill="#ffffff">
            <path d="M34.9853786,57.193341 C19.2750289,57.193341 10.6959698,69.4019884 10.6959698,91.6906358 C10.6959698,113.979283 19.0528403,125.515283 35.2082113,125.515283 C51.0299774,125.515283 59.4976201,113.307283 59.4976201,90.4586358 C59.4976201,68.7306358 51.0299774,57.193341 34.9853786,57.193341 L34.9853786,57.193341 Z M35.5424604,132.235283 C12.9242969,132.235283 0,118.011283 0,93.2586358 C0,66.4899884 13.0363572,50.4739884 34.7625459,50.4739884 C57.1578767,50.4739884 70.194234,64.6979884 70.194234,89.4506358 C70.194234,116.219283 57.1578767,132.235283 35.5424604,132.235283 L35.5424604,132.235283 Z M100.018395,80.2666358 C96.230239,80.2666358 92.107834,80.7146358 88.8761157,81.6099884 L88.8761157,123.723283 C91.4393358,124.395283 95.2274918,124.843283 98.458566,124.843283 C111.160674,124.843283 118.514153,116.443283 118.514153,101.770636 C118.514153,88.1066358 111.829172,80.2666358 100.018395,80.2666358 L100.018395,80.2666358 Z M101.466808,131.563283 C97.2329862,131.563283 92.6649157,130.555283 88.8761157,128.763283 L88.8761157,156.204578 L79.4057258,156.204578 L79.4057258,73.9939884 L88.653927,73.9939884 L88.653927,77.4659884 C89.0995925,77.2419884 89.5452579,77.1299884 89.7680906,77.0186358 C99.0162918,73.6579884 102.024533,72.8739884 105.367024,72.8739884 C119.516901,72.8739884 128.875874,83.9626358 128.875874,100.874636 C128.875874,118.459283 117.177157,131.563283 101.466808,131.563283 L101.466808,131.563283 Z M158.432121,78.9226358 C149.296624,78.9226358 144.282888,85.1939884 144.170828,96.7306358 L171.245645,96.7306358 C171.245645,83.9626358 167.568906,78.9226358 158.432121,78.9226358 L158.432121,78.9226358 Z M144.170828,102.442636 C144.282888,102.779283 144.282888,103.114636 144.282888,103.227283 L144.282888,105.242636 C144.505077,118.683283 150.745036,124.619283 164.672081,124.619283 C168.460881,124.619283 172.582642,124.283283 179.15685,123.387283 L179.15685,128.763283 C169.462984,131.003283 163.892166,131.899283 159.881177,131.899283 C143.056664,131.899283 133.920523,122.155283 133.920523,104.122636 C133.920523,84.6346358 143.502974,72.9859884 159.324096,72.9859884 C170.354314,72.9859884 177.596377,78.2499884 180.271014,88.4426358 C181.273761,91.9146358 181.60801,95.2752832 181.719426,102.442636 L144.170828,102.442636 L144.170828,102.442636 Z M225.225902,130.891283 L225.225902,96.5066358 C225.225902,83.9626358 222.106888,80.1539884 211.966712,80.1539884 C207.956367,80.1539884 203.61113,80.7146358 198.819582,81.9459884 L198.819582,130.891283 L189.349192,130.891283 L189.349192,73.9939884 L198.597394,73.9939884 L198.597394,77.5779884 C209.069887,73.6579884 212.524438,72.7619884 217.203925,72.7619884 C222.663326,72.7619884 228.011955,75.0019884 230.797364,78.3626358 C233.582772,81.8346358 234.696292,86.2026358 234.696292,94.4906358 L234.696292,130.891283 L225.225902,130.891283 M307.09116,130.891283 L307.09116,93.3706358 L268.094148,93.3706358 L268.094148,130.891283 L258.178093,130.891283 L258.178093,51.8179884 L268.094148,51.8179884 L268.094148,86.5386358 L307.09116,86.5386358 L307.09116,51.8179884 L317.007215,51.8179884 L317.007215,130.891283 L307.09116,130.891283 M353.103537,78.5859884 C343.298898,78.5859884 337.281771,87.4346358 337.281771,102.106636 C337.281771,118.235283 342.6304,126.299283 353.437786,126.299283 C363.465902,126.299283 369.259552,117.451283 369.259552,101.994636 C369.259552,86.7626358 363.688091,78.5859884 353.103537,78.5859884 L353.103537,78.5859884 Z M352.880704,132.123931 C336.948166,132.123931 326.920694,121.147283 326.920694,103.674636 C326.920694,84.1866358 336.83675,72.7619884 353.660619,72.7619884 C369.705218,72.7619884 379.621917,83.7379884 379.621917,101.658636 C379.621917,120.699283 369.593157,132.123931 352.880704,132.123931 L352.880704,132.123931 Z M423.608191,130.891283 L423.608191,127.307283 C413.580075,131.115283 409.791919,132.123931 405.001016,132.123931 C399.541615,132.123931 394.19363,129.883931 391.407577,126.523283 C388.510752,123.051283 387.508649,118.683283 387.508649,110.395283 L387.508649,73.9939884 L396.979039,73.9939884 L396.979039,108.379283 C396.979039,120.923283 400.098697,124.731931 410.238229,124.731931 C414.248574,124.731931 418.705228,124.171283 423.385358,122.939283 L423.385358,73.9939884 L432.855748,73.9939884 L432.855748,130.891283 L423.608191,130.891283 M456.475371,131.899283 C452.798631,131.899283 447.784896,131.003283 440.765021,128.987283 L440.765021,122.827283 C447.115753,124.507283 451.238158,125.067283 456.363955,125.067283 C463.717434,125.067283 467.616362,121.931283 467.616362,116.219283 C467.616362,112.859283 466.057177,110.619283 462.602626,108.714636 L452.130133,103.339283 C444.88807,99.6426358 441.656352,95.0506358 441.656352,88.5546358 C441.656352,79.1466358 448.786999,72.9859884 459.594385,72.9859884 C463.382541,72.9859884 467.059925,73.6579884 474.079155,75.7859884 L474.079155,81.8346358 C469.176835,80.3779884 464.943014,79.7059884 460.820609,79.7059884 C454.023567,79.7059884 450.570304,82.2819884 450.570304,87.0986358 C450.570304,90.6826358 452.240906,92.6986358 457.477474,95.3872832 L468.062672,101.098636 C473.967738,104.235283 476.641731,108.491283 476.641731,114.875283 C476.641731,125.291283 468.73117,131.899283 456.475371,131.899283 M505.887557,78.9226358 C496.75206,78.9226358 491.738325,85.1939884 491.626264,96.7306358 L518.701082,96.7306358 C518.701082,83.9626358 515.024342,78.9226358 505.887557,78.9226358 L505.887557,78.9226358 Z M491.626264,102.442636 C491.738325,102.779283 491.738325,103.114636 491.738325,103.227283 L491.738325,105.242636 C491.960513,118.683283 498.200473,124.619283 512.127517,124.619283 C515.916317,124.619283 520.038078,124.283283 526.612931,123.387283 L526.612931,128.763283 C516.91842,131.003283 511.347603,131.899283 507.336614,131.899283 C490.512101,131.899283 481.37596,122.155283 481.37596,104.122636 C481.37596,84.6346358 490.95841,72.9859884 506.779532,72.9859884 C517.809751,72.9859884 525.051814,78.2499884 527.727094,88.4426358 C528.731774,91.9146358 529.060226,95.2752832 529.176151,102.442636 L491.626264,102.442636 L491.626264,102.442636 Z M622.521157,130.891283 L612.042868,130.891283 L593.881358,63.2419884 L576.170667,130.891283 L565.357484,130.891283 L543.634516,51.8179884 L554.215849,51.8179884 L571.379119,120.139283 L589.540629,51.8179884 L599.677585,51.8179884 L617.839094,120.139283 L635.330818,51.8179884 L644.244126,51.8179884 L622.521157,130.891283 M669.644478,78.5859884 C659.842415,78.5859884 653.82722,87.4346358 653.82722,102.106636 C653.82722,118.235283 659.172629,126.299283 669.979371,126.299283 C680.006843,126.299283 685.803069,117.451283 685.803069,101.994636 C685.803069,86.7626358 680.232252,78.5859884 669.644478,78.5859884 L669.644478,78.5859884 Z M669.425509,132.123931 C653.492327,132.123931 643.464855,121.147283 643.464855,103.674636 C643.464855,84.1866358 653.376403,72.7619884 670.20478,72.7619884 C686.247447,72.7619884 696.165434,83.7379884 696.165434,101.658636 C696.165434,120.699283 686.137962,132.123931 669.425509,132.123931 L669.425509,132.123931 Z M722.776553,81.3866358 C720.219774,81.3866358 716.761358,81.8346358 713.863245,82.5066358 L713.863245,130.891283 L704.396075,130.891283 L704.396075,73.9939884 L713.644277,73.9939884 L713.644277,78.2499884 C721.778314,74.6659884 725.900075,73.2106358 728.128403,73.2106358 C730.466214,73.2106358 732.359648,73.6579884 734.143597,74.6659884 L734.143597,83.7379884 C731.136,82.1706358 727.349132,81.3866358 722.776553,81.3866358 M739.154113,44.201341 L748.627723,44.201341 L748.627723,130.891283 L739.154113,130.891283 L739.154113,44.201341 Z M798.095296,81.1626358 C795.422591,80.4899884 791.635723,80.0419884 788.512201,80.0419884 C775.702541,80.0419884 768.347774,88.4426358 768.347774,103.114636 C768.347774,116.779283 775.142239,124.619283 786.844176,124.619283 C790.856453,124.619283 794.643321,124.171283 798.095296,123.275283 L798.095296,81.1626358 L798.095296,81.1626358 Z M798.095296,130.891283 L798.095296,127.531931 C797.650918,127.643931 797.316025,127.755283 797.090616,127.867283 C788.177308,131.115283 784.834818,132.011283 781.492327,132.011283 C767.343094,132.011283 757.985409,120.811283 757.985409,104.010636 C757.985409,86.5386358 769.79683,73.3226358 785.395119,73.3226358 C789.742289,73.3226358 793.973535,74.2179884 798.095296,76.1226358 L798.095296,44.201341 L807.568906,44.201341 L807.568906,130.891283 L798.095296,130.891283 L798.095296,130.891283 Z M876.312151,130.891283 L867.508327,130.891283 L854.247849,83.7379884 L840.768403,130.891283 L831.629686,130.891283 L813.358692,73.9939884 L823.721057,73.9939884 L836.646642,120.811283 L850.235572,73.9939884 L859.593258,73.9939884 L872.853736,121.707283 L885.779321,73.9939884 L894.583145,73.9939884 L876.312151,130.891283 M899.703145,73.9939884 L909.176755,73.9939884 L909.176755,130.891283 L899.703145,130.891283 L899.703145,73.9939884 Z M904.385208,63.5779884 C900.482415,63.5779884 898.144604,61.2259884 898.144604,57.0819884 C898.144604,53.273341 900.482415,50.921341 904.385208,50.921341 C908.506969,50.921341 910.735296,53.0499884 910.735296,56.9699884 C910.735296,61.2259884 908.506969,63.5779884 904.385208,63.5779884 L904.385208,63.5779884 Z M958.644327,81.1626358 C955.971623,80.4899884 952.184755,80.0419884 949.061233,80.0419884 C936.251572,80.0419884 928.896805,88.4426358 928.896805,103.114636 C928.896805,116.779283 935.69127,124.619283 947.393208,124.619283 C951.405484,124.619283 955.192352,124.171283 958.644327,123.275283 L958.644327,81.1626358 L958.644327,81.1626358 Z M958.644327,130.891283 L958.644327,127.531931 C958.19995,127.643931 957.865057,127.755283 957.639648,127.867283 C948.72634,131.115283 945.383849,132.011283 942.041358,132.011283 C927.892126,132.011283 918.53444,120.811283 918.53444,104.010636 C918.53444,86.5386358 930.345862,73.3226358 945.944151,73.3226358 C950.291321,73.3226358 954.522566,74.2179884 958.644327,76.1226358 L958.644327,44.201341 L968.117937,44.201341 L968.117937,130.891283 L958.644327,130.891283 L958.644327,130.891283 Z M1000.86018,78.9226358 C991.721459,78.9226358 986.710943,85.1939884 986.595019,96.7306358 L1013.66984,96.7306358 C1013.66984,83.9626358 1009.99245,78.9226358 1000.86018,78.9226358 L1000.86018,78.9226358 Z M986.595019,102.442636 C986.710943,102.779283 986.710943,103.114636 986.710943,103.227283 L986.710943,105.242636 C986.929912,118.683283 993.170516,124.619283 1007.10078,124.619283 C1010.88765,124.619283 1015.00941,124.283283 1021.58491,123.387283 L1021.58491,128.763283 C1011.88589,131.003283 1006.32151,131.899283 1002.30923,131.899283 C985.480855,131.899283 976.348579,122.155283 976.348579,104.122636 C976.348579,84.6346358 985.931673,72.9859884 1001.74893,72.9859884 C1012.78108,72.9859884 1020.01992,78.2499884 1022.69907,88.4426358 C1023.69731,91.9146358 1024.0322,95.2752832 1024.14813,102.442636 L986.595019,102.442636 L986.595019,102.442636 Z" id="Open-House-Worldwide" sketch:type="MSShapeGroup"></path>
        </g>
    </g>
</svg>