<?xml version="1.0" encoding="UTF-8" standalone="no"?>
<svg width="24px" height="24px" viewBox="0 0 24 24" version="1.1" xmlns="http://www.w3.org/2000/svg" xmlns:xlink="http://www.w3.org/1999/xlink" xmlns:sketch="http://www.bohemiancoding.com/sketch/ns">
    <!-- Generator: Sketch 3.3.2 (12043) - http://www.bohemiancoding.com/sketch -->
    <title>picto-photography-no</title>
    <desc>Created with Sketch.</desc>
    <defs></defs>
    <g id="Page-1" stroke="none" stroke-width="1" fill="none" fill-rule="evenodd" sketch:type="MSPage">
        <g id="picto-photography-no" sketch:type="MSArtboardGroup">
            <path d="M17.1973068,10 L22,10 L22,5 L2,5 L2,10 L6.80269317,10 C7.84012143,8.20659589 9.77915293,7 12,7 C14.2208471,7 16.1598786,8.20659589 17.1973068,10 L17.1973068,10 Z M24,20 L24,3 L6,3 L6,2 L4,2 L4,3 L0,3 L0,20 L24,20 Z M12,17 C14.209139,17 16,15.209139 16,13 C16,10.790861 14.209139,9 12,9 C9.790861,9 8,10.790861 8,13 C8,15.209139 9.790861,17 12,17 Z M12,15.5 C13.3807119,15.5 14.5,14.3807119 14.5,13 C14.5,11.6192881 13.3807119,10.5 12,10.5 C10.6192881,10.5 9.5,11.6192881 9.5,13 C9.5,14.3807119 10.6192881,15.5 12,15.5 Z" id="Fill-1532" fill="#000000" sketch:type="MSShapeGroup"></path>
            <path d="M8.8817842e-17,22.1714286 L1.82857143,24 L12,13.8285714 L22.1714286,24 L24,22.1714286 L13.8285714,12 L24,1.82857143 L22.1714286,4.08562073e-15 L12,10.1714286 L1.82857143,1.95399252e-15 L2.13162821e-15,1.82857143 L10.1714286,12 L8.8817842e-17,22.1714286 Z" id="Rectangle-1-Copy-2" fill="#aaaaaa" sketch:type="MSShapeGroup"></path>
        </g>
    </g>
</svg>