<?xml version="1.0" encoding="UTF-8" standalone="no"?>
<svg width="24px" height="24px" viewBox="0 0 24 24" version="1.1" xmlns="http://www.w3.org/2000/svg" xmlns:xlink="http://www.w3.org/1999/xlink" xmlns:sketch="http://www.bohemiancoding.com/sketch/ns">
    <!-- Generator: Sketch 3.3.2 (12043) - http://www.bohemiancoding.com/sketch -->
    <title>picto-reservations-no</title>
    <desc>Created with Sketch.</desc>
    <defs></defs>
    <g id="Page-1" stroke="none" stroke-width="1" fill="none" fill-rule="evenodd" sketch:type="MSPage">
        <g id="picto-reservations-no" sketch:type="MSArtboardGroup">
            <path d="M8.8817842e-17,22.1714286 L1.82857143,24 L12,13.8285714 L22.1714286,24 L24,22.1714286 L13.8285714,12 L24,1.82857143 L22.1714286,4.08562073e-15 L12,10.1714286 L1.82857143,1.95399252e-15 L2.13162821e-15,1.82857143 L10.1714286,12 L8.8817842e-17,22.1714286 Z" id="Rectangle-1-Copy-2" fill="#aaaaaa" sketch:type="MSShapeGroup"></path>
            <path d="M15.5975057,16.6551724 L14.1717687,13.143722 C14.1405896,13.0858121 14.1405896,13.0279021 14.1405896,12.9699921 C14.1575964,12.8989208 14.185941,12.8278494 14.234127,12.7831008 C14.8378685,12.3250855 15.3650794,11.5327718 15.3650794,10.1218742 C15.3650794,7.93445644 13.8146259,7 11.6774376,7 L8.74943311,7 C8.59353741,7 8.5,7.07107133 8.5,7.21584628 L8.5,16.7709924 C8.5,16.913135 8.59353741,17 8.74943311,17 L10.435941,17 C10.5918367,17 10.6683673,16.913135 10.6683673,16.7709924 L10.6683673,13.6754409 C10.6683673,13.5885759 10.6995465,13.4306396 10.9489796,13.4174783 L11.7851474,13.4174783 C11.9722222,13.4174783 12.079932,13.5175046 12.1252834,13.6464859 L13.3497732,16.8262701 C13.3979592,16.9289287 13.5056689,17 13.5821995,17 L15.4104308,17 C15.5663265,17 15.6428571,16.9289287 15.6428571,16.7841537 C15.6428571,16.7420374 15.611678,16.6972888 15.5975057,16.6551724 Z M11.6292517,8.6530666 C12.3577098,8.6530666 13.1485261,9.05580416 13.1485261,10.2087391 C13.1485261,11.3906291 12.5306122,11.7065017 11.7397959,11.7644117 L10.9319728,11.7644117 C10.6995465,11.7644117 10.6683673,11.6196367 10.6683673,11.5327718 L10.6683673,8.8847065 C10.6683673,8.73993156 10.7307256,8.6530666 10.9178005,8.6530666 L11.6292517,8.6530666 Z" id="Fill-1518" fill="#000000" sketch:type="MSShapeGroup"></path>
            <path d="M4,6.99525338 L4,6.99525338 L4,17.0047466 C4,18.6592243 5.34085234,20 6.99525338,20 L17.0047466,20 C18.6592243,20 20,18.6591477 20,17.0047466 L20,6.99525338 C20,5.34077573 18.6591477,4 17.0047466,4 L6.99525338,4 C5.34077573,4 4,5.34085234 4,6.99525338 L4,6.99525338 Z M2,6.99525338 C2,4.23645112 4.23603796,2 6.99525338,2 L17.0047466,2 C19.7635489,2 22,4.23603796 22,6.99525338 L22,17.0047466 C22,19.7635489 19.763962,22 17.0047466,22 L6.99525338,22 C4.23645112,22 2,19.763962 2,17.0047466 L2,6.99525338 L2,6.99525338 Z" id="Shape" fill="#000000" sketch:type="MSShapeGroup"></path>
        </g>
    </g>
</svg>