<?xml version="1.0" encoding="UTF-8" standalone="no"?>
<svg width="24px" height="24px" viewBox="0 0 24 24" version="1.1" xmlns="http://www.w3.org/2000/svg" xmlns:xlink="http://www.w3.org/1999/xlink" xmlns:sketch="http://www.bohemiancoding.com/sketch/ns">
    <!-- Generator: Sketch 3.3.2 (12043) - http://www.bohemiancoding.com/sketch -->
    <title>picto-universalaccess-yes</title>
    <desc>Created with Sketch.</desc>
    <defs></defs>
    <g id="Page-1" stroke="none" stroke-width="1" fill="none" fill-rule="evenodd" sketch:type="MSPage">
        <g id="picto-universalaccess-yes" sketch:type="MSArtboardGroup" fill="#000000">
            <path d="M22.9256871,18.0970182 L20.8874769,19.0092452 L17.840699,12.2563569 L10.6452451,12.2563569 L10.5609468,10.7450105 L15.8235634,10.7450105 L15.8235634,8.75798136 L10.4525634,8.75798136 L10.2056901,4.2781339 C10.9914698,3.92287718 11.5363975,3.14612943 11.5363975,2.24293438 C11.5363975,1.00555716 10.5097658,0 9.24529272,0 C7.98081965,0 6.95418794,1.00555716 6.95418794,2.24293438 C6.95418794,3.11903358 7.46599847,3.87771743 8.21565036,4.24501675 L8.76961,14.2403753 L16.558162,14.2403753 L19.8909517,21.6285109 L23.735552,19.9094296 L22.9256871,18.0970182 Z M10.857797,22.0159815 C7.61833737,22.0159815 4.98401847,19.3816626 4.98401847,16.142203 C4.98401847,14.2846319 5.85108572,12.6257636 7.20286764,11.5479509 L7.07340969,9.25684609 C4.64682565,10.5935748 3,13.1797233 3,16.142203 C3,20.4745286 6.52547135,24 10.857797,24 C13.8052235,24 16.3763187,22.3682276 17.7220794,19.9627181 L16.5840536,17.4397933 C15.9909555,20.0560483 13.6516803,22.0159815 10.857797,22.0159815 Z" id="Fill-1538" sketch:type="MSShapeGroup"></path>
        </g>
    </g>
</svg>