<?xml version="1.0" encoding="UTF-8" standalone="no"?>
<svg width="32px" height="32px" viewBox="0 0 32 32" version="1.1" xmlns="http://www.w3.org/2000/svg" xmlns:xlink="http://www.w3.org/1999/xlink" xmlns:sketch="http://www.bohemiancoding.com/sketch/ns">
    <!-- Generator: Sketch 3.5.2 (25235) - http://www.bohemiancoding.com/sketch -->
    <title>twitter</title>
    <desc>Created with Sketch.</desc>
    <defs></defs>
    <g id="Page-1" stroke="none" stroke-width="1" fill="none" fill-rule="evenodd" sketch:type="MSPage">
        <path d="M15.9979861,0 C7.17770561,0 0,7.17851119 0,15.9979861 C0,24.8222944 7.17770561,32 15.9979861,32 C24.8214888,32 32,24.8222944 32,15.9979861 C32,7.17851119 24.8214888,0 15.9979861,0 Z M23.6645138,12.3502523 C23.6701702,12.5078248 23.6734025,12.6686295 23.6734025,12.8302424 C23.6734025,17.7101413 19.9587319,23.3374995 13.1629131,23.3374995 C11.0764916,23.3374995 9.13471363,22.7290273 7.5,21.6769279 C7.790095,21.7124827 8.08342226,21.7310682 8.38078984,21.7310682 C10.1132792,21.7310682 11.7043574,21.1411814 12.9697857,20.1496868 C11.3536576,20.1181723 9.99045349,19.0507196 9.52016019,17.5832753 C9.74399394,17.6277188 9.9742922,17.6495365 10.2142872,17.6495365 C10.5488258,17.6495365 10.8768998,17.605901 11.1863883,17.5202463 C9.4975344,17.1824755 8.22240928,15.6899811 8.22240928,13.9001192 C8.22240928,13.8839579 8.22240928,13.8686047 8.22564154,13.8524434 C8.72098482,14.1304175 9.29309419,14.2944545 9.89914224,14.3130399 C8.90764762,13.6536596 8.25392378,12.5207538 8.25392378,11.2391642 C8.25392378,10.5636226 8.43735433,9.92929232 8.75330738,9.383041 C10.5738757,11.6181462 13.2986678,13.0888229 16.3660791,13.2431631 C16.3030501,12.9716536 16.2715356,12.6912553 16.2715356,12.4003523 C16.2715356,10.3616066 17.9256427,8.70749943 19.9651965,8.70749943 C21.0286088,8.70749943 21.9877808,9.155975 22.6600901,9.87191977 C23.502901,9.70788276 24.2956118,9.40162648 25.0091324,8.97577671 C24.7311584,9.84040527 24.1469281,10.5636226 23.3833075,11.0209869 C24.1315748,10.9329079 24.8450954,10.7341241 25.5044757,10.4407969 C25.0123647,11.1793674 24.3836908,11.829051 23.6645138,12.3502523 Z" id="twitter" fill="#FFFFFF" sketch:type="MSShapeGroup"></path>
    </g>
</svg>