<?xml version="1.0" encoding="UTF-8" standalone="no"?>
<svg width="32px" height="32px" viewBox="0 0 32 32" version="1.1" xmlns="http://www.w3.org/2000/svg" xmlns:xlink="http://www.w3.org/1999/xlink">
    <!-- Generator: Sketch 3.6.1 (26313) - http://www.bohemiancoding.com/sketch -->
    <title>email</title>
    <desc>Created with Sketch.</desc>
    <defs></defs>
    <g id="Page-1" stroke="none" stroke-width="1" fill="none" fill-rule="evenodd">
        <path d="M16,32 C24.836556,32 32,24.836556 32,16 C32,7.163444 24.836556,0 16,0 C7.16344401,0 0,7.163444 0,16 C0,24.836556 7.16344401,32 16,32 Z M25,21.7296165 C25,22.4319279 24.4978827,23 23.8771118,23 L8.1228882,23 C7.50211726,23 7,22.4319279 7,21.7296165 L7,10.2703835 C7,9.56896114 7.50211726,9 8.1228882,9 L23.8771118,9 C24.4978827,9 25,9.56896114 25,10.2703835 L25,21.7296165 Z M10.5096897,21.5 L14.306632,17.7752414 L15.220549,18.6859318 C15.6698445,19.1360339 16.4022687,19.1360339 16.8531774,18.6859318 L17.7356356,17.8034736 L21.4919174,21.5 L10.5096897,21.5 Z M8.95804094,10.5 L16.0021779,17.7324897 L23.0151741,10.5 L8.95804094,10.5 Z M8.8973265,21.5 L13.452406,16.9202087 L8.5,11.7245693 L8.5,21.5 L8.8973265,21.5 Z M23.5,11.7315204 L18.6189005,16.9202087 L23.1096921,21.5 L23.5,21.5 L23.5,11.7315204 Z" id="email" fill="#FFFFFF"></path>
    </g>
</svg>