<?xml version="1.0" encoding="UTF-8" standalone="no"?>
<svg width="32px" height="32px" viewBox="0 0 32 32" version="1.1" xmlns="http://www.w3.org/2000/svg" xmlns:xlink="http://www.w3.org/1999/xlink" xmlns:sketch="http://www.bohemiancoding.com/sketch/ns">
    <!-- Generator: Sketch 3.5.2 (25235) - http://www.bohemiancoding.com/sketch -->
    <title>facebook</title>
    <desc>Created with Sketch.</desc>
    <defs></defs>
    <g id="Page-1" stroke="none" stroke-width="1" fill="none" fill-rule="evenodd" sketch:type="MSPage">
        <path d="M0,15.9987916 C0,24.8222944 7.17690003,32 15.9979861,32 C24.8214888,32 32,24.8222944 32,15.9987916 C32,7.17931677 24.8214888,0 15.9979861,0 C7.17690003,0 0,7.17931677 0,15.9987916 Z M20.3787227,15.7369786 L17.7758981,15.7369786 L17.7758981,25.01805 L13.9171764,25.01805 L13.9171764,15.7369786 L12.0836795,15.7369786 L12.0836795,12.4582735 L13.9171764,12.4582735 L13.9171764,10.337185 C13.9171764,8.82028044 14.6389749,6.44462906 17.810538,6.44462906 L20.6671198,6.45671274 L20.6671198,9.63874833 L18.5935604,9.63874833 C18.2536062,9.63874833 17.7758981,9.80872542 17.7758981,10.532135 L17.7758981,12.4614959 L20.7154545,12.4614959 L20.3787227,15.7369786 Z" id="facebook" fill="#FFFFFF" sketch:type="MSShapeGroup"></path>
    </g>
</svg>