<?xml version="1.0" encoding="UTF-8" standalone="no"?>
<svg width="32px" height="32px" viewBox="0 0 32 32" version="1.1" xmlns="http://www.w3.org/2000/svg" xmlns:xlink="http://www.w3.org/1999/xlink" xmlns:sketch="http://www.bohemiancoding.com/sketch/ns">
    <!-- Generator: Sketch 3.5.2 (25235) - http://www.bohemiancoding.com/sketch -->
    <title>pinterest</title>
    <desc>Created with Sketch.</desc>
    <defs></defs>
    <g id="Page-1" stroke="none" stroke-width="1" fill="none" fill-rule="evenodd" sketch:type="MSPage">
        <path d="M15.9995971,0 C7.16250724,0 0,7.1633131 0,15.9995971 C0,24.835881 7.16250724,32 15.9995971,32 C24.835881,32 32,24.835881 32,15.9995971 C32,7.1633131 24.835881,0 15.9995971,0 Z M17.3235376,20.5903476 C16.082839,20.493375 15.5622133,19.8792154 14.5897367,19.2877516 C14.0546682,22.0937662 13.401307,24.7828635 11.4652945,26.1872462 C10.8683286,21.9479634 12.3428618,18.7636871 13.0278594,15.3834024 C11.8607499,13.4171289 13.1681602,9.46119858 15.6309882,10.4364262 C18.6612088,11.6351721 13.007227,17.7444436 16.8029119,18.5078446 C20.7664075,19.3042575 22.3839923,11.6303579 19.9266663,9.13520572 C16.37582,5.53140269 9.58980384,9.05336362 10.4247307,14.2121664 C10.6276166,15.4734975 11.9302126,15.855198 10.9453565,17.5958899 C8.67234711,17.0924578 7.99422693,15.3001848 8.08157101,12.9102582 C8.22255948,8.99834373 11.5959667,6.25972853 14.9810657,5.88077901 C19.2602379,5.40210594 23.2773779,7.45159697 23.832391,11.4783654 C24.4561791,16.0216331 21.8998173,20.9438504 17.3235376,20.5903476 Z" id="pinterest" fill="#FFFFFF" sketch:type="MSShapeGroup"></path>
    </g>
</svg>