<?xml version="1.0" encoding="UTF-8" standalone="no"?>
<svg width="32px" height="32px" viewBox="0 0 32 32" version="1.1" xmlns="http://www.w3.org/2000/svg" xmlns:xlink="http://www.w3.org/1999/xlink" xmlns:sketch="http://www.bohemiancoding.com/sketch/ns">
    <!-- Generator: Sketch 3.5.2 (25235) - http://www.bohemiancoding.com/sketch -->
    <title>instagram</title>
    <desc>Created with Sketch.</desc>
    <defs></defs>
    <g id="Page-1" stroke="none" stroke-width="1" fill="none" fill-rule="evenodd" sketch:type="MSPage">
        <path d="M15.9979861,0 C7.17770561,0 0,7.17851119 0,15.9979861 C0,24.8222944 7.17770561,32 15.9979861,32 C24.8214888,32 32,24.8222944 32,15.9979861 C32,7.17851119 24.8214888,0 15.9979861,0 L15.9979861,0 Z M25,14.1521912 L25,21.5227092 C25,23.4406375 23.4406375,25 21.5203187,25 L10.4772908,25 C8.55936255,25 7,23.4406375 7,21.5227092 L7,10.4796813 C7,8.55936255 8.55936255,7 10.4772908,7 L21.5203187,7 C23.4406375,7 25,8.55936255 25,10.4796813 L25,14.1521912 Z M20.7568593,15.8266585 C20.7568593,18.5130138 18.6253368,20.7009026 15.9996151,20.7009026 C13.3777423,20.7009026 11.2462198,18.5130138 11.2462198,15.8266585 C11.2462198,15.183069 11.3724638,14.5631408 11.5949304,14 L9,14 L9,21.295592 C9,22.2388923 9.74514763,23 10.6658052,23 L21.3341948,23 C22.2540826,23 23,22.2388923 23,21.295592 L23,14 L20.4050696,14 C20.6275362,14.5631408 20.7568593,15.183069 20.7568593,15.8266585 Z M23,11.9874077 L23,8.99678272 L22.6085595,8.99678272 L20,9.00615772 L20.0125261,11.9967827 L23,11.9874077 Z M15.9980666,19.2017723 C17.763895,19.2017723 19.2018528,17.7670367 19.2018528,15.9979861 C19.2018528,15.3027717 18.9754852,14.6583088 18.5976689,14.1322659 C18.0152355,13.3266873 17.0686806,12.7982277 15.9980666,12.7982277 C14.9314805,12.7982277 13.98412,13.323465 13.4024923,14.1322659 C13.0214536,14.6583088 12.7983083,15.3027717 12.795086,15.9979861 C12.795086,17.7670367 14.2330438,19.2017723 15.9980666,19.2017723 Z" id="instagram" fill="#FFFFFF" sketch:type="MSShapeGroup"></path>
    </g>
</svg>