<?xml version="1.0" encoding="UTF-8" standalone="no"?>
<svg width="478px" height="286px" viewBox="0 0 478 286" version="1.1" xmlns="http://www.w3.org/2000/svg" xmlns:xlink="http://www.w3.org/1999/xlink" xmlns:sketch="http://www.bohemiancoding.com/sketch/ns">
    <!-- Generator: Sketch 3.3.3 (12072) - http://www.bohemiancoding.com/sketch -->
    <title>tagline-pt</title>
    <desc>Created with Sketch.</desc>
    <defs></defs>
    <g id="Page-1" stroke="none" stroke-width="1" fill="none" fill-rule="evenodd" sketch:type="MSPage">
        <g id="tagline-pt" sketch:type="MSArtboardGroup" fill="#FFFFFF">
            <g id="Imported-Layers" sketch:type="MSLayerGroup" transform="translate(1.000000, 1.000000)">
                <path d="M452.152215,118.788969 C450.041901,119.295526 448.165177,120.673075 446.520813,122.921617 C444.360664,125.911947 443.482084,129.178525 443.885689,132.71971 C444.19393,135.426409 445.312664,138.659149 447.241684,142.418749 C449.63768,147.061646 451.934621,150.835602 454.133327,153.740002 C453.067916,154.339257 452.177851,154.724405 451.464364,154.89565 C447.861448,155.760695 444.414601,155.215786 441.124028,153.25867 C441.518609,156.425782 442.123402,158.958159 442.940047,160.855597 C443.481673,162.098816 444.151478,163.225137 444.95069,164.234971 C445.748672,165.245215 446.459698,165.846931 447.081923,166.040121 C448.156153,166.400248 450.365318,166.178963 453.708803,165.376264 C461.693339,163.459138 465.211555,158.340857 464.263247,150.020803 C464.126456,148.81778 463.840364,147.479197 463.405791,146.004233 C462.286442,142.325641 460.869927,139.113 459.156245,136.365694 C456.845973,132.76729 455.336145,130.348939 454.628605,129.110847 C458.026642,128.500927 461.191909,129.646321 464.123174,132.547235 C464.446387,130.409849 464.518987,128.5563 464.339948,126.985356 C464.145734,125.281108 463.609644,122.921411 462.73291,119.904831 C458.665274,118.444427 455.137829,118.0722 452.152215,118.788969 M412.734042,160.022956 C412.524857,158.185813 412.719071,155.941989 413.317506,153.292098 C414.191164,149.546854 415.610346,145.910919 417.576691,142.383064 C420.095533,137.864858 423.118471,134.393401 426.64366,131.967462 C425.715245,137.580202 424.939002,141.886146 424.314111,144.884884 C423.558171,148.49949 422.46897,151.815903 421.046097,154.834945 C418.986644,159.003073 416.651147,162.069284 414.041453,164.034604 C413.298639,162.496679 412.863655,161.159326 412.734042,160.022956 M436.39438,156.968844 C435.680072,157.140295 434.720484,157.353992 433.516436,157.608296 C434.508017,153.732003 435.267443,149.567157 435.794099,145.115399 C436.720874,137.444231 437.014759,132.121275 436.67596,129.147147 C436.523788,127.811025 435.746315,126.847335 434.345796,126.256488 C432.730759,125.546077 430.448994,124.977789 427.499271,124.553265 C427.353661,126.20214 427.107766,128.578449 426.760969,131.681985 C425.149623,130.420924 423.742747,129.489227 422.540955,128.884639 C421.06353,128.209503 419.327083,127.750935 417.332436,127.508936 C412.439747,131.395893 408.369854,136.646659 405.122144,143.261849 C400.904181,151.895271 399.209982,159.854582 400.039957,167.138551 C400.321742,169.611659 401.055943,171.666601 402.242969,173.303786 C403.983107,175.701218 406.265282,176.560315 409.088879,175.882308 C413.535511,174.814845 418.09863,170.526744 422.778647,163.018413 C422.654161,164.559004 422.637549,165.729829 422.729017,166.531912 C422.915438,168.169303 423.500338,169.350997 424.4831,170.075354 C425.756057,171.005615 427.950661,171.096467 431.066502,170.348526 C432.299467,170.052589 433.032438,169.755833 433.266028,169.460102 C433.502695,169.197389 434.030377,168.264667 434.847841,166.6605 C436.507381,163.378335 438.009006,159.876526 439.353127,156.155686 C438.159333,156.511302 437.173494,156.781808 436.39438,156.968844 M382.194776,120.342685 C381.43494,130.652053 381.169972,137.838402 381.400076,141.902757 C378.950347,141.769863 376.749591,141.474337 374.796781,141.016384 C374.809086,142.592865 374.875123,143.89884 374.993046,144.934104 C375.385167,148.376029 375.905465,150.603037 376.554351,151.613486 C376.806194,152.068157 377.562954,152.419056 378.824836,152.664951 C379.132257,152.728732 379.667526,152.892184 380.431259,153.154487 C380.356813,159.523781 380.833019,167.218328 381.861105,176.239974 C382.040143,177.811328 382.345308,178.733181 382.7766,179.006968 C383.849394,179.642523 386.512205,180.187636 390.765648,180.641897 C391.281844,176.982788 391.75969,171.95864 392.199595,165.570888 C392.535318,160.616264 392.872681,156.552729 393.211685,153.38172 L394.915728,152.972577 C396.145001,152.643828 396.883304,152.243093 397.12961,151.77181 C397.551878,151.08724 398.308843,147.489861 399.401325,140.979469 C397.680465,141.392713 395.643776,141.658707 393.290027,141.777246 C393.48055,129.991478 393.574683,124.081572 393.570787,124.047938 C393.564224,119.896422 393.426408,116.634151 393.156107,114.260919 C393.075919,113.559531 393.002294,113.062408 392.936052,112.769137 C392.754963,112.057906 392.365303,111.567345 391.768098,111.29889 C389.826773,110.35776 387.117613,109.703952 383.641644,109.336441 C383.039517,111.952698 382.55716,115.621241 382.194776,120.342685 M370.534725,153.779788 C370.672131,153.231804 371.318966,150.862468 372.47564,146.671371 C372.924159,145.053463 373.113246,143.926732 373.041056,143.291586 C372.942001,142.423261 372.333517,141.471056 371.214783,140.434561 C369.613487,138.965339 367.543984,137.780569 365.007505,136.878814 C364.310425,138.659969 363.685944,140.938042 363.135293,143.713034 C362.047323,142.944379 360.920591,142.34861 359.755509,141.924086 C358.589606,141.500793 357.404221,141.26187 356.197711,141.207933 C354.816676,147.238018 354.015822,153.523433 353.794332,160.064383 C353.395033,172.072667 353.346223,179.396422 353.647081,182.035648 C353.757212,183.005081 354.236083,183.696214 355.08349,184.110483 C357.210006,185.21404 359.796321,186.257918 362.843049,187.242526 C362.999528,176.323443 363.857189,167.758725 365.417673,161.547755 C367.016713,162.125272 368.319817,162.292826 369.326165,162.051237 C370.462125,161.778475 371.278975,161.342671 371.778149,160.74157 C372.366125,160.051872 372.857096,158.801065 373.251062,156.989558 C373.652617,155.245318 373.858111,153.394025 373.868776,151.434447 C372.608329,152.664131 371.496979,153.445706 370.534725,153.779788 M338.825044,160.002447 C338.334894,164.480252 337.261484,168.084808 335.605636,170.816117 C334.44568,172.639519 332.847461,174.122072 330.810156,175.262954 C330.904905,170.537613 331.632953,166.388969 332.99348,162.818456 C334.353803,159.247943 336.318508,156.296374 338.88739,153.962723 C339.041203,156.191576 339.020284,158.204681 338.825044,160.002447 M343.850423,178.208371 C341.409513,180.202402 338.712248,181.553086 335.759243,182.262061 C334.590675,182.542411 333.125144,182.706273 331.363268,182.750981 C331.147929,181.739097 331.006011,180.931681 330.937513,180.33017 C330.849942,179.561925 330.794775,178.494053 330.772421,177.125732 C336.746313,175.417177 341.269441,172.237144 344.340779,167.586249 C347.333775,163.126492 348.571457,158.623872 348.053825,154.079416 C347.665396,150.671125 346.070663,148.239443 343.270856,146.782937 C340.966327,145.585451 338.662618,145.263264 336.358294,145.816376 C334.865077,146.174863 333.545772,146.886709 332.400377,147.95089 C329.505206,150.637286 327.018973,154.134583 324.942497,158.443399 C320.583026,167.591991 318.835095,175.958394 319.699319,183.543016 C320.076264,186.851226 321.140445,189.462151 322.892888,191.375585 C325.480227,194.187492 328.900003,195.082478 333.152215,194.061775 C335.651164,193.461904 338.09474,192.377215 340.484379,190.808322 C342.775578,189.262809 344.390409,187.77677 345.328259,186.349796 C346.863928,184.024348 347.860431,179.751628 348.319204,173.531224 C346.590346,175.628414 345.10082,177.187257 343.850423,178.208371 M303.338537,175.267261 C304.22573,176.325084 305.494585,177.221506 307.146127,177.957553 C306.041134,181.141277 304.376467,184.235174 302.151921,187.240886 C301.248115,188.384844 300.039145,189.482044 298.52542,190.531869 C299.179843,185.157027 300.06232,178.56009 301.172234,170.741262 C301.797741,172.719912 302.519841,174.2281 303.338537,175.267261 M294.568119,138.238931 C292.893403,144.030914 291.403467,152.02632 290.098313,162.225968 C288.467485,175.422304 288.011583,185.177741 288.731223,191.492893 C289.165181,195.301918 290.511762,198.05148 292.771993,199.739731 C293.903442,200.601084 295.295347,201.254072 296.946683,201.698283 C298.597815,202.142701 299.94214,202.240936 300.981506,201.991349 C302.474108,201.633067 304.00424,200.578525 305.572722,198.829363 C307.732462,196.423318 309.536996,193.672731 310.985094,190.578423 C313.116738,185.878718 314.274232,180.966751 314.457782,175.841906 C315.509863,174.834738 316.218838,173.737334 316.583683,172.550923 C316.946477,171.056476 317.076705,168.537019 316.972932,164.991116 C315.998578,166.392455 315.260276,167.376653 314.75823,167.94289 C314.576731,162.254065 314.47665,159.32608 314.457782,159.158321 C314.297816,157.754931 313.392986,155.672713 311.744931,152.910027 C309.59483,154.525063 307.760969,156.28653 306.245193,158.195042 C305.022892,159.759012 303.645753,161.720436 302.11357,164.078902 C304.669737,147.880546 305.73843,137.943611 305.319443,134.26748 C305.186344,133.098296 302.746869,131.298273 298.001636,128.867002 C296.502061,132.385629 295.357487,135.509468 294.568119,138.238931 M257.684169,197.24714 C257.474983,195.409997 257.669403,193.166173 258.267838,190.516283 C259.141701,186.771038 260.560677,183.134899 262.527023,179.607044 C265.045865,175.088838 268.068803,171.617175 271.593787,169.191852 C270.665372,174.804181 269.889129,179.11033 269.264033,182.109069 C268.508503,185.723674 267.419097,189.040088 265.996224,192.05913 C263.93677,196.227257 261.601479,199.293468 258.991579,201.258788 C258.248765,199.721069 257.813577,198.383511 257.684169,197.24714 M281.344917,194.193029 C280.630404,194.364479 279.670611,194.577766 278.466563,194.832481 C279.458144,190.955983 280.21757,186.791137 280.744431,182.339583 C281.671,174.66821 281.965091,169.345665 281.626292,166.371126 C281.473915,165.035414 280.696646,164.071519 279.295922,163.480672 C277.680886,162.770261 275.398916,162.202178 272.449603,161.777449 C272.303788,163.426325 272.057892,165.802633 271.7113,168.90617 C270.099955,167.644903 268.693284,166.713206 267.491287,166.108824 C266.013861,165.433687 264.27721,164.975119 262.282768,164.73312 C257.390078,168.619872 253.320391,173.870844 250.072476,180.486034 C245.854513,189.119455 244.160109,197.078971 244.990084,204.36253 C245.271869,206.835843 246.006275,208.89058 247.193301,210.527971 C248.933234,212.925198 251.215409,213.7845 254.039211,213.106492 C258.485637,212.03903 263.048962,207.750928 267.728979,200.242392 C267.604493,201.783393 267.587676,202.953808 267.679143,203.755891 C267.865565,205.393487 268.45067,206.574976 269.433432,207.299538 C270.706184,208.230004 272.900993,208.320651 276.016834,207.57271 C277.249799,207.276569 277.982564,206.980017 278.21636,206.684286 C278.453027,206.421368 278.980503,205.488851 279.797968,203.884479 C281.457508,200.602315 282.959543,197.10071 284.303049,193.379871 C283.109665,193.735486 282.123621,194.005787 281.344917,194.193029 M206.355126,177.799638 C204.245017,178.306196 202.368293,179.683745 200.723929,181.932286 C198.563779,184.922411 197.685405,188.188989 198.088805,191.73038 C198.397251,194.437079 199.515779,197.669818 201.444595,201.429418 C203.841001,206.072315 206.137942,209.846271 208.336443,212.750671 C207.270826,213.349927 206.380762,213.73528 205.667274,213.906525 C202.064564,214.771364 198.617511,214.226251 195.327349,212.269339 C195.721725,215.436246 196.326723,217.968624 197.142957,219.866061 C197.684789,221.109691 198.354799,222.236012 199.153601,223.245436 C199.951788,224.255885 200.662814,224.857396 201.285039,225.05079 C202.359269,225.410918 204.568434,225.189427 207.911714,224.386728 C215.89625,222.469808 219.414671,217.351321 218.466568,209.031268 C218.329572,207.828245 218.043274,206.489661 217.608907,205.014697 C216.489558,201.336515 215.073043,198.123669 213.359566,195.376159 C211.048679,191.77796 209.539261,189.359609 208.831516,188.121517 C212.229758,187.511597 215.395025,188.656786 218.32629,191.557699 C218.649503,189.420314 218.721897,187.566969 218.542859,185.996026 C218.34885,184.291778 217.81276,181.931876 216.936026,178.915295 C212.868184,177.454892 209.340944,177.082869 206.355126,177.799638 M166.937158,219.03383 C166.727767,217.196483 166.922392,214.952453 167.520622,212.302563 C168.394485,208.557729 169.813667,204.921384 171.779807,201.393734 C174.298854,196.875528 177.321587,193.403866 180.846571,190.978337 C179.918361,196.590666 179.142118,200.89661 178.517022,203.895554 C177.761287,207.510159 176.672086,210.826368 175.249213,213.84582 C173.189555,218.013742 170.854468,221.079748 168.244569,223.045274 C167.501754,221.507349 167.066566,220.170201 166.937158,219.03383 M190.597701,215.979514 C189.883393,216.150964 188.9236,216.364457 187.719552,216.618761 C188.711133,212.742673 189.470559,208.577622 189.99742,204.126068 C190.92399,196.4549 191.217875,191.13215 190.879076,188.157816 C190.726904,186.821694 189.949636,185.857799 188.548912,185.267157 C186.933875,184.556541 184.651905,183.988664 181.702387,183.563729 C181.556572,185.212605 181.310882,187.588913 180.96429,190.69245 C179.352739,189.431593 177.946068,188.499897 176.744071,187.895309 C175.266645,187.219967 173.530199,186.761604 171.535552,186.5194 C166.643068,190.406563 162.573175,195.657124 159.32526,202.272519 C155.107297,210.906146 153.413098,218.865251 154.243073,226.14922 C154.524858,228.622328 155.259264,230.677065 156.446085,232.314251 C158.186018,234.711683 160.468398,235.570985 163.2922,234.893182 C167.738421,233.82531 172.301746,229.537413 176.981968,222.028877 C176.857277,223.569879 176.84046,224.740498 176.931928,225.542377 C177.118554,227.179767 177.703454,228.361461 178.686216,229.086023 C179.959173,230.016284 182.153982,230.107342 185.269618,229.359195 C186.502788,229.063259 187.235759,228.766297 187.469144,228.470566 C187.705811,228.208059 188.233287,227.275131 189.050752,225.670964 C190.710497,222.389005 192.212327,218.8874 193.556038,215.166151 C192.362449,215.521972 191.37661,215.792477 190.597701,215.979514 M136.397892,179.353355 C135.638261,189.662723 135.373087,196.849277 135.603192,200.913222 C133.153668,200.780533 130.952707,200.485006 128.999897,200.027054 C129.012202,201.603535 129.078239,202.90951 129.196162,203.944774 C129.588283,207.386904 130.108581,209.613501 130.757467,210.62436 C131.009515,211.078621 131.76607,211.42952 133.027952,211.675621 C133.335373,211.739197 133.870847,211.902854 134.634375,212.165156 C134.559724,218.534246 135.03634,226.229203 136.064221,235.250849 C136.243259,236.821997 136.548424,237.743645 136.979716,238.017432 C138.05251,238.653193 140.715526,239.198101 144.968763,239.652567 C145.485165,235.993253 145.963011,230.969105 146.402711,224.581558 C146.738433,219.626728 147.075797,215.563399 147.414801,212.392389 L149.118639,211.983247 C150.348322,211.654292 151.08642,211.253558 151.332726,210.782275 C151.754788,210.097704 152.511959,206.500531 153.604441,199.989934 C151.883581,200.403178 149.846892,200.669582 147.493143,200.788121 C147.683666,189.002147 147.777799,183.092241 147.773903,183.058607 C147.76734,178.907092 147.629523,175.64482 147.359018,173.271793 C147.27924,172.569996 147.205205,172.072872 147.139168,171.779807 C146.957873,171.068781 146.568419,170.57781 145.971214,170.30956 C144.029684,169.368429 141.320934,168.714621 137.844965,168.347111 C137.242633,170.963162 136.760481,174.632115 136.397892,179.353355 M124.737636,212.790252 C124.875247,212.242473 125.522287,209.873137 126.678756,205.68204 C127.12748,204.063928 127.316567,202.937401 127.244172,202.302051 C127.145117,201.433725 126.536427,200.481725 125.418104,199.445025 C123.816603,197.975804 121.747305,196.791238 119.210826,195.889279 C118.513541,197.670639 117.88906,199.948507 117.338614,202.723498 C116.250644,201.954844 115.123707,201.359075 113.958625,200.934551 C112.792722,200.511462 111.607336,200.272334 110.400827,200.218397 C109.019791,206.248688 108.219143,212.533897 107.997653,219.075257 C107.597944,231.083336 107.549339,238.406887 107.849992,241.046318 C107.960533,242.015545 108.439404,242.706678 109.286811,243.121358 C111.413327,244.22471 113.999436,245.268383 117.04637,246.253196 C117.202644,235.333908 118.060305,226.769189 119.620584,220.558425 C121.219829,221.136146 122.523138,221.30329 123.52928,221.061701 C124.665241,220.789144 125.48209,220.353136 125.981265,219.75224 C126.569241,219.062542 127.060417,217.811735 127.454383,216.000227 C127.855938,214.255988 128.061432,212.404489 128.071686,210.445322 C126.811445,211.674801 125.69989,212.456376 124.737636,212.790252 M87.6166084,236.043088 C85.9845498,238.992607 84.1962171,241.439054 82.25038,243.38161 C81.4681896,241.784826 80.9971116,240.284021 80.8373511,238.880631 C80.3615562,234.704095 80.8455545,229.885236 82.2909866,224.422823 C83.1738733,221.052882 84.6592969,217.847214 86.7472572,214.805203 C86.780891,216.856863 86.8452874,218.30086 86.9404464,219.135757 C87.2337165,221.708946 88.7519535,224.210561 91.4967979,226.640807 C90.5411064,229.960091 89.2476415,233.094595 87.6166084,236.043088 M101.381642,219.891081 C102.122816,213.225031 102.350459,208.638942 102.064982,206.13302 C101.91281,204.797308 100.97332,203.872174 99.2481534,203.359464 C95.283059,202.217761 92.6512159,201.802056 91.3532391,202.113784 C91.028386,202.191511 90.7357312,202.399671 90.4740439,202.736829 C90.1795433,203.082601 89.7310246,204.117249 89.126847,205.84057 C88.0813287,208.666423 87.3442568,211.263607 86.9137854,213.632533 C85.7230676,211.961713 84.5688548,210.762997 83.4527876,210.035154 C82.3838897,209.434053 80.9105661,208.946158 79.0346626,208.5727 C76.1124205,212.775897 73.9034606,216.807438 72.4098337,220.66753 C69.6104369,227.999693 68.5858371,234.956553 69.3358294,241.53893 C69.7394347,245.081141 70.8942628,248.047681 72.8009289,250.438961 C75.6023766,253.955126 78.8043533,255.279764 82.4070642,254.41472 C84.7759897,253.846022 87.1149729,252.42602 89.424424,250.155535 C92.3044188,247.33604 94.6466833,244.044646 96.452243,240.280944 C97.875321,237.261698 99.0968014,233.639093 100.115659,229.412107 C101.843081,228.482461 102.883883,227.082763 103.238473,225.212396 C103.938015,221.989501 104.157044,219.379192 103.896793,217.381879 C102.866861,218.590644 102.028888,219.426771 101.381642,219.891081 M45.3731978,252.698371 C46.1920982,247.593215 46.9584972,243.495841 47.6740353,240.405636 C48.9773442,235.458804 50.9660439,231.256838 53.6405446,227.799941 C54.876791,229.871495 55.6111969,231.927052 55.843352,233.964767 C56.4905972,239.645594 55.7414252,244.923431 53.5958363,249.797458 C52.3382611,247.833779 51.4059492,246.530675 50.7993106,245.886096 C48.8719311,247.996615 47.0635002,250.267511 45.3731978,252.698371 M33.0228333,251.85322 C32.9424403,256.129427 32.9752538,261.245043 33.1206583,267.200067 C33.266268,273.155092 33.4580215,277.185608 33.6979698,279.290795 C33.8386575,280.526632 34.5993141,281.494628 35.9795295,282.193144 C38.2791366,283.357201 40.7561413,284.169539 43.4097234,284.631388 C43.5001654,276.062158 43.5854804,270.960898 43.6666937,269.328224 C43.7319104,267.561835 44.0713244,262.931243 44.6851409,255.438089 C45.5624903,257.287331 46.2737217,258.558237 46.8200655,259.251011 C48.5413356,261.481505 50.6510349,262.296303 53.150804,261.696022 C56.8829229,260.80001 59.9220629,257.032412 62.2667885,250.393432 C65.0981784,242.471037 66.1471831,235.284483 65.4123671,228.835411 C65.058187,225.727978 64.2095493,222.96283 62.8666592,220.538532 C61.8516984,218.654015 60.6017113,217.341067 59.116698,216.598663 C55.9403567,215.061558 53.9787281,214.382115 53.2324274,214.561153 C52.5181198,214.732603 51.3312986,216.168191 49.6713486,218.866277 C47.6748557,222.126087 46.1240103,225.485158 45.0175821,228.94308 C44.5264059,224.632624 44.145975,222.321737 43.877315,222.007959 C43.4078776,221.399885 41.2286549,220.567243 37.340467,219.509625 L35.4848669,219.028088 C34.0845532,227.225501 33.2640121,238.167554 33.0228333,251.85322" id="Fill-1" sketch:type="MSShapeGroup"></path>
                <path d="M466.448827,33.5669212 C465.958471,38.0445205 464.885062,41.6490771 463.229213,44.3807962 C462.069053,46.2039931 460.471038,47.6867505 458.433939,48.8276329 C458.528688,44.102087 459.256121,39.9536476 460.617263,36.3829298 C461.97738,32.8124171 463.942085,29.8608479 466.510763,27.5276071 C466.664371,29.7562551 466.644067,31.7693598 466.448827,33.5669212 M471.474001,51.7728445 C469.032886,53.7670814 466.335826,55.1177648 463.383026,55.8267402 C462.214252,56.1072951 460.748927,56.2707471 458.986845,56.3156605 C458.771507,55.303776 458.629589,54.4961551 458.561091,53.8948488 C458.47352,53.126399 458.418352,52.0583214 458.395998,50.690411 C464.369891,48.9818561 468.893019,45.8016183 471.964357,41.150928 C474.957353,36.690966 476.19483,32.1885515 475.677198,27.6438897 C475.288769,24.2358035 473.69424,21.8041224 470.894433,20.3474106 C468.590109,19.149925 466.286196,18.827738 463.981872,19.3808496 C462.488655,19.7393365 461.169349,20.4511831 460.02375,21.5155692 C457.128579,24.2019647 454.642346,27.6992624 452.566075,32.0080776 C448.206809,41.1566704 446.458878,49.5230728 447.323102,57.107695 C447.699841,60.4157001 448.764022,63.0268298 450.51626,64.9402637 C453.103805,67.7521706 456.523171,68.6473623 460.775793,67.6264541 C463.274742,67.0263783 465.718318,65.9416889 468.107752,64.3730013 C470.39895,62.8276932 472.013782,61.3414494 472.951836,59.9144748 C474.4873,57.5890271 475.484009,53.3165118 475.942782,47.0956984 C474.213718,49.1930926 472.724603,50.7517312 471.474001,51.7728445 M419.705258,65.8494011 C418.665277,64.0393296 418.061715,62.3996829 417.894366,60.9288203 C417.627962,58.5906575 417.906466,55.6995881 418.731929,52.257458 C419.556572,48.8151228 420.801842,45.3325911 422.468355,41.8084274 C423.327657,39.9891271 424.761399,37.7910366 426.768557,35.2149763 C426.419299,39.7616889 426.178735,43.0635416 426.046661,45.1203292 C425.982265,47.7794485 426.115159,50.6996398 426.444524,53.8815183 C423.586268,59.8199311 421.339983,63.8090202 419.705258,65.8494011 M428.664558,17.6130254 C427.638933,24.4164826 427.03291,30.0714692 426.846078,34.5783955 C424.555495,32.6229194 421.627716,31.2146075 418.06192,30.3538699 C414.738328,35.1343783 412.231997,39.4772374 410.543335,43.3840879 C407.129506,51.1727686 405.829684,58.6423386 406.644277,65.7923878 C407.104896,69.8358242 408.269158,72.8862439 410.137884,74.9430315 C412.463536,77.5088376 415.396033,78.3664989 418.933937,77.517246 C421.205448,76.9717225 423.057972,75.6696441 424.490688,73.6085498 C425.493344,72.166604 426.783733,69.8831986 428.361854,66.7577182 C428.921939,69.3352141 429.784317,71.1967617 430.948784,72.3413356 C432.112431,73.4869349 433.505977,73.8642895 435.129217,73.4746299 C437.141296,72.991452 439.518425,71.9057372 442.260808,70.2178957 C442.622166,68.9978509 443.259157,66.8368807 444.173217,63.7339595 C444.666034,62.2083395 445.412539,59.2487721 446.412529,54.854642 C444.197622,56.4854701 441.455648,57.8814769 438.186814,59.0436881 C437.375502,56.9044567 436.607872,53.9645773 435.88167,50.2254856 C436.61382,46.994592 437.076695,44.9101181 437.269679,43.9706282 C438.640665,37.5654442 439.742582,30.5554675 440.575838,22.9404929 C441.584441,13.9446876 441.91032,7.8764567 441.552243,4.73538992 C441.403967,3.43228608 440.457094,2.44132012 438.71265,1.76105644 C436.341468,0.854790177 434.124305,0.271121069 432.060955,0.0110745368 C431.039636,3.92981991 429.907573,9.79665834 428.664558,17.6130254 M354.299454,78.2563688 C354.090063,76.4192262 354.284483,74.1751969 354.883123,71.5253063 C355.756781,67.7802671 357.175757,64.1441275 359.141897,60.6162723 C361.66115,56.0980664 364.683883,52.6264041 368.208662,50.2006704 C367.280657,55.8134097 366.504414,60.1191486 365.879112,63.1180922 C365.123378,66.732698 364.034587,70.0491116 362.611304,73.0683585 C360.551645,77.2362809 358.216763,80.302492 355.606659,82.2678121 C354.864255,80.7300922 354.428862,79.3927393 354.299454,78.2563688 M377.959997,75.2020526 C377.245484,75.3735028 376.285896,75.5869953 375.081642,75.8417096 C376.073429,71.9652115 376.832855,67.8003654 377.359511,63.3486066 C378.286285,55.677439 378.579966,50.3544834 378.240962,47.3801499 C378.088789,46.0442327 377.311726,45.0803378 375.911207,44.4899009 C374.295966,43.7792848 372.014201,43.2112021 369.064682,42.7864731 C368.918868,44.4353486 368.673177,46.811452 368.326585,49.9151935 C366.715035,48.6541318 365.308364,47.7224352 364.106366,47.1178475 C362.628941,46.4425058 360.89229,45.9843481 358.897847,45.742349 C354.005158,49.6288962 349.935471,54.8798673 346.68776,61.4952624 C342.469387,70.1286842 340.775393,78.0877897 341.605368,85.3717587 C341.887154,87.845072 342.621355,89.8998087 343.808176,91.5367893 C345.548109,93.9344265 347.830694,94.7935235 350.654495,94.1157208 C355.100922,93.0482585 359.664041,88.7601568 364.344059,81.2516209 C364.219368,82.7924171 364.202756,83.9630366 364.294018,84.7649151 C364.48085,86.402511 365.065544,87.584 366.048512,88.3087669 C367.321058,89.2388229 369.515867,89.3298802 372.631914,88.5819388 C373.864879,88.2857975 374.598054,87.989246 374.83144,87.6933098 C375.068312,87.4305972 375.595583,86.49767 376.413048,84.8932977 C378.072793,81.6115433 379.574418,78.1099388 380.918333,74.3888944 C379.72495,74.7447152 378.738906,75.0150159 377.959997,75.2020526 M336.939092,66.0497682 C337.076908,65.5017837 337.723333,63.1324481 338.880007,58.9411461 C339.328936,57.3234433 339.517818,56.1965067 339.445424,55.5615666 C339.346573,54.6932408 338.737679,53.7410358 337.61915,52.7043361 C336.017649,51.2351142 333.948557,50.0503438 331.412078,49.1483843 C330.714792,50.9299492 330.090311,53.2076122 329.540071,55.9830142 C328.4521,55.2143593 327.325163,54.6183852 326.160081,54.1940664 C324.994178,53.7707729 323.808588,53.531645 322.602078,53.4777079 C321.221248,59.5079983 320.4206,65.7932081 320.198904,72.3343628 C319.799195,84.3426471 319.75059,91.6661973 320.051243,94.3054235 C320.161784,95.2750607 320.640655,95.9661939 321.488062,96.3806687 C323.614578,97.4840207 326.200893,98.5278983 329.247621,99.5123016 C329.403895,88.5932184 330.261556,80.0287049 331.821835,73.8177355 C333.421081,74.395252 334.724184,74.5628057 335.730737,74.3212167 C336.866287,74.048455 337.683547,73.6126514 338.182311,73.0117553 C338.770287,72.3216476 339.261873,71.0708402 339.655635,69.2595381 C340.056984,67.5152986 340.262888,65.6638001 340.272938,63.7046325 C339.012696,64.9339061 337.901346,65.7158914 336.939092,66.0497682 M291.37209,80.2848548 C291.973191,73.8585472 292.221343,70.1774942 292.114494,69.2416958 C292.023231,68.4398173 291.38501,67.6662404 290.199419,66.9211702 C288.010147,65.5592072 285.423423,64.806754 282.43986,64.6646308 C281.122811,69.2029349 280.006128,75.9424059 279.091249,84.8811978 C278.237074,93.1881258 278.133301,100.181286 278.780546,105.861293 C278.852941,106.496438 278.941947,106.990075 279.049411,107.341589 C279.269877,108.1125 280.285863,108.830089 282.095524,109.493741 C284.353499,110.290492 285.790933,110.61473 286.407826,110.466659 C287.381565,110.232863 289.507671,107.972017 292.787374,103.683095 C294.643385,101.246902 296.509239,98.1550556 298.383297,94.4096062 L298.200567,101.147642 C298.421237,103.085891 298.972913,104.412169 299.85457,105.127502 C301.062514,106.073144 302.964464,106.234545 305.561648,105.610885 C306.697403,105.338328 307.696162,105.029267 308.557105,104.685751 C309.641179,104.253434 310.460284,103.541587 311.014832,102.551031 C312.980357,99.0239966 314.583293,94.9487721 315.824257,90.3255631 C315.0999,90.7053787 314.117137,91.1473348 312.874328,91.6514313 C311.533899,92.1795226 310.538832,92.5211926 309.889946,92.6770564 C310.877015,86.7074709 311.520159,80.9405084 311.820196,75.3757587 C312.102597,69.3694632 312.152638,65.5639242 311.970113,63.9599621 C311.889925,63.2583697 311.2556,62.5184265 310.066318,61.7395174 C308.369043,60.6023266 306.237604,59.7413839 303.669748,59.1556639 C300.801853,72.6143025 298.167548,81.691321 295.768476,86.3869246 C294.094785,89.844436 291.998006,92.8017475 289.477113,95.2607049 C290.264841,90.471788 290.8965,85.4800431 291.37209,80.2848548 M258.676981,54.2008341 C257.917555,64.5104076 257.652381,71.6969617 257.88228,75.7611116 C255.432757,75.6282171 253.232,75.3326911 251.27919,74.8747385 C251.291495,76.4510142 251.357532,77.7571943 251.475455,78.7924584 C251.867576,82.2341784 252.387874,84.4611857 253.036555,85.4720448 C253.288603,85.926511 254.045158,86.2774097 255.307245,86.5231004 C255.614666,86.5868815 256.149935,86.7505386 256.913873,87.012841 C256.838813,93.3819302 257.315633,101.076888 258.343309,110.098533 C258.522347,111.669477 258.827717,112.591535 259.258804,112.865322 C260.331804,113.500672 262.994614,114.045785 267.247852,114.500252 C267.764253,110.840938 268.242304,105.816994 268.682004,99.4292426 C269.017727,94.4746178 269.35509,90.4108781 269.694094,87.2400741 L271.397932,86.8311366 C272.627411,86.5021818 273.365508,86.1010375 273.612019,85.6299595 C274.034082,84.9453891 274.791252,81.3482154 275.883735,74.8378234 C274.162875,75.2508626 272.12598,75.5168565 269.772231,75.6356002 C269.962959,63.8496269 270.057093,57.940131 270.053196,57.9062921 C270.046633,53.7547764 269.908817,50.492505 269.638516,48.1194778 C269.558533,47.4176803 269.484703,46.9205567 269.418256,46.6274916 C269.237167,45.9164653 268.847712,45.4256993 268.250508,45.1572443 C266.308977,44.2159087 263.599817,43.5621008 260.124053,43.1945903 C259.521722,45.810847 259.039569,49.4798001 258.676981,54.2008341 M235.194246,111.588264 C234.288184,109.197599 233.715385,106.948443 233.475436,104.843461 C233.003538,100.700558 233.708207,96.2063473 235.590468,91.3595967 C236.725198,88.4445325 238.128588,85.9794227 239.799612,83.964062 C239.963269,84.8180319 240.070118,85.4615855 240.119543,85.8955433 C240.359492,88.0007307 240.316424,89.9676915 239.991776,91.7964257 C239.940095,92.2207445 239.637801,93.3745472 239.08592,95.2578337 C241.536879,94.5324515 243.401093,93.7761017 244.679176,92.9881689 C246.082566,92.136455 247.072302,91.4611133 247.649408,90.9621439 C248.225489,90.4631745 248.568389,89.9607187 248.677904,89.4535459 C249.287824,86.9045567 249.442458,84.3100388 249.141599,81.6699922 C248.783728,78.5293356 247.614954,76.6126204 245.635483,75.9204619 C244.730242,75.5892512 243.523323,75.3808858 242.013084,75.2970065 C240.503255,75.2137424 239.310077,75.2764981 238.433548,75.4869143 C237.62203,75.6817441 236.792055,76.1563085 235.944853,76.9085567 C232.911866,79.5594726 230.302992,82.9999621 228.117617,87.2322809 C223.54978,96.0189005 221.694795,104.170375 222.551226,111.68855 C223.129973,116.768071 225.19681,120.133499 228.753377,121.785246 C230.621692,122.675516 232.756822,122.8322 235.159176,122.255504 C236.943817,121.827083 239.068488,121.007978 241.531752,119.798802 C244.088534,118.533229 245.642661,117.542263 246.194747,116.825494 C246.889982,115.903847 247.725904,111.978128 248.704155,105.049365 C244.304488,107.993961 239.801253,110.173389 235.194246,111.588264 M209.800538,95.1825679 C209.310387,99.6601672 208.236977,103.264929 206.581129,105.996648 C205.421174,107.819845 203.823159,109.302602 201.785854,110.44328 C201.880603,105.717939 202.608241,101.569499 203.969179,97.9987816 C205.329501,94.4280638 207.294206,91.4766997 209.862883,89.1432538 C210.016696,91.3719018 209.996188,93.3852115 209.800538,95.1825679 M214.826121,113.388696 C212.385006,115.382728 209.687947,116.733411 206.734942,117.442387 C205.566373,117.722942 204.100843,117.886394 202.338966,117.931512 C202.123833,116.919628 201.98171,116.111802 201.913212,115.510495 C201.825641,114.742046 201.770268,113.673968 201.747914,112.306058 C207.722011,110.597503 212.244934,107.417265 215.316272,102.76678 C218.309268,98.3068178 219.54695,93.8044033 219.029318,89.2595364 C218.640889,85.8514502 217.046361,83.4199741 214.246554,81.9630573 C211.942025,80.7655717 209.638316,80.4433847 207.333992,80.9967014 C205.840776,81.3551883 204.52147,82.0670349 203.375666,83.1312159 C200.4807,85.8176114 197.994671,89.3149091 195.918196,93.6239293 C191.558725,102.772522 189.810794,111.13872 190.675018,118.723342 C191.051962,122.031347 192.116143,124.642682 193.868381,126.556115 C196.455926,129.368022 199.875497,130.263214 204.127914,129.242101 C206.626863,128.64223 209.070439,127.557336 211.459872,125.988648 C213.751071,124.44334 215.365903,122.957301 216.303752,121.530121 C217.839421,119.204674 218.836129,114.932159 219.294902,108.711345 C217.565839,110.808944 216.076724,112.367583 214.826121,113.388696 M172.575328,74.8720724 C171.815902,85.1816458 171.550728,92.3681999 171.780627,96.4321448 C169.331309,96.2994554 167.130347,96.0039293 165.177537,95.5457717 C165.190047,97.1220474 165.255674,98.4282275 165.373803,99.4636967 C165.765923,102.905622 166.286221,105.132424 166.935107,106.143283 C167.18695,106.597749 167.943505,106.948648 169.205798,107.194339 C169.513013,107.25812 170.048283,107.421777 170.812016,107.684079 C170.73757,114.053168 171.21398,121.747921 172.241861,130.769772 C172.4209,132.34051 172.72586,133.262568 173.157151,133.53656 C174.230151,134.17191 176.892962,134.717024 181.146199,135.17149 C181.662601,131.512176 182.140446,126.488028 182.580352,120.100481 C182.916279,115.145651 183.253437,111.082116 183.592441,107.911312 L185.296484,107.50217 C186.525758,107.173215 187.26406,106.772276 187.510366,106.301198 C187.932634,105.616422 188.689599,102.019454 189.781877,95.5088565 C188.061222,95.9221008 186.024327,96.1880948 183.670783,96.3066333 C183.861306,84.5206601 183.95544,78.6111642 183.951543,78.5775304 C183.945186,74.4260146 183.806959,71.1637432 183.536658,68.7907161 C183.456676,68.0889186 183.382845,67.5917949 183.316603,67.2987299 C183.135719,66.5877036 182.746059,66.0969375 182.148855,65.8282775 C180.207324,64.887352 177.49837,64.2333391 174.022401,63.8658285 C173.420274,66.4820853 172.937916,70.1510383 172.575328,74.8720724 M153.148539,77.0646256 C151.904705,78.7364705 151.407171,80.6581077 151.654502,82.8297424 C151.822261,84.3006049 152.312207,85.3842688 153.125365,86.0811443 C154.457796,87.2376131 156.031816,87.5975355 157.85009,87.1609117 C159.408114,86.7870435 160.64313,85.9242551 161.556574,84.5719311 C162.58425,83.0555399 162.989496,81.3445239 162.772517,79.4397036 C162.604963,77.9698664 162.083025,76.7565894 161.207111,75.7992572 C160.142109,74.6477105 158.716776,74.2859423 156.93234,74.7145679 C155.308894,75.1042275 154.047628,75.8880586 153.148539,77.0646256 M158.650123,127.544826 C159.56972,121.865844 160.103143,117.910389 160.248958,115.678254 C161.001822,106.194964 161.301244,100.768236 161.14497,99.3974545 C161.084265,98.8634158 160.937015,98.4522223 160.70445,98.1644894 C160.475166,97.9103903 159.971069,97.5859474 159.192776,97.1886997 C157.074053,96.1524102 155.003524,95.3968807 152.982216,94.9206756 C151.107543,100.417132 149.47692,108.206428 148.091988,118.287743 C147.134861,125.108632 146.883223,130.507059 147.336253,134.483433 C147.561025,136.455111 148.086451,137.993856 148.912529,139.099464 C150.437329,141.068476 152.660029,141.701365 155.581451,140.999978 C157.49591,140.540384 159.15504,139.592486 160.559455,138.157103 C161.248538,137.476839 161.80452,136.210651 162.227199,134.358332 C162.920793,131.377231 163.441501,128.334194 163.788093,125.229837 C162.189873,126.12872 160.477217,126.900246 158.650123,127.544826 M119.331826,121.58816 C119.932927,115.161853 120.181079,111.4808 120.074435,110.544796 C119.982968,109.742918 119.344541,108.969546 118.159156,108.224271 C115.969884,106.862308 113.383159,106.109854 110.399597,105.967936 C109.082547,110.50624 107.965865,117.245506 107.050985,126.184298 C106.19681,134.491431 106.093037,141.484591 106.740283,147.164598 C106.812677,147.799743 106.901889,148.29338 107.009148,148.644894 C107.229613,149.4156 108.245599,150.133394 110.055261,150.797251 C112.313236,151.593592 113.75067,151.918035 114.367562,151.76976 C115.341301,151.535964 117.467407,149.275118 120.747111,144.986196 C122.603326,142.550003 124.468975,139.458361 126.343033,135.712912 L126.160303,142.450947 C126.381179,144.389196 126.93265,145.715474 127.814306,146.430602 C129.022456,147.376245 130.9242,147.537646 133.521384,146.91419 C134.657139,146.641429 135.655898,146.332572 136.516841,145.989056 C137.600915,145.556534 138.420021,144.845098 138.974568,143.854132 C140.940093,140.327097 142.54303,136.251872 143.783993,131.628869 C143.059636,132.008479 142.076874,132.45064 140.834065,132.954737 C139.493636,133.482623 138.498568,133.824498 137.849682,133.980362 C138.836751,128.010776 139.479895,122.243609 139.779933,116.679064 C140.062333,110.672564 140.112374,106.86723 139.929644,105.263268 C139.849866,104.561675 139.215336,103.821732 138.026054,103.042618 C136.328779,101.905427 134.197136,101.044689 131.629484,100.458969 C128.761589,113.917608 126.127285,122.994626 123.728212,127.690025 C122.054521,131.147536 119.957742,134.104848 117.43685,136.563805 C118.224577,131.774888 118.856031,126.783143 119.331826,121.58816 M77.0463731,147.599376 C76.3648789,141.618716 77.4452615,135.592117 80.2883412,129.519785 C81.625489,126.624203 83.1234227,124.18801 84.7823473,122.210385 C86.4406566,120.233785 88.7318552,118.172691 91.6559431,116.028948 C90.7919242,124.544241 89.629508,130.881748 88.1701301,135.042492 C86.024131,141.085087 82.6650599,146.284993 78.093327,150.643643 C77.5092477,149.617198 77.1603998,148.601827 77.0463731,147.599376 M91.7277225,115.342327 C89.7367669,113.966623 88.1959707,113.032055 87.1065644,112.538213 C85.7341422,111.907169 84.0848565,111.479159 82.1587075,111.254797 C78.5927066,114.788395 75.7551642,118.267645 73.6444395,121.691728 C67.3768669,131.950235 64.7290271,141.339597 65.6998949,149.860222 C66.1073968,153.435862 67.125844,156.229312 68.7554416,158.240776 C70.5450047,160.488701 73.0790228,161.219006 76.357701,160.431893 C78.7592348,159.855402 81.0686859,158.030359 83.2866695,154.957996 C84.6406342,153.08804 86.1303645,150.654103 87.7564757,147.654544 C86.7825317,153.449398 86.0667885,158.435605 85.6094511,162.613167 C85.1514985,166.791138 85.0085549,169.631757 85.1800052,171.135433 C85.267576,171.903678 85.816791,172.63029 86.8286756,173.314246 C88.5655321,174.510501 90.9397897,175.450606 93.9524739,176.135176 C95.9516329,168.514664 97.7477587,156.326521 99.3398259,139.569722 C99.8148005,134.375764 100.177594,129.293782 100.428822,124.324186 C100.67923,119.355411 100.724963,116.16861 100.564998,114.765425 C100.416517,113.462321 99.8199276,112.472586 98.7762551,111.796424 C97.2280758,110.795409 94.848486,109.958666 91.6381008,109.287631 C91.8161137,112.025503 91.8462611,114.044145 91.7277225,115.342327 M61.0976045,132.273448 C61.2352159,131.725668 61.8818458,129.356128 63.0387247,125.164826 C63.4874485,123.547123 63.6763309,122.420391 63.6039362,121.785246 C63.5050857,120.91692 62.8963964,119.964715 61.7776631,118.928016 C60.176162,117.458794 58.1070694,116.274023 55.5705903,115.372064 C54.8733046,117.153424 54.2490289,119.431497 53.6983783,122.206694 C52.6106127,121.438039 51.483676,120.842065 50.3185937,120.417746 C49.1526911,119.994452 47.9671004,119.755324 46.7605911,119.701387 C45.3797604,125.731678 44.5789074,132.016888 44.3574166,138.557837 C43.9577079,150.566532 43.9093081,157.889877 44.2099612,160.529103 C44.3202964,161.49874 44.7991676,162.189873 45.6467798,162.604348 C47.7730909,163.7077 50.3594054,164.751578 53.4061336,165.735981 C53.5626127,154.816898 54.420274,146.252384 55.9803481,140.041415 C57.5797984,140.619137 58.8826971,140.786485 59.8892495,140.544896 C61.0252098,140.272134 61.8420595,139.836331 62.3410289,139.23523 C62.9290047,138.545532 63.420181,137.29452 63.8141474,135.483218 C64.2157019,133.738978 64.421196,131.88748 64.4316553,129.928312 C63.171209,131.157586 62.0598587,131.939571 61.0976045,132.273448 M12.9787419,160.200353 C12.7695562,158.363006 12.964181,156.118976 13.562411,153.469086 C14.436274,149.724252 15.8554554,146.087907 17.8213908,142.560257 C20.3404377,138.041846 23.3635812,134.570389 26.8883602,132.144655 C25.9601499,137.757189 25.1839069,142.062928 24.5588109,145.062077 C23.8030763,148.676477 22.7140801,151.992891 21.2910022,155.012138 C19.2311383,159.180265 16.8960517,162.246271 14.2863576,164.211797 C13.5435433,162.673872 13.108355,161.336724 12.9787419,160.200353 M36.6392848,157.145832 C35.9249772,157.317487 34.9653891,157.53098 33.7613408,157.785284 C34.7527169,153.909196 35.5123481,149.744145 36.0390039,145.292386 C36.9657785,137.621424 37.2596639,132.298468 36.9206601,129.324134 C36.7684877,127.988012 35.9912193,127.024117 34.5907006,126.43368 C32.9756639,125.723064 30.6936941,125.154981 27.7441758,124.730252 C27.5983611,126.379128 27.3524653,128.755231 27.0058733,131.858973 C25.3945282,130.598116 23.987857,129.66642 22.7856545,129.061627 C21.3082292,128.386285 19.5719879,127.928128 17.5773408,127.685923 C12.6846514,131.572881 8.61496424,136.823647 5.36704869,143.439042 C1.14888065,152.072669 -0.545113313,160.031569 0.284861698,167.315743 C0.566647135,169.788646 1.30084791,171.843588 2.48787419,173.480569 C4.22780698,175.878206 6.51018699,176.737508 9.33378371,176.0595 C13.7802103,174.991833 18.3433296,170.703936 23.0235519,163.1954 C22.8990659,164.736402 22.8824541,165.906816 22.9737165,166.708695 C23.160343,168.34629 23.7450375,169.527779 24.7278001,170.252546 C26.0007566,171.182602 28.1955657,171.27366 31.3114072,170.525718 C32.5443723,170.229782 33.2775476,169.93282 33.5109332,169.637089 C33.7476002,169.374582 34.2750763,168.441449 35.0927462,166.837282 C36.752081,163.555323 38.2539112,160.053718 39.5978268,156.332674 C38.4042378,156.688495 37.4181939,156.959 36.6392848,157.145832" id="Fill-2" sketch:type="MSShapeGroup"></path>
            </g>
        </g>
    </g>
</svg>