<?xml version="1.0" encoding="UTF-8" standalone="no"?>
<svg width="476px" height="285px" viewBox="0 0 476 285" version="1.1" xmlns="http://www.w3.org/2000/svg" xmlns:xlink="http://www.w3.org/1999/xlink" xmlns:sketch="http://www.bohemiancoding.com/sketch/ns">
    <!-- Generator: Sketch 3.3.3 (12072) - http://www.bohemiancoding.com/sketch -->
    <title>Artboard 1</title>
    <desc>Created with Sketch.</desc>
    <defs></defs>
    <g id="Page-1" stroke="none" stroke-width="1" fill="none" fill-rule="evenodd" sketch:type="MSPage">
        <g id="Artboard-1" sketch:type="MSArtboardGroup" fill="#ffffff">
            <path d="M97.7640179,82.5990025 C94.6680179,80.7070025 91.4860179,79.5890025 89.0780179,79.5890025 C84.6920179,79.5890025 80.7360179,84.2330025 80.7360179,89.3070025 C80.7360179,93.5210025 83.6600179,102.035002 87.3580179,108.485002 C86.2400179,108.915002 85.7240179,109.001002 84.9500179,109.001002 C82.0260179,109.001002 78.8440179,107.711002 76.4360179,105.561002 C76.5220179,110.549002 77.2100179,113.301002 79.0160179,115.967002 C80.1340179,117.515002 81.5960179,117.945002 85.7240179,117.945002 C92.7760179,117.945002 96.2160179,114.505002 96.2160179,107.453002 C96.2160179,104.443002 94.8400179,98.7670025 93.2060179,95.3270025 C92.4320179,93.7790025 91.6580179,92.1450025 90.8840179,90.5110025 C90.7980179,90.3390025 90.5400179,89.5650025 90.1100179,88.5330025 C92.8620179,88.7050025 95.6140179,90.4250025 97.6780179,93.1770025 C98.2800179,91.1990025 98.4520179,90.2530025 98.4520179,88.7050025 C98.4520179,87.2430025 98.2800179,85.4370025 97.7640179,82.5990025 L97.7640179,82.5990025 Z M130.874018,107.625002 C129.326018,108.313002 129.068018,108.399002 126.316018,109.087002 C130.014018,93.5210025 130.444018,91.0270025 130.444018,85.6950025 C130.444018,83.0290025 130.358018,82.5990025 129.842018,82.2550025 C128.380018,81.0510025 125.456018,79.6750025 124.596018,79.6750025 C123.048018,79.6750025 119.178018,83.6310025 114.276018,90.1670025 C113.846018,90.7690025 113.416018,91.2850025 112.900018,91.9730025 C114.534018,86.0390025 115.308018,82.5130025 116.254018,77.0950025 C117.028018,72.3650025 118.060018,65.3990025 118.060018,64.7110025 C118.060018,62.9910025 115.136018,60.4110025 111.094018,58.6050025 C107.138018,69.4410025 105.074018,78.4710025 102.322018,96.3590025 C101.290018,102.895002 100.000018,112.871002 100.000018,113.817002 C100.000018,115.021002 104.042018,117.687002 107.482018,118.805002 C109.804018,107.539002 115.566018,95.4990025 120.296018,92.1450025 C117.716018,100.487002 116.254018,107.797002 116.254018,112.011002 C116.254018,116.053002 118.490018,118.547002 122.016018,118.547002 C124.768018,118.547002 127.004018,117.343002 127.950018,115.279002 C129.068018,112.957002 130.100018,110.119002 130.874018,107.625002 L130.874018,107.625002 Z M164.070018,91.8010025 C163.898018,91.9730025 163.640018,92.2310025 163.382018,92.4030025 C162.608018,93.0050025 162.522018,93.0910025 161.748018,93.4350025 C162.866018,88.5330025 163.640018,84.2330025 163.640018,82.3410025 C163.640018,81.0510025 163.210018,80.3630025 161.576018,79.5030025 C158.652018,77.9550025 156.072018,76.9230025 155.040018,76.9230025 C153.922018,76.9230025 151.686018,80.7930025 150.224018,85.4370025 C148.590018,82.3410025 147.214018,81.1370025 144.032018,79.7610025 C136.722018,87.1570025 132.766018,95.9290025 132.766018,104.787002 C132.766018,111.753002 137.238018,117.859002 142.398018,117.859002 C146.698018,117.859002 152.030018,114.333002 155.642018,109.087002 C157.362018,106.593002 158.394018,104.615002 159.770018,100.917002 C161.060018,100.487002 161.920018,99.9710025 162.350018,99.1110025 C163.124018,97.7350025 164.156018,94.0370025 164.156018,92.4890025 C164.156018,92.2310025 164.156018,92.0590025 164.070018,91.8010025 L164.070018,91.8010025 Z M152.804018,96.9610025 C150.826018,101.691002 146.526018,107.023002 143.430018,108.829002 C142.828018,107.023002 142.656018,106.249002 142.656018,104.615002 C142.656018,101.519002 143.688018,97.2190025 145.322018,93.3490025 C146.526018,90.2530025 147.558018,88.7910025 149.966018,86.3830025 C149.708018,89.1350025 149.708018,89.1350025 149.708018,89.9090025 C149.708018,92.0590025 150.740018,94.3810025 152.804018,96.9610025 L152.804018,96.9610025 Z M189.354018,105.733002 C190.042018,94.8970025 190.042018,94.8970025 190.042018,94.1230025 C190.042018,90.6830025 189.612018,88.8770025 188.408018,87.6730025 C187.634018,86.8130025 187.462018,86.7270025 183.678018,84.7490025 C180.496018,95.6710025 177.830018,101.003002 174.218018,104.013002 C175.336018,99.3690025 176.626018,89.4790025 176.626018,85.4370025 C176.626018,84.4050025 176.368018,84.0610025 174.906018,83.0290025 C173.272018,81.8250025 172.068018,81.1370025 169.918018,80.1910025 C166.908018,87.4150025 164.586018,99.2830025 164.586018,107.969002 C164.586018,112.183002 164.844018,113.129002 166.220018,114.419002 C168.198018,116.225002 170.864018,117.773002 172.068018,117.773002 C172.670018,117.773002 172.670018,117.773002 174.304018,115.279002 C179.894018,107.195002 179.894018,107.195002 181.786018,102.809002 L181.700018,105.561002 C181.614018,106.765002 181.614018,107.625002 181.614018,107.969002 C181.614018,111.753002 182.130018,114.075002 183.076018,115.021002 C184.366018,116.225002 187.806018,117.687002 189.354018,117.687002 C190.472018,117.687002 192.278018,116.397002 194.514018,114.161002 C200.104018,108.485002 201.652018,105.475002 203.286018,97.3910025 C205.350018,95.4990025 206.468018,92.1450025 206.898018,86.6410025 C206.038018,87.5870025 205.780018,87.7590025 204.834018,88.2750025 C204.920018,87.5870025 205.006018,86.9850025 205.006018,86.7270025 C205.178018,85.0070025 205.264018,83.4590025 205.264018,82.5130025 C205.264018,79.5890025 203.630018,77.0090025 201.824018,77.0090025 C200.792018,77.0090025 196.234018,78.7290025 195.374018,79.4170025 C193.912018,80.7070025 191.934018,87.7590025 191.934018,91.9730025 C191.934018,94.0370025 192.880018,95.4990025 195.288018,97.0470025 C194.342018,101.949002 192.536018,105.217002 189.354018,107.969002 L189.354018,105.733002 Z M221.002018,96.7890025 C223.238018,96.7030025 224.270018,96.6170025 225.302018,96.2730025 C226.936018,95.8430025 229.000018,94.8970025 229.344018,94.5530025 C229.860018,93.9510025 230.720018,89.9950025 230.720018,87.9310025 C230.720018,85.6950025 230.118018,83.9750025 229.000018,82.9430025 C227.968018,81.9110025 224.270018,80.6210025 222.292018,80.6210025 C219.970018,80.6210025 215.670018,83.8890025 212.574018,88.1890025 C207.930018,94.2950025 205.522018,100.917002 205.522018,107.109002 C205.522018,113.645002 209.392018,118.117002 215.068018,118.117002 C218.250018,118.117002 223.840018,116.827002 224.872018,115.881002 C225.560018,115.193002 226.592018,112.269002 228.054018,106.765002 C224.184018,108.227002 220.056018,109.173002 216.100018,109.431002 C215.584018,107.109002 215.326018,105.389002 215.326018,103.583002 C215.326018,97.9070025 218.336018,91.3710025 222.636018,87.7590025 C222.722018,88.4470025 222.722018,88.9630025 222.722018,89.3070025 C222.722018,91.8010025 222.292018,93.8650025 221.346018,96.0150025 L221.002018,96.7890025 Z M264.518018,107.625002 C263.400018,107.711002 262.970018,107.711002 262.110018,107.711002 C261.336018,107.711002 260.734018,107.711002 259.444018,107.625002 C262.282018,100.659002 264.862018,89.8230025 264.862018,85.0070025 C264.862018,82.9430025 262.970018,81.4810025 257.552018,79.5030025 C257.380018,80.7070025 257.208018,81.5670025 257.122018,81.9970025 C256.950018,82.5130025 256.778018,83.1150025 256.692018,83.6310025 C256.692018,83.7170025 256.434018,84.4910025 256.348018,85.1790025 C253.596018,82.1690025 251.790018,80.9650025 248.780018,79.9330025 C243.964018,82.3410025 240.610018,85.2650025 236.998018,90.4250025 C232.870018,96.2730025 230.462018,103.067002 230.462018,108.743002 C230.462018,114.161002 233.214018,117.773002 237.342018,117.773002 C241.298018,117.773002 245.082018,115.365002 249.898018,109.947002 C249.640018,111.323002 249.554018,112.097002 249.554018,112.699002 C249.554018,116.053002 251.532018,117.515002 256.004018,117.515002 C257.638018,117.515002 257.810018,117.515002 258.154018,117.257002 C258.412018,116.999002 258.842018,116.483002 259.702018,115.279002 C261.594018,112.613002 262.798018,110.807002 264.518018,107.625002 L264.518018,107.625002 Z M242.502018,109.087002 C241.986018,107.367002 241.814018,106.593002 241.814018,105.475002 C241.814018,101.777002 244.136018,96.3590025 247.576018,92.1450025 C250.414018,88.6190025 252.650018,86.8130025 256.176018,85.3510025 C251.876018,100.487002 248.952018,105.561002 242.502018,109.087002 L242.502018,109.087002 Z M286.448018,82.5990025 C283.352018,80.7070025 280.170018,79.5890025 277.762018,79.5890025 C273.376018,79.5890025 269.420018,84.2330025 269.420018,89.3070025 C269.420018,93.5210025 272.344018,102.035002 276.042018,108.485002 C274.924018,108.915002 274.408018,109.001002 273.634018,109.001002 C270.710018,109.001002 267.528018,107.711002 265.120018,105.561002 C265.206018,110.549002 265.894018,113.301002 267.700018,115.967002 C268.818018,117.515002 270.280018,117.945002 274.408018,117.945002 C281.460018,117.945002 284.900018,114.505002 284.900018,107.453002 C284.900018,104.443002 283.524018,98.7670025 281.890018,95.3270025 C281.116018,93.7790025 280.342018,92.1450025 279.568018,90.5110025 C279.482018,90.3390025 279.224018,89.5650025 278.794018,88.5330025 C281.546018,88.7050025 284.298018,90.4250025 286.362018,93.1770025 C286.964018,91.1990025 287.136018,90.2530025 287.136018,88.7050025 C287.136018,87.2430025 286.964018,85.4370025 286.448018,82.5990025 L286.448018,82.5990025 Z M303.046018,106.507002 C301.240018,107.109002 300.466018,107.195002 298.488018,107.453002 C300.982018,98.8530025 303.218018,88.2750025 303.218018,85.0930025 C303.218018,83.9750025 303.046018,83.7170025 301.756018,82.7710025 C299.778018,81.2230025 298.832018,80.6210025 296.854018,79.6750025 C292.640018,87.9310025 288.340018,103.755002 288.340018,110.635002 C288.340018,115.279002 290.576018,117.859002 294.618018,117.859002 C296.166018,117.859002 297.800018,117.343002 299.090018,116.483002 C299.778018,116.053002 300.208018,115.365002 300.810018,113.731002 C301.928018,110.807002 302.272018,109.603002 303.046018,106.507002 L303.046018,106.507002 Z M302.014018,64.0230025 C299.004018,64.0230025 296.854018,66.3450025 296.854018,69.6130025 C296.854018,72.3650025 298.832018,74.3430025 301.670018,74.3430025 C304.422018,74.3430025 306.486018,72.0210025 306.486018,69.0110025 C306.486018,66.0010025 304.680018,64.0230025 302.014018,64.0230025 L302.014018,64.0230025 Z M339.338018,106.679002 C336.242018,107.453002 335.554018,107.625002 333.834018,107.711002 C336.672018,100.573002 339.510018,88.9630025 339.510018,84.4910025 C339.510018,83.0290025 339.166018,82.4270025 337.876018,81.5670025 C335.898018,80.2770025 334.608018,79.6750025 333.748018,79.6750025 C332.458018,79.6750025 330.308018,80.9650025 327.298018,83.5450025 C324.718018,85.7810025 322.826018,88.0170025 319.816018,92.3170025 C320.418018,88.6190025 320.848018,85.7810025 320.848018,84.6630025 C320.848018,83.1150025 318.354018,81.3950025 313.366018,79.6750025 C310.356018,86.8990025 308.636018,92.4890025 307.518018,98.9390025 C305.282018,111.323002 305.282018,111.323002 305.282018,112.269002 C305.282018,113.301002 305.626018,113.903002 307.002018,114.935002 C308.808018,116.397002 310.786018,117.687002 312.678018,118.633002 C314.828018,107.797002 321.622018,96.2730025 328.502018,92.1450025 C326.524018,96.1010025 325.836018,98.1650025 324.718018,102.981002 C323.944018,106.163002 323.342018,110.119002 323.342018,111.495002 C323.342018,114.333002 324.632018,115.623002 329.018018,117.171002 C331.770018,118.203002 331.770018,118.203002 331.856018,118.203002 C333.060018,118.203002 337.102018,112.011002 339.338018,106.679002 L339.338018,106.679002 Z M365.396018,80.1910025 C365.396018,80.9650025 365.310018,82.0830025 365.224018,83.5450025 C363.848018,81.9970025 362.988018,81.3090025 361.784018,80.5350025 C360.408018,79.7610025 358.516018,79.0730025 357.828018,79.0730025 C356.280018,79.0730025 351.894018,83.2870025 347.766018,88.7910025 C343.810018,94.0370025 340.972018,102.121002 340.972018,107.797002 C340.972018,110.205002 341.660018,112.355002 342.950018,113.989002 C344.326018,115.623002 347.938018,117.687002 349.572018,117.687002 C349.744018,117.687002 350.174018,117.601002 350.862018,117.515002 C351.034018,117.429002 351.636018,117.343002 352.238018,117.257002 C350.432018,119.149002 347.766018,120.439002 345.702018,120.439002 C345.358018,122.761002 345.272018,124.051002 345.272018,125.513002 C345.272018,128.179002 345.616018,129.985002 346.390018,131.189002 C347.594018,132.909002 351.722018,134.801002 354.388018,134.801002 C355.850018,134.801002 357.226018,134.027002 359.032018,132.049002 C361.526018,129.383002 364.708018,124.481002 366.772018,120.181002 C370.384018,112.527002 374.254018,96.1870025 374.254018,88.5330025 C374.254018,85.3510025 373.910018,83.8890025 373.136018,82.9430025 C371.588018,81.1370025 369.438018,79.9330025 365.396018,78.5570025 L365.396018,80.1910025 Z M352.410018,108.571002 C352.066018,107.023002 351.980018,106.249002 351.980018,105.303002 C351.980018,101.089002 354.388018,94.7250025 357.656018,90.4250025 C359.978018,87.1570025 362.300018,85.2650025 365.224018,83.8890025 C363.074018,98.4230025 359.204018,105.905002 352.410018,108.571002 L352.410018,108.571002 Z M354.990018,125.169002 C353.528018,123.879002 352.926018,121.901002 352.926018,118.461002 C352.926018,118.117002 352.926018,117.687002 353.012018,116.999002 C355.420018,115.537002 358.344018,112.785002 361.010018,109.345002 C360.150018,112.441002 360.064018,112.613002 356.796018,121.041002 C356.022018,123.019002 355.936018,123.105002 354.990018,125.169002 L354.990018,125.169002 Z M17.0530179,178.909054 C15.9350179,178.995054 15.5050179,178.995054 14.6450179,178.995054 C13.8710179,178.995054 13.2690179,178.995054 11.9790179,178.909054 C14.8170179,171.943054 17.3970179,161.107054 17.3970179,156.291054 C17.3970179,154.227054 15.5050179,152.765054 10.0870179,150.787054 C9.91501788,151.991054 9.74301788,152.851054 9.65701788,153.281054 C9.48501788,153.797054 9.31301788,154.399054 9.22701788,154.915054 C9.22701788,155.001054 8.96901788,155.775054 8.88301788,156.463054 C6.13101788,153.453054 4.32501788,152.249054 1.31501788,151.217054 C-3.50098212,153.625054 -6.85498212,156.549054 -10.4669821,161.709054 C-14.5949821,167.557054 -17.0029821,174.351054 -17.0029821,180.027054 C-17.0029821,185.445054 -14.2509821,189.057054 -10.1229821,189.057054 C-6.16698212,189.057054 -2.38298212,186.649054 2.43301788,181.231054 C2.17501788,182.607054 2.08901788,183.381054 2.08901788,183.983054 C2.08901788,187.337054 4.06701788,188.799054 8.53901788,188.799054 C10.1730179,188.799054 10.3450179,188.799054 10.6890179,188.541054 C10.9470179,188.283054 11.3770179,187.767054 12.2370179,186.563054 C14.1290179,183.897054 15.3330179,182.091054 17.0530179,178.909054 L17.0530179,178.909054 Z M-4.96298212,180.371054 C-5.47898212,178.651054 -5.65098212,177.877054 -5.65098212,176.759054 C-5.65098212,173.061054 -3.32898212,167.643054 0.111017882,163.429054 C2.94901788,159.903054 5.18501788,158.097054 8.71101788,156.635054 C4.41101788,171.771054 1.48701788,176.845054 -4.96298212,180.371054 L-4.96298212,180.371054 Z M40.0150179,162.225054 C38.3810179,163.257054 38.1230179,163.343054 36.9190179,163.429054 C37.6930179,161.537054 38.4670179,159.731054 38.7250179,159.129054 C39.6710179,157.151054 40.0150179,156.119054 40.0150179,155.431054 C40.0150179,153.539054 37.5210179,150.787054 33.9090179,148.637054 C32.8770179,150.357054 32.7050179,150.873054 31.6730179,153.797054 C30.2970179,152.335054 27.8030179,150.787054 26.0830179,150.443054 C24.1050179,155.689054 23.1590179,159.645054 22.2990179,165.321054 C20.0630179,180.543054 20.0630179,180.543054 20.0630179,183.209054 C20.0630179,184.155054 20.2350179,184.585054 21.0950179,185.187054 C23.0730179,186.735054 24.4490179,187.595054 27.2870179,189.229054 C28.4050179,181.145054 30.2110179,173.147054 31.9310179,168.847054 C33.3930179,169.707054 34.0810179,169.965054 35.1130179,169.965054 C37.0910179,169.965054 37.9510179,169.277054 38.8970179,166.611054 C39.4990179,165.063054 39.7570179,164.031054 40.0150179,162.225054 L40.0150179,162.225054 Z M54.1190179,168.073054 C56.3550179,167.987054 57.3870179,167.901054 58.4190179,167.557054 C60.0530179,167.127054 62.1170179,166.181054 62.4610179,165.837054 C62.9770179,165.235054 63.8370179,161.279054 63.8370179,159.215054 C63.8370179,156.979054 63.2350179,155.259054 62.1170179,154.227054 C61.0850179,153.195054 57.3870179,151.905054 55.4090179,151.905054 C53.0870179,151.905054 48.7870179,155.173054 45.6910179,159.473054 C41.0470179,165.579054 38.6390179,172.201054 38.6390179,178.393054 C38.6390179,184.929054 42.5090179,189.401054 48.1850179,189.401054 C51.3670179,189.401054 56.9570179,188.111054 57.9890179,187.165054 C58.6770179,186.477054 59.7090179,183.553054 61.1710179,178.049054 C57.3010179,179.511054 53.1730179,180.457054 49.2170179,180.715054 C48.7010179,178.393054 48.4430179,176.673054 48.4430179,174.867054 C48.4430179,169.191054 51.4530179,162.655054 55.7530179,159.043054 C55.8390179,159.731054 55.8390179,160.247054 55.8390179,160.591054 C55.8390179,163.085054 55.4090179,165.149054 54.4630179,167.299054 L54.1190179,168.073054 Z M95.3130179,178.909054 C93.7650179,179.597054 93.5070179,179.683054 90.7550179,180.371054 C94.4530179,164.805054 94.8830179,162.311054 94.8830179,156.979054 C94.8830179,154.313054 94.7970179,153.883054 94.2810179,153.539054 C92.8190179,152.335054 89.8950179,150.959054 89.0350179,150.959054 C87.4870179,150.959054 83.6170179,154.915054 78.7150179,161.451054 C78.2850179,162.053054 77.8550179,162.569054 77.3390179,163.257054 C78.9730179,157.323054 79.7470179,153.797054 80.6930179,148.379054 C81.4670179,143.649054 82.4990179,136.683054 82.4990179,135.995054 C82.4990179,134.275054 79.5750179,131.695054 75.5330179,129.889054 C71.5770179,140.725054 69.5130179,149.755054 66.7610179,167.643054 C65.7290179,174.179054 64.4390179,184.155054 64.4390179,185.101054 C64.4390179,186.305054 68.4810179,188.971054 71.9210179,190.089054 C74.2430179,178.823054 80.0050179,166.783054 84.7350179,163.429054 C82.1550179,171.771054 80.6930179,179.081054 80.6930179,183.295054 C80.6930179,187.337054 82.9290179,189.831054 86.4550179,189.831054 C89.2070179,189.831054 91.4430179,188.627054 92.3890179,186.563054 C93.5070179,184.241054 94.5390179,181.403054 95.3130179,178.909054 L95.3130179,178.909054 Z M112.427018,177.791054 C110.621018,178.393054 109.847018,178.479054 107.869018,178.737054 C110.363018,170.137054 112.599018,159.559054 112.599018,156.377054 C112.599018,155.259054 112.427018,155.001054 111.137018,154.055054 C109.159018,152.507054 108.213018,151.905054 106.235018,150.959054 C102.021018,159.215054 97.7210179,175.039054 97.7210179,181.919054 C97.7210179,186.563054 99.9570179,189.143054 103.999018,189.143054 C105.547018,189.143054 107.181018,188.627054 108.471018,187.767054 C109.159018,187.337054 109.589018,186.649054 110.191018,185.015054 C111.309018,182.091054 111.653018,180.887054 112.427018,177.791054 L112.427018,177.791054 Z M111.395018,135.307054 C108.385018,135.307054 106.235018,137.629054 106.235018,140.897054 C106.235018,143.649054 108.213018,145.627054 111.051018,145.627054 C113.803018,145.627054 115.867018,143.305054 115.867018,140.295054 C115.867018,137.285054 114.061018,135.307054 111.395018,135.307054 L111.395018,135.307054 Z M126.531018,129.717054 C125.155018,132.297054 122.059018,148.379054 121.457018,155.861054 C119.049018,155.173054 117.931018,154.743054 116.039018,153.883054 C115.867018,155.431054 115.867018,156.033054 115.867018,157.065054 C115.867018,159.043054 116.039018,160.849054 116.211018,162.053054 C116.469018,163.171054 116.813018,163.429054 118.361018,164.203054 C118.533018,164.289054 119.049018,164.547054 119.651018,164.891054 C118.963018,169.621054 118.533018,176.931054 118.533018,183.639054 C118.533018,185.789054 118.533018,186.047054 119.049018,186.391054 C119.995018,187.251054 121.715018,188.025054 125.671018,189.315054 C126.703018,185.531054 127.047018,184.069054 128.337018,177.275054 C129.283018,172.373054 129.627018,170.653054 130.315018,167.557054 C133.153018,167.557054 133.325018,167.557054 133.755018,167.041054 C134.185018,166.439054 134.959018,164.375054 136.679018,158.699054 C134.701018,158.613054 134.185018,158.613054 131.519018,158.097054 C133.927018,140.295054 134.013018,139.435054 134.013018,135.651054 C134.013018,133.845054 133.927018,133.501054 133.153018,132.899054 C131.605018,131.781054 129.369018,130.749054 126.531018,129.717054 L126.531018,129.717054 Z M159.555018,175.211054 C155.427018,178.651054 152.331018,179.941054 148.117018,179.941054 C146.999018,179.941054 146.139018,179.855054 144.419018,179.425054 C144.247018,178.479054 144.247018,177.963054 144.247018,177.361054 C144.247018,176.587054 144.247018,175.985054 144.419018,174.695054 C147.945018,174.523054 150.353018,174.007054 152.847018,172.631054 C157.835018,169.965054 161.189018,164.547054 161.189018,159.387054 C161.189018,154.485054 157.061018,150.271054 152.159018,150.271054 C144.505018,150.271054 134.529018,165.837054 134.529018,177.705054 C134.529018,184.585054 138.571018,189.057054 144.849018,189.057054 C148.805018,189.057054 153.707018,187.251054 155.771018,185.187054 C157.319018,183.467054 158.523018,180.371054 159.555018,175.211054 L159.555018,175.211054 Z M153.449018,157.409054 C153.191018,165.493054 149.235018,172.545054 144.677018,173.233054 C145.451018,166.009054 148.891018,159.817054 153.449018,157.409054 L153.449018,157.409054 Z M176.411018,168.073054 C178.647018,167.987054 179.679018,167.901054 180.711018,167.557054 C182.345018,167.127054 184.409018,166.181054 184.753018,165.837054 C185.269018,165.235054 186.129018,161.279054 186.129018,159.215054 C186.129018,156.979054 185.527018,155.259054 184.409018,154.227054 C183.377018,153.195054 179.679018,151.905054 177.701018,151.905054 C175.379018,151.905054 171.079018,155.173054 167.983018,159.473054 C163.339018,165.579054 160.931018,172.201054 160.931018,178.393054 C160.931018,184.929054 164.801018,189.401054 170.477018,189.401054 C173.659018,189.401054 179.249018,188.111054 180.281018,187.165054 C180.969018,186.477054 182.001018,183.553054 183.463018,178.049054 C179.593018,179.511054 175.465018,180.457054 171.509018,180.715054 C170.993018,178.393054 170.735018,176.673054 170.735018,174.867054 C170.735018,169.191054 173.745018,162.655054 178.045018,159.043054 C178.131018,159.731054 178.131018,160.247054 178.131018,160.591054 C178.131018,163.085054 177.701018,165.149054 176.755018,167.299054 L176.411018,168.073054 Z M197.997018,129.717054 C196.621018,132.297054 193.525018,148.379054 192.923018,155.861054 C190.515018,155.173054 189.397018,154.743054 187.505018,153.883054 C187.333018,155.431054 187.333018,156.033054 187.333018,157.065054 C187.333018,159.043054 187.505018,160.849054 187.677018,162.053054 C187.935018,163.171054 188.279018,163.429054 189.827018,164.203054 C189.999018,164.289054 190.515018,164.547054 191.117018,164.891054 C190.429018,169.621054 189.999018,176.931054 189.999018,183.639054 C189.999018,185.789054 189.999018,186.047054 190.515018,186.391054 C191.461018,187.251054 193.181018,188.025054 197.137018,189.315054 C198.169018,185.531054 198.513018,184.069054 199.803018,177.275054 C200.749018,172.373054 201.093018,170.653054 201.781018,167.557054 C204.619018,167.557054 204.791018,167.557054 205.221018,167.041054 C205.651018,166.439054 206.425018,164.375054 208.145018,158.699054 C206.167018,158.613054 205.651018,158.613054 202.985018,158.097054 C205.393018,140.295054 205.479018,139.435054 205.479018,135.651054 C205.479018,133.845054 205.393018,133.501054 204.619018,132.899054 C203.071018,131.781054 200.835018,130.749054 197.997018,129.717054 L197.997018,129.717054 Z M216.831018,178.049054 C218.895018,171.255054 221.561018,159.473054 221.561018,157.323054 C221.561018,155.431054 218.121018,152.851054 213.821018,151.647054 C210.295018,159.817054 206.855018,175.813054 206.855018,184.413054 C206.855018,185.789054 206.941018,186.219054 207.371018,186.735054 C208.059018,187.595054 212.015018,189.831054 212.875018,189.831054 C213.477018,189.831054 216.229018,187.853054 218.809018,185.531054 C220.959018,183.639054 222.163018,182.177054 224.399018,179.081054 C224.313018,179.683054 224.227018,180.113054 224.227018,180.371054 C223.625018,182.779054 223.625018,183.037054 223.625018,184.413054 C223.625018,188.111054 225.345018,189.573054 229.473018,189.573054 C232.311018,189.573054 233.343018,189.229054 234.203018,188.197054 C236.009018,185.875054 238.073018,182.263054 239.449018,179.081054 C238.331018,179.425054 235.579018,179.941054 234.891018,179.941054 C234.719018,179.941054 234.461018,179.941054 234.203018,179.855054 C236.439018,172.545054 238.761018,160.935054 238.761018,156.893054 C238.761018,155.431054 236.095018,153.195054 232.225018,151.389054 C226.033018,168.503054 222.507018,174.609054 216.831018,178.049054 L216.831018,178.049054 Z M262.153018,162.225054 C260.519018,163.257054 260.261018,163.343054 259.057018,163.429054 C259.831018,161.537054 260.605018,159.731054 260.863018,159.129054 C261.809018,157.151054 262.153018,156.119054 262.153018,155.431054 C262.153018,153.539054 259.659018,150.787054 256.047018,148.637054 C255.015018,150.357054 254.843018,150.873054 253.811018,153.797054 C252.435018,152.335054 249.941018,150.787054 248.221018,150.443054 C246.243018,155.689054 245.297018,159.645054 244.437018,165.321054 C242.201018,180.543054 242.201018,180.543054 242.201018,183.209054 C242.201018,184.155054 242.373018,184.585054 243.233018,185.187054 C245.211018,186.735054 246.587018,187.595054 249.425018,189.229054 C250.543018,181.145054 252.349018,173.147054 254.069018,168.847054 C255.531018,169.707054 256.219018,169.965054 257.251018,169.965054 C259.229018,169.965054 260.089018,169.277054 261.035018,166.611054 C261.637018,165.063054 261.895018,164.031054 262.153018,162.225054 L262.153018,162.225054 Z M285.803018,175.211054 C281.675018,178.651054 278.579018,179.941054 274.365018,179.941054 C273.247018,179.941054 272.387018,179.855054 270.667018,179.425054 C270.495018,178.479054 270.495018,177.963054 270.495018,177.361054 C270.495018,176.587054 270.495018,175.985054 270.667018,174.695054 C274.193018,174.523054 276.601018,174.007054 279.095018,172.631054 C284.083018,169.965054 287.437018,164.547054 287.437018,159.387054 C287.437018,154.485054 283.309018,150.271054 278.407018,150.271054 C270.753018,150.271054 260.777018,165.837054 260.777018,177.705054 C260.777018,184.585054 264.819018,189.057054 271.097018,189.057054 C275.053018,189.057054 279.955018,187.251054 282.019018,185.187054 C283.567018,183.467054 284.771018,180.371054 285.803018,175.211054 L285.803018,175.211054 Z M279.697018,157.409054 C279.439018,165.493054 275.483018,172.545054 270.925018,173.233054 C271.699018,166.009054 275.139018,159.817054 279.697018,157.409054 L279.697018,157.409054 Z M309.195018,159.215054 C307.561018,159.301054 305.067018,161.021054 304.465018,162.483054 C304.121018,163.429054 303.777018,166.009054 303.777018,168.159054 C303.777018,169.535054 304.121018,169.965054 305.841018,171.083054 L307.561018,172.287054 C305.841018,180.973054 304.465018,192.153054 304.465018,197.055054 C304.465018,198.431054 304.723018,198.947054 306.185018,200.409054 C308.163018,202.387054 310.141018,203.763054 313.237018,205.311054 C315.129018,198.861054 316.419018,188.885054 316.419018,180.629054 C316.419018,180.113054 316.419018,178.909054 316.333018,177.533054 C317.795018,178.307054 318.483018,178.479054 319.429018,178.479054 C322.181018,178.479054 323.987018,176.673054 325.363018,172.459054 C326.739018,168.159054 327.169018,166.267054 327.513018,163.171054 C324.761018,166.009054 322.267018,167.815054 321.149018,167.815054 C320.547018,167.815054 319.859018,167.299054 318.741018,166.095054 C319.085018,164.891054 319.515018,163.859054 319.601018,163.515054 C319.859018,162.999054 320.805018,160.763054 322.181018,157.495054 C325.879018,148.981054 327.857018,142.101054 327.857018,138.145054 C327.857018,134.017054 327.083018,132.383054 324.159018,130.233054 C322.525018,129.115054 321.235018,128.427054 320.633018,128.427054 C319.945018,128.427054 319.515018,129.029054 318.913018,130.491054 C314.957018,140.983054 313.925018,144.595054 310.485018,159.301054 C310.141018,159.301054 309.797018,159.301054 309.711018,159.215054 L309.195018,159.215054 Z M357.785018,163.085054 C357.613018,163.257054 357.355018,163.515054 357.097018,163.687054 C356.323018,164.289054 356.237018,164.375054 355.463018,164.719054 C356.581018,159.817054 357.355018,155.517054 357.355018,153.625054 C357.355018,152.335054 356.925018,151.647054 355.291018,150.787054 C352.367018,149.239054 349.787018,148.207054 348.755018,148.207054 C347.637018,148.207054 345.401018,152.077054 343.939018,156.721054 C342.305018,153.625054 340.929018,152.421054 337.747018,151.045054 C330.437018,158.441054 326.481018,167.213054 326.481018,176.071054 C326.481018,183.037054 330.953018,189.143054 336.113018,189.143054 C340.413018,189.143054 345.745018,185.617054 349.357018,180.371054 C351.077018,177.877054 352.109018,175.899054 353.485018,172.201054 C354.775018,171.771054 355.635018,171.255054 356.065018,170.395054 C356.839018,169.019054 357.871018,165.321054 357.871018,163.773054 C357.871018,163.515054 357.871018,163.343054 357.785018,163.085054 L357.785018,163.085054 Z M346.519018,168.245054 C344.541018,172.975054 340.241018,178.307054 337.145018,180.113054 C336.543018,178.307054 336.371018,177.533054 336.371018,175.899054 C336.371018,172.803054 337.403018,168.503054 339.037018,164.633054 C340.241018,161.537054 341.273018,160.075054 343.681018,157.667054 C343.423018,160.419054 343.423018,160.419054 343.423018,161.193054 C343.423018,163.343054 344.455018,165.665054 346.519018,168.245054 L346.519018,168.245054 Z M378.253018,162.225054 C376.619018,163.257054 376.361018,163.343054 375.157018,163.429054 C375.931018,161.537054 376.705018,159.731054 376.963018,159.129054 C377.909018,157.151054 378.253018,156.119054 378.253018,155.431054 C378.253018,153.539054 375.759018,150.787054 372.147018,148.637054 C371.115018,150.357054 370.943018,150.873054 369.911018,153.797054 C368.535018,152.335054 366.041018,150.787054 364.321018,150.443054 C362.343018,155.689054 361.397018,159.645054 360.537018,165.321054 C358.301018,180.543054 358.301018,180.543054 358.301018,183.209054 C358.301018,184.155054 358.473018,184.585054 359.333018,185.187054 C361.311018,186.735054 362.687018,187.595054 365.525018,189.229054 C366.643018,181.145054 368.449018,173.147054 370.169018,168.847054 C371.631018,169.707054 372.319018,169.965054 373.351018,169.965054 C375.329018,169.965054 376.189018,169.277054 377.135018,166.611054 C377.737018,165.063054 377.995018,164.031054 378.253018,162.225054 L378.253018,162.225054 Z M428.219018,178.909054 C427.101018,178.995054 426.671018,178.995054 425.811018,178.995054 C425.037018,178.995054 424.435018,178.995054 423.145018,178.909054 C425.983018,171.943054 428.563018,161.107054 428.563018,156.291054 C428.563018,154.227054 426.671018,152.765054 421.253018,150.787054 C421.081018,151.991054 420.909018,152.851054 420.823018,153.281054 C420.651018,153.797054 420.479018,154.399054 420.393018,154.915054 C420.393018,155.001054 420.135018,155.775054 420.049018,156.463054 C417.297018,153.453054 415.491018,152.249054 412.481018,151.217054 C407.665018,153.625054 404.311018,156.549054 400.699018,161.709054 C396.571018,167.557054 394.163018,174.351054 394.163018,180.027054 C394.163018,185.445054 396.915018,189.057054 401.043018,189.057054 C404.999018,189.057054 408.783018,186.649054 413.599018,181.231054 C413.341018,182.607054 413.255018,183.381054 413.255018,183.983054 C413.255018,187.337054 415.233018,188.799054 419.705018,188.799054 C421.339018,188.799054 421.511018,188.799054 421.855018,188.541054 C422.113018,188.283054 422.543018,187.767054 423.403018,186.563054 C425.295018,183.897054 426.499018,182.091054 428.219018,178.909054 L428.219018,178.909054 Z M406.203018,180.371054 C405.687018,178.651054 405.515018,177.877054 405.515018,176.759054 C405.515018,173.061054 407.837018,167.643054 411.277018,163.429054 C414.115018,159.903054 416.351018,158.097054 419.877018,156.635054 C415.577018,171.771054 412.653018,176.845054 406.203018,180.371054 L406.203018,180.371054 Z M442.065018,179.339054 C442.151018,169.793054 442.323018,168.847054 443.957018,164.289054 C447.655018,154.227054 447.655018,154.227054 448.171018,152.679054 C450.235018,146.659054 451.095018,142.617054 451.095018,139.435054 C451.095018,135.651054 449.977018,133.759054 446.021018,130.663054 C445.419018,130.233054 444.645018,129.631054 443.957018,129.029054 C440.345018,135.135054 438.711018,139.091054 436.733018,146.487054 C433.895018,156.979054 431.659018,170.739054 431.659018,177.791054 C431.659018,181.747054 432.175018,183.897054 433.465018,185.445054 C435.443018,187.767054 438.109018,189.143054 440.775018,189.143054 C443.183018,189.143054 446.021018,188.025054 446.709018,186.907054 C447.569018,185.359054 448.601018,182.435054 449.633018,178.565054 C447.139018,179.167054 445.591018,179.425054 444.043018,179.425054 L442.065018,179.339054 Z M462.017018,179.339054 C462.103018,169.793054 462.275018,168.847054 463.909018,164.289054 C467.607018,154.227054 467.607018,154.227054 468.123018,152.679054 C470.187018,146.659054 471.047018,142.617054 471.047018,139.435054 C471.047018,135.651054 469.929018,133.759054 465.973018,130.663054 C465.371018,130.233054 464.597018,129.631054 463.909018,129.029054 C460.297018,135.135054 458.663018,139.091054 456.685018,146.487054 C453.847018,156.979054 451.611018,170.739054 451.611018,177.791054 C451.611018,181.747054 452.127018,183.897054 453.417018,185.445054 C455.395018,187.767054 458.061018,189.143054 460.727018,189.143054 C463.135018,189.143054 465.973018,188.025054 466.661018,186.907054 C467.521018,185.359054 468.553018,182.435054 469.585018,178.565054 C467.091018,179.167054 465.543018,179.425054 463.995018,179.425054 L462.017018,179.339054 Z" id="showcasing" sketch:type="MSShapeGroup" transform="translate(227.022018, 131.958028) rotate(-14.000000) translate(-227.022018, -131.958028) "></path>
        </g>
    </g>
</svg>