<?xml version="1.0" standalone="no"?>
<!DOCTYPE svg PUBLIC "-//W3C//DTD SVG 1.1//EN" "http://www.w3.org/Graphics/SVG/1.1/DTD/svg11.dtd" >
<svg xmlns="http://www.w3.org/2000/svg">
<metadata></metadata>
<defs>
<font id="van_condensed_probold" horiz-adv-x="1148" >
<font-face units-per-em="2048" ascent="1638" descent="-410" />
<missing-glyph horiz-adv-x="493" />
<glyph unicode="&#xfb01;" horiz-adv-x="1171" d="M0 815v172q0 33 31 33h100q33 0 33 31v106q0 205 117.5 321.5t320.5 118.5h27q33 0 33 -30v-203q0 -33 -33 -33h-13q-83 0 -123 -50t-40 -128v-102q0 -31 32 -31h510q33 0 33 -33v-954q0 -33 -33 -33h-221q-35 0 -35 33v719q0 30 -28 30h-226q-32 0 -32 -28v-721 q0 -33 -31 -33h-227q-31 0 -31 33v721q0 28 -33 28h-100q-31 0 -31 33zM729 1333q0 72 49 121t121 49q70 0 119 -49.5t49 -120.5t-48.5 -119.5t-119.5 -48.5q-72 0 -121 48.5t-49 119.5z" />
<glyph unicode="&#xfb02;" horiz-adv-x="1171" d="M0 815v172q0 33 31 33h100q33 0 33 31v69q0 206 117 323.5t319 117.5h395q17 0 25 -5.5t8 -21.5v-1501q0 -33 -33 -33h-219q-33 0 -33 37v1216q0 41 -38 41h-91q-83 0 -122 -49.5t-39 -128.5v-65q0 -31 32 -31h142q32 0 32 -31v-174q0 -33 -32 -33h-142q-32 0 -32 -28 v-721q0 -33 -31 -33h-227q-31 0 -31 33v721q0 28 -33 28h-100q-31 0 -31 33z" />
<glyph unicode="&#xfb03;" horiz-adv-x="1746" d="M0 815v172q0 33 31 33h100q33 0 33 31v8q0 100 33 178t91 125.5t132.5 71.5t161.5 24h26q33 0 33 -31v-202q0 -33 -33 -33h-12q-62 0 -102.5 -32.5t-40.5 -100.5v-8q0 -31 32 -31h222q32 0 32 31v106q0 205 118 321.5t321 118.5h26q33 0 33 -30v-203q0 -33 -33 -33h-12 q-83 0 -123.5 -50t-40.5 -128v-102q0 -31 33 -31h510q33 0 33 -33v-954q0 -33 -33 -33h-217q-35 0 -35 33v719q0 30 -29 30h-229q-33 0 -33 -28v-721q0 -33 -31 -33h-227q-31 0 -31 33v721q0 28 -32 28h-222q-32 0 -32 -28v-721q0 -33 -31 -33h-227q-31 0 -31 33v721 q0 28 -33 28h-100q-31 0 -31 33zM1305 1333q0 72 49 121t121 49q70 0 118.5 -49.5t48.5 -120.5t-48.5 -119.5t-118.5 -48.5q-72 0 -121 48.5t-49 119.5z" />
<glyph unicode="&#xfb04;" horiz-adv-x="1792" d="M0 836v151q0 33 31 33h139q33 0 33 31v8q0 100 33 178t91 125.5t132.5 71.5t161.5 24h67q33 0 33 -31v-202q0 -33 -33 -33h-53q-62 0 -102.5 -32.5t-40.5 -100.5v-8q0 -31 32 -31h226q32 0 32 31v69q0 206 117.5 323.5t319.5 117.5h397q17 0 25 -5.5t8 -21.5v-1501 q0 -15 -9 -24t-24 -9h-219q-15 0 -24 9t-9 24v1220q0 41 -39 41h-92q-83 0 -122.5 -50t-39.5 -128v-65q0 -31 33 -31h182q33 0 33 -31v-153q0 -33 -33 -33h-182q-33 0 -33 -29v-741q0 -33 -31 -33h-227q-31 0 -31 33v741q0 29 -32 29h-226q-32 0 -32 -29v-741q0 -33 -31 -33 h-228q-30 0 -30 33v741q0 29 -33 29h-139q-31 0 -31 33z" />
<glyph horiz-adv-x="0" />
<glyph horiz-adv-x="682" />
<glyph unicode=" "  horiz-adv-x="493" />
<glyph unicode="&#x09;" horiz-adv-x="493" />
<glyph unicode="&#xa0;" horiz-adv-x="493" />
<glyph unicode="!" horiz-adv-x="520" d="M92 141q0 71 51 121.5t123 50.5t123 -50.5t51 -121.5q0 -72 -51 -123t-123 -51t-123 51t-51 123zM117 1391q0 30 33 30h241q33 0 33 -30l-41 -914q-3 -33 -33 -33h-162q-30 0 -30 33z" />
<glyph unicode="&#x22;" horiz-adv-x="1032" d="M184 981v412q0 30 31 30h193q30 0 30 -30v-412q0 -31 -30 -31h-193q-31 0 -31 31zM594 981v412q0 30 31 30h192q31 0 31 -30v-412q0 -31 -31 -31h-192q-31 0 -31 31z" />
<glyph unicode="#" horiz-adv-x="1529" d="M82 379v174q0 22 22 22h199q15 0 27.5 10t15.5 25l31 203q0 19 -14.5 30t-28.5 11h-174q-12 0 -19.5 8.5t-7.5 20.5v153q0 8 7 16.5t16 8.5h229q34 0 43 35l53 299q3 28 25 28h242q22 0 22 -28l-51 -291q0 -18 12.5 -30.5t30.5 -12.5h145q34 0 43 35l56 305q3 22 30 22 h215q23 0 23 -28l-51 -295q0 -17 11 -28t30 -11h159q25 0 25 -25v-159q0 -23 -25 -23h-211q-15 0 -27.5 -11t-15.5 -26l-28 -199q0 -18 11.5 -30.5t31.5 -12.5h168q22 0 22 -22v-174q0 -23 -22 -23h-228q-17 0 -28.5 -11t-14.5 -26l-59 -294q-4 -25 -29 -25h-215 q-24 0 -24 29l57 284q0 19 -12 31t-31 12h-145q-36 0 -43 -37l-58 -290q-6 -29 -30 -29h-236q-25 0 -25 27l58 284q0 45 -43 45h-142q-22 0 -22 23zM637 621q0 -18 13 -32t30 -14h145q15 0 28.5 11t14.5 26l31 199q0 18 -11.5 30.5t-31.5 12.5h-145q-36 0 -43 -35z" />
<glyph unicode="$" horiz-adv-x="1132" d="M102 383q0 27 29 27h229q31 0 31 -31q1 -57 29.5 -99t69 -60.5t85.5 -18.5q79 0 124.5 32.5t45.5 114.5q0 73 -59 113l-354 233q-195 129 -195 373q0 161 100 262.5t261 122.5v168q0 33 47 33h57q43 0 43 -33v-166q181 -17 281 -131.5t100 -275.5q0 -13 -9 -20t-22 -7 h-219q-16 0 -26.5 10.5t-10.5 28.5q0 73 -37.5 119.5t-121.5 46.5q-85 0 -124.5 -41t-39.5 -101q0 -19 3.5 -35.5t7 -26.5t14 -23t15 -17.5t20.5 -18.5t20 -18l370 -250q87 -70 125.5 -148t38.5 -192q0 -349 -385 -381v-168q0 -32 -47 -32h-57q-43 0 -43 32v168 q-177 12 -286.5 127.5t-109.5 282.5z" />
<glyph unicode="%" horiz-adv-x="1921" d="M143 1026v143q0 127 86.5 208t243.5 81q159 0 245.5 -81t86.5 -208v-143q0 -128 -86.5 -209.5t-245.5 -81.5t-244.5 81.5t-85.5 209.5zM379 1047q0 -44 23.5 -72.5t72.5 -28.5q94 0 94 101v100q0 43 -25 70.5t-69 27.5q-47 0 -71.5 -28t-24.5 -72v-98zM444 25q0 7 7 18 l755 1362q9 18 29 18h195q32 0 32 -30q0 -7 -4 -15l-760 -1362q-10 -16 -28 -16h-191q-13 0 -24 7t-11 18zM1116 258v143q0 127 86.5 208t243.5 81q159 0 245.5 -81t86.5 -208v-143q0 -128 -86.5 -209.5t-245.5 -81.5t-244.5 81.5t-85.5 209.5zM1352 279q0 -44 23.5 -72.5 t72.5 -28.5q94 0 94 101v100q0 43 -25 70.5t-69 27.5q-47 0 -71.5 -28t-24.5 -72v-98z" />
<glyph unicode="&#x26;" horiz-adv-x="1548" d="M123 389q0 125 59 216t172 169q17 11 17 27q0 17 -9 28q-118 118 -118 250q0 165 112 272t277 107q175 0 282 -102.5t107 -263.5q0 -186 -160 -308q-2 -1 -8 -4.5t-8 -5.5q-17 -17 -17 -29l127 -145q9 -12 23 -12q10 0 32.5 18t41.5 38t43 45.5t28 29.5q12 12 39 12h289 q31 0 31 -31q0 -12 -10 -22l-308 -297q-10 -7 -10 -23q0 -10 10 -20l267 -287q8 -8 8 -20q0 -31 -31 -31h-283q-20 0 -81 72.5t-78 72.5q-15 0 -25 -10q-85 -81 -170 -124.5t-188 -43.5q-134 0 -236.5 46.5t-163.5 143t-61 232.5zM426 377q0 -60 43.5 -95.5t101.5 -35.5 q98 0 183 104q12 16 12 27q0 12 -10 22l-156 164q-10 10 -27 10q-11 0 -20 -6q-31 -19 -47.5 -31.5t-38.5 -35.5t-31.5 -53t-9.5 -70zM543 1092q0 -29 11 -54.5t23.5 -41t38.5 -42.5q10 -14 29 -14q13 0 29 16q21 21 32 34.5t22 41t11 60.5q0 39 -27.5 66.5t-72.5 27.5 q-47 0 -71.5 -27t-24.5 -67z" />
<glyph unicode="'" horiz-adv-x="643" d="M184 981v410q0 30 31 30h213q31 0 31 -30v-410q0 -31 -31 -31h-213q-31 0 -31 31z" />
<glyph unicode="(" horiz-adv-x="907" d="M143 467q0 253 85.5 505t242.5 437q9 12 25 12h258q14 0 22 -8.5t8 -21.5q0 -11 -8 -23q-175 -212 -262.5 -427t-87.5 -474q0 -252 84 -465.5t252 -421.5q8 -12 8 -20q0 -31 -33 -31h-254q-14 0 -26 12q-148 178 -231 431t-83 495z" />
<glyph unicode=")" horiz-adv-x="907" d="M123 1391q0 13 8.5 21.5t22.5 8.5h258q15 0 24 -12q157 -185 242.5 -437t85.5 -505q0 -243 -83 -495.5t-232 -430.5q-9 -12 -25 -12h-254q-33 0 -33 31q0 12 8 20q168 208 252 421.5t84 465.5q0 259 -87.5 474t-262.5 427q-8 8 -8 23z" />
<glyph unicode="*" horiz-adv-x="909" d="M102 1112q0 10 7 21l51 98q9 24 37 24q14 0 20 -4l105 -49q2 -2 12 -2q16 0 16 19v159q0 45 45 45h113q43 0 43 -45v-164q0 -20 16 -20q7 0 19 6l106 51q9 6 23 6q23 0 35 -24l53 -103q4 -12 4 -16q0 -12 -7.5 -24.5t-19.5 -16.5l-129 -63q-12 -3 -12 -17q0 -10 6 -18 l100 -111q13 -16 13 -30t-15 -33l-88 -76q-15 -10 -30 -10q-17 0 -31 14l-113 135q-11 15 -22 15q-5 0 -10 -2.5t-8.5 -6l-4.5 -4.5l-114 -137q-18 -18 -35 -18q-16 0 -35 16l-76 64q-18 15 -18 36q0 16 14 37l96 115q1 2 2 5l1.5 4.5t0.5 2.5q0 11 -12 17l-131 65 q-27 12 -27 39z" />
<glyph unicode="+" horiz-adv-x="1312" d="M143 602v223q0 31 33 31h307q31 0 31 33v309q0 31 31 31h223q31 0 31 -31v-309q0 -33 30 -33h308q32 0 32 -31v-223q0 -33 -32 -33h-308q-30 0 -30 -32v-320q0 -33 -31 -33h-223q-31 0 -31 33v320q0 32 -31 32h-307q-33 0 -33 33z" />
<glyph unicode="," horiz-adv-x="593" d="M123 -248q0 12 7.5 33.5t22.5 57t23 57.5q21 69 21 100q-72 50 -72 141q0 71 51 121.5t123 50.5q71 0 121.5 -50.5t50.5 -121.5q0 -132 -51 -256q-35 -90 -88.5 -146t-114.5 -56q-21 0 -41 10q-53 27 -53 59z" />
<glyph unicode="-" horiz-adv-x="827" d="M143 438v168q0 33 33 33h477q31 0 31 -33v-168q0 -32 -31 -32h-479q-31 0 -31 32z" />
<glyph unicode="." horiz-adv-x="591" d="M123 139q0 71 51 121.5t123 50.5q71 0 121.5 -50.5t50.5 -121.5q0 -72 -50.5 -123t-121.5 -51q-72 0 -123 51t-51 123z" />
<glyph unicode="/" horiz-adv-x="806" d="M82 33l364 1368q9 22 31 22h217q31 0 31 -24q0 -13 -4 -23l-359 -1349q-14 -27 -34 -27h-215q-31 0 -31 33z" />
<glyph unicode="0" horiz-adv-x="1189" d="M143 389v631q0 70 14.5 132t48.5 119t85 98t128.5 65t174.5 24t175 -22.5t129 -61t85 -93t49 -115t15 -130.5v-630q0 -88 -24.5 -164t-75 -139t-140.5 -99.5t-211 -36.5q-97 0 -175 22.5t-129 61t-85 93t-49 115t-15 130.5zM432 393q0 -39 6 -69.5t22.5 -60t51 -46 t84.5 -16.5q162 0 162 196v635q0 39 -6 69.5t-22.5 60.5t-51 46.5t-84.5 16.5q-162 0 -162 -197v-635z" />
<glyph unicode="1" horiz-adv-x="1187" d="M246 33v172q0 31 33 31h153q31 0 31 26v928q0 31 -31 31h-137q-31 0 -31 34v136q0 13 8.5 22.5t22.5 9.5h422q33 0 33 -32v-1125q0 -30 30 -30h154q33 0 33 -31v-172q0 -33 -33 -33h-655q-33 0 -33 33z" />
<glyph unicode="2" horiz-adv-x="1187" d="M150 23v204q0 23 12 39l534 621q49 61 49 133v8q0 32 -2.5 56.5t-11.5 52.5t-24.5 46t-43.5 30t-67 12q-43 0 -75 -16t-49 -43.5t-24.5 -57.5t-7.5 -64q0 -26 -30 -26h-228q-30 0 -30 31q0 187 118.5 298t325.5 111q208 0 323 -106.5t115 -302.5v-29q0 -96 -28 -161.5 t-91 -147.5l-374 -437q-6 -6 -6 -14q0 -22 24 -22h481q23 0 23 -23v-192q0 -23 -23 -23h-866q-24 0 -24 23z" />
<glyph unicode="3" horiz-adv-x="1187" d="M139 1049q0 187 118 298t325 111q208 0 324 -106.5t116 -302.5v-37q0 -82 -22 -138.5t-91 -117.5q-10 -8 -10 -25q0 -11 12 -20q138 -95 138 -275v-59q0 -198 -115 -304t-336 -106q-223 0 -338 105t-115 305q0 31 31 31h227q31 0 31 -27q0 -75 37.5 -127.5t126.5 -52.5 q50 0 84 17t50 47.5t22 61t6 70.5v33q0 80 -48.5 125t-140.5 45h-32q-47 0 -47 35v172q0 35 30 35h43q168 0 168 170v16q0 197 -158 197q-147 0 -147 -181q0 -26 -31 -26h-227q-31 0 -31 31z" />
<glyph unicode="4" horiz-adv-x="1187" d="M78 356v181q0 10 4 16l524 848q16 22 41 22h217q31 0 31 -30v-815q0 -31 31 -31h166q32 0 32 -31v-160q0 -32 -30 -32h-168q-31 0 -31 -31v-260q0 -33 -31 -33h-225q-31 0 -31 33v260q0 31 -33 31h-464q-33 0 -33 32zM342 575q0 -28 31 -28h205q30 0 30 35v342 q0 26 -30 26q-18 0 -29 -18l-199 -330q-8 -11 -8 -27z" />
<glyph unicode="5" horiz-adv-x="1187" d="M147 379q0 31 31 31h228q30 0 30 -27q0 -75 39 -127.5t131 -52.5q41 0 70.5 12t45.5 30t25.5 46t12 52t2.5 56v72q0 27 -8 54.5t-25.5 55.5t-52.5 46t-82 18h-358q-31 0 -31 33v715q0 30 31 30h720q31 0 31 -30v-174q0 -33 -31 -33h-434q-30 0 -30 -31v-250q0 -28 30 -28 h82q204 0 325.5 -101.5t121.5 -283.5v-113q0 -198 -115 -304t-336 -106q-219 0 -336 110.5t-117 299.5z" />
<glyph unicode="6" horiz-adv-x="1187" d="M143 391v658q0 198 115 303.5t336 105.5q243 0 348 -106t105 -303q0 -31 -31 -31h-228q-30 0 -30 26q0 181 -158 181q-168 0 -168 -197v-151q0 -33 27 -33q12 0 67.5 13t83.5 13q210 0 323.5 -103.5t113.5 -293.5v-113q0 -176 -113 -283.5t-328 -107.5 q-224 0 -343.5 109.5t-119.5 312.5zM432 381q0 -84 45.5 -131t126.5 -47q70 0 113 44.5t43 112.5v97q0 63 -45 107t-119 44q-75 0 -119.5 -44t-44.5 -107v-76z" />
<glyph unicode="7" horiz-adv-x="1187" d="M176 1206v185q0 32 33 32h756q30 0 30 -32v-211q0 -9 -2 -13l-395 -1142q-7 -17 -29 -17h-225q-29 0 -29 23q0 4 4 20l381 1069q7 18 7 27q0 27 -29 27h-469q-33 0 -33 32z" />
<glyph unicode="8" horiz-adv-x="1187" d="M156 344v113q0 134 80 237q12 15 12 31q0 9 -8 25q-64 98 -64 217v112q0 177 110 278t312 101q210 0 316 -97t106 -282v-114q0 -131 -51 -220q-8 -13 -8 -26q0 -12 10 -29q69 -96 69 -231v-111q0 -183 -113.5 -282t-328.5 -99q-209 0 -325.5 98t-116.5 279zM444 385 q0 -71 42.5 -114.5t111.5 -43.5q73 0 114.5 43.5t41.5 114.5v76q0 71 -42 113t-114 42q-67 0 -110.5 -43.5t-43.5 -111.5v-76zM457 981q0 -59 34 -100t107 -41q77 0 110 40t33 103v92q0 51 -38 91t-101 40q-67 0 -106 -38t-39 -93v-94z" />
<glyph unicode="9" horiz-adv-x="1187" d="M143 377q0 31 31 31h227q31 0 31 -27q0 -34 8 -64t25.5 -57t51.5 -43t81 -16q50 0 84 17t49.5 47.5t21 61t5.5 70.5v111q0 33 -27 33q-12 0 -67.5 -13.5t-83.5 -13.5q-210 0 -323.5 103.5t-113.5 293.5v154q0 176 113 283.5t328 107.5q224 0 343.5 -109.5t119.5 -312.5 v-657q0 -198 -115 -304t-336 -106q-223 0 -338 105.5t-115 304.5zM430 907q0 -63 45 -107t119 -44q75 0 119.5 44t44.5 107v137q0 84 -43.5 131.5t-124.5 47.5q-70 0 -115 -45t-45 -113v-158z" />
<glyph unicode=":" horiz-adv-x="593" d="M123 139q0 71 51 121.5t123 50.5q71 0 121.5 -50.5t50.5 -121.5q0 -72 -50.5 -123t-121.5 -51q-72 0 -123 51t-51 123zM125 881q0 72 51 123t123 51t122 -51t50 -123q0 -71 -50 -121.5t-122 -50.5t-123 50.5t-51 121.5z" />
<glyph unicode=";" horiz-adv-x="602" d="M121 -248q0 12 7.5 33.5t22.5 57t23 57.5q21 69 21 100q-72 50 -72 141q0 71 51 121.5t123 50.5q71 0 121.5 -50.5t50.5 -121.5q0 -132 -51 -256q-35 -90 -88.5 -146t-114.5 -56q-21 0 -41 10q-53 27 -53 59zM121 881q0 72 51 123t123 51t123 -51t51 -123 q0 -71 -51 -121.5t-123 -50.5t-123 50.5t-51 121.5z" />
<glyph unicode="&#x3c;" horiz-adv-x="1116" d="M123 373v274q0 18 18 27l811 383q15 7 27 -2q14 -8 14 -25v-225q0 -22 -16 -27l-490 -241q-18 -9 -18 -27q0 -24 16 -27l492 -233q16 -10 16 -27v-231q0 -21 -16 -29q-13 -6 -29 0l-807 383q-18 9 -18 27z" />
<glyph unicode="=" horiz-adv-x="1218" d="M143 371v202q0 31 33 31h868q31 0 31 -31v-202q0 -31 -31 -31h-868q-33 0 -33 31zM143 821v201q0 33 33 33h868q31 0 31 -33v-201q0 -33 -31 -33h-868q-33 0 -33 33z" />
<glyph unicode="&#x3e;" horiz-adv-x="1116" d="M123 -8v231q0 17 16 27l492 233q16 3 16 27q0 18 -18 27l-490 241q-16 6 -16 27v225q0 17 14 25q12 9 29 2l809 -383q18 -9 18 -27v-274q0 -18 -18 -27l-807 -383q-16 -6 -29 0q-16 10 -16 29z" />
<glyph unicode="?" horiz-adv-x="1114" d="M102 1075q0 170 118.5 276.5t322.5 106.5q238 0 353.5 -111t115.5 -307q0 -111 -42.5 -184t-115.5 -137q-40 -35 -58.5 -52.5t-45.5 -49.5t-39.5 -66t-16.5 -74q-3 -33 -30 -33h-213q-31 0 -31 33q0 37 5 70.5t17.5 64t22.5 51.5t32 49.5t32.5 41t37.5 42t35 38.5 q35 39 53 62t35 61.5t17 76.5q0 191 -160 191q-80 0 -119 -46t-39 -92q0 -18 -10.5 -28t-26.5 -10h-219q-31 0 -31 26zM401 137q0 71 49 120.5t121 49.5t121 -49.5t49 -120.5q0 -72 -49 -121t-121 -49t-121 49t-49 121z" />
<glyph unicode="@" horiz-adv-x="2365" d="M123 475q0 168 49.5 326.5t145.5 291.5t226.5 233t302.5 156t365 56q171 0 327 -44.5t283.5 -130t222 -203t146.5 -271.5t52 -328q0 -268 -147.5 -414.5t-416.5 -146.5h-321q-9 0 -12.5 10.5t-4 23.5t-5.5 23.5t-17 10.5q-8 0 -12 -2q-56 -56 -119 -77.5t-150 -21.5 q-80 0 -152.5 32.5t-121.5 99.5t-49 155q0 39 8 78l74 395q28 151 140 239.5t273 88.5q47 0 89 -13t64.5 -29t40 -29t21.5 -13q12 0 18.5 7.5t8 17t9.5 17t22 7.5h149q9 0 16 -6t7 -15q0 -1 -1 -4t-1 -4l-137 -741v-8q0 -25 30 -25h158q79 0 133.5 25.5t83.5 74t41 105.5 t12 133q0 166 -56.5 307.5t-157 240.5t-242 154.5t-306.5 55.5q-176 0 -330.5 -68t-262 -183t-169 -269.5t-61.5 -323.5q0 -181 62 -328.5t172.5 -245t261.5 -150t329 -52.5q26 0 49.5 1.5t48 6t40 7t43 11t39 12.5t45 15.5t45.5 15.5q4 2 14 2q20 0 27 -12q11 -18 42 -91 t31 -85q0 -18 -18 -29q-75 -45 -195.5 -67.5t-230.5 -22.5q-230 0 -427 70.5t-339.5 199.5t-223.5 321.5t-81 426.5zM975 319q0 -59 34 -90.5t95 -31.5q82 0 127 56.5t59 141.5l41 246q6 30 6 61q0 60 -39.5 90.5t-101.5 30.5q-132 0 -166 -170l-51 -266q-4 -25 -4 -68z" />
<glyph unicode="A" horiz-adv-x="1071" d="M61 25q0 10 2 16l312 1350q2 11 12 21.5t29 10.5h239q19 0 29 -10.5t12 -21.5l312 -1352q2 -6 2 -14q0 -25 -25 -25h-248q-12 0 -20 9.5t-10 19.5l-35 172q-6 20 -31 20h-205q-27 0 -33 -22l-41 -172q-9 -27 -34 -27h-238q-12 0 -20.5 8t-8.5 17zM463 483q0 -28 24 -28 h109q13 0 16.5 6.5t3.5 23.5t-2 23l-41 225q-7 29 -30 29q-24 0 -31 -29l-45 -225q-4 -16 -4 -25z" />
<glyph unicode="B" horiz-adv-x="1161" d="M164 33v1358q0 30 33 30h378q68 0 130.5 -14t118.5 -45t97 -76t65 -111.5t24 -146.5q0 -175 -111 -289q-8 -8 -8 -20q0 -15 10 -23q70 -64 103.5 -127.5t33.5 -144.5q0 -105 -28 -183t-72 -123t-109 -72.5t-128 -36.5t-140 -9h-364q-33 0 -33 33zM451 266q0 -33 28 -33 h62q194 0 194 185q0 89 -54.5 131.5t-148.5 42.5h-51q-30 0 -30 -33v-293zM451 852q0 -27 28 -27h56q88 0 140 47.5t52 124.5q0 84 -54.5 130.5t-140.5 46.5h-57q-24 0 -24 -29v-293z" />
<glyph unicode="C" horiz-adv-x="1222" d="M143 399v625q0 87 28.5 164t84 138t148 96.5t210.5 35.5q209 0 337 -106t128 -277q0 -26 -30 -26h-226q-25 0 -28 26q-8 66 -53.5 108t-125.5 42q-92 0 -139 -56.5t-47 -140.5v-633q0 -83 47 -139.5t139 -56.5q81 0 126 41.5t53 107.5q3 27 28 27h226q30 0 30 -27 q0 -171 -128 -277t-337 -106q-118 0 -210.5 35.5t-148 96.5t-84 138t-28.5 164z" />
<glyph unicode="D" horiz-adv-x="1245" d="M164 33v1360q0 30 33 30h465q100 0 177 -19.5t126 -53t80.5 -82.5t44 -104t12.5 -122v-645q0 -100 -22.5 -171.5t-73.5 -123t-136.5 -77t-207.5 -25.5h-465q-15 0 -24 9t-9 24zM451 266q0 -33 30 -33h168q77 0 118.5 41.5t41.5 122.5v629q0 76 -39.5 120t-110.5 44h-178 q-30 0 -30 -33v-891z" />
<glyph unicode="E" horiz-adv-x="995" d="M164 33v1360q0 30 33 30h643q32 0 32 -30v-170q0 -33 -32 -33h-359q-30 0 -30 -31v-305q0 -14 9.5 -21.5t18.5 -7.5h307q31 0 31 -32v-170q0 -31 -31 -31h-305q-30 0 -30 -31v-295q0 -30 30 -30h359q32 0 32 -31v-172q0 -33 -32 -33h-643q-33 0 -33 33z" />
<glyph unicode="F" horiz-adv-x="995" d="M164 33v1360q0 30 33 30h645q30 0 30 -30v-170q0 -33 -30 -33h-361q-30 0 -30 -31v-303q0 -31 28 -31h287q31 0 31 -32v-168q0 -33 -31 -33h-287q-28 0 -28 -29v-530q0 -33 -31 -33h-223q-33 0 -33 33z" />
<glyph unicode="G" horiz-adv-x="1230" d="M143 391v633q0 87 28.5 164t84 138t148 96.5t210.5 35.5q209 0 337 -106t128 -277q0 -26 -30 -26h-226q-25 0 -28 26q-8 66 -53.5 108t-125.5 42q-92 0 -138 -56.5t-46 -140.5v-635q0 -81 43 -136.5t141 -55.5q94 0 138.5 56.5t44.5 141.5v115q0 37 -39 37h-101 q-41 0 -41 41v160q0 32 33 32h404q32 0 32 -32v-346q0 -198 -124 -318.5t-345 -120.5q-230 0 -352.5 116t-122.5 308z" />
<glyph unicode="H" horiz-adv-x="1241" d="M164 33v1360q0 30 33 30h223q31 0 31 -30v-537q0 -31 30 -31h279q31 0 31 31v537q0 30 30 30h223q33 0 33 -30v-1360q0 -33 -33 -33h-223q-30 0 -30 33v528q0 31 -31 31h-279q-30 0 -30 -31v-528q0 -33 -31 -33h-223q-33 0 -33 33z" />
<glyph unicode="I" horiz-adv-x="614" d="M164 33v1360q0 30 31 30h223q33 0 33 -30v-1360q0 -33 -33 -33h-221q-33 0 -33 33z" />
<glyph unicode="J" horiz-adv-x="1097" d="M102 348q0 27 31 27h225q31 0 31 -27q0 -67 37 -107t96 -40q125 0 125 137v1055q0 30 31 30h225q31 0 31 -30v-1067q0 -361 -414 -361q-205 0 -311.5 105t-106.5 278z" />
<glyph unicode="K" horiz-adv-x="1177" d="M164 33v1360q0 30 33 30h219q33 0 33 -30v-510q0 -7 6 -12t12 -5q12 0 25 17l292 530q5 10 23 10h250q28 0 28 -30q0 -14 -6 -23l-305 -536q-6 -9 -6 -21q0 -17 4 -25l322 -753q2 -4 2 -12q0 -10 -9 -16.5t-22 -6.5h-244q-20 0 -26 18l-203 480q-3 12 -21 12 q-15 0 -20 -10l-88 -146q-14 -25 -14 -43v-278q0 -33 -31 -33h-221q-15 0 -24 9t-9 24z" />
<glyph unicode="L" horiz-adv-x="995" d="M164 33v1360q0 30 33 30h223q31 0 31 -30v-1127q0 -30 30 -30h359q32 0 32 -31v-172q0 -33 -32 -33h-643q-33 0 -33 33z" />
<glyph unicode="M" horiz-adv-x="1347" d="M164 33v1360q0 30 31 30h215q21 0 30 -20l205 -524q8 -19 29 -19q18 0 26 19l220 524q9 20 32 20h199q33 0 33 -30v-1360q0 -33 -33 -33h-205q-31 0 -31 33v549q0 30 -28 30q-21 0 -31 -24l-72 -197q-6 -22 -28 -22h-158q-22 0 -31 18l-75 201q-9 18 -29 18 q-13 0 -22 -8.5t-9 -22.5v-542q0 -33 -31 -33h-206q-12 0 -21.5 8.5t-9.5 24.5z" />
<glyph unicode="N" horiz-adv-x="1241" d="M164 33v1360q0 30 31 30h206q20 0 29 -20l322 -619q7 -18 28 -18q31 0 31 31v596q0 30 31 30h202q33 0 33 -30v-1362q0 -31 -33 -31h-190q-20 0 -29 20l-338 637q-9 17 -26 17q-31 0 -31 -31v-610q0 -33 -31 -33h-202q-33 0 -33 33z" />
<glyph unicode="O" horiz-adv-x="1230" d="M143 389v631q0 87 27.5 163.5t82 139t147.5 99t214 36.5t214 -34t148.5 -93t83 -133.5t27.5 -161.5v-630q0 -87 -27.5 -164t-82 -139.5t-147.5 -99t-214 -36.5t-214 34t-148.5 93t-83 133.5t-27.5 161.5zM432 393q0 -80 43.5 -136t140.5 -56q49 0 86 17t57.5 46t30 62.5 t9.5 70.5v635q0 80 -44 136.5t-141 56.5q-65 0 -107.5 -30.5t-58.5 -73t-16 -93.5v-635z" />
<glyph unicode="P" horiz-adv-x="1196" d="M164 33v1360q0 30 33 30h389q224 0 355.5 -113.5t131.5 -342.5q0 -237 -127 -347t-356 -110h-105q-34 0 -34 -37v-440q0 -33 -31 -33h-223q-33 0 -33 33zM451 776q0 -33 30 -33h113q87 7 136.5 57t49.5 167q0 114 -59 168.5t-141 54.5h-97q-32 0 -32 -33v-381z" />
<glyph unicode="Q" horiz-adv-x="1230" d="M143 389v631q0 87 27.5 163.5t82 139t147.5 99t214 36.5t214 -34t148.5 -93t83 -133.5t27.5 -161.5v-630q0 -130 -59 -236q0 -32 29 -59l112 -117q15 -18 15 -37t-8 -27l-146 -131q-8 -8 -24 -8q-21 0 -33 12l-131 150q-33 33 -68 33q-11 0 -56 -9.5t-102 -9.5 q-121 0 -214 34t-148.5 93t-83 133.5t-27.5 161.5zM432 393q0 -80 43.5 -136t140.5 -56q49 0 86 17t57.5 46t30 62.5t9.5 70.5v635q0 80 -44 136.5t-141 56.5q-65 0 -107.5 -30.5t-58.5 -73t-16 -93.5v-635z" />
<glyph unicode="R" horiz-adv-x="1210" d="M164 33v1360q0 30 33 30h387q223 0 355 -110t132 -334q0 -256 -149 -379q-10 -10 -13 -27q0 -16 4 -24l189 -500l6 -18q0 -31 -31 -31h-241q-8 0 -17.5 7.5t-13.5 17.5l-162 452q-11 33 -45 33h-111q-36 -2 -36 -37v-440q0 -33 -31 -33h-223q-15 0 -24 9t-9 24zM451 778 q0 -33 34 -33h107q88 7 137 56t49 166q0 113 -59 167t-141 54h-95q-32 0 -32 -33v-377z" />
<glyph unicode="S" horiz-adv-x="1132" d="M102 348q0 27 29 27h229q28 0 31 -31q11 -71 63 -108t121 -37q170 0 170 149q0 73 -59 113l-369 250q-91 63 -143.5 145t-52.5 211q0 182 124.5 286.5t315.5 104.5q215 0 334 -105.5t119 -277.5q0 -26 -31 -26h-219q-16 0 -26.5 10t-10.5 28q0 26 -14.5 56t-54 56 t-95.5 26q-85 0 -124.5 -41t-39.5 -101q0 -38 11 -64t25 -38.5t44 -32.5l361 -248q98 -67 144 -144t46 -200q0 -197 -118 -293t-337 -96q-210 0 -341.5 101.5t-131.5 279.5z" />
<glyph unicode="T" horiz-adv-x="1130" d="M82 1223v170q0 30 33 30h901q33 0 33 -30v-170q0 -33 -33 -33h-277q-30 0 -30 -31v-1126q0 -33 -33 -33h-221q-33 0 -33 33v1126q0 31 -31 31h-276q-33 0 -33 33z" />
<glyph unicode="U" horiz-adv-x="1241" d="M164 360v1033q0 30 31 30h223q33 0 33 -30v-1014q0 -75 42 -126.5t130 -51.5q90 0 129 51t39 127v1014q0 30 32 30h224q30 0 30 -30v-1033q0 -188 -118.5 -290.5t-335.5 -102.5t-338 103t-121 290z" />
<glyph unicode="V" horiz-adv-x="1071" d="M61 1395q0 28 33 28h240q11 0 18.5 -8.5t9.5 -17.5l156 -643q8 -23 29 -23q12 0 20.5 7t10.5 16l129 641q2 9 10.5 18.5t19.5 9.5h242q31 0 31 -24l-330 -1372q-2 -10 -11 -18.5t-20 -8.5h-211q-19 0 -28 27l-347 1355q-2 4 -2 13z" />
<glyph unicode="W" horiz-adv-x="1597" d="M61 1395q0 11 7 19.5t20 8.5h240q24 0 30 -22l127 -563q7 -23 31 -23q22 0 29 23l127 565q6 20 30 20h199q25 0 31 -20l137 -561q7 -23 31 -23t30 25l111 557q3 22 31 22h237q27 0 27 -22v-8l-299 -1362q-6 -31 -31 -31h-178q-25 0 -31 20l-170 740q-4 20 -22 20 q-19 0 -23 -20l-170 -740q-6 -20 -28 -20h-185q-24 0 -30 31z" />
<glyph unicode="X" horiz-adv-x="1097" d="M61 29q0 11 5 18l313 676q4 8 4 18q0 11 -4 19l-313 618q-5 15 -5 17q0 11 8.5 19.5t22.5 8.5h256q23 0 29 -16l151 -293q6 -16 27 -16q19 0 25 16l143 293q10 16 27 16h251q31 0 31 -28q0 -13 -4 -21l-303 -604q-4 -8 -4 -18q0 -9 4 -17l305 -686q6 -15 6 -18 q0 -31 -32 -31h-236q-21 0 -27 16l-151 351q-8 16 -25 16q-22 0 -26 -16l-164 -351q-6 -16 -29 -16h-254q-18 0 -26 14q-5 5 -5 15z" />
<glyph unicode="Y" horiz-adv-x="1087" d="M61 1399q0 24 33 24h242q20 0 26 -16l158 -418q7 -14 25 -14q20 0 26 16l152 416q6 16 29 16h243q19 0 29 -16q0 -2 1 -6.5t1 -7.5q0 -7 -4 -19l-330 -794q-4 -10 -4 -21v-526q0 -33 -31 -33h-223q-33 0 -33 33v526q0 9 -4 19l-329 796q-7 18 -7 25z" />
<glyph unicode="Z" horiz-adv-x="1064" d="M127 33v178q0 8 6 20l459 908q6 15 6 28q0 9 -7.5 16t-19.5 7h-409q-31 0 -31 33v170q0 30 31 30h733q31 0 31 -30v-185q0 -6 -4 -18l-445 -903q-6 -9 -6 -21t9 -21t22 -9h409q31 0 31 -31v-172q0 -33 -31 -33h-751q-33 0 -33 33z" />
<glyph unicode="[" horiz-adv-x="849" d="M164 -459v1850q0 32 33 32h477q33 0 33 -32v-158q0 -33 -33 -33h-213q-31 0 -31 -33v-1403q0 -32 31 -32h213q15 0 24 -9t9 -24v-158q0 -33 -33 -33h-477q-33 0 -33 33z" />
<glyph unicode="\" horiz-adv-x="806" d="M82 1399q0 24 31 24h217q21 0 30 -22l365 -1368q0 -33 -31 -33h-215q-21 0 -35 27l-358 1349q-4 10 -4 23z" />
<glyph unicode="]" horiz-adv-x="849" d="M143 -301q0 33 33 33h211q33 0 33 32v1401q0 33 -31 33h-213q-33 0 -33 35v158q0 32 33 32h477q33 0 33 -32v-1850q0 -33 -33 -33h-477q-33 0 -33 33v158z" />
<glyph unicode="^" horiz-adv-x="1097" d="M102 768q0 10 2 14l281 625q6 18 27 18h274q21 0 27 -18l280 -623q2 -6 2 -14q0 -10 -2 -14q-10 -17 -26 -17h-228q-19 0 -26 17l-133 329q-3 17 -27 17q-21 0 -27 -19l-143 -327q-7 -17 -27 -17h-225q-16 0 -25 15q-4 4 -4 14z" />
<glyph unicode="_" horiz-adv-x="991" d="M102 -178q0 33 33 33h723q31 0 31 -33v-168q0 -33 -31 -33h-725q-31 0 -31 33v168z" />
<glyph unicode="`" horiz-adv-x="524" d="M82 1395q0 8 2 12q5 16 29 16h192q19 0 25 -14l108 -274q4 -12 4 -19q0 -14 -8.5 -22.5t-21.5 -8.5h-119q-16 0 -23 11l-180 276q-8 11 -8 23z" />
<glyph unicode="a" horiz-adv-x="1124" d="M102 254q0 56 12.5 102.5t31.5 79t50.5 59.5t60.5 44t71 31.5t72.5 21.5t74.5 16q13 2 38.5 7t37.5 7.5t33 7t31 8t25 9t22.5 11.5t15.5 13.5t11 17t3 20.5q0 28 -15 46.5t-44.5 27t-60 11.5t-74.5 3q-59 0 -127 -18.5t-107 -47.5q-10 -6 -20 -6q-14 0 -21 12l-82 164 q-4 8 -4 14q0 15 6 21q56 58 164 88.5t217 30.5q457 0 457 -340v-682q0 -33 -33 -33h-143q-31 0 -31 27q0 24 -22 24q-11 0 -29 -12q-43 -32 -96.5 -49t-90 -20t-85.5 -3q-62 0 -121 16t-111.5 48t-84.5 90t-32 133zM399 295q0 -50 36 -76t83 -26q24 0 46.5 4t46.5 16 t41.5 31t28.5 51t11 74v41q0 14 -8.5 24t-21.5 10l-138 -32q-29 -7 -45 -12.5t-38 -18.5t-32 -34t-10 -52z" />
<glyph unicode="b" horiz-adv-x="1169" d="M143 377v1151q0 15 10 24t25 9h223q31 0 31 -33v-479q0 -10 6 -18.5t17 -8.5q2 0 10 4q59 29 139 29q217 0 330 -109t113 -303v-268q0 -184 -121 -297t-330 -113q-223 0 -338 105.5t-115 306.5zM432 403q0 -81 38.5 -130.5t121.5 -49.5t124.5 48.5t41.5 131.5v213 q0 79 -39 130t-121 51t-124 -49.5t-42 -129.5v-215z" />
<glyph unicode="c" horiz-adv-x="1126" d="M123 383v258q0 177 123.5 295.5t328.5 118.5q189 0 309 -90t120 -238q0 -25 -31 -25h-217q-34 0 -43 21q-17 40 -58 58t-82 18q-76 0 -118.5 -47t-42.5 -105v-270q0 -60 41.5 -108t117.5 -48q108 0 142 80q5 12 12 16.5t25 4.5h223q31 0 31 -25q0 -148 -120 -240 t-309 -92q-205 0 -328.5 120t-123.5 298z" />
<glyph unicode="d" horiz-adv-x="1169" d="M123 377v266q0 81 30 154.5t86 131t144 92t195 34.5q69 0 120 -25q8 -4 17 -4q22 0 22 27v475q0 33 31 33h223q15 0 25 -9t10 -24v-1495q0 -15 -9 -24t-24 -9h-139q-31 0 -31 27q0 24 -22 24q-13 0 -23 -8q-38 -29 -100.5 -53.5t-116.5 -24.5q-221 0 -329.5 111.5 t-108.5 300.5zM412 401q0 -80 38.5 -129t120.5 -49q84 0 125 49.5t41 130.5v213q0 80 -39 130.5t-120 50.5q-83 0 -124.5 -51t-41.5 -132v-213z" />
<glyph unicode="e" d="M123 381v264q0 85 30.5 159.5t86.5 130.5t142 88t191 32q211 0 332 -103t121 -303v-104q0 -52 -31.5 -85.5t-81.5 -33.5h-452q-24 0 -36.5 -16t-12.5 -39v-17q0 -55 42 -93t119 -38q99 0 142 70q16 26 43 26h211q35 0 35 -26q0 -149 -119.5 -238.5t-309.5 -89.5 q-120 0 -208.5 30.5t-141 87t-77.5 131t-25 167.5zM414 649q0 -25 13.5 -38t33.5 -13h221q28 0 39.5 14t11.5 43q0 65 -44.5 103.5t-113.5 38.5q-67 0 -114 -44t-47 -104z" />
<glyph unicode="f" horiz-adv-x="741" d="M0 815v172q0 33 31 33h100q33 0 33 31v106q0 206 117 322t319 118h27q32 0 32 -30v-203q0 -33 -32 -33h-13q-83 0 -122 -49.5t-39 -128.5v-102q0 -31 32 -31h142q32 0 32 -31v-174q0 -33 -32 -33h-142q-32 0 -32 -28v-721q0 -33 -31 -33h-227q-31 0 -31 33v721 q0 28 -33 28h-100q-31 0 -31 33z" />
<glyph unicode="g" horiz-adv-x="1124" d="M82 -178q0 15 9 24t24 9h219q16 0 28.5 -7.5t12.5 -23.5q0 -44 47 -66t110 -22q26 0 50 3t52 11.5t45 28t17 47.5q0 25 -10.5 43t-24.5 27t-38 13.5t-40 5.5t-42 1q-363 0 -363 303q0 50 24.5 107t24.5 61q0 9 -12 25q-46 61 -68 118.5t-22 128.5q0 175 114 285.5 t289 110.5q66 0 123 -20.5t106.5 -41t98.5 -20.5q46 0 82.5 16.5t56.5 32.5t27 16q16 0 27 -14q11 -13 43 -76t32 -76q0 -31 -70.5 -68.5t-105.5 -37.5q-24 -8 -24 -25t4 -41t4 -41q0 -177 -112.5 -278.5t-291.5 -101.5q-69 0 -69 -58q0 -51 76 -51q70 0 132.5 -10.5 t120 -36t99 -64t66 -98t24.5 -135.5q0 -78 -25 -138.5t-67 -98.5t-101 -62.5t-122 -34.5t-136 -10q-65 0 -125.5 10.5t-119 36t-102.5 63t-70.5 97t-26.5 133.5zM391 668q0 -63 40 -101.5t97 -38.5t97.5 38.5t40.5 101.5q0 62 -40.5 102.5t-97.5 40.5t-97 -40t-40 -103z" />
<glyph unicode="h" horiz-adv-x="1171" d="M143 33v1497q0 31 33 31h225q31 0 31 -27v-508q4 -20 23 -20q6 0 30 12q77 37 174 37q178 0 273.5 -104.5t95.5 -288.5v-629q0 -15 -9 -24t-24 -9h-223q-14 0 -23.5 10t-9.5 23v604q0 73 -38 117.5t-113 44.5t-115.5 -44t-40.5 -116v-606q0 -15 -9 -24t-24 -9h-223 q-15 0 -24 9t-9 24z" />
<glyph unicode="i" horiz-adv-x="575" d="M119 1333q0 72 49 121t121 49q70 0 119 -49.5t49 -120.5t-48.5 -119.5t-119.5 -48.5q-72 0 -121 48.5t-49 119.5zM143 33v956q0 31 31 31h225q33 0 33 -33v-954q0 -33 -33 -33h-223q-33 0 -33 33z" />
<glyph unicode="j" horiz-adv-x="577" d="M-61 -270q0 17 7.5 24.5t24.5 7.5q99 0 135.5 55.5t36.5 178.5v991q0 33 33 33h221q35 0 35 -33v-1010q0 -115 -23.5 -198.5t-76.5 -145t-142.5 -92t-218.5 -30.5q-32 0 -32 30v189zM119 1333q0 72 49.5 121t120.5 49q70 0 119 -49.5t49 -120.5t-48.5 -119.5 t-119.5 -48.5t-120.5 49t-49.5 119z" />
<glyph unicode="k" horiz-adv-x="1126" d="M143 29v1495q0 13 10.5 25t24.5 12h223q12 0 21.5 -11t9.5 -26v-807q0 -20 11.5 -32.5t31.5 -12.5t39 24l225 303q6 8 18 14.5t19 6.5h256q14 0 23.5 -10t9.5 -21q0 -4 -4 -12l-264 -365q-6 -9 -6 -18q0 -15 6 -27l252 -528q4 -6 4 -19q0 -20 -21 -20h-250q-28 0 -41 27 l-143 315q-14 25 -37 25q-18 0 -37 -23l-86 -111q-6 -12 -6 -24v-178q0 -31 -22 -31h-238q-13 0 -21 9t-8 20z" />
<glyph unicode="l" horiz-adv-x="573" d="M143 33v1497q0 31 31 31h223q33 0 33 -31v-1497q0 -33 -33 -33h-221q-33 0 -33 33z" />
<glyph unicode="m" horiz-adv-x="1671" d="M143 33v956q0 31 33 31h139q33 0 33 -31q0 -9 6.5 -15.5t16.5 -6.5q13 0 39 22q31 26 87 46t113 20q64 0 114 -15t103 -51q23 -14 33 -14q21 0 35 12q43 34 113.5 51t128.5 17q110 0 187.5 -28.5t121 -82.5t63 -121t19.5 -153v-637q0 -15 -9 -24t-24 -9h-223 q-12 0 -22.5 10.5t-10.5 22.5v612q0 65 -29 107.5t-98 42.5q-67 0 -98 -42.5t-31 -103.5v-618q0 -31 -33 -31h-223q-12 0 -22.5 9.5t-10.5 21.5v618q0 62 -30 104t-99 42t-101 -44t-32 -106v-612q0 -15 -9 -24t-24 -9h-223q-15 0 -24 9t-9 24z" />
<glyph unicode="n" horiz-adv-x="1150" d="M143 33v956q0 31 33 31h139q31 0 31 -27q0 -24 23 -24q11 0 30 14q45 33 110 52.5t124 19.5q200 0 287.5 -103.5t87.5 -296.5v-622q0 -15 -9 -24t-24 -9h-223q-14 0 -23.5 10t-9.5 23v614q0 63 -33.5 106.5t-105.5 43.5t-110 -42.5t-38 -103.5v-618q0 -15 -9 -24t-24 -9 h-223q-15 0 -24 9t-9 24z" />
<glyph unicode="o" d="M123 375v268q0 176 119 294t331 118q233 0 343 -112t110 -302v-268q0 -175 -119 -291.5t-332 -116.5q-233 0 -342.5 110t-109.5 300zM412 401q0 -80 38.5 -129t120.5 -49q84 0 125 49.5t41 130.5v213q0 80 -39 130.5t-120 50.5q-83 0 -124.5 -51t-41.5 -132v-213z" />
<glyph unicode="p" horiz-adv-x="1169" d="M143 -459v1446q0 15 9 24t24 9h139q31 0 31 -27q0 -24 23 -24q12 0 22 8q40 31 100 54.5t127 23.5q198 0 313.5 -109t115.5 -289v-282q0 -191 -116 -299.5t-321 -108.5q-77 0 -145 33q-8 4 -10 4q-11 0 -17 -10t-6 -21v-432q0 -33 -31 -33h-223q-15 0 -25 9t-10 24z M432 401q0 -79 39 -128.5t121 -49.5q84 0 125 49.5t41 130.5v213q0 80 -39.5 130.5t-120.5 50.5q-83 0 -124.5 -51t-41.5 -132v-213z" />
<glyph unicode="q" horiz-adv-x="1169" d="M123 379v266q0 182 121.5 296t328.5 114q213 0 333 -102t120 -298v-1114q0 -15 -10 -24t-25 -9h-223q-31 0 -31 33v430q0 23 -22 23q-9 0 -13 -2q-76 -27 -143 -27q-216 0 -326 109.5t-110 304.5zM412 401q0 -80 38.5 -129t120.5 -49q84 0 125 49.5t41 130.5v213 q0 80 -39 130.5t-120 50.5q-83 0 -124.5 -51t-41.5 -132v-213z" />
<glyph unicode="r" horiz-adv-x="815" d="M143 33v956q0 31 33 31h139q31 0 31 -25v-8q0 -18 23 -18q6 0 18 8q75 39 161.5 58.5t153.5 19.5q31 0 31 -33v-215q0 -31 -31 -31h-84q-58 0 -97 -16t-57 -45t-25 -58t-7 -65v-559q0 -33 -33 -33h-223q-33 0 -33 33z" />
<glyph unicode="s" horiz-adv-x="1075" d="M102 295q0 24 31 24h223q18 0 25 -4.5t12 -15.5q17 -40 59.5 -60t82.5 -20q133 0 133 84q0 20 -6 33.5t-23.5 21.5t-28 11t-43 8.5t-45.5 7.5q-34 7 -53 11t-56 13.5t-60 18.5t-56.5 24.5t-55 32.5t-46 42t-38 53.5t-23 66t-9.5 80.5q0 153 110.5 240.5t301.5 87.5 q199 0 315.5 -89.5t116.5 -238.5q0 -25 -31 -25h-217q-28 0 -37 21q-17 40 -61 58t-86 18q-56 0 -89.5 -19.5t-33.5 -58.5q0 -17 5 -29.5t17 -21t22.5 -14.5t31.5 -9.5l33 -5.5t38.5 -4.5t36.5 -3.5q375 -43 375 -328q0 -93 -34.5 -160.5t-95.5 -106t-135.5 -56 t-164.5 -17.5q-202 0 -321.5 90t-119.5 240z" />
<glyph unicode="t" horiz-adv-x="763" d="M20 813v174q0 33 33 33h92q39 0 39 41v211q0 20 23 20h244q22 0 22 -20v-211q0 -41 41 -41h135q15 0 24 -9t9 -24v-170q0 -37 -35 -37h-135q-39 0 -39 -39v-309q0 -111 44 -159t124 -48q31 0 31 -32v-195q0 -31 -33 -31q-211 0 -333 104t-122 320v350q0 39 -41 39h-88 q-35 0 -35 33z" />
<glyph unicode="u" horiz-adv-x="1138" d="M143 344v643q0 15 9 24t24 9h219q13 0 23 -10t10 -23v-614q0 -63 33.5 -106.5t105.5 -43.5q71 0 105.5 42t34.5 104v618q0 33 32 33h224q32 0 32 -33v-956q0 -31 -32 -31h-140q-13 0 -20 4t-8.5 9.5t-1.5 13.5q0 24 -23 24q-12 0 -31 -14q-98 -72 -204 -72 q-182 0 -287 99.5t-105 279.5z" />
<glyph unicode="v" horiz-adv-x="999" d="M61 989q0 31 31 31h227q24 0 27 -16l127 -412q6 -19 29 -19q22 0 28 19l125 412q6 16 29 16h223q31 0 31 -31q0 -4 -4 -14l-313 -957q-6 -18 -27 -18h-193q-23 0 -26 18l-312 957z" />
<glyph unicode="w" horiz-adv-x="1449" d="M61 999q0 21 29 21h221q22 0 29 -23l104 -374q7 -23 29 -23q21 0 31 23l100 376q9 21 31 21h180q22 0 31 -21l104 -393q9 -22 31 -22q25 0 31 22l100 391q3 23 29 23h219q29 0 29 -21q0 -6 -3 -12l-262 -956q-9 -31 -30 -31h-189q-24 0 -31 20l-126 435q-6 14 -23 14 q-20 0 -23 -14l-129 -435q-6 -20 -28 -20h-189q-30 0 -30 31l-263 956q-2 4 -2 12z" />
<glyph unicode="x" horiz-adv-x="1003" d="M61 31q0 7 7 18l264 467q4 6 4 19q0 10 -4 16l-228 420q-8 13 -8 24q0 12 9.5 18.5t23.5 6.5h252q19 0 29 -16l84 -150q8 -14 26 -14q19 0 25 14l73 150q10 16 29 16h260q35 0 35 -23q0 -13 -8 -26l-242 -441q-6 -9 -6 -16q0 -6 6 -18l223 -447q5 -7 5 -18q0 -31 -31 -31 h-238q-18 0 -28 16l-95 179q-6 14 -24 14q-21 0 -27 -12l-96 -181q-10 -16 -29 -16h-258q-18 0 -26 14q-7 7 -7 17z" />
<glyph unicode="y" horiz-adv-x="1001" d="M61 991q0 12 8 20.5t19 8.5h238q16 0 22 -14l127 -416q7 -17 29 -17q20 0 28 19l125 414q6 14 29 14h227q12 0 19.5 -9t7.5 -20q0 -8 -2 -12l-391 -1196q-24 -76 -54 -128t-77.5 -93t-117 -60.5t-165.5 -19.5q-31 0 -31 31v188q0 33 31 33q55 0 92.5 40.5t53.5 102.5 l67 236l-280 862q-5 15 -5 16z" />
<glyph unicode="z" horiz-adv-x="997" d="M102 33v219q0 13 7 20l331 441q11 11 11 26q0 12 -8.5 21.5t-20.5 9.5h-277q-30 0 -30 31v188q0 31 30 31h695q32 0 32 -31v-223q0 -16 -14 -33l-313 -428q-6 -9 -6 -18q0 -14 9.5 -22.5t20.5 -8.5h293q33 0 33 -31v-192q0 -33 -33 -33h-729q-31 0 -31 33z" />
<glyph unicode="{" horiz-adv-x="927" d="M102 379v172q0 33 33 33h121q21 0 28 8.5t7 30.5v702q0 98 98 98h385q31 0 31 -30v-154q0 -33 -31 -33h-186q-31 0 -31 -30v-523q0 -49 -10.5 -84.5t-23.5 -51t-23.5 -31.5t-10.5 -31t10.5 -32t23.5 -33.5t23.5 -52.5t10.5 -83v-500q0 -30 31 -30h186q31 0 31 -33v-152 q0 -31 -31 -31h-383q-100 0 -100 103v704q0 31 -33 31h-123q-33 0 -33 33z" />
<glyph unicode="|" horiz-adv-x="651" d="M186 -461v1854q0 30 31 30h223q33 0 33 -32v-1852q0 -31 -33 -31h-221q-33 0 -33 31z" />
<glyph unicode="}" horiz-adv-x="927" d="M123 -309q0 33 31 33h186q31 0 31 30v500q0 47 10.5 83t23 52.5t23 33.5t10.5 32t-10.5 31t-23 31.5t-23 51t-10.5 84.5v523q0 30 -31 30h-186q-31 0 -31 33v154q0 30 31 30h385q98 0 98 -98v-702q0 -22 7 -30.5t28 -8.5h121q32 0 32 -33v-172q0 -33 -32 -33h-123 q-33 0 -33 -31v-704q0 -103 -100 -103h-383q-31 0 -31 31v152z" />
<glyph unicode="~" horiz-adv-x="1056" d="M82 432q0 108 68.5 192.5t181.5 84.5q54 0 111.5 -23.5t98 -51.5t91.5 -51.5t94 -23.5q48 0 75 20t27 58q3 25 33 25h82q31 0 31 -29q0 -118 -61.5 -196.5t-192.5 -78.5q-47 0 -103.5 24t-100.5 53t-94.5 53t-86.5 24q-47 0 -77 -25.5t-30 -58.5q0 -25 -28 -25h-90 q-29 0 -29 29z" />
<glyph unicode="&#xa1;" horiz-adv-x="532" d="M92 881q0 72 51 123t123 51t123 -51t51 -123q0 -71 -51 -121.5t-123 -50.5t-123 50.5t-51 121.5zM109 -369l41 914q3 33 32 33h162q31 0 31 -33l41 -914q0 -30 -33 -30h-242q-32 0 -32 30z" />
<glyph unicode="&#xa2;" d="M123 377v268q0 180 95 284.5t280 121.5v168q0 32 47 32h57q43 0 43 -32v-168q186 -18 283.5 -126t97.5 -280q0 -31 -31 -31h-227q-31 0 -31 27q0 180 -157 180q-168 0 -168 -196v-228q0 -196 168 -196q157 0 157 180q0 27 31 27h227q31 0 31 -31q0 -172 -97.5 -280 t-283.5 -126v-166q0 -32 -47 -32h-57q-43 0 -43 32v166q-185 17 -280 121t-95 285z" />
<glyph unicode="&#xa3;" horiz-adv-x="1193" d="M61 625v166q0 32 33 32h84q31 0 31 37q0 19 -10.5 75.5t-10.5 76.5q0 203 116 324.5t333 121.5q220 0 338.5 -110t118.5 -299q0 -31 -31 -31h-227q-31 0 -31 26q0 35 -7.5 64.5t-24 57t-50 43.5t-80.5 16q-166 0 -166 -213q0 -35 8.5 -85.5t20.5 -78.5q7 -25 31 -25h231 q31 0 31 -32v-166q0 -33 -31 -33h-147q-18 0 -27 -12q-6 -9 -6 -25q19 -50 22 -109q0 -85 -37 -157q-4 -4 -4 -15q0 -30 31 -30h502q31 0 31 -31v-180q0 -33 -31 -33h-1006q-33 0 -33 33v180q0 31 33 31q15 0 35 3t53.5 16t59.5 34t45.5 63.5t19.5 98.5q0 77 -18 112 q-9 21 -29 21h-168q-33 0 -33 33z" />
<glyph unicode="&#xa4;" horiz-adv-x="1363" d="M123 289q0 10 10 20l152 156q-74 109 -74 252v10q0 143 68 250l-144 147q-10 10 -10 21q0 12 12 24l127 127q13 13 25 13q9 0 22 -13l162 -166q87 35 209 35q119 0 213 -32l160 163q13 13 22 13q12 0 25 -13l127 -127q12 -12 12 -24q0 -11 -10 -21l-141 -145 q65 -98 65 -236v-10q0 -151 -80 -266l154 -158q10 -10 10 -20q0 -13 -12 -25l-127 -127q-12 -12 -25 -12q-10 0 -22 12l-181 185q-93 -27 -188 -27q-102 0 -195 27l-180 -185q-12 -12 -22 -12q-13 0 -25 12l-127 127q-12 12 -12 25zM500 721q0 -80 43.5 -136.5t140.5 -56.5 q65 0 107.5 30.5t58.5 73t16 93.5v14q0 80 -43.5 136.5t-140.5 56.5q-65 0 -107.5 -30.5t-58.5 -73t-16 -93.5v-14z" />
<glyph unicode="&#xa5;" horiz-adv-x="1120" d="M61 1399q0 24 33 24h252q21 0 27 -16l168 -375q7 -14 24 -14q21 0 27 16l162 373q6 16 28 16h254q19 0 29 -16q0 -2 1 -6.5t1 -7.5q0 -7 -4 -19l-215 -436h131q31 0 31 -31v-110q0 -31 -31 -31h-215l-51 -104q-4 -10 -4 -23h270q31 0 31 -31v-110q0 -31 -31 -31h-270 v-434q0 -33 -31 -33h-223q-33 0 -33 33v434h-283q-30 0 -30 31v110q0 31 30 31l283 2q0 8 -4 18l-53 107h-226q-30 0 -30 31v110q0 31 30 31h142l-213 436q-7 18 -7 25z" />
<glyph unicode="&#xa6;" horiz-adv-x="614" d="M164 31v495q0 33 31 33h223q33 0 33 -33v-495q0 -31 -33 -31h-221q-33 0 -33 31zM164 893v496q0 32 31 32h223q33 0 33 -32v-496q0 -31 -33 -31h-221q-33 0 -33 31z" />
<glyph unicode="&#xa7;" horiz-adv-x="1128" d="M102 -145q0 39 37 39h193q35 0 35 -39q0 -22 6.5 -41.5t22.5 -39.5t49.5 -32t80.5 -12q146 0 146 141q0 34 -19 65t-41 48l-379 338q-57 69 -81.5 125t-24.5 145q0 93 41 175t117 130q-64 92 -64 201q0 161 111.5 260.5t277.5 99.5q188 0 293 -91t105 -275q0 -43 -37 -43 h-154q-21 0 -34 11.5t-13 31.5q0 21 -5.5 41.5t-19.5 44t-44.5 38.5t-73.5 15q-64 0 -104 -34.5t-40 -94.5q0 -35 12.5 -64t26 -44t37.5 -36l342 -296q125 -141 125 -312q0 -94 -32.5 -165.5t-104.5 -131.5q63 -83 63 -213q0 -88 -35.5 -158t-96 -113t-136 -65t-160.5 -22 q-111 0 -206 43.5t-155.5 130.5t-60.5 199zM389 596q0 -39 18 -76.5t48 -62.5l266 -226q41 36 41 125q0 94 -51 148l-269 215q-53 -22 -53 -123z" />
<glyph unicode="&#xa8;" horiz-adv-x="804" d="M82 1331q0 53 36.5 90t88.5 37q53 0 90 -37t37 -90q0 -52 -37 -88.5t-90 -36.5t-89 36t-36 89zM471 1331q0 53 36.5 90t88.5 37t89.5 -37t37.5 -90q0 -52 -37 -88.5t-90 -36.5q-52 0 -88.5 36t-36.5 89z" />
<glyph unicode="&#xa9;" horiz-adv-x="1742" d="M102 715q0 154 61.5 292.5t165 237t245 156t296.5 57.5q206 0 383 -98t282 -269.5t105 -375.5q0 -156 -56.5 -293.5t-156 -238t-244 -158.5t-313.5 -58q-166 0 -309.5 58t-244 157.5t-157.5 237.5t-57 295zM354 715q0 -219 148.5 -367.5t367.5 -148.5q220 0 368 144 t148 372q0 216 -149.5 363t-366.5 147q-143 0 -261.5 -66.5t-186.5 -184t-68 -259.5zM530 643v150q0 125 100 208.5t240 83.5q153 0 246.5 -78.5t93.5 -191.5q0 -20 -22 -20h-178q-20 0 -27 20q-6 39 -35.5 63.5t-75.5 24.5q-55 0 -86.5 -34t-31.5 -87v-131q0 -51 31.5 -85 t86.5 -34q47 0 77 22t34 62q3 21 25 21h178q22 0 22 -21q0 -113 -90.5 -188.5t-247.5 -75.5t-248.5 80.5t-91.5 210.5z" />
<glyph unicode="&#xaa;" horiz-adv-x="927" d="M104 926q0 69 25.5 116t72.5 70t97 32t115 9q108 0 108 49q0 45 -88 45q-115 0 -178 -30q-14 -7 -18 -7q-6 0 -19 13l-82 116q-6 6 -6 15q0 13 12 22q61 48 133.5 65t169.5 17q48 0 95 -7t96 -25.5t85.5 -46.5t59.5 -73.5t23 -103.5v-461q0 -20 -21 -20h-147 q-17 4 -21 12q-6 15 -20 15q-6 0 -8 -5q-28 -21 -84.5 -33t-110.5 -12q-129 0 -209 54.5t-80 173.5zM143 311v181q0 32 33 32h559q31 0 31 -32v-181q0 -32 -31 -32h-561q-31 0 -31 32zM365 940q0 -63 75 -63q37 0 60.5 21t31.5 52l2 7q1 7 1 10q0 6 -5.5 14.5t-11.5 9.5 q-18 6 -47 6l-41 -4q-65 -5 -65 -53z" />
<glyph unicode="&#xab;" horiz-adv-x="1359" d="M164 496q0 16 8 28l215 369q15 16 27 16h239q33 0 33 -35q0 -4 -8 -12l-201 -350q-4 -4 -4 -18l4 -15l201 -350q6 -9 6 -23q0 -24 -33 -24h-237q-19 0 -29 16l-211 367q-10 17 -10 31zM635 496q0 16 8 28l215 369q15 16 27 16h239q33 0 33 -35q0 -4 -8 -12l-201 -350 q-4 -4 -4 -18l4 -15l201 -350q6 -9 6 -23q0 -24 -33 -24h-237q-19 0 -29 16l-211 367q-10 17 -10 31z" />
<glyph unicode="&#xac;" horiz-adv-x="1257" d="M164 750v221q0 33 33 33h886q31 0 31 -33v-555q0 -31 -31 -31h-213q-32 0 -32 31v270q0 31 -31 31h-610q-33 0 -33 33z" />
<glyph unicode="&#xad;" horiz-adv-x="827" d="M143 438v168q0 33 33 33h477q31 0 31 -33v-168q0 -32 -31 -32h-479q-31 0 -31 32z" />
<glyph unicode="&#xae;" horiz-adv-x="1200" d="M102 975q0 133 67.5 244.5t182 175t248.5 63.5q133 0 247.5 -64.5t182.5 -176t68 -242.5q0 -208 -139 -347t-359 -139q-219 0 -358.5 139t-139.5 347zM266 975q0 -141 96.5 -238.5t237.5 -97.5t237.5 97.5t96.5 238.5q0 140 -96.5 237t-237.5 97t-237.5 -97t-96.5 -237z M438 770v434q0 10 11 10h172q70 0 114.5 -42.5t44.5 -114.5q0 -87 -45 -119q-4 -4 -4 -10t2 -8l58 -144l2 -6q0 -10 -11 -10h-112q-5 0 -8 8l-41 113q-5 10 -13 10h-28q-13 -3 -13 -12v-109q0 -10 -10 -10h-108q-11 0 -11 10zM567 1001q0 -8 13 -8h18q21 1 33 4.5t21.5 17.5 t9.5 40q0 57 -68 57h-14q-13 0 -13 -10v-101z" />
<glyph unicode="&#xaf;" horiz-adv-x="724" d="M82 856v131q0 33 33 33h497q31 0 31 -33v-131q0 -33 -31 -33h-499q-31 0 -31 33z" />
<glyph unicode="&#xb0;" horiz-adv-x="669" d="M102 1229q0 96 68.5 162.5t165.5 66.5q95 0 163 -67t68 -162q0 -109 -66 -170.5t-165 -61.5q-101 0 -167.5 61.5t-66.5 170.5zM240 1229q0 -39 28.5 -67.5t67.5 -28.5q40 0 68 28t28 68q0 39 -28.5 67.5t-67.5 28.5t-67.5 -28.5t-28.5 -67.5z" />
<glyph unicode="&#xb1;" horiz-adv-x="1271" d="M143 815v213q0 33 33 33h287q31 0 31 31v290q0 33 30 33h224q30 0 30 -33v-290q0 -31 31 -31h2h285q32 0 32 -33v-213q0 -33 -32 -33h-287q-31 0 -31 -30v-291q0 -33 -30 -33h1h-1h-1h-1h-1h-1h-1h-1h-1h-1h-1h-1h-1h-1h-1h-1h-1h-1h-1h-1h-1h-1h-1h-1h-1h-1h-1h-1h-1h-1 h-1h-1h-1h-1h-1h-1h-1h-1h-1h-1h-1h-1h-1h-1h-1h-1h-1h-1h-1h-1h-1h-1h-1h-1h-1h-1h-1h-1h-1h-1h-1h-1h-1h-1h-1h-1h-1h-1h-1h-1h-1h-1h-1h-1h-1h-1h-1h-1h-1h-1h-1h-1h-1h-1h-1h-1h-1h-1h-1h-1h-1h-1h-1h-1h-1h-1h-1h-1h-1h-1h-1h-1h-1h-1h-1h-1h-1h-1h-1h-1h-1h-1h-1h-1 h-1h-1h-1h-1h-1h-1h-1h-1h-1h-1h-1h-1h-1h-1h-1h-1h-1h-1h-1h-1h-1h-1h-1h-1h-1h-1h-1h-1h-1h-1h-1h-1h-1h-1h-1h-1h-1h-1h-1h-1h-1h-1h-1h-1h-1h-1h-1h-1h-1h-1h-1h-1h-1h-1h-1h-1h-1h-1h-1h-1h-1h-1h-1h-1h-1h-1h-1h-1h-1h-1h-1h-1h-1h-1h-1h-1h-1h-1h-1h-1h-1h-1h-1h-1 h-1h-1h-1h-1h-1h-1h-1h-1h-1h-1h-1h-1h-1h-1h-1h-1h-1h-1h-10q-30 0 -30 33v291q0 30 -31 30h-287q-33 0 -33 33zM221 33v203q0 30 33 30h764q33 0 33 -30v-203q0 -33 -31 -33h-766q-33 0 -33 33z" />
<glyph unicode="&#xb2;" horiz-adv-x="737" d="M61 1192q0 120 82.5 193t223.5 73q295 0 295 -250v-22q0 -140 -74 -195l-209 -160q-2 -2 -2 -8q0 -12 12 -12h273q14 0 14 -12v-144q0 -14 -14 -14h-586q-13 0 -13 14v152q0 6 7 20l366 275q27 31 27 82v14q0 42 -25 67t-69 25q-47 0 -73 -30.5t-26 -69.5q0 -14 -16 -14 h-176q-17 0 -17 16z" />
<glyph unicode="&#xb3;" horiz-adv-x="821" d="M102 872q0 17 19 17h180q16 0 16 -15q0 -35 26.5 -59t66.5 -24q45 0 67.5 24t22.5 66v12q0 84 -105 84h-20q-25 0 -25 20v97q0 20 17 20h24q50 0 72 14t22 60v8q0 92 -82 92q-42 0 -65 -23t-23 -59q0 -14 -18 -14h-170q-16 0 -16 16q0 106 77.5 178t208.5 72 q136 0 222 -61t86 -168v-21q0 -44 -13 -76.5t-51 -66.5q-4 -4 -4 -14q0 -9 6 -11q76 -55 76 -155v-27q0 -110 -79.5 -172.5t-219.5 -62.5q-147 0 -232.5 68.5t-85.5 180.5z" />
<glyph unicode="&#xb4;" horiz-adv-x="524" d="M82 1118q0 7 4 19l109 274q6 14 24 14h193q23 0 28 -16q2 -4 2 -12q0 -12 -8 -23l-180 -276q-7 -11 -23 -11h-118q-13 0 -22 8.5t-9 22.5z" />
<glyph unicode="&#xb6;" horiz-adv-x="1292" d="M102 1149q0 113 79.5 193.5t193.5 80.5h721q32 0 32 -32v-1768q0 -33 -30 -33h-224q-32 0 -32 33v1548q0 17 -15 17h-139q-16 0 -16 -17v-1548q0 -33 -31 -33h-223q-15 0 -24 9t-9 24v1251h-12q-112 0 -191.5 81t-79.5 194z" />
<glyph unicode="&#xb7;" horiz-adv-x="602" d="M143 514q0 66 46 112t112 46t112 -46t46 -112t-46 -112t-112 -46t-112 46t-46 112z" />
<glyph unicode="&#xb8;" horiz-adv-x="579" d="M102 -381q0 21 23 21h135q62 0 62 57q0 59 -64 59h-108q-23 0 -23 23l29 153q2 8 2 19t-8 14h155q-11 -3 -14 -18l-8 -51q0 -9 6 -15t14 -6q82 0 128 -47t46 -133q0 -101 -55 -144t-143 -43h-154q-23 0 -23 25v86z" />
<glyph unicode="&#xb9;" horiz-adv-x="669" d="M102 645v133q0 17 19 17h86q16 0 16 16v446q0 17 -16 17h-76q-18 0 -18 18v113q0 18 18 18h295q20 0 20 -18v-592q0 -18 17 -18h86q18 0 18 -17v-133q0 -18 -18 -18h-428q-19 0 -19 18z" />
<glyph unicode="&#xba;" horiz-adv-x="944" d="M123 1044v66q0 158 87.5 253t260.5 95t261.5 -95.5t88.5 -252.5v-66q0 -156 -86.5 -251t-263.5 -95q-90 0 -158.5 27.5t-109 75.5t-60.5 109t-20 134zM164 311v181q0 32 33 32h559q30 0 30 -32v-181q0 -32 -30 -32h-561q-31 0 -31 32zM371 1012q0 -45 27.5 -76t72.5 -31 q50 0 76 29.5t26 77.5v131q0 49 -29.5 76.5t-72.5 27.5q-40 0 -70 -28t-30 -76v-131z" />
<glyph unicode="&#xbb;" horiz-adv-x="1359" d="M164 874q0 35 33 35h239q5 0 12 -4t11 -8l4 -4l215 -369q8 -12 8 -28q0 -14 -10 -31l-211 -367q-10 -16 -29 -16h-237q-33 0 -33 24q0 14 6 23l201 350q4 9 4 15q0 14 -4 18l-201 350q-8 8 -8 12zM635 874q0 35 33 35h239q5 0 12 -4t11 -8l4 -4l215 -369q8 -12 8 -28 q0 -14 -10 -31l-211 -367q-10 -16 -29 -16h-237q-33 0 -33 24q0 14 6 23l201 350q4 9 4 15q0 14 -4 18l-201 350q-8 8 -8 12z" />
<glyph unicode="&#xbc;" horiz-adv-x="1769" d="M102 645v133q0 17 19 17h86q16 0 16 16v446q0 17 -16 17h-76q-18 0 -18 18v113q0 18 18 18h295q20 0 20 -18v-592q0 -18 17 -18h86q18 0 18 -17v-133q0 -18 -18 -18h-428q-19 0 -19 18zM459 80q0 9 6 18l694 1329q17 29 39 29q4 0 16 -4l142 -78q18 -9 18 -37 q0 -14 -4 -20l-684 -1329q-14 -21 -33 -21q-8 0 -12 2l-156 78q-26 13 -26 33zM1024 164v129q0 14 8 22l289 469q4 13 22 13h179q16 0 16 -17v-456q0 -17 18 -17h93q18 0 18 -18v-125q0 -19 -16 -19h-95q-18 0 -18 -18v-109q0 -18 -16 -18h-183q-18 0 -18 18v109 q0 18 -18 18h-261q-18 0 -18 19zM1208 324q0 -17 19 -17h78q16 0 16 19v133q0 6 -5 10t-11 4q-13 0 -17 -12l-76 -123q-4 -8 -4 -14z" />
<glyph unicode="&#xbd;" horiz-adv-x="1867" d="M102 645v133q0 17 19 17h86q16 0 16 16v446q0 17 -16 17h-76q-18 0 -18 18v113q0 18 18 18h295q20 0 20 -18v-592q0 -18 17 -18h86q18 0 18 -17v-133q0 -18 -18 -18h-428q-19 0 -19 18zM459 80q0 9 6 18l694 1329q17 29 39 29q4 0 16 -4l142 -78q18 -9 18 -37 q0 -14 -4 -20l-684 -1329q-14 -21 -33 -21q-8 0 -12 2l-156 78q-26 13 -26 33zM1188 14v152q0 8 6 20l330 275q26 30 26 82v14q0 45 -14 68.5t-55 23.5q-82 0 -82 -100q0 -14 -17 -14h-176q-16 0 -16 16q0 112 71 189t205 77q122 0 202.5 -61t80.5 -168v-84q0 -57 -18 -95.5 t-56 -78.5l-172 -140q-2 -2 -2 -8q0 -12 12 -12h238q14 0 14 -12v-144q0 -14 -14 -14h-551q-12 0 -12 14z" />
<glyph unicode="&#xbe;" horiz-adv-x="1769" d="M102 872q0 17 19 17h180q16 0 16 -15q0 -35 26.5 -59t66.5 -24q45 0 67.5 24t22.5 66v12q0 84 -105 84h-20q-25 0 -25 20v97q0 20 17 20h24q50 0 72 14t22 60v8q0 92 -82 92q-42 0 -65 -23t-23 -59q0 -14 -18 -14h-170q-16 0 -16 16q0 106 77.5 178t208.5 72 q136 0 222 -61t86 -168v-21q0 -44 -13 -76.5t-51 -66.5q-4 -4 -4 -14q0 -9 6 -11q76 -55 76 -155v-27q0 -110 -79.5 -172.5t-219.5 -62.5q-147 0 -232.5 68.5t-85.5 180.5zM479 80q0 9 6 18l695 1329q17 29 39 29q4 0 16 -4l141 -78q19 -10 19 -37q0 -14 -4 -20l-684 -1329 q-14 -21 -33 -21q-8 0 -12 2l-156 78q-27 13 -27 33zM1024 164v129q0 14 8 22l289 469q4 13 22 13h179q16 0 16 -17v-456q0 -17 18 -17h93q18 0 18 -18v-125q0 -19 -16 -19h-95q-18 0 -18 -18v-109q0 -18 -16 -18h-183q-18 0 -18 18v109q0 18 -18 18h-261q-18 0 -18 19z M1208 324q0 -17 19 -17h78q16 0 16 19v133q0 6 -5 10t-11 4q-13 0 -17 -12l-76 -123q-4 -8 -4 -14z" />
<glyph unicode="&#xbf;" horiz-adv-x="1114" d="M102 -18q0 111 42.5 184t115.5 137q40 35 58.5 52.5t45.5 49.5t39.5 66t16.5 74q3 33 31 33h213q30 0 30 -33q0 -37 -5 -70.5t-17.5 -64t-22.5 -51.5t-32 -49.5t-32.5 -41t-37.5 -42t-35 -38.5q-34 -38 -52 -61.5t-35 -62t-17 -76.5q0 -191 159 -191q80 0 119 45.5 t39 91.5q0 18 10.5 28.5t26.5 10.5h219q31 0 31 -26q0 -170 -118.5 -276.5t-322.5 -106.5q-238 0 -353.5 111t-115.5 307zM373 885q0 72 49 121t121 49t121 -49t49 -121q0 -71 -49 -120.5t-121 -49.5t-121 49.5t-49 120.5z" />
<glyph unicode="&#xc0;" horiz-adv-x="1071" d="M61 25q0 10 2 16l312 1350q2 11 12 21.5t29 10.5h239q19 0 29 -10.5t12 -21.5l312 -1352q2 -6 2 -14q0 -25 -25 -25h-248q-12 0 -20 9.5t-10 19.5l-35 172q-6 20 -31 20h-205q-27 0 -33 -22l-41 -172q-9 -27 -34 -27h-238q-12 0 -20.5 8t-8.5 17zM305 1815q0 12 9.5 19 t21.5 7h192q19 0 25 -16l94 -236q4 -16 4 -20q0 -12 -9 -20.5t-21 -8.5h-119q-13 0 -23 10l-166 240q-8 16 -8 25zM463 483q0 -28 24 -28h109q13 0 16.5 6.5t3.5 23.5t-2 23l-41 225q-7 29 -30 29q-24 0 -31 -29l-45 -225q-4 -16 -4 -25z" />
<glyph unicode="&#xc1;" horiz-adv-x="1071" d="M61 25q0 10 2 16l312 1350q2 11 12 21.5t29 10.5h239q19 0 29 -10.5t12 -21.5l312 -1352q2 -6 2 -14q0 -25 -25 -25h-248q-12 0 -20 9.5t-10 19.5l-35 172q-6 20 -31 20h-205q-27 0 -33 -22l-41 -172q-9 -27 -34 -27h-238q-12 0 -20.5 8t-8.5 17zM428 1569q0 4 4 20 l94 236q6 16 25 16h192q12 0 21.5 -7t9.5 -19q0 -9 -8 -25l-166 -240q-10 -10 -22 -10h-119q-12 0 -21.5 8.5t-9.5 20.5zM463 483q0 -28 24 -28h109q13 0 16.5 6.5t3.5 23.5t-2 23l-41 225q-7 29 -30 29q-24 0 -31 -29l-45 -225q-4 -16 -4 -25z" />
<glyph unicode="&#xc2;" horiz-adv-x="1071" d="M61 25q0 10 2 16l312 1350q2 11 12 21.5t29 10.5h239q19 0 29 -10.5t12 -21.5l312 -1352q2 -6 2 -14q0 -25 -25 -25h-248q-12 0 -20 9.5t-10 19.5l-35 172q-6 20 -31 20h-205q-27 0 -33 -22l-41 -172q-9 -27 -34 -27h-238q-12 0 -20.5 8t-8.5 17zM258 1569q0 12 4 20 l154 236q12 16 28 16h181q20 0 30 -16l158 -236q4 -8 4 -20t-9.5 -20.5t-21.5 -8.5h-118q-13 0 -23 10l-90 84q-8 8 -18 8q-11 0 -19 -8l-88 -84q-10 -10 -22 -10h-119q-12 0 -21.5 8.5t-9.5 20.5zM463 483q0 -28 24 -28h109q13 0 16.5 6.5t3.5 23.5t-2 23l-41 225 q-7 29 -30 29q-24 0 -31 -29l-45 -225q-4 -16 -4 -25z" />
<glyph unicode="&#xc3;" horiz-adv-x="1071" d="M61 25q0 10 2 16l312 1350q2 11 12 21.5t29 10.5h239q19 0 29 -10.5t12 -21.5l312 -1352q2 -6 2 -14q0 -25 -25 -25h-248q-12 0 -20 9.5t-10 19.5l-35 172q-6 20 -31 20h-205q-27 0 -33 -22l-41 -172q-9 -27 -34 -27h-238q-12 0 -20.5 8t-8.5 17zM195 1591 q0 106 54.5 170t153.5 64q44 0 91 -21t87 -42t68 -21q22 0 36.5 3.5t26 18t11.5 41.5q0 23 31 23h63q31 0 31 -29q0 -107 -46.5 -172t-142.5 -65q-42 0 -87.5 23.5t-86.5 47t-73 23.5q-86 0 -86 -70q0 -24 -29 -24h-74q-28 0 -28 30zM463 483q0 -28 24 -28h109 q13 0 16.5 6.5t3.5 23.5t-2 23l-41 225q-7 29 -30 29q-24 0 -31 -29l-45 -225q-4 -16 -4 -25z" />
<glyph unicode="&#xc4;" horiz-adv-x="1071" d="M61 25q0 10 2 16l312 1350q2 11 12 21.5t29 10.5h239q19 0 29 -10.5t12 -21.5l312 -1352q2 -6 2 -14q0 -25 -25 -25h-248q-12 0 -20 9.5t-10 19.5l-35 172q-6 20 -31 20h-205q-27 0 -33 -22l-41 -172q-9 -27 -34 -27h-238q-12 0 -20.5 8t-8.5 17zM213 1690q0 53 36.5 90 t88.5 37t89.5 -37.5t37.5 -89.5t-37 -88.5t-90 -36.5q-52 0 -88.5 36.5t-36.5 88.5zM463 483q0 -28 24 -28h109q13 0 16.5 6.5t3.5 23.5t-2 23l-41 225q-7 29 -30 29q-24 0 -31 -29l-45 -225q-4 -16 -4 -25zM602 1690q0 53 36.5 90t88.5 37q53 0 90 -37.5t37 -89.5 t-37 -88.5t-90 -36.5t-89 36.5t-36 88.5z" />
<glyph unicode="&#xc5;" horiz-adv-x="1071" d="M61 25q0 10 2 16l310 1339q-47 53 -47 136q0 89 63 152t152 63t153 -63t64 -152q0 -88 -58 -146l308 -1331q2 -6 2 -14q0 -25 -25 -25h-248q-12 0 -20 9.5t-10 19.5l-35 172q-6 20 -31 20h-205q-27 0 -33 -22l-41 -172q-9 -27 -34 -27h-238q-12 0 -20.5 8t-8.5 17z M451 1516q0 -37 26 -64t64 -27q42 0 66 26t24 65q0 37 -26.5 63.5t-63.5 26.5t-63.5 -26.5t-26.5 -63.5zM463 483q0 -28 24 -28h109q13 0 16.5 6.5t3.5 23.5t-2 23l-41 225q-7 29 -30 29q-24 0 -31 -29l-45 -225q-4 -16 -4 -25z" />
<glyph unicode="&#xc6;" horiz-adv-x="1439" d="M61 31q0 8 2 12l467 1364q6 16 27 16h727q33 0 33 -30v-168q0 -35 -33 -35h-358q-31 0 -31 -31v-305q0 -29 31 -29h305q31 0 31 -30v-172q0 -31 -31 -31h-305q-31 0 -31 -31v-293q0 -32 31 -32h358q33 0 33 -31v-172q0 -33 -33 -33h-643q-33 0 -33 33v223q0 31 -28 31 h-117q-21 0 -27 -19l-82 -252q-10 -16 -28 -16h-234q-31 0 -31 31zM502 578q0 -13 7.5 -23t20.5 -10h48q30 0 30 33v143q0 31 -28 31q-23 0 -29 -21l-45 -137q-4 -8 -4 -16z" />
<glyph unicode="&#xc7;" horiz-adv-x="1222" d="M143 399v625q0 87 28.5 164t84 138t148 96.5t210.5 35.5q209 0 337 -106t128 -277q0 -26 -30 -26h-226q-25 0 -28 26q-8 66 -53.5 108t-125.5 42q-92 0 -139 -56.5t-47 -140.5v-633q0 -83 47 -139.5t139 -56.5q81 0 126 41.5t53 107.5q3 27 28 27h226q30 0 30 -27 q0 -154 -105.5 -256.5t-281.5 -122.5q-5 -2 -8 -12q0 -1 -5 -29t-5 -30q0 -9 6 -15t14 -6q82 0 129 -47t47 -133q0 -94 -56.5 -140t-141.5 -46h-154q-22 0 -22 24v86q0 21 22 21h135q12 0 24.5 3.5t25 17.5t12.5 36q0 32 -21 45.5t-45 13.5h-106q-23 0 -23 19l29 162 q2 8 2 18q0 8 -4 12q-101 10 -180 48.5t-127 97.5t-72.5 131t-24.5 153z" />
<glyph unicode="&#xc8;" horiz-adv-x="1015" d="M164 33v1360q0 30 33 30h643q32 0 32 -30v-170q0 -33 -32 -33h-359q-30 0 -30 -31v-305q0 -14 9.5 -21.5t18.5 -7.5h307q31 0 31 -32v-170q0 -31 -31 -31h-305q-30 0 -30 -31v-295q0 -30 30 -30h359q32 0 32 -31v-172q0 -33 -32 -33h-643q-33 0 -33 33zM272 1815 q0 12 9.5 19t21.5 7h193q18 0 24 -16l94 -236q4 -16 4 -20q0 -12 -9 -20.5t-21 -8.5h-119q-13 0 -23 10l-165 240q-9 18 -9 25z" />
<glyph unicode="&#xc9;" horiz-adv-x="1015" d="M164 33v1360q0 30 33 30h643q32 0 32 -30v-170q0 -33 -32 -33h-359q-30 0 -30 -31v-305q0 -14 9.5 -21.5t18.5 -7.5h307q31 0 31 -32v-170q0 -31 -31 -31h-305q-30 0 -30 -31v-295q0 -30 30 -30h359q32 0 32 -31v-172q0 -33 -32 -33h-643q-33 0 -33 33zM430 1569 q0 4 4 20l94 236q6 16 25 16h192q12 0 21.5 -7t9.5 -19q0 -9 -8 -25l-166 -240q-10 -10 -22 -10h-119q-12 0 -21.5 8.5t-9.5 20.5z" />
<glyph unicode="&#xca;" horiz-adv-x="1015" d="M164 33v1360q0 30 33 30h643q32 0 32 -30v-170q0 -33 -32 -33h-359q-30 0 -30 -31v-305q0 -14 9.5 -21.5t18.5 -7.5h307q31 0 31 -32v-170q0 -31 -31 -31h-305q-30 0 -30 -31v-295q0 -30 30 -30h359q32 0 32 -31v-172q0 -33 -32 -33h-643q-33 0 -33 33zM264 1569 q0 12 4 20l133 236q12 16 29 16h180q21 0 31 -16l137 -236q4 -8 4 -20t-9 -20.5t-21 -8.5h-119q-13 0 -23 10l-69 88q-9 9 -19 9q-9 0 -18 -9l-68 -88q-10 -10 -22 -10h-119q-12 0 -21.5 8.5t-9.5 20.5z" />
<glyph unicode="&#xcb;" horiz-adv-x="1015" d="M164 33v1360q0 30 33 30h643q32 0 32 -30v-170q0 -33 -32 -33h-359q-30 0 -30 -31v-305q0 -14 9.5 -21.5t18.5 -7.5h307q31 0 31 -32v-170q0 -31 -31 -31h-305q-30 0 -30 -31v-295q0 -30 30 -30h359q32 0 32 -31v-172q0 -33 -32 -33h-643q-33 0 -33 33zM203 1688 q0 53 36.5 90t88.5 37t89.5 -37.5t37.5 -89.5t-37 -88.5t-90 -36.5q-52 0 -88.5 36.5t-36.5 88.5zM592 1688q0 53 36.5 90t88.5 37q53 0 90 -37.5t37 -89.5t-37 -88.5t-90 -36.5t-89 36.5t-36 88.5z" />
<glyph unicode="&#xcc;" horiz-adv-x="614" d="M94 1815q0 12 9.5 19t21.5 7h192q19 0 25 -16l94 -236q4 -16 4 -20q0 -12 -9 -20.5t-21 -8.5h-119q-13 0 -23 10l-166 240q-8 16 -8 25zM164 33v1360q0 30 31 30h223q33 0 33 -30v-1360q0 -33 -33 -33h-221q-33 0 -33 33z" />
<glyph unicode="&#xcd;" horiz-adv-x="614" d="M164 33v1360q0 30 31 30h223q33 0 33 -30v-1360q0 -33 -33 -33h-221q-33 0 -33 33zM170 1569q0 4 4 20l94 236q6 16 25 16h192q12 0 21.5 -7t9.5 -19q0 -9 -8 -25l-166 -240q-10 -10 -23 -10h-118q-12 0 -21.5 8.5t-9.5 20.5z" />
<glyph unicode="&#xce;" horiz-adv-x="614" d="M45 1569q0 12 4 20l133 236q12 16 29 16h180q21 0 31 -16l137 -236q4 -8 4 -20t-9.5 -20.5t-21.5 -8.5h-118q-13 0 -23 10l-69 88q-9 9 -19 9q-9 0 -18 -9l-68 -88q-10 -10 -22 -10h-119q-12 0 -21.5 8.5t-9.5 20.5zM164 33v1360q0 30 31 30h223q33 0 33 -30v-1360 q0 -33 -33 -33h-221q-33 0 -33 33z" />
<glyph unicode="&#xcf;" horiz-adv-x="614" d="M-23 1688q0 53 36.5 90t88.5 37t89.5 -37.5t37.5 -89.5t-37 -88.5t-90 -36.5q-52 0 -88.5 36.5t-36.5 88.5zM164 33v1360q0 30 31 30h223q33 0 33 -30v-1360q0 -33 -33 -33h-221q-33 0 -33 33zM367 1688q0 53 36.5 90t88.5 37t89 -37t37 -90q0 -52 -36.5 -88.5 t-89.5 -36.5q-52 0 -88.5 36.5t-36.5 88.5z" />
<glyph unicode="&#xd0;" horiz-adv-x="1245" d="M41 637v139q0 33 33 33h90v584q0 30 33 30h465q100 0 177 -19.5t126 -53t80.5 -82.5t44 -104t12.5 -122v-645q0 -100 -22.5 -171.5t-73.5 -123t-136.5 -77t-207.5 -25.5h-465q-15 0 -24 9t-9 24v571h-92q-31 0 -31 33zM451 266q0 -33 30 -33h168q77 0 118.5 41.5 t41.5 122.5v629q0 76 -39.5 120t-110.5 44h-178q-30 0 -30 -33v-348h141q31 0 31 -33v-139q0 -33 -31 -33h-141v-338z" />
<glyph unicode="&#xd1;" horiz-adv-x="1241" d="M164 33v1360q0 30 31 30h206q20 0 29 -20l322 -619q7 -18 28 -18q31 0 31 31v596q0 30 31 30h202q33 0 33 -30v-1362q0 -31 -33 -31h-190q-20 0 -29 20l-338 637q-9 17 -26 17q-31 0 -31 -31v-610q0 -33 -31 -33h-202q-33 0 -33 33zM270 1591q0 105 55 169.5t154 64.5 q44 0 91 -21t87 -42t68 -21q22 0 36.5 3.5t26 18t11.5 41.5q0 23 30 23h64q31 0 31 -29q0 -107 -46.5 -172t-142.5 -65q-42 0 -87.5 23.5t-87 47t-73.5 23.5q-86 0 -86 -70q0 -14 -6.5 -19t-21.5 -5h-74q-29 0 -29 30z" />
<glyph unicode="&#xd2;" horiz-adv-x="1230" d="M143 389v631q0 87 27.5 163.5t82 139t147.5 99t214 36.5t214 -34t148.5 -93t83 -133.5t27.5 -161.5v-630q0 -87 -27.5 -164t-82 -139.5t-147.5 -99t-214 -36.5t-214 34t-148.5 93t-83 133.5t-27.5 161.5zM358 1815q0 12 9.5 19t21.5 7h193q18 0 24 -16l94 -236l5 -20 q0 -12 -9.5 -20.5t-21.5 -8.5h-119q-13 0 -23 10l-165 240q-9 18 -9 25zM432 393q0 -80 43.5 -136t140.5 -56q49 0 86 17t57.5 46t30 62.5t9.5 70.5v635q0 80 -44 136.5t-141 56.5q-65 0 -107.5 -30.5t-58.5 -73t-16 -93.5v-635z" />
<glyph unicode="&#xd3;" horiz-adv-x="1230" d="M143 389v631q0 87 27.5 163.5t82 139t147.5 99t214 36.5t214 -34t148.5 -93t83 -133.5t27.5 -161.5v-630q0 -87 -27.5 -164t-82 -139.5t-147.5 -99t-214 -36.5t-214 34t-148.5 93t-83 133.5t-27.5 161.5zM432 393q0 -80 43.5 -136t140.5 -56q49 0 86 17t57.5 46t30 62.5 t9.5 70.5v635q0 80 -44 136.5t-141 56.5q-65 0 -107.5 -30.5t-58.5 -73t-16 -93.5v-635zM512 1569q0 4 4 20l94 236q6 16 25 16h192q12 0 21.5 -7t9.5 -19q0 -9 -8 -25l-166 -240q-10 -10 -22 -10h-119q-12 0 -21.5 8.5t-9.5 20.5z" />
<glyph unicode="&#xd4;" horiz-adv-x="1230" d="M143 389v631q0 87 27.5 163.5t82 139t147.5 99t214 36.5t214 -34t148.5 -93t83 -133.5t27.5 -161.5v-630q0 -87 -27.5 -164t-82 -139.5t-147.5 -99t-214 -36.5t-214 34t-148.5 93t-83 133.5t-27.5 161.5zM332 1569q0 12 4 20l153 236q12 16 29 16h180q21 0 31 -16 l158 -236q4 -8 4 -20t-9.5 -20.5t-21.5 -8.5h-119q-12 0 -22 10l-90 84q-8 8 -19 8q-10 0 -18 -8l-88 -84q-10 -10 -23 -10h-119q-12 0 -21 8.5t-9 20.5zM432 393q0 -80 43.5 -136t140.5 -56q49 0 86 17t57.5 46t30 62.5t9.5 70.5v635q0 80 -44 136.5t-141 56.5 q-65 0 -107.5 -30.5t-58.5 -73t-16 -93.5v-635z" />
<glyph unicode="&#xd5;" horiz-adv-x="1230" d="M143 389v631q0 87 27.5 163.5t82 139t147.5 99t214 36.5t214 -34t148.5 -93t83 -133.5t27.5 -161.5v-630q0 -87 -27.5 -164t-82 -139.5t-147.5 -99t-214 -36.5t-214 34t-148.5 93t-83 133.5t-27.5 161.5zM293 1591q0 105 55 169.5t154 64.5q44 0 91 -21t87 -42t68 -21 q34 0 53.5 12t19.5 51q0 23 31 23h63q31 0 31 -29q0 -107 -46 -172t-142 -65q-42 0 -87.5 23.5t-87 47t-73.5 23.5q-86 0 -86 -70q0 -24 -29 -24h-73q-29 0 -29 30zM432 393q0 -80 43.5 -136t140.5 -56q49 0 86 17t57.5 46t30 62.5t9.5 70.5v635q0 80 -44 136.5t-141 56.5 q-65 0 -107.5 -30.5t-58.5 -73t-16 -93.5v-635z" />
<glyph unicode="&#xd6;" horiz-adv-x="1230" d="M143 389v631q0 87 27.5 163.5t82 139t147.5 99t214 36.5t214 -34t148.5 -93t83 -133.5t27.5 -161.5v-630q0 -87 -27.5 -164t-82 -139.5t-147.5 -99t-214 -36.5t-214 34t-148.5 93t-83 133.5t-27.5 161.5zM293 1688q0 53 36.5 90t88.5 37t89.5 -37.5t37.5 -89.5t-37 -88.5 t-90 -36.5q-52 0 -88.5 36.5t-36.5 88.5zM432 393q0 -80 43.5 -136t140.5 -56q49 0 86 17t57.5 46t30 62.5t9.5 70.5v635q0 80 -44 136.5t-141 56.5q-65 0 -107.5 -30.5t-58.5 -73t-16 -93.5v-635zM682 1688q0 53 36.5 90t88.5 37q53 0 90 -37.5t37 -89.5t-37 -88.5 t-90 -36.5t-89 36.5t-36 88.5z" />
<glyph unicode="&#xd7;" horiz-adv-x="1232" d="M143 989q0 12 11 23l157 157q11 11 23 11q7 0 22 -11l234 -233q12 -12 24 -12q11 0 21 10l231 231q10 13 23 13q9 0 22 -13l152 -149q10 -13 10 -25q0 -9 -10 -22l-232 -230q-12 -9 -12 -22q0 -11 12 -23l248 -248q11 -15 11 -22q0 -12 -11 -23l-157 -157 q-11 -11 -23 -11q-14 0 -22 11l-248 248q-13 10 -23 10t-20 -10l-232 -232q-10 -10 -24 -10q-13 0 -23 10l-151 152q-11 11 -11 22q0 10 13 23l231 231q10 10 10 23q0 10 -12 22l-233 234q-11 11 -11 22z" />
<glyph unicode="&#xd8;" horiz-adv-x="1230" d="M143 389v631q0 87 27.5 163.5t82 139t147.5 99t214 36.5q59 0 121 -10l29 121q6 24 29 24l51 -10q24 -6 24 -24q0 -9 -2 -15l-30 -123q126 -49 188.5 -151.5t62.5 -233.5v-630q0 -87 -27.5 -164t-82 -139.5t-147.5 -99t-214 -36.5q-60 0 -122 10l-31 -131q-3 -20 -25 -20 l-69 12q-19 6 -19 25l35 143q-121 50 -181.5 152t-60.5 231zM432 393q0 -55 21 -102l225 926q-36 8 -64 8q-65 0 -107.5 -30.5t-58.5 -73t-16 -93.5v-635zM549 209q24 -8 67 -8q49 0 86 17t57.5 46t30 62.5t9.5 70.5v635q0 62 -29 113z" />
<glyph unicode="&#xd9;" horiz-adv-x="1241" d="M164 360v1033q0 30 31 30h223q33 0 33 -30v-1014q0 -75 42 -126.5t130 -51.5q90 0 129 51t39 127v1014q0 30 32 30h224q30 0 30 -30v-1033q0 -188 -118.5 -290.5t-335.5 -102.5t-338 103t-121 290zM379 1815q0 12 9.5 19t21.5 7h192q19 0 25 -16l94 -236q4 -16 4 -20 q0 -12 -9.5 -20.5t-21.5 -8.5h-119q-12 0 -22 10l-166 240q-8 16 -8 25z" />
<glyph unicode="&#xda;" horiz-adv-x="1241" d="M164 360v1033q0 30 31 30h223q33 0 33 -30v-1014q0 -75 42 -126.5t130 -51.5q90 0 129 51t39 127v1014q0 30 32 30h224q30 0 30 -30v-1033q0 -188 -118.5 -290.5t-335.5 -102.5t-338 103t-121 290zM526 1569q0 4 4 20l95 236q6 16 24 16h193q12 0 21 -6.5t9 -19.5 q0 -9 -8 -25l-166 -240q-10 -10 -22 -10h-119q-12 0 -21.5 8.5t-9.5 20.5z" />
<glyph unicode="&#xdb;" horiz-adv-x="1241" d="M164 360v1033q0 30 31 30h223q33 0 33 -30v-1014q0 -75 42 -126.5t130 -51.5q90 0 129 51t39 127v1014q0 30 32 30h224q30 0 30 -30v-1033q0 -188 -118.5 -290.5t-335.5 -102.5t-338 103t-121 290zM362 1569q0 10 5 20l133 236q12 16 28 16h181q20 0 30 -16l138 -236 q4 -8 4 -20t-9.5 -20.5t-21.5 -8.5h-119q-12 0 -22 10l-70 88q-9 9 -18 9q-10 0 -19 -9l-67 -88q-10 -10 -23 -10h-119q-12 0 -21.5 8.5t-9.5 20.5z" />
<glyph unicode="&#xdc;" horiz-adv-x="1241" d="M164 360v1033q0 30 31 30h223q33 0 33 -30v-1014q0 -75 42 -126.5t130 -51.5q90 0 129 51t39 127v1014q0 30 32 30h224q30 0 30 -30v-1033q0 -188 -118.5 -290.5t-335.5 -102.5t-338 103t-121 290zM297 1688q0 53 36.5 90t88.5 37t89.5 -37.5t37.5 -89.5t-37 -88.5 t-90 -36.5q-52 0 -88.5 36.5t-36.5 88.5zM686 1688q0 53 36.5 90t88.5 37q53 0 90 -37.5t37 -89.5t-37 -88.5t-90 -36.5t-89 36.5t-36 88.5z" />
<glyph unicode="&#xdd;" horiz-adv-x="1087" d="M61 1399q0 24 33 24h242q20 0 26 -16l158 -418q7 -14 25 -14q20 0 26 16l152 416q6 16 29 16h243q19 0 29 -16q0 -2 1 -6.5t1 -7.5q0 -7 -4 -19l-330 -794q-4 -10 -4 -21v-526q0 -33 -31 -33h-223q-33 0 -33 33v526q0 9 -4 19l-329 796q-7 18 -7 25zM440 1569q0 4 4 20 l95 236q6 16 24 16h193q12 0 21 -6.5t9 -19.5q0 -9 -8 -25l-166 -240q-10 -10 -22 -10h-119q-12 0 -21.5 8.5t-9.5 20.5z" />
<glyph unicode="&#xde;" horiz-adv-x="1196" d="M164 33v1360q0 30 33 30h223q31 0 31 -30v-174q0 -18 9.5 -28.5t26.5 -10.5h99q224 0 355.5 -114t131.5 -343q0 -237 -127 -347t-356 -110h-105q-16 0 -25 -12.5t-9 -28.5v-192q0 -33 -31 -33h-223q-33 0 -33 33zM451 532q0 -32 30 -32h113q88 7 137 56.5t49 166.5 q0 114 -59 168.5t-141 54.5h-97q-32 0 -32 -33v-381z" />
<glyph unicode="&#xdf;" horiz-adv-x="1140" d="M143 33v1116q0 81 24 151.5t74.5 130.5t139 95t205.5 35q209 0 319.5 -96.5t110.5 -254.5q0 -53 -21 -106t-46.5 -88t-46.5 -74.5t-21 -69.5q0 -40 16 -76t39.5 -70.5t46.5 -75.5t39 -109t16 -154v-31q0 -175 -100.5 -265.5t-284.5 -90.5h-73q-33 0 -33 33v168 q0 32 33 32h20q66 0 109 36.5t43 113.5v16q0 27 -16.5 58t-40 65.5t-47 76.5t-40 105.5t-16.5 137.5q0 52 22.5 102t49 83t49 76t22.5 83q0 61 -36 101t-113 40q-71 0 -112.5 -42.5t-41.5 -135.5v-1116q0 -33 -33 -33h-223q-33 0 -33 33z" />
<glyph unicode="&#xe0;" horiz-adv-x="1124" d="M102 254q0 56 12.5 102.5t31.5 79t50.5 59.5t60.5 44t71 31.5t72.5 21.5t74.5 16q13 2 38.5 7t37.5 7.5t33 7t31 8t25 9t22.5 11.5t15.5 13.5t11 17t3 20.5q0 28 -15 46.5t-44.5 27t-60 11.5t-74.5 3q-59 0 -127 -18.5t-107 -47.5q-10 -6 -20 -6q-14 0 -21 12l-82 164 q-4 8 -4 14q0 15 6 21q56 58 164 88.5t217 30.5q457 0 457 -340v-682q0 -33 -33 -33h-143q-31 0 -31 27q0 24 -22 24q-11 0 -29 -12q-43 -32 -96.5 -49t-90 -20t-85.5 -3q-62 0 -121 16t-111.5 48t-84.5 90t-32 133zM309 1485q0 8 2 12q5 16 29 16h192q19 0 25 -14l109 -274 q4 -12 4 -19q0 -13 -8.5 -21.5t-22.5 -8.5h-119q-15 0 -22 10l-181 276q-8 11 -8 23zM399 295q0 -50 36 -76t83 -26q24 0 46.5 4t46.5 16t41.5 31t28.5 51t11 74v41q0 14 -8.5 24t-21.5 10l-138 -32q-29 -7 -45 -12.5t-38 -18.5t-32 -34t-10 -52z" />
<glyph unicode="&#xe1;" horiz-adv-x="1124" d="M102 254q0 56 12.5 102.5t31.5 79t50.5 59.5t60.5 44t71 31.5t72.5 21.5t74.5 16q13 2 38.5 7t37.5 7.5t33 7t31 8t25 9t22.5 11.5t15.5 13.5t11 17t3 20.5q0 28 -15 46.5t-44.5 27t-60 11.5t-74.5 3q-59 0 -127 -18.5t-107 -47.5q-10 -6 -20 -6q-14 0 -21 12l-82 164 q-4 8 -4 14q0 15 6 21q56 58 164 88.5t217 30.5q457 0 457 -340v-682q0 -33 -33 -33h-143q-31 0 -31 27q0 24 -22 24q-11 0 -29 -12q-43 -32 -96.5 -49t-90 -20t-85.5 -3q-62 0 -121 16t-111.5 48t-84.5 90t-32 133zM399 295q0 -50 36 -76t83 -26q24 0 46.5 4t46.5 16 t41.5 31t28.5 51t11 74v41q0 14 -8.5 24t-21.5 10l-138 -32q-29 -7 -45 -12.5t-38 -18.5t-32 -34t-10 -52zM453 1206q0 7 4 19l108 274q6 14 25 14h192q24 0 29 -16q2 -4 2 -12q0 -12 -8 -23l-180 -276q-7 -10 -23 -10h-119q-13 0 -21.5 8t-8.5 22z" />
<glyph unicode="&#xe2;" horiz-adv-x="1124" d="M102 254q0 56 12.5 102.5t31.5 79t50.5 59.5t60.5 44t71 31.5t72.5 21.5t74.5 16q13 2 38.5 7t37.5 7.5t33 7t31 8t25 9t22.5 11.5t15.5 13.5t11 17t3 20.5q0 28 -15 46.5t-44.5 27t-60 11.5t-74.5 3q-59 0 -127 -18.5t-107 -47.5q-10 -6 -20 -6q-14 0 -21 12l-82 164 q-4 8 -4 14q0 15 6 21q56 58 164 88.5t217 30.5q457 0 457 -340v-682q0 -33 -33 -33h-143q-31 0 -31 27q0 24 -22 24q-11 0 -29 -12q-43 -32 -96.5 -49t-90 -20t-85.5 -3q-62 0 -121 16t-111.5 48t-84.5 90t-32 133zM246 1196q0 9 6 18l166 275q11 14 24 14h193q18 0 24 -14 l172 -277q5 -5 5 -14q0 -33 -31 -33h-113q-19 0 -35 21l-96 123q-8 8 -20 8q-13 0 -21 -8l-94 -123q-17 -21 -41 -21h-109q-30 0 -30 31zM399 295q0 -50 36 -76t83 -26q24 0 46.5 4t46.5 16t41.5 31t28.5 51t11 74v41q0 14 -8.5 24t-21.5 10l-138 -32q-29 -7 -45 -12.5 t-38 -18.5t-32 -34t-10 -52z" />
<glyph unicode="&#xe3;" horiz-adv-x="1124" d="M102 254q0 56 12.5 102.5t31.5 79t50.5 59.5t60.5 44t71 31.5t72.5 21.5t74.5 16q13 2 38.5 7t37.5 7.5t33 7t31 8t25 9t22.5 11.5t15.5 13.5t11 17t3 20.5q0 28 -15 46.5t-44.5 27t-60 11.5t-74.5 3q-59 0 -127 -18.5t-107 -47.5q-10 -6 -20 -6q-14 0 -21 12l-82 164 q-4 8 -4 14q0 15 6 21q56 58 164 88.5t217 30.5q457 0 457 -340v-682q0 -33 -33 -33h-143q-31 0 -31 27q0 24 -22 24q-11 0 -29 -12q-43 -32 -96.5 -49t-90 -20t-85.5 -3q-62 0 -121 16t-111.5 48t-84.5 90t-32 133zM233 1241q0 106 55 171t154 65q44 0 91 -21t87 -42 t68 -21q22 0 36.5 3.5t26 18t11.5 41.5q0 23 31 23h63q31 0 31 -29q0 -107 -46.5 -172.5t-142.5 -65.5q-42 0 -87.5 24t-86.5 47.5t-73 23.5q-86 0 -86 -72q0 -25 -29 -25h-74q-29 0 -29 31zM399 295q0 -50 36 -76t83 -26q24 0 46.5 4t46.5 16t41.5 31t28.5 51t11 74v41 q0 14 -8.5 24t-21.5 10l-138 -32q-29 -7 -45 -12.5t-38 -18.5t-32 -34t-10 -52z" />
<glyph unicode="&#xe4;" horiz-adv-x="1124" d="M102 254q0 56 12.5 102.5t31.5 79t50.5 59.5t60.5 44t71 31.5t72.5 21.5t74.5 16q13 2 38.5 7t37.5 7.5t33 7t31 8t25 9t22.5 11.5t15.5 13.5t11 17t3 20.5q0 28 -15 46.5t-44.5 27t-60 11.5t-74.5 3q-59 0 -127 -18.5t-107 -47.5q-10 -6 -20 -6q-14 0 -21 12l-82 164 q-4 8 -4 14q0 15 6 21q56 58 164 88.5t217 30.5q457 0 457 -340v-682q0 -33 -33 -33h-143q-31 0 -31 27q0 24 -22 24q-11 0 -29 -12q-43 -32 -96.5 -49t-90 -20t-85.5 -3q-62 0 -121 16t-111.5 48t-84.5 90t-32 133zM227 1348q0 53 36.5 90t88.5 37t89.5 -37.5t37.5 -89.5 t-37 -88.5t-90 -36.5q-52 0 -88.5 36.5t-36.5 88.5zM399 295q0 -50 36 -76t83 -26q24 0 46.5 4t46.5 16t41.5 31t28.5 51t11 74v41q0 14 -8.5 24t-21.5 10l-138 -32q-29 -7 -45 -12.5t-38 -18.5t-32 -34t-10 -52zM616 1348q0 53 36.5 90t88.5 37q53 0 90 -37.5t37 -89.5 t-37 -88.5t-90 -36.5t-89 36.5t-36 88.5z" />
<glyph unicode="&#xe5;" horiz-adv-x="1124" d="M102 254q0 56 12.5 102.5t31.5 79t50.5 59.5t60.5 44t71 31.5t72.5 21.5t74.5 16q13 2 38.5 7t37.5 7.5t33 7t31 8t25 9t22.5 11.5t15.5 13.5t11 17t3 20.5q0 28 -15 46.5t-44.5 27t-60 11.5t-74.5 3q-59 0 -127 -18.5t-107 -47.5q-10 -6 -20 -6q-14 0 -21 12l-82 164 q-4 8 -4 14q0 15 6 21q56 58 164 88.5t217 30.5q457 0 457 -340v-682q0 -33 -33 -33h-143q-31 0 -31 27q0 24 -22 24q-11 0 -29 -12q-43 -32 -96.5 -49t-90 -20t-85.5 -3q-62 0 -121 16t-111.5 48t-84.5 90t-32 133zM338 1370q0 89 63 152t152 63t153 -63t64 -152 q0 -91 -63 -154t-154 -63t-153 63t-62 154zM399 295q0 -50 36 -76t83 -26q24 0 46.5 4t46.5 16t41.5 31t28.5 51t11 74v41q0 14 -8.5 24t-21.5 10l-138 -32q-29 -7 -45 -12.5t-38 -18.5t-32 -34t-10 -52zM463 1370q0 -37 26 -63.5t64 -26.5q42 0 66 25.5t24 64.5 q0 37 -26.5 63.5t-63.5 26.5t-63.5 -26.5t-26.5 -63.5z" />
<glyph unicode="&#xe6;" horiz-adv-x="1697" d="M102 254q0 56 12.5 102.5t31.5 79t50.5 59.5t60.5 44t71 31.5t72.5 21.5t74.5 16q14 3 38.5 7.5t37.5 7t33 6.5t31 7.5t25.5 9t22 11.5t15.5 13.5t11 17.5t3 21q0 28 -15 46.5t-44.5 27t-60 11.5t-74.5 3q-55 0 -120 -18t-108 -44q-17 -10 -26 -10q-13 0 -21 14l-84 166 q-2 2 -2 10q0 15 4 19q58 60 158.5 90.5t220.5 30.5q226 0 338 -80q116 80 285 80q211 0 331.5 -103t120.5 -303v-104q0 -52 -31 -85.5t-81 -33.5h-453q-24 0 -36.5 -16t-12.5 -39v-17q0 -55 42 -93t120 -38q98 0 141 70q16 26 43 26h211q35 0 35 -26q0 -149 -119 -238.5 t-309 -89.5q-223 0 -342 109l-15 4q-18 0 -30 -12q-70 -60 -139 -79.5t-168 -19.5q-62 0 -121 16t-111.5 48t-84.5 90t-32 133zM399 297q0 -50 36.5 -77t82.5 -27q30 0 58 8t55.5 26t44 53.5t16.5 84.5v49q-2 12 -10 21t-20 9l-138 -32q-25 -6 -36 -9t-31.5 -12.5t-30.5 -20 t-18.5 -29.5t-8.5 -44zM983 649q0 -25 13.5 -38t33.5 -13h221q28 0 40 14t12 43q0 65 -44.5 103.5t-113.5 38.5q-67 0 -114.5 -44t-47.5 -104z" />
<glyph unicode="&#xe7;" horiz-adv-x="1126" d="M123 383v258q0 177 123.5 295.5t328.5 118.5q189 0 309 -90t120 -238q0 -25 -31 -25h-217q-34 0 -43 21q-17 40 -58 58t-82 18q-76 0 -118.5 -47t-42.5 -105v-270q0 -60 41.5 -108t117.5 -48q108 0 142 80q5 12 12 16.5t25 4.5h223q31 0 31 -25q0 -132 -97.5 -220.5 t-253.5 -107.5q-15 0 -18 -18l-12 -82q0 -9 6 -15t14 -6q82 0 128 -47t46 -133q0 -94 -57 -140t-142 -46h-153q-23 0 -23 24v86q0 21 23 21h135q12 0 24.5 3.5t25 17.5t12.5 36q0 32 -21 46t-45 14h-107q-22 0 -22 18l33 191q2 8 2 18q0 11 -13 14q-160 24 -263 136 t-103 276z" />
<glyph unicode="&#xe8;" d="M123 381v264q0 85 30.5 159.5t86.5 130.5t142 88t191 32q211 0 332 -103t121 -303v-104q0 -52 -31.5 -85.5t-81.5 -33.5h-452q-24 0 -36.5 -16t-12.5 -39v-17q0 -55 42 -93t119 -38q99 0 142 70q16 26 43 26h211q35 0 35 -26q0 -149 -119.5 -238.5t-309.5 -89.5 q-120 0 -208.5 30.5t-141 87t-77.5 131t-25 167.5zM293 1485q0 8 2 12q5 16 29 16h192q19 0 25 -14l108 -274q4 -12 4 -19q0 -14 -8.5 -22t-21.5 -8h-119q-16 0 -23 10l-180 276q-8 11 -8 23zM414 649q0 -25 13.5 -38t33.5 -13h221q28 0 39.5 14t11.5 43q0 65 -44.5 103.5 t-113.5 38.5q-67 0 -114 -44t-47 -104z" />
<glyph unicode="&#xe9;" d="M123 381v264q0 85 30.5 159.5t86.5 130.5t142 88t191 32q211 0 332 -103t121 -303v-104q0 -52 -31.5 -85.5t-81.5 -33.5h-452q-24 0 -36.5 -16t-12.5 -39v-17q0 -55 42 -93t119 -38q99 0 142 70q16 26 43 26h211q35 0 35 -26q0 -149 -119.5 -238.5t-309.5 -89.5 q-120 0 -208.5 30.5t-141 87t-77.5 131t-25 167.5zM414 649q0 -25 13.5 -38t33.5 -13h221q28 0 39.5 14t11.5 43q0 65 -44.5 103.5t-113.5 38.5q-67 0 -114 -44t-47 -104zM473 1206q0 7 4 19l109 274q6 14 24 14h193q23 0 28 -16q3 -6 3 -12q0 -11 -9 -23l-180 -276 q-7 -10 -22 -10h-119q-14 0 -22.5 8.5t-8.5 21.5z" />
<glyph unicode="&#xea;" d="M123 381v264q0 85 30.5 159.5t86.5 130.5t142 88t191 32q211 0 332 -103t121 -303v-104q0 -52 -31.5 -85.5t-81.5 -33.5h-452q-24 0 -36.5 -16t-12.5 -39v-17q0 -55 42 -93t119 -38q99 0 142 70q16 26 43 26h211q35 0 35 -26q0 -149 -119.5 -238.5t-309.5 -89.5 q-120 0 -208.5 30.5t-141 87t-77.5 131t-25 167.5zM279 1196q0 9 6 18l166 275q11 14 24 14h193q18 0 24 -14l172 -277q4 -4 4 -14q0 -33 -30 -33h-113q-19 0 -35 21l-96 123q-8 8 -21 8q-12 0 -20 -8l-94 -123q-17 -21 -41 -21h-109q-30 0 -30 31zM414 649q0 -25 13.5 -38 t33.5 -13h221q28 0 39.5 14t11.5 43q0 65 -44.5 103.5t-113.5 38.5q-67 0 -114 -44t-47 -104z" />
<glyph unicode="&#xeb;" d="M123 381v264q0 85 30.5 159.5t86.5 130.5t142 88t191 32q211 0 332 -103t121 -303v-104q0 -52 -31.5 -85.5t-81.5 -33.5h-452q-24 0 -36.5 -16t-12.5 -39v-17q0 -55 42 -93t119 -38q99 0 142 70q16 26 43 26h211q35 0 35 -26q0 -149 -119.5 -238.5t-309.5 -89.5 q-120 0 -208.5 30.5t-141 87t-77.5 131t-25 167.5zM244 1348q0 53 36.5 90t88.5 37q53 0 90 -37.5t37 -89.5t-37 -88.5t-90 -36.5t-89 36.5t-36 88.5zM414 649q0 -25 13.5 -38t33.5 -13h221q28 0 39.5 14t11.5 43q0 65 -44.5 103.5t-113.5 38.5q-67 0 -114 -44t-47 -104z M633 1348q0 53 36.5 90t88.5 37t89.5 -37.5t37.5 -89.5t-37 -88.5t-90 -36.5q-52 0 -88.5 36.5t-36.5 88.5z" />
<glyph unicode="&#xec;" horiz-adv-x="573" d="M51 1485q0 8 2 12q5 16 29 16h192q19 0 25 -14l109 -274q4 -12 4 -19q0 -13 -8.5 -21.5t-22.5 -8.5h-119q-15 0 -22 10l-181 276q-8 11 -8 23zM143 33v956q0 31 31 31h223q33 0 33 -33v-954q0 -33 -33 -33h-221q-33 0 -33 33z" />
<glyph unicode="&#xed;" horiz-adv-x="573" d="M143 33v956q0 31 31 31h223q33 0 33 -33v-954q0 -33 -33 -33h-221q-33 0 -33 33zM145 1206q0 4 5 19l108 274q6 14 25 14h192q24 0 29 -16q2 -4 2 -12q0 -12 -8 -23l-181 -276q-7 -10 -22 -10h-119q-14 0 -22.5 8.5t-8.5 21.5z" />
<glyph unicode="&#xee;" horiz-adv-x="575" d="M-8 1206q0 10 6 19l166 276q12 15 24 15h193q19 0 25 -15l172 -278q4 -4 4 -15q0 -32 -31 -32h-113q-20 0 -35 20l-96 123q-8 8 -20 8q-13 0 -21 -8l-94 -123q-16 -20 -41 -20h-108q-31 0 -31 30zM143 33v956q0 31 33 31h221q35 0 35 -33v-954q0 -33 -35 -33h-219 q-35 0 -35 33z" />
<glyph unicode="&#xef;" horiz-adv-x="573" d="M-35 1348q0 53 36.5 90t88.5 37t89.5 -37.5t37.5 -89.5t-37 -88.5t-90 -36.5q-52 0 -88.5 36.5t-36.5 88.5zM143 33v956q0 31 31 31h223q33 0 33 -33v-954q0 -33 -33 -33h-221q-33 0 -33 33zM354 1348q0 53 36.5 90t88.5 37q53 0 90 -37.5t37 -89.5t-37 -88.5t-90 -36.5 t-89 36.5t-36 88.5z" />
<glyph unicode="&#xf0;" d="M123 379v264q0 181 120.5 296.5t313.5 115.5q12 0 12 14q0 6 -6 18q-50 60 -92 99l-141 -115q-10 -10 -17 -10q-2 -2 -8 -2q-14 0 -22 14l-82 82q-11 7 -11 25q0 12 13 20l121 98q-46 29 -138 72q-16 8 -16 39l102 176q7 14 25 14q10 0 42.5 -12t90.5 -41.5t115 -66.5 l137 110q5 7 20 10q14 0 23 -12l82 -88q7 -8 10 -20q0 -14 -12 -23l-111 -90q332 -301 332 -709v-280q0 -184 -122 -298t-326 -114q-123 0 -213 31.5t-142 89.5t-76 130.5t-24 162.5zM412 401q0 -80 38.5 -129t120.5 -49q84 0 125 49.5t41 130.5v213q0 80 -39 130.5 t-120 50.5q-83 0 -124.5 -51t-41.5 -132v-213z" />
<glyph unicode="&#xf1;" horiz-adv-x="1150" d="M143 33v956q0 31 33 31h139q31 0 31 -27q0 -24 23 -24q11 0 30 14q45 33 110 52.5t124 19.5q200 0 287.5 -103.5t87.5 -296.5v-622q0 -15 -9 -24t-24 -9h-223q-14 0 -23.5 10t-9.5 23v614q0 63 -33.5 106.5t-105.5 43.5t-110 -42.5t-38 -103.5v-618q0 -15 -9 -24t-24 -9 h-223q-15 0 -24 9t-9 24zM256 1241q0 106 55 171t154 65q44 0 91 -21t87 -42t68 -21q34 0 53.5 12t19.5 51q0 23 31 23h64q30 0 30 -29q0 -107 -46 -172.5t-142 -65.5q-34 0 -70 15t-62 32.5t-58 32.5t-58 15q-86 0 -86 -72q0 -25 -29 -25h-73q-29 0 -29 31z" />
<glyph unicode="&#xf2;" d="M123 375v268q0 176 119 294t331 118q233 0 343 -112t110 -302v-268q0 -175 -119 -291.5t-332 -116.5q-233 0 -342.5 110t-109.5 300zM334 1485q0 8 2 12q5 16 29 16h192q19 0 25 -14l108 -274q4 -12 4 -19q0 -14 -8 -22t-22 -8h-119q-16 0 -23 10l-180 276q-8 11 -8 23z M412 401q0 -80 38.5 -129t120.5 -49q84 0 125 49.5t41 130.5v213q0 80 -39 130.5t-120 50.5q-83 0 -124.5 -51t-41.5 -132v-213z" />
<glyph unicode="&#xf3;" d="M123 375v268q0 176 119 294t331 118q233 0 343 -112t110 -302v-268q0 -175 -119 -291.5t-332 -116.5q-233 0 -342.5 110t-109.5 300zM412 401q0 -80 38.5 -129t120.5 -49q84 0 125 49.5t41 130.5v213q0 80 -39 130.5t-120 50.5q-83 0 -124.5 -51t-41.5 -132v-213z M477 1206q0 7 4 19l109 274q6 14 24 14h193q24 0 29 -16q2 -4 2 -12q0 -11 -9 -23l-180 -276q-7 -10 -22 -10h-119q-14 0 -22.5 8.5t-8.5 21.5z" />
<glyph unicode="&#xf4;" d="M123 375v268q0 176 119 294t331 118q233 0 343 -112t110 -302v-268q0 -175 -119 -291.5t-332 -116.5q-233 0 -342.5 110t-109.5 300zM303 1206q0 10 6 19l152 276q12 15 24 15h193q18 0 24 -15l158 -278q4 -4 4 -15q0 -32 -30 -32h-105q-8 0 -12 2l-113 141q-8 8 -20 8 q-13 0 -21 -8l-110 -141q-4 -2 -13 -2h-106q-31 0 -31 30zM412 401q0 -80 38.5 -129t120.5 -49q84 0 125 49.5t41 130.5v213q0 80 -39 130.5t-120 50.5q-83 0 -124.5 -51t-41.5 -132v-213z" />
<glyph unicode="&#xf5;" d="M123 375v268q0 176 119 294t331 118q233 0 343 -112t110 -302v-268q0 -175 -119 -291.5t-332 -116.5q-233 0 -342.5 110t-109.5 300zM246 1241q0 106 55 171t154 65q44 0 90.5 -21t86.5 -42t68 -21q22 0 36.5 3.5t26 18t11.5 41.5q0 23 31 23h63q31 0 31 -29 q0 -107 -46 -172.5t-142 -65.5q-34 0 -70 15t-62 32.5t-58 32.5t-58 15q-86 0 -86 -72q0 -25 -29 -25h-74q-28 0 -28 31zM412 401q0 -80 38.5 -129t120.5 -49q84 0 125 49.5t41 130.5v213q0 80 -39 130.5t-120 50.5q-83 0 -124.5 -51t-41.5 -132v-213z" />
<glyph unicode="&#xf6;" d="M123 375v268q0 176 119 294t331 118q233 0 343 -112t110 -302v-268q0 -175 -119 -291.5t-332 -116.5q-233 0 -342.5 110t-109.5 300zM250 1348q0 53 36.5 90t88.5 37q53 0 90 -37.5t37 -89.5t-37 -88.5t-90 -36.5t-89 36.5t-36 88.5zM412 401q0 -80 38.5 -129t120.5 -49 q84 0 125 49.5t41 130.5v213q0 80 -39 130.5t-120 50.5q-83 0 -124.5 -51t-41.5 -132v-213zM639 1348q0 53 36.5 90t88.5 37t89.5 -37.5t37.5 -89.5t-37 -88.5t-90 -36.5q-52 0 -88.5 36.5t-36.5 88.5z" />
<glyph unicode="&#xf7;" horiz-adv-x="1280" d="M147 596v203q0 32 31 32h930q33 0 33 -32v-203q0 -31 -33 -31h-930q-31 0 -31 31zM481 244q0 71 51 121.5t123 50.5t123 -50.5t51 -121.5q0 -72 -51 -123t-123 -51t-123 51t-51 123zM481 1145q0 71 51 121.5t123 50.5t123 -50.5t51 -121.5q0 -72 -51 -123t-123 -51 t-123 51t-51 123z" />
<glyph unicode="&#xf8;" d="M123 375v268q0 176 119 294t331 118q51 0 119 -11l45 134q7 22 27 22t56 -16t36 -33l-47 -139q217 -93 217 -371v-268q0 -175 -119 -291.5t-332 -116.5q-42 0 -116 8l-45 -137q-6 -22 -29 -22q-24 0 -58 11.5t-34 29.5l49 149q-219 93 -219 371zM412 401q0 -67 26 -112 l170 506q-5 0 -15 1t-15 1q-83 0 -124.5 -51t-41.5 -132v-213zM545 223h26q84 0 125 49.5t41 130.5v213q0 64 -24 107z" />
<glyph unicode="&#xf9;" horiz-adv-x="1138" d="M143 344v643q0 15 9 24t24 9h219q13 0 23 -10t10 -23v-614q0 -63 33.5 -106.5t105.5 -43.5q71 0 105.5 42t34.5 104v618q0 33 32 33h224q32 0 32 -33v-956q0 -31 -32 -31h-140q-13 0 -20 4t-8.5 9.5t-1.5 13.5q0 24 -23 24q-12 0 -31 -14q-98 -72 -204 -72 q-182 0 -287 99.5t-105 279.5zM309 1485q0 8 2 12q5 16 29 16h192q19 0 25 -14l109 -274q4 -12 4 -19q0 -13 -8.5 -21.5t-22.5 -8.5h-119q-15 0 -22 10l-181 276q-8 11 -8 23z" />
<glyph unicode="&#xfa;" horiz-adv-x="1138" d="M143 344v643q0 15 9 24t24 9h219q13 0 23 -10t10 -23v-614q0 -63 33.5 -106.5t105.5 -43.5q71 0 105.5 42t34.5 104v618q0 33 32 33h224q32 0 32 -33v-956q0 -31 -32 -31h-140q-13 0 -20 4t-8.5 9.5t-1.5 13.5q0 24 -23 24q-12 0 -31 -14q-98 -72 -204 -72 q-182 0 -287 99.5t-105 279.5zM473 1206q0 7 4 19l109 274q6 14 24 14h193q23 0 28 -16q3 -6 3 -12q0 -11 -9 -23l-180 -276q-7 -10 -22 -10h-119q-14 0 -22.5 8.5t-8.5 21.5z" />
<glyph unicode="&#xfb;" horiz-adv-x="1138" d="M143 344v643q0 15 9 24t24 9h219q13 0 23 -10t10 -23v-614q0 -63 33.5 -106.5t105.5 -43.5q71 0 105.5 42t34.5 104v618q0 33 32 33h224q32 0 32 -33v-956q0 -31 -32 -31h-140q-13 0 -20 4t-8.5 9.5t-1.5 13.5q0 24 -23 24q-12 0 -31 -14q-98 -72 -204 -72 q-182 0 -287 99.5t-105 279.5zM274 1206q0 8 7 19l165 276q12 15 25 15h193q18 0 24 -15l172 -278q4 -4 4 -15q0 -32 -30 -32h-113q-20 0 -35 20l-96 123q-8 8 -21 8q-12 0 -20 -8l-94 -123q-16 -20 -41 -20h-109q-31 0 -31 30z" />
<glyph unicode="&#xfc;" horiz-adv-x="1138" d="M143 344v643q0 15 9 24t24 9h219q13 0 23 -10t10 -23v-614q0 -63 33.5 -106.5t105.5 -43.5q71 0 105.5 42t34.5 104v618q0 33 32 33h224q32 0 32 -33v-956q0 -31 -32 -31h-140q-13 0 -20 4t-8.5 9.5t-1.5 13.5q0 24 -23 24q-12 0 -31 -14q-98 -72 -204 -72 q-182 0 -287 99.5t-105 279.5zM254 1348q0 53 36.5 90t88.5 37q53 0 90 -37.5t37 -89.5t-37 -88.5t-90 -36.5t-89 36.5t-36 88.5zM643 1348q0 53 36.5 90t88.5 37t89.5 -37.5t37.5 -89.5t-37 -88.5t-90 -36.5q-52 0 -88.5 36.5t-36.5 88.5z" />
<glyph unicode="&#xfd;" horiz-adv-x="1001" d="M61 991q0 12 8 20.5t19 8.5h238q16 0 22 -14l127 -416q7 -17 29 -17q20 0 28 19l125 414q6 14 29 14h227q12 0 19.5 -9t7.5 -20q0 -8 -2 -12l-391 -1196q-24 -76 -54 -128t-77.5 -93t-117 -60.5t-165.5 -19.5q-31 0 -31 31v188q0 33 31 33q55 0 92.5 40.5t53.5 102.5 l67 236l-280 862q-5 15 -5 16zM410 1206q0 7 4 19l108 274q6 14 25 14h192q24 0 29 -16q2 -4 2 -12q0 -12 -8 -23l-180 -276q-7 -10 -23 -10h-119q-14 0 -22 8t-8 22z" />
<glyph unicode="&#xfe;" horiz-adv-x="1169" d="M143 -459v1987q0 15 9 24t24 9h225q31 0 31 -33v-481q0 -20 23 -23q16 0 34 6q67 25 123 25q213 0 324 -108.5t111 -305.5v-266q0 -182 -122 -296t-323 -114q-94 0 -143 12q-29 0 -29 -34v-402q0 -33 -33 -33h-221q-33 0 -33 33zM432 406q0 -82 38.5 -132.5t121.5 -50.5 t124.5 49t41.5 131v213q0 83 -40 132t-124 49q-82 0 -122 -50t-40 -129v-212z" />
<glyph unicode="&#xff;" horiz-adv-x="1001" d="M61 991q0 12 8 20.5t19 8.5h238q16 0 22 -14l127 -416q7 -17 29 -17q20 0 28 19l125 414q6 14 29 14h227q12 0 19.5 -9t7.5 -20q0 -8 -2 -12l-391 -1196q-24 -76 -54 -128t-77.5 -93t-117 -60.5t-165.5 -19.5q-31 0 -31 31v188q0 33 31 33q55 0 92.5 40.5t53.5 102.5 l67 236l-280 862q-5 15 -5 16zM164 1348q0 53 36.5 90t88.5 37q53 0 90 -37.5t37 -89.5t-37 -88.5t-90 -36.5t-89 36.5t-36 88.5zM553 1348q0 53 36.5 90t88.5 37t89.5 -37.5t37.5 -89.5t-37 -88.5t-90 -36.5q-52 0 -88.5 36.5t-36.5 88.5z" />
<glyph unicode="&#x152;" horiz-adv-x="1632" d="M143 389v631q0 87 27.5 163.5t82 139t147.5 99t214 36.5q124 0 217 -35h646q32 0 32 -30v-170q0 -33 -32 -33h-359q-31 0 -31 -31v-311q1 -11 10.5 -17t18.5 -6h307q31 0 31 -32v-170q0 -31 -31 -31h-305q-28 0 -31 -25v-301q0 -30 31 -30h359q32 0 32 -31v-172 q0 -33 -32 -33h-656q-94 -33 -205 -33q-121 0 -214 34t-148.5 93t-83 133.5t-27.5 161.5zM432 393q0 -80 43.5 -136t140.5 -56q49 0 86 17t57.5 46t30 62.5t9.5 70.5v635q0 80 -44 136.5t-141 56.5q-65 0 -107.5 -30.5t-58.5 -73t-16 -93.5v-635z" />
<glyph unicode="&#x153;" horiz-adv-x="1763" d="M123 375v268q0 176 119 294t331 118q202 0 316 -90q120 90 299 90q211 0 331.5 -103t120.5 -303v-104q0 -52 -31 -85.5t-81 -33.5h-453q-45 0 -49 -55v-17q0 -55 42 -93t120 -38q98 0 141 70q16 26 43 26h211q35 0 35 -26q0 -149 -119 -238.5t-309 -89.5q-203 0 -318 88 q-118 -88 -297 -88q-233 0 -342.5 110t-109.5 300zM412 401q0 -80 38.5 -129t120.5 -49q84 0 125 49.5t41 130.5v213q0 80 -39 130.5t-120 50.5q-83 0 -124.5 -51t-41.5 -132v-213zM1028 649q0 -25 13.5 -38t33.5 -13h221q28 0 40 14t12 43q0 65 -44.5 103.5t-113.5 38.5 q-67 0 -114.5 -44t-47.5 -104z" />
<glyph unicode="&#x178;" horiz-adv-x="1087" d="M61 1399q0 24 33 24h242q20 0 26 -16l158 -418q7 -14 25 -14q20 0 26 16l152 416q6 16 29 16h243q19 0 29 -16q0 -2 1 -6.5t1 -7.5q0 -7 -4 -19l-330 -794q-4 -10 -4 -21v-526q0 -33 -31 -33h-223q-33 0 -33 33v526q0 9 -4 19l-329 796q-7 18 -7 25zM217 1688 q0 53 36.5 90t88.5 37t89.5 -37.5t37.5 -89.5t-37 -88.5t-90 -36.5q-52 0 -88.5 36.5t-36.5 88.5zM606 1688q0 53 36.5 90t88.5 37q53 0 90 -37.5t37 -89.5t-37 -88.5t-90 -36.5t-89 36.5t-36 88.5z" />
<glyph unicode="&#x2c6;" horiz-adv-x="724" d="M82 1114q0 10 6 19l152 276q11 14 24 14h193q18 0 24 -14l158 -279q4 -4 4 -14q0 -33 -31 -33h-104q-8 0 -12 2l-113 142q-8 8 -21 8q-12 0 -20 -8l-111 -142q-4 -2 -12 -2h-106q-31 0 -31 31z" />
<glyph unicode="&#x2dc;" horiz-adv-x="817" d="M82 1223q0 105 55 170t154 65q44 0 91 -21t87 -42t68 -21q22 0 36 3t25.5 17.5t11.5 41.5q0 22 31 22h64q30 0 30 -28q0 -107 -46 -171.5t-142 -64.5q-42 0 -87.5 23.5t-87 47t-73.5 23.5q-86 0 -86 -71q0 -25 -29 -25h-73q-29 0 -29 31z" />
<glyph unicode="&#x2000;" horiz-adv-x="920" />
<glyph unicode="&#x2001;" horiz-adv-x="1841" />
<glyph unicode="&#x2002;" horiz-adv-x="920" />
<glyph unicode="&#x2003;" horiz-adv-x="1841" />
<glyph unicode="&#x2004;" horiz-adv-x="613" />
<glyph unicode="&#x2005;" horiz-adv-x="460" />
<glyph unicode="&#x2006;" horiz-adv-x="306" />
<glyph unicode="&#x2007;" horiz-adv-x="306" />
<glyph unicode="&#x2008;" horiz-adv-x="230" />
<glyph unicode="&#x2009;" horiz-adv-x="368" />
<glyph unicode="&#x200a;" horiz-adv-x="102" />
<glyph unicode="&#x2010;" horiz-adv-x="827" d="M143 438v168q0 33 33 33h477q31 0 31 -33v-168q0 -32 -31 -32h-479q-31 0 -31 32z" />
<glyph unicode="&#x2011;" horiz-adv-x="827" d="M143 438v168q0 33 33 33h477q31 0 31 -33v-168q0 -32 -31 -32h-479q-31 0 -31 32z" />
<glyph unicode="&#x2012;" horiz-adv-x="827" d="M143 438v168q0 33 33 33h477q31 0 31 -33v-168q0 -32 -31 -32h-479q-31 0 -31 32z" />
<glyph unicode="&#x2013;" horiz-adv-x="1239" d="M82 438v168q0 33 33 33h1011q31 0 31 -33v-168q0 -32 -31 -32h-1013q-31 0 -31 32z" />
<glyph unicode="&#x2014;" horiz-adv-x="1710" d="M0 438v168q0 33 33 33h1644q33 0 33 -31v-170q0 -32 -31 -32h-1646q-33 0 -33 32z" />
<glyph unicode="&#x2018;" horiz-adv-x="532" d="M102 1126q0 119 50 242q34 86 84.5 139.5t107.5 53.5q17 0 39 -11q47 -27 47 -61q0 -10 -4.5 -25t-10 -28.5t-16 -38.5t-16.5 -41q-21 -58 -21 -96q68 -46 68 -134q0 -67 -48 -115t-116 -48t-116 48t-48 115z" />
<glyph unicode="&#x2019;" horiz-adv-x="532" d="M102 1034q0 12 6 30t20.5 52t21.5 51q20 55 20 97q-68 46 -68 133q0 67 48 115.5t116 48.5t116 -48.5t48 -115.5q0 -122 -49 -242q-34 -86 -84.5 -139t-108.5 -53q-18 0 -38 10q-48 27 -48 61z" />
<glyph unicode="&#x201a;" horiz-adv-x="593" d="M123 -248q0 12 7.5 33.5t22.5 57t23 57.5q21 69 21 100q-72 50 -72 141q0 71 51 121.5t123 50.5q71 0 121.5 -50.5t50.5 -121.5q0 -132 -51 -256q-35 -90 -88.5 -146t-114.5 -56q-21 0 -41 10q-53 27 -53 59z" />
<glyph unicode="&#x201c;" horiz-adv-x="962" d="M102 1126q0 119 50 242q34 86 84.5 139.5t107.5 53.5q17 0 39 -11q47 -27 47 -61q0 -10 -4.5 -25t-10 -28.5t-16 -38.5t-16.5 -41q-21 -58 -21 -96q68 -46 68 -134q0 -67 -48 -115t-116 -48t-116 48t-48 115zM532 1126q0 119 50 242q34 86 84.5 139.5t107.5 53.5 q17 0 39 -11q47 -27 47 -61q0 -10 -4.5 -25t-10 -28.5t-16 -38.5t-16.5 -41q-20 -55 -20 -96q67 -45 67 -134q0 -67 -48 -115t-116 -48t-116 48t-48 115z" />
<glyph unicode="&#x201d;" horiz-adv-x="962" d="M102 1034q0 12 6 30t20.5 52t21.5 51q20 55 20 97q-68 46 -68 133q0 67 48 115.5t116 48.5t116 -48.5t48 -115.5q0 -122 -49 -242q-34 -86 -84.5 -139t-108.5 -53q-18 0 -38 10q-48 27 -48 61zM532 1034q0 12 6 30t20.5 52t21.5 51q20 55 20 97q-68 46 -68 133 q0 67 48 115.5t116 48.5t116 -48.5t48 -115.5q0 -122 -49 -242q-34 -86 -84.5 -139t-108.5 -53q-18 0 -38 10q-48 27 -48 61z" />
<glyph unicode="&#x201e;" horiz-adv-x="1044" d="M123 -248q0 12 7.5 33.5t22.5 57t23 57.5q21 69 21 100q-72 50 -72 141q0 71 51 121.5t123 50.5q71 0 121.5 -50.5t50.5 -121.5q0 -132 -51 -256q-35 -90 -88.5 -146t-114.5 -56q-21 0 -41 10q-53 27 -53 59zM573 -248q0 12 8 33.5t23 57t23 57.5q20 66 20 100 q-72 50 -72 141q0 71 51.5 121.5t123.5 50.5q70 0 121 -50.5t51 -121.5q0 -130 -52 -256q-35 -91 -88 -146.5t-114 -55.5q-21 0 -41 10q-54 27 -54 59z" />
<glyph unicode="&#x2022;" horiz-adv-x="638" d="M123 702q0 83 56.5 140t139.5 57t140 -57t57 -140q0 -85 -56 -140.5t-141 -55.5t-140.5 55.5t-55.5 140.5z" />
<glyph unicode="&#x2026;" horiz-adv-x="1859" d="M123 139q0 71 51 121.5t123 50.5q71 0 121.5 -50.5t50.5 -121.5q0 -72 -50.5 -123t-121.5 -51q-72 0 -123 51t-51 123zM756 139q0 72 50.5 123t121.5 51q72 0 123 -51t51 -123q0 -71 -51 -121.5t-123 -50.5q-70 0 -121 50.5t-51 121.5zM1391 139q0 72 50.5 123t121.5 51 q72 0 123 -51t51 -123q0 -71 -51 -121.5t-123 -50.5q-71 0 -121.5 50.5t-50.5 121.5z" />
<glyph unicode="&#x202f;" horiz-adv-x="368" />
<glyph unicode="&#x2039;" horiz-adv-x="765" d="M123 516q0 18 8 29l215 368q8 17 27 17h239q31 0 31 -31q0 -8 -4 -16l-203 -351q-4 -10 -4 -14t4 -16l203 -352q2 -6 2 -15q0 -33 -31 -33h-237q-21 0 -29 17l-211 366q-10 20 -10 31z" />
<glyph unicode="&#x203a;" horiz-adv-x="765" d="M123 899q0 31 31 31h239q19 0 27 -17l215 -368q8 -11 8 -29q0 -11 -10 -31l-211 -366q-8 -17 -29 -17h-237q-31 0 -31 33q0 9 2 15l203 352q4 12 4 16l-4 14l-203 351q-4 8 -4 16z" />
<glyph unicode="&#x205f;" horiz-adv-x="460" />
<glyph unicode="&#x20ac;" horiz-adv-x="1257" d="M41 543l14 90q6 33 45 33h152v110h-117q-13 0 -23 8.5t-10 24.5l15 90q6 33 45 33h90v117q0 198 114.5 303.5t335.5 105.5q220 0 336.5 -110t116.5 -299q0 -31 -31 -31h-227q-31 0 -31 26q0 181 -157 181q-168 0 -168 -197v-96h467q30 0 30 -35l-20 -88 q-3 -16 -18.5 -24.5t-34.5 -8.5h-424v-110h405q31 0 31 -35l-21 -88q-3 -16 -18.5 -24.5t-34.5 -8.5h-362v-113q0 -196 168 -196q157 0 157 180q0 27 31 27h227q31 0 31 -31q0 -189 -117 -299.5t-336 -110.5q-221 0 -335.5 106t-114.5 304v133h-178q-13 0 -23 8.5t-10 24.5z " />
<glyph unicode="&#x2122;" horiz-adv-x="1581" d="M102 1282v131q0 14 15 14h514q14 0 14 -14v-131q0 -14 -14 -14h-142q-14 0 -14 -15v-448q0 -17 -14 -17h-172q-15 0 -15 17v448q0 15 -14 15h-143q-15 0 -15 14zM770 805v610q0 12 14 12h131q9 0 13 -8l184 -340q6 -6 12 -6q10 0 13 6l172 340q3 8 12 8h145q13 0 13 -12 v-610q0 -17 -15 -17h-137q-14 0 -14 17v184q0 15 -15 15q-8 0 -12 -7l-92 -200q0 -2 -3.5 -5.5t-6.5 -3.5h-103q-7 0 -12 11l-94 196q-3 6 -12 6q-13 0 -13 -14v-182q0 -17 -14 -17h-152q-14 0 -14 17z" />
<glyph unicode="&#x25fc;" horiz-adv-x="1024" d="M0 0v1024h1024v-1024h-1024z" />
</font>
</defs>
</svg>
