<?xml version="1.0" encoding="UTF-8"?>
<svg width="24px" height="22px" viewBox="0 0 24 22" version="1.1" xmlns="http://www.w3.org/2000/svg" xmlns:xlink="http://www.w3.org/1999/xlink">
    <g id="Page-1" stroke="none" stroke-width="1" fill="none" fill-rule="evenodd">
        <g id="favorite-false" fill-rule="nonzero" fill="white">
            <path d="M13.0386151,20.8219726 L12.9040261,20.9350944 C12.6211963,21.1331497 12.3588301,21.2446972 11.9980813,21.2446972 C11.6132404,21.2446972 11.2276816,21.0922097 10.9575475,20.8219726 L3.34941589,13.1895079 C-0.494399029,9.34424701 -1.06833764,4.91656464 1.82708606,2.04662894 C4.53551339,-0.650273515 8.93417624,-0.650273515 11.6317027,2.04826765 C11.7590985,2.17571145 11.8811874,2.30717503 11.9979508,2.44245074 C12.113494,2.308583 12.2340705,2.17873137 12.3595798,2.05318363 C15.0576613,-0.683574661 19.4613678,-0.683574661 22.1921828,2.04826765 C25.0663528,4.92351884 24.4858536,9.34861925 20.6472524,13.189002 L13.0386151,20.8219726 Z M19.2320701,11.776291 C22.360678,8.6465047 22.7783876,5.46312007 20.7785011,3.46248121 C18.830079,1.51332614 15.6997844,1.51332614 13.7781417,3.46248121 C13.4183521,3.82240616 13.1166895,4.22628695 12.8727863,4.66735475 L11.9980813,6.24914705 L11.1233763,4.66735475 C10.8794731,4.22628695 10.5778105,3.82240616 10.2180209,3.46248121 C8.30070332,1.54444239 5.16536506,1.54444239 3.23586112,3.46573223 C1.22052128,5.46333388 1.63279067,8.64380979 4.76409251,11.776291 L11.9980806,19.0334155 L19.2320701,11.776291 Z" id="heart"></path>
        </g>
    </g>
</svg>